G04 #@! TF.FileFunction,Legend,Bot*
%FSLAX46Y46*%
G04 Gerber Fmt 4.6, Leading zero omitted, Abs format (unit mm)*
G04 Created by KiCad (PCBNEW 4.0.7+dfsg1-1~bpo9+1) date Thu Mar 15 23:06:16 2018*
%MOMM*%
%LPD*%
G01*
G04 APERTURE LIST*
%ADD10C,0.100000*%
%ADD11C,0.200000*%
%ADD12C,0.150000*%
G04 APERTURE END LIST*
D10*
D11*
X136525000Y-66141600D02*
X136677400Y-66141600D01*
X139725400Y-66141600D02*
X136525000Y-66141600D01*
X139725400Y-62560200D02*
X139725400Y-66141600D01*
X136626600Y-62560200D02*
X139725400Y-62560200D01*
X136626600Y-65887600D02*
X136626600Y-62560200D01*
D10*
X133104000Y-68572000D02*
X141224000Y-68572000D01*
X147224000Y-52332000D02*
X149344000Y-52332000D01*
X149344000Y-52332000D02*
X149344000Y-52502000D01*
X133104000Y-52332000D02*
X135224000Y-52332000D01*
X133104000Y-52332000D02*
X133104000Y-52502000D01*
X147224000Y-68572000D02*
X149344000Y-68572000D01*
X149344000Y-68572000D02*
X149344000Y-68402000D01*
D12*
X134985905Y-69404381D02*
X134985905Y-70213905D01*
X134938286Y-70309143D01*
X134890667Y-70356762D01*
X134795429Y-70404381D01*
X134604952Y-70404381D01*
X134509714Y-70356762D01*
X134462095Y-70309143D01*
X134414476Y-70213905D01*
X134414476Y-69404381D01*
X133985905Y-69499619D02*
X133938286Y-69452000D01*
X133843048Y-69404381D01*
X133604952Y-69404381D01*
X133509714Y-69452000D01*
X133462095Y-69499619D01*
X133414476Y-69594857D01*
X133414476Y-69690095D01*
X133462095Y-69832952D01*
X134033524Y-70404381D01*
X133414476Y-70404381D01*
M02*
