G04 #@! TF.FileFunction,Copper,L1,Top,Signal*
%FSLAX46Y46*%
G04 Gerber Fmt 4.6, Leading zero omitted, Abs format (unit mm)*
G04 Created by KiCad (PCBNEW 4.0.7+dfsg1-1~bpo9+1) date Thu Mar 15 23:06:16 2018*
%MOMM*%
%LPD*%
G01*
G04 APERTURE LIST*
%ADD10C,0.100000*%
%ADD11C,0.600000*%
%ADD12C,6.096000*%
%ADD13R,1.500000X0.970000*%
%ADD14R,0.970000X1.500000*%
%ADD15R,1.800000X0.800000*%
%ADD16R,1.700000X1.700000*%
%ADD17O,1.700000X1.700000*%
%ADD18C,1.700000*%
%ADD19R,2.600000X2.600000*%
%ADD20C,2.600000*%
%ADD21R,1.200000X1.500000*%
%ADD22R,3.000000X1.600000*%
%ADD23R,6.200000X5.800000*%
%ADD24R,0.850000X0.280000*%
%ADD25R,0.280000X0.850000*%
%ADD26R,1.650000X1.650000*%
%ADD27R,1.800000X2.500000*%
%ADD28C,0.685800*%
%ADD29C,0.889000*%
%ADD30C,0.203200*%
%ADD31C,0.254000*%
%ADD32C,0.508000*%
%ADD33C,1.000000*%
G04 APERTURE END LIST*
D10*
D11*
X112776000Y-42494200D03*
X120954800Y-60477400D03*
X117144800Y-56159400D03*
X128524000Y-58674000D03*
X130810000Y-52324000D03*
X130302000Y-50546000D03*
X127762000Y-51054000D03*
X124714000Y-45466000D03*
X117602000Y-45466000D03*
X119888000Y-45466000D03*
X115570000Y-45720000D03*
X112395000Y-45720000D03*
X111125000Y-46355000D03*
X108381800Y-48234600D03*
X111125000Y-50165000D03*
X115722400Y-53162200D03*
D12*
X103200200Y-38760400D03*
D11*
X147243800Y-60147200D03*
X146942000Y-51152000D03*
X151790400Y-51663600D03*
X153568400Y-51663600D03*
X154838400Y-52425600D03*
X154838400Y-53949600D03*
X138353800Y-48260000D03*
X140665200Y-52730400D03*
X143687800Y-49225200D03*
X152349200Y-71526400D03*
X152044400Y-68199000D03*
X138480800Y-43484800D03*
X130810000Y-60604400D03*
X130911600Y-54457600D03*
X141430200Y-56130400D03*
X143563800Y-58340200D03*
X154990800Y-60731400D03*
X155346400Y-57785000D03*
X149072600Y-45186600D03*
X141960600Y-43840400D03*
X122682000Y-45466000D03*
X100863400Y-58420000D03*
X101092000Y-46761400D03*
X108458000Y-38354000D03*
X115646200Y-51435000D03*
X111125000Y-48260000D03*
X108407200Y-53060600D03*
X108407200Y-58928000D03*
X114604800Y-58445400D03*
X128397000Y-64211200D03*
X122682000Y-58674000D03*
X125730000Y-58674000D03*
X125476000Y-51054000D03*
X122936000Y-55880000D03*
X128524000Y-45466000D03*
X128524000Y-48768000D03*
X135636000Y-51308000D03*
X130048000Y-38608000D03*
X134620000Y-37592000D03*
X144780000Y-39116000D03*
X148844000Y-37592000D03*
X161544000Y-38100000D03*
X156188000Y-46730000D03*
X161544000Y-44196000D03*
X168638000Y-40980000D03*
X147450000Y-54200000D03*
X154711400Y-48285400D03*
X152044400Y-55473600D03*
X153492200Y-55473600D03*
X154838400Y-55473600D03*
X164338000Y-55880000D03*
X162814000Y-65532000D03*
X170434000Y-72390000D03*
X158750000Y-74676000D03*
X160274000Y-68834000D03*
X155956000Y-68834000D03*
X145034000Y-64262000D03*
X130175000Y-72390000D03*
X123190000Y-72390000D03*
X134112000Y-70612000D03*
X135890000Y-68580000D03*
X140970000Y-64770000D03*
X138430000Y-60452000D03*
X146304000Y-70612000D03*
X143764000Y-70104000D03*
X147320000Y-76835000D03*
X146685000Y-74930000D03*
X144780000Y-73025000D03*
X140970000Y-71120000D03*
X138430000Y-71120000D03*
X102870000Y-65405000D03*
X111252000Y-71628000D03*
X114604800Y-69621400D03*
X101600000Y-76200000D03*
X109855000Y-76200000D03*
X123190000Y-76200000D03*
D13*
X164592000Y-47813000D03*
X164592000Y-49723000D03*
X120904000Y-49215000D03*
X120904000Y-47305000D03*
X113792000Y-54417000D03*
X113792000Y-56327000D03*
X113792000Y-49215000D03*
X113792000Y-47305000D03*
X117348000Y-49215000D03*
X117348000Y-47305000D03*
D14*
X118811000Y-59436000D03*
X116901000Y-59436000D03*
D10*
G36*
X150138564Y-50017904D02*
X149077904Y-51078564D01*
X148392010Y-50392670D01*
X149452670Y-49332010D01*
X150138564Y-50017904D01*
X150138564Y-50017904D01*
G37*
G36*
X148787990Y-48667330D02*
X147727330Y-49727990D01*
X147041436Y-49042096D01*
X148102096Y-47981436D01*
X148787990Y-48667330D01*
X148787990Y-48667330D01*
G37*
G36*
X145771436Y-42692096D02*
X146832096Y-41631436D01*
X147517990Y-42317330D01*
X146457330Y-43377990D01*
X145771436Y-42692096D01*
X145771436Y-42692096D01*
G37*
G36*
X147122010Y-44042670D02*
X148182670Y-42982010D01*
X148868564Y-43667904D01*
X147807904Y-44728564D01*
X147122010Y-44042670D01*
X147122010Y-44042670D01*
G37*
G36*
X134136564Y-42651904D02*
X133075904Y-43712564D01*
X132390010Y-43026670D01*
X133450670Y-41966010D01*
X134136564Y-42651904D01*
X134136564Y-42651904D01*
G37*
G36*
X132785990Y-41301330D02*
X131725330Y-42361990D01*
X131039436Y-41676096D01*
X132100096Y-40615436D01*
X132785990Y-41301330D01*
X132785990Y-41301330D01*
G37*
D15*
X161162000Y-58354000D03*
X161162000Y-56454000D03*
X157862000Y-57404000D03*
X161162000Y-63942000D03*
X161162000Y-62042000D03*
X157862000Y-62992000D03*
D16*
X168656000Y-61468000D03*
D17*
X168656000Y-58928000D03*
X168656000Y-56388000D03*
X168656000Y-53848000D03*
X168656000Y-51308000D03*
X168656000Y-48768000D03*
D18*
X152298400Y-53365400D03*
D16*
X116840000Y-38100000D03*
D17*
X119380000Y-38100000D03*
X121920000Y-38100000D03*
X124460000Y-38100000D03*
D16*
X149860000Y-76200000D03*
D17*
X149860000Y-73660000D03*
X152400000Y-76200000D03*
X152400000Y-73660000D03*
X154940000Y-76200000D03*
X154940000Y-73660000D03*
D19*
X165100000Y-43180000D03*
D20*
X165100000Y-38180000D03*
D19*
X104394000Y-56134000D03*
D20*
X104394000Y-61134000D03*
D16*
X162560000Y-76200000D03*
D17*
X162560000Y-73660000D03*
X165100000Y-76200000D03*
X165100000Y-73660000D03*
X167640000Y-76200000D03*
X167640000Y-73660000D03*
D16*
X116840000Y-40640000D03*
D17*
X119380000Y-40640000D03*
X121920000Y-40640000D03*
X124460000Y-40640000D03*
D19*
X104394000Y-44704000D03*
D20*
X104394000Y-49704000D03*
D16*
X134620000Y-76200000D03*
D17*
X134620000Y-73660000D03*
X137160000Y-76200000D03*
X137160000Y-73660000D03*
X139700000Y-76200000D03*
X139700000Y-73660000D03*
X142240000Y-76200000D03*
X142240000Y-73660000D03*
D21*
X127000000Y-53514000D03*
X127000000Y-56214000D03*
D22*
X125516000Y-69112400D03*
X125516000Y-64542400D03*
D23*
X119836000Y-66827400D03*
D10*
G36*
X157455436Y-48280096D02*
X158516096Y-47219436D01*
X159201990Y-47905330D01*
X158141330Y-48965990D01*
X157455436Y-48280096D01*
X157455436Y-48280096D01*
G37*
G36*
X158806010Y-49630670D02*
X159866670Y-48570010D01*
X160552564Y-49255904D01*
X159491904Y-50316564D01*
X158806010Y-49630670D01*
X158806010Y-49630670D01*
G37*
G36*
X135103436Y-45740096D02*
X136164096Y-44679436D01*
X136849990Y-45365330D01*
X135789330Y-46425990D01*
X135103436Y-45740096D01*
X135103436Y-45740096D01*
G37*
G36*
X136454010Y-47090670D02*
X137514670Y-46030010D01*
X138200564Y-46715904D01*
X137139904Y-47776564D01*
X136454010Y-47090670D01*
X136454010Y-47090670D01*
G37*
D14*
X152715000Y-64262000D03*
X154625000Y-64262000D03*
D13*
X129540000Y-69408000D03*
X129540000Y-67498000D03*
X124460000Y-47305000D03*
X124460000Y-49215000D03*
D10*
G36*
X155218564Y-44937904D02*
X154157904Y-45998564D01*
X153472010Y-45312670D01*
X154532670Y-44252010D01*
X155218564Y-44937904D01*
X155218564Y-44937904D01*
G37*
G36*
X153867990Y-43587330D02*
X152807330Y-44647990D01*
X152121436Y-43962096D01*
X153182096Y-42901436D01*
X153867990Y-43587330D01*
X153867990Y-43587330D01*
G37*
G36*
X151408564Y-41127904D02*
X150347904Y-42188564D01*
X149662010Y-41502670D01*
X150722670Y-40442010D01*
X151408564Y-41127904D01*
X151408564Y-41127904D01*
G37*
G36*
X150057990Y-39777330D02*
X148997330Y-40837990D01*
X148311436Y-40152096D01*
X149372096Y-39091436D01*
X150057990Y-39777330D01*
X150057990Y-39777330D01*
G37*
G36*
X152678564Y-47477904D02*
X151617904Y-48538564D01*
X150932010Y-47852670D01*
X151992670Y-46792010D01*
X152678564Y-47477904D01*
X152678564Y-47477904D01*
G37*
G36*
X151327990Y-46127330D02*
X150267330Y-47187990D01*
X149581436Y-46502096D01*
X150642096Y-45441436D01*
X151327990Y-46127330D01*
X151327990Y-46127330D01*
G37*
G36*
X143231436Y-45232096D02*
X144292096Y-44171436D01*
X144977990Y-44857330D01*
X143917330Y-45917990D01*
X143231436Y-45232096D01*
X143231436Y-45232096D01*
G37*
G36*
X144582010Y-46582670D02*
X145642670Y-45522010D01*
X146328564Y-46207904D01*
X145267904Y-47268564D01*
X144582010Y-46582670D01*
X144582010Y-46582670D01*
G37*
G36*
X132055436Y-48788096D02*
X133116096Y-47727436D01*
X133801990Y-48413330D01*
X132741330Y-49473990D01*
X132055436Y-48788096D01*
X132055436Y-48788096D01*
G37*
G36*
X133406010Y-50138670D02*
X134466670Y-49078010D01*
X135152564Y-49763904D01*
X134091904Y-50824564D01*
X133406010Y-50138670D01*
X133406010Y-50138670D01*
G37*
G36*
X135359666Y-60713445D02*
X134970757Y-60324536D01*
X136102128Y-59193165D01*
X136491037Y-59582074D01*
X135359666Y-60713445D01*
X135359666Y-60713445D01*
G37*
G36*
X135925352Y-61279130D02*
X135536443Y-60890221D01*
X136667814Y-59758850D01*
X137056723Y-60147759D01*
X135925352Y-61279130D01*
X135925352Y-61279130D01*
G37*
G36*
X136491037Y-61844816D02*
X136102128Y-61455907D01*
X137233499Y-60324536D01*
X137622408Y-60713445D01*
X136491037Y-61844816D01*
X136491037Y-61844816D01*
G37*
G36*
X137056722Y-62410501D02*
X136667813Y-62021592D01*
X137799184Y-60890221D01*
X138188093Y-61279130D01*
X137056722Y-62410501D01*
X137056722Y-62410501D01*
G37*
G36*
X137622408Y-62976187D02*
X137233499Y-62587278D01*
X138364870Y-61455907D01*
X138753779Y-61844816D01*
X137622408Y-62976187D01*
X137622408Y-62976187D01*
G37*
G36*
X138188093Y-63541872D02*
X137799184Y-63152963D01*
X138930555Y-62021592D01*
X139319464Y-62410501D01*
X138188093Y-63541872D01*
X138188093Y-63541872D01*
G37*
G36*
X138753779Y-64107557D02*
X138364870Y-63718648D01*
X139496241Y-62587277D01*
X139885150Y-62976186D01*
X138753779Y-64107557D01*
X138753779Y-64107557D01*
G37*
G36*
X139319464Y-64673243D02*
X138930555Y-64284334D01*
X140061926Y-63152963D01*
X140450835Y-63541872D01*
X139319464Y-64673243D01*
X139319464Y-64673243D01*
G37*
G36*
X142501445Y-64284334D02*
X142112536Y-64673243D01*
X140981165Y-63541872D01*
X141370074Y-63152963D01*
X142501445Y-64284334D01*
X142501445Y-64284334D01*
G37*
G36*
X143067130Y-63718648D02*
X142678221Y-64107557D01*
X141546850Y-62976186D01*
X141935759Y-62587277D01*
X143067130Y-63718648D01*
X143067130Y-63718648D01*
G37*
G36*
X143632816Y-63152963D02*
X143243907Y-63541872D01*
X142112536Y-62410501D01*
X142501445Y-62021592D01*
X143632816Y-63152963D01*
X143632816Y-63152963D01*
G37*
G36*
X144198501Y-62587278D02*
X143809592Y-62976187D01*
X142678221Y-61844816D01*
X143067130Y-61455907D01*
X144198501Y-62587278D01*
X144198501Y-62587278D01*
G37*
G36*
X144764187Y-62021592D02*
X144375278Y-62410501D01*
X143243907Y-61279130D01*
X143632816Y-60890221D01*
X144764187Y-62021592D01*
X144764187Y-62021592D01*
G37*
G36*
X145329872Y-61455907D02*
X144940963Y-61844816D01*
X143809592Y-60713445D01*
X144198501Y-60324536D01*
X145329872Y-61455907D01*
X145329872Y-61455907D01*
G37*
G36*
X145895557Y-60890221D02*
X145506648Y-61279130D01*
X144375277Y-60147759D01*
X144764186Y-59758850D01*
X145895557Y-60890221D01*
X145895557Y-60890221D01*
G37*
G36*
X146461243Y-60324536D02*
X146072334Y-60713445D01*
X144940963Y-59582074D01*
X145329872Y-59193165D01*
X146461243Y-60324536D01*
X146461243Y-60324536D01*
G37*
G36*
X145329872Y-58662835D02*
X144940963Y-58273926D01*
X146072334Y-57142555D01*
X146461243Y-57531464D01*
X145329872Y-58662835D01*
X145329872Y-58662835D01*
G37*
G36*
X144764186Y-58097150D02*
X144375277Y-57708241D01*
X145506648Y-56576870D01*
X145895557Y-56965779D01*
X144764186Y-58097150D01*
X144764186Y-58097150D01*
G37*
G36*
X144198501Y-57531464D02*
X143809592Y-57142555D01*
X144940963Y-56011184D01*
X145329872Y-56400093D01*
X144198501Y-57531464D01*
X144198501Y-57531464D01*
G37*
G36*
X143632816Y-56965779D02*
X143243907Y-56576870D01*
X144375278Y-55445499D01*
X144764187Y-55834408D01*
X143632816Y-56965779D01*
X143632816Y-56965779D01*
G37*
G36*
X143067130Y-56400093D02*
X142678221Y-56011184D01*
X143809592Y-54879813D01*
X144198501Y-55268722D01*
X143067130Y-56400093D01*
X143067130Y-56400093D01*
G37*
G36*
X142501445Y-55834408D02*
X142112536Y-55445499D01*
X143243907Y-54314128D01*
X143632816Y-54703037D01*
X142501445Y-55834408D01*
X142501445Y-55834408D01*
G37*
G36*
X141935759Y-55268723D02*
X141546850Y-54879814D01*
X142678221Y-53748443D01*
X143067130Y-54137352D01*
X141935759Y-55268723D01*
X141935759Y-55268723D01*
G37*
G36*
X141370074Y-54703037D02*
X140981165Y-54314128D01*
X142112536Y-53182757D01*
X142501445Y-53571666D01*
X141370074Y-54703037D01*
X141370074Y-54703037D01*
G37*
G36*
X140450835Y-54314128D02*
X140061926Y-54703037D01*
X138930555Y-53571666D01*
X139319464Y-53182757D01*
X140450835Y-54314128D01*
X140450835Y-54314128D01*
G37*
G36*
X139885150Y-54879814D02*
X139496241Y-55268723D01*
X138364870Y-54137352D01*
X138753779Y-53748443D01*
X139885150Y-54879814D01*
X139885150Y-54879814D01*
G37*
G36*
X139319464Y-55445499D02*
X138930555Y-55834408D01*
X137799184Y-54703037D01*
X138188093Y-54314128D01*
X139319464Y-55445499D01*
X139319464Y-55445499D01*
G37*
G36*
X138753779Y-56011184D02*
X138364870Y-56400093D01*
X137233499Y-55268722D01*
X137622408Y-54879813D01*
X138753779Y-56011184D01*
X138753779Y-56011184D01*
G37*
G36*
X138188093Y-56576870D02*
X137799184Y-56965779D01*
X136667813Y-55834408D01*
X137056722Y-55445499D01*
X138188093Y-56576870D01*
X138188093Y-56576870D01*
G37*
G36*
X137622408Y-57142555D02*
X137233499Y-57531464D01*
X136102128Y-56400093D01*
X136491037Y-56011184D01*
X137622408Y-57142555D01*
X137622408Y-57142555D01*
G37*
G36*
X137056723Y-57708241D02*
X136667814Y-58097150D01*
X135536443Y-56965779D01*
X135925352Y-56576870D01*
X137056723Y-57708241D01*
X137056723Y-57708241D01*
G37*
G36*
X136491037Y-58273926D02*
X136102128Y-58662835D01*
X134970757Y-57531464D01*
X135359666Y-57142555D01*
X136491037Y-58273926D01*
X136491037Y-58273926D01*
G37*
D24*
X121363000Y-55106000D03*
X121363000Y-54606000D03*
X121363000Y-54106000D03*
X121363000Y-53606000D03*
D25*
X120638000Y-52881000D03*
X120138000Y-52881000D03*
X119638000Y-52881000D03*
X119138000Y-52881000D03*
D24*
X118413000Y-53606000D03*
X118413000Y-54106000D03*
X118413000Y-54606000D03*
X118413000Y-55106000D03*
D25*
X119138000Y-55831000D03*
X119638000Y-55831000D03*
X120138000Y-55831000D03*
X120638000Y-55831000D03*
D26*
X119888000Y-54356000D03*
D10*
G36*
X138873802Y-37737142D02*
X140570858Y-39434198D01*
X139510198Y-40494858D01*
X137813142Y-38797802D01*
X138873802Y-37737142D01*
X138873802Y-37737142D01*
G37*
G36*
X140924412Y-38444249D02*
X141207254Y-38727091D01*
X140782990Y-39151355D01*
X140500148Y-38868513D01*
X140924412Y-38444249D01*
X140924412Y-38444249D01*
G37*
G36*
X140252660Y-37772498D02*
X140535502Y-38055340D01*
X140111238Y-38479604D01*
X139828396Y-38196762D01*
X140252660Y-37772498D01*
X140252660Y-37772498D01*
G37*
G36*
X139580909Y-37100746D02*
X139863751Y-37383588D01*
X139439487Y-37807852D01*
X139156645Y-37525010D01*
X139580909Y-37100746D01*
X139580909Y-37100746D01*
G37*
G36*
X137601010Y-39080645D02*
X137883852Y-39363487D01*
X137459588Y-39787751D01*
X137176746Y-39504909D01*
X137601010Y-39080645D01*
X137601010Y-39080645D01*
G37*
G36*
X138272762Y-39752396D02*
X138555604Y-40035238D01*
X138131340Y-40459502D01*
X137848498Y-40176660D01*
X138272762Y-39752396D01*
X138272762Y-39752396D01*
G37*
G36*
X138944513Y-40424148D02*
X139227355Y-40706990D01*
X138803091Y-41131254D01*
X138520249Y-40848412D01*
X138944513Y-40424148D01*
X138944513Y-40424148D01*
G37*
G36*
X134954944Y-65545025D02*
X136157025Y-64342944D01*
X136652000Y-64837919D01*
X135449919Y-66040000D01*
X134954944Y-65545025D01*
X134954944Y-65545025D01*
G37*
G36*
X135803472Y-66393553D02*
X137005553Y-65191472D01*
X137500528Y-65686447D01*
X136298447Y-66888528D01*
X135803472Y-66393553D01*
X135803472Y-66393553D01*
G37*
G36*
X136652000Y-67242081D02*
X137854081Y-66040000D01*
X138349056Y-66534975D01*
X137146975Y-67737056D01*
X136652000Y-67242081D01*
X136652000Y-67242081D01*
G37*
D12*
X116332000Y-74676000D03*
X168148000Y-67564000D03*
X155956000Y-39116000D03*
D11*
X130175000Y-76200000D03*
D16*
X140766800Y-50038000D03*
D17*
X140766800Y-47498000D03*
D18*
X108100000Y-73588000D03*
X101600000Y-73588000D03*
X108100000Y-69088000D03*
X101600000Y-69088000D03*
D10*
G36*
X154915436Y-50820096D02*
X155976096Y-49759436D01*
X156661990Y-50445330D01*
X155601330Y-51505990D01*
X154915436Y-50820096D01*
X154915436Y-50820096D01*
G37*
G36*
X156266010Y-52170670D02*
X157326670Y-51110010D01*
X158012564Y-51795904D01*
X156951904Y-52856564D01*
X156266010Y-52170670D01*
X156266010Y-52170670D01*
G37*
D27*
X113385600Y-61246000D03*
X113385600Y-65246000D03*
D28*
X120548400Y-51892200D03*
X118618000Y-51689000D03*
X121437400Y-52146200D03*
X138112500Y-69469000D03*
X140779500Y-62674500D03*
X162560000Y-49784000D03*
X139954000Y-57404000D03*
X116255800Y-61290200D03*
X139954000Y-62039500D03*
X151066500Y-60515500D03*
X153162000Y-60452000D03*
X153225500Y-57658000D03*
X152590500Y-70294500D03*
X162496500Y-70231000D03*
X131318000Y-46736000D03*
X134175500Y-43751500D03*
D29*
X150876000Y-43688000D03*
D28*
X159766000Y-60198000D03*
X156972000Y-67564000D03*
X139954000Y-60452000D03*
X146812000Y-58928000D03*
X159004000Y-59055000D03*
X139344400Y-58267600D03*
X157480000Y-54864000D03*
X139293600Y-59385200D03*
X135826500Y-43497500D03*
X126428500Y-45212000D03*
X130238500Y-49085500D03*
X141160500Y-68008500D03*
X141351000Y-69659500D03*
X154114500Y-71056500D03*
X146050000Y-65214500D03*
X144716500Y-66929000D03*
X151765000Y-62484000D03*
X151892000Y-57912000D03*
X145796000Y-67754500D03*
X149415500Y-70294500D03*
X162052000Y-41148000D03*
X150876000Y-39116000D03*
X147447000Y-66548000D03*
X160909000Y-66421000D03*
X141986000Y-61214000D03*
X140144500Y-56197500D03*
X129794000Y-58483500D03*
X135318500Y-61976000D03*
X144703800Y-53340000D03*
D30*
X119138000Y-52881000D02*
X118692400Y-52881000D01*
X118160800Y-52146200D02*
X118618000Y-51689000D01*
X118160800Y-52349400D02*
X118160800Y-52146200D01*
X118692400Y-52881000D02*
X118160800Y-52349400D01*
X120138000Y-52881000D02*
X120138000Y-52302600D01*
X120138000Y-52302600D02*
X120548400Y-51892200D01*
X120523000Y-51917600D02*
X120523000Y-52120800D01*
X120548400Y-51892200D02*
X120523000Y-51917600D01*
X121437400Y-52146200D02*
X120702600Y-52881000D01*
X120702600Y-52881000D02*
X120638000Y-52881000D01*
X120138000Y-52881000D02*
X120638000Y-52881000D01*
X120638000Y-55831000D02*
X120138000Y-55831000D01*
X164592000Y-47813000D02*
X167701000Y-47813000D01*
X167701000Y-47813000D02*
X168656000Y-48768000D01*
X164592000Y-49723000D02*
X162621000Y-49723000D01*
X162621000Y-49723000D02*
X162560000Y-49784000D01*
X137160000Y-73660000D02*
X137160000Y-70421500D01*
X137160000Y-70421500D02*
X138112500Y-69469000D01*
D31*
X139890500Y-57404000D02*
X140766800Y-58928000D01*
X140779500Y-61595000D02*
X140779500Y-62674500D01*
X140779500Y-60388500D02*
X140779500Y-61595000D01*
X140766800Y-58928000D02*
X140779500Y-60388500D01*
X162219287Y-49443287D02*
X159679287Y-49443287D01*
X162560000Y-49784000D02*
X162219287Y-49443287D01*
X138684000Y-57404000D02*
X137485639Y-56205639D01*
X139954000Y-57404000D02*
X139890500Y-57404000D01*
X139890500Y-57404000D02*
X138684000Y-57404000D01*
X137485639Y-56205639D02*
X137427953Y-56205639D01*
D30*
X118811000Y-59436000D02*
X118811000Y-60513000D01*
X118033800Y-61290200D02*
X116255800Y-61290200D01*
X118811000Y-60513000D02*
X118033800Y-61290200D01*
X147980400Y-55135213D02*
X148064787Y-55135213D01*
X148064787Y-55135213D02*
X148742400Y-54457600D01*
X148742400Y-54457600D02*
X148742400Y-52679600D01*
X148742400Y-52679600D02*
X152044400Y-49377600D01*
X152044400Y-49377600D02*
X154533600Y-49377600D01*
X154533600Y-49377600D02*
X155788713Y-50632713D01*
X127000000Y-47305000D02*
X127000000Y-48768000D01*
X129239000Y-51007000D02*
X129239000Y-56214000D01*
X127000000Y-48768000D02*
X129239000Y-51007000D01*
X119380000Y-40640000D02*
X119380000Y-38100000D01*
X120904000Y-49215000D02*
X120335000Y-49215000D01*
X120335000Y-49215000D02*
X118872000Y-47752000D01*
X118872000Y-47752000D02*
X118872000Y-41148000D01*
X118872000Y-41148000D02*
X119380000Y-40640000D01*
X119638000Y-55831000D02*
X119638000Y-57467500D01*
X119638000Y-57467500D02*
X119575500Y-57467500D01*
X119575500Y-57467500D02*
X119697500Y-57467500D01*
X138559324Y-62781732D02*
X138703768Y-62781732D01*
X138703768Y-62781732D02*
X139509500Y-62039500D01*
X139509500Y-62039500D02*
X139954000Y-62039500D01*
X153162000Y-60452000D02*
X151130000Y-60452000D01*
X151130000Y-60452000D02*
X151066500Y-60515500D01*
X152715000Y-64262000D02*
X152715000Y-60899000D01*
X150702713Y-55135213D02*
X148572787Y-55135213D01*
X153225500Y-57658000D02*
X150702713Y-55135213D01*
X152715000Y-60899000D02*
X153162000Y-60452000D01*
X152715000Y-64262000D02*
X152715000Y-70170000D01*
X152715000Y-70170000D02*
X152590500Y-70294500D01*
X135024167Y-63065539D02*
X134927461Y-63065539D01*
X132715000Y-74295000D02*
X134620000Y-76200000D01*
X132715000Y-65278000D02*
X132715000Y-74295000D01*
X134927461Y-63065539D02*
X132715000Y-65278000D01*
X152590500Y-70294500D02*
X152654000Y-70231000D01*
X152654000Y-70231000D02*
X162496500Y-70231000D01*
D31*
X118811000Y-59436000D02*
X118811000Y-58232000D01*
X124507000Y-56214000D02*
X127000000Y-56214000D01*
X123253500Y-57467500D02*
X124507000Y-56214000D01*
X119575500Y-57467500D02*
X119697500Y-57467500D01*
X119697500Y-57467500D02*
X123253500Y-57467500D01*
X118811000Y-58232000D02*
X119575500Y-57467500D01*
X132928713Y-48600713D02*
X132928713Y-48346713D01*
X132928713Y-48346713D02*
X131318000Y-46736000D01*
X124460000Y-47305000D02*
X127000000Y-47305000D01*
X127000000Y-47305000D02*
X130749000Y-47305000D01*
X130749000Y-47305000D02*
X131318000Y-46736000D01*
X134175500Y-43751500D02*
X134239000Y-43815000D01*
X134239000Y-43815000D02*
X134175500Y-43878500D01*
X134175500Y-43878500D02*
X134175500Y-43751500D01*
X120904000Y-49215000D02*
X121727000Y-49215000D01*
X123637000Y-47305000D02*
X124460000Y-47305000D01*
X121727000Y-49215000D02*
X123637000Y-47305000D01*
X138559324Y-62781732D02*
X138559324Y-62862676D01*
X138559324Y-62862676D02*
X137541000Y-63881000D01*
X137541000Y-63881000D02*
X136906000Y-63881000D01*
X136906000Y-63881000D02*
X135024167Y-63065539D01*
X135024167Y-63065539D02*
X135001000Y-63055500D01*
X127000000Y-56214000D02*
X129239000Y-56214000D01*
X136340314Y-62738000D02*
X137427953Y-61650361D01*
X135001000Y-63055500D02*
X136340314Y-62738000D01*
X129239000Y-56214000D02*
X135001000Y-63055500D01*
X155788713Y-50632713D02*
X158328713Y-48092713D01*
X147320000Y-55135213D02*
X147980400Y-55135213D01*
X147980400Y-55135213D02*
X148572787Y-55135213D01*
X147337214Y-55135213D02*
X147320000Y-55135213D01*
X147320000Y-55135213D02*
X145074473Y-55135213D01*
X145074473Y-55135213D02*
X144004047Y-56205639D01*
X147337214Y-55135213D02*
X145135417Y-57337010D01*
D32*
X133263287Y-42839287D02*
X133263287Y-42758713D01*
X133263287Y-42758713D02*
X134620000Y-41402000D01*
X136906000Y-41402000D02*
X138202051Y-40105949D01*
X134620000Y-41402000D02*
X136906000Y-41402000D01*
X133263287Y-42839287D02*
X134175500Y-43751500D01*
X134175500Y-43751500D02*
X135976713Y-45552713D01*
X104394000Y-56134000D02*
X108273600Y-56134000D01*
X108273600Y-56134000D02*
X113385600Y-61246000D01*
X104394000Y-49704000D02*
X109079000Y-49704000D01*
X109079000Y-49704000D02*
X113792000Y-54417000D01*
D30*
X118413000Y-54606000D02*
X118413000Y-54106000D01*
X118413000Y-55106000D02*
X118413000Y-55484500D01*
X118759500Y-55831000D02*
X119138000Y-55831000D01*
X118413000Y-55484500D02*
X118759500Y-55831000D01*
D32*
X150962713Y-43774713D02*
X152994713Y-43774713D01*
X150876000Y-43688000D02*
X150962713Y-43774713D01*
X118413000Y-55106000D02*
X118413000Y-54606000D01*
X118413000Y-54606000D02*
X113981000Y-54606000D01*
X113981000Y-54606000D02*
X113792000Y-54417000D01*
X113792000Y-54417000D02*
X113792000Y-49215000D01*
X104394000Y-56134000D02*
X104394000Y-49704000D01*
D30*
X117348000Y-49215000D02*
X117348000Y-52541000D01*
X117348000Y-52541000D02*
X118413000Y-53606000D01*
D31*
X161162000Y-58354000D02*
X161162000Y-58802000D01*
X161162000Y-58802000D02*
X159766000Y-60198000D01*
X156972000Y-67564000D02*
X160594000Y-63942000D01*
X160594000Y-63942000D02*
X161162000Y-63942000D01*
X135730897Y-58006897D02*
X135730897Y-57902695D01*
X137998200Y-59537600D02*
X135730897Y-58006897D01*
X139954000Y-60452000D02*
X137998200Y-59537600D01*
X157862000Y-58928000D02*
X146812000Y-58928000D01*
X157862000Y-58928000D02*
X157862000Y-57404000D01*
X157862000Y-62992000D02*
X157862000Y-58928000D01*
X154625000Y-64262000D02*
X156592000Y-64262000D01*
X156592000Y-64262000D02*
X157862000Y-62992000D01*
X135730897Y-57902695D02*
X135730897Y-58006897D01*
X159512000Y-57531000D02*
X160589000Y-56454000D01*
X159512000Y-58547000D02*
X159512000Y-57531000D01*
X159004000Y-59055000D02*
X159512000Y-58547000D01*
X160589000Y-56454000D02*
X161162000Y-56454000D01*
X161102000Y-56454000D02*
X161162000Y-56454000D01*
D30*
X139344400Y-58267600D02*
X139001501Y-57924701D01*
X139001501Y-57924701D02*
X138015645Y-57924701D01*
X138015645Y-57924701D02*
X137498663Y-57407719D01*
X137498663Y-57407719D02*
X136862268Y-56771324D01*
D31*
X136862268Y-56771324D02*
X136862268Y-56852268D01*
D30*
X168656000Y-51308000D02*
X161036000Y-51308000D01*
X161036000Y-51308000D02*
X157480000Y-54864000D01*
D31*
X136331010Y-57337010D02*
X139293600Y-59385200D01*
X136296583Y-57337010D02*
X136331010Y-57337010D01*
D30*
X137327287Y-46903287D02*
X137327287Y-46340113D01*
X137327287Y-46340113D02*
X142036800Y-41630600D01*
X142036800Y-39980901D02*
X140853701Y-38797802D01*
X142036800Y-41630600D02*
X142036800Y-39980901D01*
X121920000Y-40640000D02*
X123190000Y-39370000D01*
D31*
X140853701Y-38797802D02*
X140905802Y-38797802D01*
X137327287Y-46903287D02*
X137327287Y-46822713D01*
X137327287Y-50038000D02*
X136906000Y-50038000D01*
X123190000Y-39370000D02*
X121920000Y-38100000D01*
X126238000Y-39370000D02*
X123190000Y-39370000D01*
X136906000Y-50038000D02*
X126238000Y-39370000D01*
X138559324Y-55074268D02*
X138559324Y-54993324D01*
X138559324Y-54993324D02*
X137327287Y-53761287D01*
X137327287Y-53761287D02*
X137327287Y-50038000D01*
X137327287Y-50038000D02*
X137327287Y-46903287D01*
X134279287Y-51983287D02*
X134279287Y-49951287D01*
X135826500Y-43497500D02*
X135826500Y-43434000D01*
X135826500Y-43434000D02*
X135826500Y-43497500D01*
X135826500Y-43497500D02*
X135826500Y-43434000D01*
X134279287Y-51983287D02*
X133136287Y-51983287D01*
X124460000Y-43243500D02*
X124460000Y-40640000D01*
X126428500Y-45212000D02*
X124460000Y-43243500D01*
X133136287Y-51983287D02*
X130238500Y-49085500D01*
X136217503Y-43434000D02*
X138873802Y-40777701D01*
X135636000Y-43434000D02*
X135826500Y-43434000D01*
X135826500Y-43434000D02*
X136217503Y-43434000D01*
X135636000Y-43434000D02*
X135636000Y-43434000D01*
X137993639Y-55639953D02*
X137935953Y-55639953D01*
X137935953Y-55639953D02*
X134279287Y-51983287D01*
D30*
X141160500Y-68008500D02*
X141224000Y-68072000D01*
X141224000Y-68072000D02*
X141224000Y-69532500D01*
X141224000Y-69532500D02*
X141351000Y-69659500D01*
X163385500Y-71183500D02*
X165100000Y-72898000D01*
X154241500Y-71183500D02*
X163385500Y-71183500D01*
X154114500Y-71056500D02*
X154241500Y-71183500D01*
X165100000Y-72898000D02*
X165100000Y-73660000D01*
D31*
X145701103Y-59953305D02*
X148336000Y-62484000D01*
X148336000Y-74676000D02*
X149860000Y-76200000D01*
X148336000Y-72517000D02*
X148336000Y-74676000D01*
X150368000Y-70485000D02*
X148336000Y-72517000D01*
X150368000Y-64516000D02*
X150368000Y-70485000D01*
X148336000Y-62484000D02*
X150368000Y-64516000D01*
D30*
X146050000Y-65595500D02*
X146050000Y-65214500D01*
X144716500Y-66929000D02*
X146050000Y-65595500D01*
X142240000Y-76200000D02*
X145034000Y-76200000D01*
X146494500Y-77660500D02*
X153860500Y-77660500D01*
X145034000Y-76200000D02*
X146494500Y-77660500D01*
D31*
X167640000Y-76200000D02*
X167513000Y-76200000D01*
X167513000Y-76200000D02*
X166052500Y-77660500D01*
X166052500Y-77660500D02*
X153860500Y-77660500D01*
X153860500Y-77660500D02*
X152400000Y-76200000D01*
X145701103Y-57902695D02*
X151882695Y-57902695D01*
X151130000Y-74930000D02*
X152400000Y-76200000D01*
X151638000Y-62611000D02*
X151130000Y-74930000D01*
X151765000Y-62484000D02*
X151638000Y-62611000D01*
X151882695Y-57902695D02*
X151892000Y-57912000D01*
D30*
X148336000Y-70294500D02*
X149415500Y-70294500D01*
X145796000Y-67754500D02*
X148336000Y-70294500D01*
X139700000Y-76200000D02*
X139954000Y-76200000D01*
X139954000Y-76200000D02*
X141224000Y-74930000D01*
X144780000Y-74930000D02*
X149415500Y-70294500D01*
X141224000Y-74930000D02*
X144780000Y-74930000D01*
X139700000Y-76200000D02*
X139700000Y-76136500D01*
X152400000Y-73660000D02*
X152400000Y-73152000D01*
X152400000Y-73152000D02*
X153670000Y-71882000D01*
X163893500Y-74993500D02*
X165100000Y-76200000D01*
X163893500Y-72834500D02*
X163893500Y-74993500D01*
X162941000Y-71882000D02*
X163893500Y-72834500D01*
X153670000Y-71882000D02*
X162941000Y-71882000D01*
D31*
X145135417Y-60518990D02*
X145135417Y-60553417D01*
X145135417Y-60553417D02*
X149479000Y-64897000D01*
X149479000Y-64897000D02*
X149415500Y-70294500D01*
D30*
X165100000Y-38180000D02*
X165020000Y-38180000D01*
X165020000Y-38180000D02*
X162052000Y-41148000D01*
X150876000Y-39116000D02*
X149860000Y-39116000D01*
X149860000Y-39116000D02*
X149184713Y-39791287D01*
X149184713Y-39791287D02*
X149184713Y-39964713D01*
D31*
X144004047Y-61650361D02*
X144073361Y-61650361D01*
X144073361Y-61650361D02*
X147447000Y-65024000D01*
X147447000Y-65024000D02*
X147447000Y-66548000D01*
X160909000Y-66421000D02*
X167640000Y-73152000D01*
X167640000Y-73152000D02*
X167640000Y-73660000D01*
D30*
X141741305Y-63913103D02*
X141741305Y-64017305D01*
X141741305Y-64017305D02*
X141986000Y-64262000D01*
X141986000Y-64262000D02*
X141986000Y-65278000D01*
X141986000Y-65278000D02*
X138938000Y-68326000D01*
X138938000Y-68326000D02*
X138176000Y-68326000D01*
X138176000Y-68326000D02*
X134620000Y-71882000D01*
X134620000Y-71882000D02*
X134620000Y-73660000D01*
X142306990Y-63347417D02*
X142306990Y-63376490D01*
X142306990Y-63376490D02*
X143129000Y-64198500D01*
X143129000Y-64198500D02*
X143129000Y-65087500D01*
X143129000Y-65087500D02*
X139700000Y-68516500D01*
X139700000Y-68516500D02*
X139700000Y-73660000D01*
X142872676Y-62781732D02*
X142872676Y-62862676D01*
X142872676Y-62862676D02*
X143954500Y-63944500D01*
X143954500Y-63944500D02*
X143954500Y-65849500D01*
X143954500Y-65849500D02*
X142240000Y-67564000D01*
X142240000Y-67564000D02*
X142240000Y-73660000D01*
D31*
X121363000Y-55106000D02*
X121363000Y-54606000D01*
X121363000Y-54606000D02*
X121363000Y-54106000D01*
X127000000Y-53514000D02*
X123460500Y-53514000D01*
X122368500Y-54606000D02*
X121363000Y-54606000D01*
X123460500Y-53514000D02*
X122368500Y-54606000D01*
D30*
X129540000Y-69408000D02*
X125811600Y-69408000D01*
X125811600Y-69408000D02*
X125516000Y-69112400D01*
X119638000Y-52881000D02*
X119638000Y-51583400D01*
X122656600Y-51231800D02*
X123196900Y-51772100D01*
X119989600Y-51231800D02*
X122656600Y-51231800D01*
X119638000Y-51583400D02*
X119989600Y-51231800D01*
X124460000Y-49215000D02*
X124460000Y-50509000D01*
X124460000Y-50509000D02*
X123196900Y-51772100D01*
X123196900Y-51772100D02*
X121363000Y-53606000D01*
D31*
X135803472Y-65191472D02*
X135976528Y-65191472D01*
X135976528Y-65191472D02*
X136525000Y-64643000D01*
X136525000Y-64643000D02*
X137829427Y-64643000D01*
X137829427Y-64643000D02*
X139125010Y-63347417D01*
X137500528Y-66888528D02*
X137581472Y-66888528D01*
X137581472Y-66888528D02*
X138557000Y-65913000D01*
X138557000Y-65913000D02*
X138557000Y-65046798D01*
X138557000Y-65046798D02*
X139690695Y-63913103D01*
X144569732Y-61084676D02*
X144523676Y-61084676D01*
X144523676Y-61084676D02*
X143764000Y-60325000D01*
X143764000Y-60325000D02*
X142875000Y-60325000D01*
X142875000Y-60325000D02*
X141986000Y-61214000D01*
D33*
X113385600Y-65246000D02*
X108506000Y-65246000D01*
X108506000Y-65246000D02*
X104394000Y-61134000D01*
X119836000Y-66827400D02*
X114967000Y-66827400D01*
X114967000Y-66827400D02*
X113385600Y-65246000D01*
D30*
X141741305Y-53942897D02*
X141741305Y-53914895D01*
X141741305Y-53914895D02*
X146075400Y-49580800D01*
X146075400Y-49580800D02*
X146075400Y-47015400D01*
X146075400Y-47015400D02*
X145455287Y-46395287D01*
D31*
X145455287Y-46395287D02*
X147995287Y-43855287D01*
X147995287Y-43855287D02*
X150535287Y-41315287D01*
D30*
X147914713Y-48854713D02*
X150454713Y-46314713D01*
D31*
X154345287Y-45125287D02*
X154264713Y-45125287D01*
X154264713Y-45125287D02*
X153670000Y-45720000D01*
X151049426Y-45720000D02*
X150454713Y-46314713D01*
X153670000Y-45720000D02*
X151049426Y-45720000D01*
X142306990Y-54508583D02*
X142306990Y-54462436D01*
X142306990Y-54462436D02*
X147914713Y-48854713D01*
X139125010Y-54508583D02*
X139125010Y-54543010D01*
X139125010Y-54543010D02*
X140144500Y-55562500D01*
X140144500Y-55562500D02*
X140144500Y-56197500D01*
X129794000Y-58483500D02*
X129540000Y-58737500D01*
X129540000Y-58737500D02*
X129540000Y-67498000D01*
X136296583Y-60518990D02*
X136267510Y-60518990D01*
X136267510Y-60518990D02*
X135318500Y-61468000D01*
X135318500Y-61468000D02*
X135318500Y-61976000D01*
D30*
X142872676Y-55074268D02*
X142969532Y-55074268D01*
X142969532Y-55074268D02*
X144703800Y-53340000D01*
X139690695Y-53942897D02*
X139690695Y-53889495D01*
X139690695Y-53889495D02*
X138811000Y-53009800D01*
X138811000Y-53009800D02*
X138811000Y-49453800D01*
X138811000Y-49453800D02*
X140766800Y-47498000D01*
D31*
G36*
X154016165Y-36207340D02*
X153050730Y-37171092D01*
X152527597Y-38430937D01*
X152526406Y-39795078D01*
X153047340Y-41055835D01*
X154011092Y-42021270D01*
X155270937Y-42544403D01*
X156635078Y-42545594D01*
X157895835Y-42024660D01*
X158040747Y-41880000D01*
X163411536Y-41880000D01*
X163411536Y-44480000D01*
X163438103Y-44621190D01*
X163521546Y-44750865D01*
X163648866Y-44837859D01*
X163800000Y-44868464D01*
X166400000Y-44868464D01*
X166541190Y-44841897D01*
X166670865Y-44758454D01*
X166757859Y-44631134D01*
X166788464Y-44480000D01*
X166788464Y-41880000D01*
X166761897Y-41738810D01*
X166678454Y-41609135D01*
X166551134Y-41522141D01*
X166400000Y-41491536D01*
X163800000Y-41491536D01*
X163658810Y-41518103D01*
X163529135Y-41601546D01*
X163442141Y-41728866D01*
X163411536Y-41880000D01*
X158040747Y-41880000D01*
X158630414Y-41291361D01*
X161327975Y-41291361D01*
X161437950Y-41557521D01*
X161641408Y-41761335D01*
X161907376Y-41871774D01*
X162195361Y-41872025D01*
X162461521Y-41762050D01*
X162665335Y-41558592D01*
X162775774Y-41292624D01*
X162775936Y-41106564D01*
X164239606Y-39642894D01*
X164764161Y-39860708D01*
X165432905Y-39861291D01*
X166050966Y-39605914D01*
X166524252Y-39133453D01*
X166780708Y-38515839D01*
X166781291Y-37847095D01*
X166525914Y-37229034D01*
X166053453Y-36755748D01*
X165435839Y-36499292D01*
X164767095Y-36498709D01*
X164149034Y-36754086D01*
X163675748Y-37226547D01*
X163419292Y-37844161D01*
X163418709Y-38512905D01*
X163590011Y-38927489D01*
X162093364Y-40424136D01*
X161908639Y-40423975D01*
X161642479Y-40533950D01*
X161438665Y-40737408D01*
X161328226Y-41003376D01*
X161327975Y-41291361D01*
X158630414Y-41291361D01*
X158861270Y-41060908D01*
X159384403Y-39801063D01*
X159385594Y-38436922D01*
X158864660Y-37176165D01*
X157900908Y-36210730D01*
X157431946Y-36016000D01*
X168103089Y-36016000D01*
X169428102Y-36279562D01*
X170513319Y-37004681D01*
X171238438Y-38089898D01*
X171502000Y-39414911D01*
X171502000Y-66701970D01*
X171056660Y-65624165D01*
X170092908Y-64658730D01*
X168833063Y-64135597D01*
X167468922Y-64134406D01*
X166208165Y-64655340D01*
X165242730Y-65619092D01*
X164719597Y-66878937D01*
X164718406Y-68243078D01*
X165239340Y-69503835D01*
X166203092Y-70469270D01*
X167462937Y-70992403D01*
X168827078Y-70993594D01*
X170087835Y-70472660D01*
X171053270Y-69508908D01*
X171502000Y-68428245D01*
X171502000Y-74377089D01*
X171238438Y-75702102D01*
X170513319Y-76787319D01*
X169428102Y-77512438D01*
X168103089Y-77776000D01*
X166655420Y-77776000D01*
X167109625Y-77321795D01*
X167168917Y-77361413D01*
X167640000Y-77455117D01*
X168111083Y-77361413D01*
X168510448Y-77094565D01*
X168777296Y-76695200D01*
X168871000Y-76224117D01*
X168871000Y-76175883D01*
X168777296Y-75704800D01*
X168510448Y-75305435D01*
X168111083Y-75038587D01*
X167640000Y-74944883D01*
X167168917Y-75038587D01*
X166769552Y-75305435D01*
X166502704Y-75704800D01*
X166409000Y-76175883D01*
X166409000Y-76224117D01*
X166468970Y-76525610D01*
X166112278Y-76882302D01*
X166237296Y-76695200D01*
X166331000Y-76224117D01*
X166331000Y-76175883D01*
X166237296Y-75704800D01*
X165970448Y-75305435D01*
X165571083Y-75038587D01*
X165100000Y-74944883D01*
X164628917Y-75038587D01*
X164624223Y-75041723D01*
X164376100Y-74793600D01*
X164376100Y-74652486D01*
X164628917Y-74821413D01*
X165100000Y-74915117D01*
X165571083Y-74821413D01*
X165970448Y-74554565D01*
X166237296Y-74155200D01*
X166331000Y-73684117D01*
X166331000Y-73635883D01*
X166237296Y-73164800D01*
X165970448Y-72765435D01*
X165571083Y-72498587D01*
X165336407Y-72451907D01*
X163726750Y-70842250D01*
X163570183Y-70737636D01*
X163385500Y-70700900D01*
X163050423Y-70700900D01*
X163109835Y-70641592D01*
X163220274Y-70375624D01*
X163220525Y-70087639D01*
X163110550Y-69821479D01*
X162907092Y-69617665D01*
X162641124Y-69507226D01*
X162353139Y-69506975D01*
X162086979Y-69616950D01*
X161955299Y-69748400D01*
X153197600Y-69748400D01*
X153197600Y-67707361D01*
X156247975Y-67707361D01*
X156357950Y-67973521D01*
X156561408Y-68177335D01*
X156827376Y-68287774D01*
X157115361Y-68288025D01*
X157381521Y-68178050D01*
X157585335Y-67974592D01*
X157695774Y-67708624D01*
X157695905Y-67558515D01*
X158690059Y-66564361D01*
X160184975Y-66564361D01*
X160294950Y-66830521D01*
X160498408Y-67034335D01*
X160764376Y-67144774D01*
X160914485Y-67144905D01*
X166675609Y-72906030D01*
X166502704Y-73164800D01*
X166409000Y-73635883D01*
X166409000Y-73684117D01*
X166502704Y-74155200D01*
X166769552Y-74554565D01*
X167168917Y-74821413D01*
X167640000Y-74915117D01*
X168111083Y-74821413D01*
X168510448Y-74554565D01*
X168777296Y-74155200D01*
X168871000Y-73684117D01*
X168871000Y-73635883D01*
X168777296Y-73164800D01*
X168510448Y-72765435D01*
X168111083Y-72498587D01*
X167640000Y-72404883D01*
X167616065Y-72409644D01*
X161632895Y-66426475D01*
X161633025Y-66277639D01*
X161523050Y-66011479D01*
X161319592Y-65807665D01*
X161053624Y-65697226D01*
X160765639Y-65696975D01*
X160499479Y-65806950D01*
X160295665Y-66010408D01*
X160185226Y-66276376D01*
X160184975Y-66564361D01*
X158690059Y-66564361D01*
X160523957Y-64730464D01*
X162062000Y-64730464D01*
X162203190Y-64703897D01*
X162332865Y-64620454D01*
X162419859Y-64493134D01*
X162450464Y-64342000D01*
X162450464Y-63542000D01*
X162423897Y-63400810D01*
X162340454Y-63271135D01*
X162213134Y-63184141D01*
X162062000Y-63153536D01*
X160262000Y-63153536D01*
X160120810Y-63180103D01*
X159991135Y-63263546D01*
X159904141Y-63390866D01*
X159873536Y-63542000D01*
X159873536Y-63944043D01*
X156977475Y-66840105D01*
X156828639Y-66839975D01*
X156562479Y-66949950D01*
X156358665Y-67153408D01*
X156248226Y-67419376D01*
X156247975Y-67707361D01*
X153197600Y-67707361D01*
X153197600Y-65400464D01*
X153200000Y-65400464D01*
X153341190Y-65373897D01*
X153470865Y-65290454D01*
X153557859Y-65163134D01*
X153588464Y-65012000D01*
X153588464Y-63512000D01*
X153561897Y-63370810D01*
X153478454Y-63241135D01*
X153351134Y-63154141D01*
X153200000Y-63123536D01*
X153197600Y-63123536D01*
X153197600Y-61175931D01*
X153305361Y-61176025D01*
X153571521Y-61066050D01*
X153775335Y-60862592D01*
X153885774Y-60596624D01*
X153886025Y-60308639D01*
X153776050Y-60042479D01*
X153572592Y-59838665D01*
X153306624Y-59728226D01*
X153018639Y-59727975D01*
X152752479Y-59837950D01*
X152620799Y-59969400D01*
X151544210Y-59969400D01*
X151477092Y-59902165D01*
X151211124Y-59791726D01*
X150923139Y-59791475D01*
X150656979Y-59901450D01*
X150453165Y-60104908D01*
X150342726Y-60370876D01*
X150342475Y-60658861D01*
X150452450Y-60925021D01*
X150655908Y-61128835D01*
X150921876Y-61239274D01*
X151209861Y-61239525D01*
X151476021Y-61129550D01*
X151671312Y-60934600D01*
X152232400Y-60934600D01*
X152232400Y-61927572D01*
X152175592Y-61870665D01*
X151909624Y-61760226D01*
X151621639Y-61759975D01*
X151355479Y-61869950D01*
X151151665Y-62073408D01*
X151041226Y-62339376D01*
X151040975Y-62627361D01*
X151120915Y-62820831D01*
X150876000Y-68760021D01*
X150876000Y-64516000D01*
X150837331Y-64321597D01*
X150727210Y-64156790D01*
X148695210Y-62124790D01*
X148690875Y-62121894D01*
X148687892Y-62117618D01*
X146845687Y-60348265D01*
X146849670Y-60329903D01*
X146821155Y-60178360D01*
X146735929Y-60049850D01*
X145614079Y-58928000D01*
X146131384Y-58410695D01*
X146305565Y-58410695D01*
X146198665Y-58517408D01*
X146088226Y-58783376D01*
X146087975Y-59071361D01*
X146197950Y-59337521D01*
X146401408Y-59541335D01*
X146667376Y-59651774D01*
X146955361Y-59652025D01*
X147221521Y-59542050D01*
X147327757Y-59436000D01*
X157354000Y-59436000D01*
X157354000Y-62203536D01*
X156962000Y-62203536D01*
X156820810Y-62230103D01*
X156691135Y-62313546D01*
X156604141Y-62440866D01*
X156573536Y-62592000D01*
X156573536Y-63392000D01*
X156600103Y-63533190D01*
X156600998Y-63534582D01*
X156381580Y-63754000D01*
X155498464Y-63754000D01*
X155498464Y-63512000D01*
X155471897Y-63370810D01*
X155388454Y-63241135D01*
X155261134Y-63154141D01*
X155110000Y-63123536D01*
X154140000Y-63123536D01*
X153998810Y-63150103D01*
X153869135Y-63233546D01*
X153782141Y-63360866D01*
X153751536Y-63512000D01*
X153751536Y-65012000D01*
X153778103Y-65153190D01*
X153861546Y-65282865D01*
X153988866Y-65369859D01*
X154140000Y-65400464D01*
X155110000Y-65400464D01*
X155251190Y-65373897D01*
X155380865Y-65290454D01*
X155467859Y-65163134D01*
X155498464Y-65012000D01*
X155498464Y-64770000D01*
X156592000Y-64770000D01*
X156786403Y-64731331D01*
X156951210Y-64621210D01*
X157791956Y-63780464D01*
X158762000Y-63780464D01*
X158903190Y-63753897D01*
X159032865Y-63670454D01*
X159119859Y-63543134D01*
X159150464Y-63392000D01*
X159150464Y-62592000D01*
X159123897Y-62450810D01*
X159040454Y-62321135D01*
X158913134Y-62234141D01*
X158762000Y-62203536D01*
X158370000Y-62203536D01*
X158370000Y-61642000D01*
X159873536Y-61642000D01*
X159873536Y-62442000D01*
X159900103Y-62583190D01*
X159983546Y-62712865D01*
X160110866Y-62799859D01*
X160262000Y-62830464D01*
X162062000Y-62830464D01*
X162203190Y-62803897D01*
X162332865Y-62720454D01*
X162419859Y-62593134D01*
X162450464Y-62442000D01*
X162450464Y-61753750D01*
X167171000Y-61753750D01*
X167171000Y-62444310D01*
X167267673Y-62677699D01*
X167446302Y-62856327D01*
X167679691Y-62953000D01*
X168370250Y-62953000D01*
X168529000Y-62794250D01*
X168529000Y-61595000D01*
X168783000Y-61595000D01*
X168783000Y-62794250D01*
X168941750Y-62953000D01*
X169632309Y-62953000D01*
X169865698Y-62856327D01*
X170044327Y-62677699D01*
X170141000Y-62444310D01*
X170141000Y-61753750D01*
X169982250Y-61595000D01*
X168783000Y-61595000D01*
X168529000Y-61595000D01*
X167329750Y-61595000D01*
X167171000Y-61753750D01*
X162450464Y-61753750D01*
X162450464Y-61642000D01*
X162423897Y-61500810D01*
X162340454Y-61371135D01*
X162213134Y-61284141D01*
X162062000Y-61253536D01*
X160262000Y-61253536D01*
X160120810Y-61280103D01*
X159991135Y-61363546D01*
X159904141Y-61490866D01*
X159873536Y-61642000D01*
X158370000Y-61642000D01*
X158370000Y-59416238D01*
X158389950Y-59464521D01*
X158593408Y-59668335D01*
X158859376Y-59778774D01*
X159147361Y-59779025D01*
X159170739Y-59769365D01*
X159152665Y-59787408D01*
X159042226Y-60053376D01*
X159041975Y-60341361D01*
X159151950Y-60607521D01*
X159355408Y-60811335D01*
X159621376Y-60921774D01*
X159909361Y-60922025D01*
X160175521Y-60812050D01*
X160379335Y-60608592D01*
X160427876Y-60491690D01*
X167171000Y-60491690D01*
X167171000Y-61182250D01*
X167329750Y-61341000D01*
X168529000Y-61341000D01*
X168529000Y-61321000D01*
X168783000Y-61321000D01*
X168783000Y-61341000D01*
X169982250Y-61341000D01*
X170141000Y-61182250D01*
X170141000Y-60491690D01*
X170044327Y-60258301D01*
X169865698Y-60079673D01*
X169632309Y-59983000D01*
X169274364Y-59983000D01*
X169550565Y-59798448D01*
X169817413Y-59399083D01*
X169911117Y-58928000D01*
X169817413Y-58456917D01*
X169550565Y-58057552D01*
X169151200Y-57790704D01*
X168680117Y-57697000D01*
X168631883Y-57697000D01*
X168160800Y-57790704D01*
X167761435Y-58057552D01*
X167494587Y-58456917D01*
X167400883Y-58928000D01*
X167494587Y-59399083D01*
X167761435Y-59798448D01*
X168037636Y-59983000D01*
X167679691Y-59983000D01*
X167446302Y-60079673D01*
X167267673Y-60258301D01*
X167171000Y-60491690D01*
X160427876Y-60491690D01*
X160489774Y-60342624D01*
X160489905Y-60192515D01*
X161521210Y-59161210D01*
X161533736Y-59142464D01*
X162062000Y-59142464D01*
X162203190Y-59115897D01*
X162332865Y-59032454D01*
X162419859Y-58905134D01*
X162450464Y-58754000D01*
X162450464Y-57954000D01*
X162423897Y-57812810D01*
X162340454Y-57683135D01*
X162213134Y-57596141D01*
X162062000Y-57565536D01*
X160262000Y-57565536D01*
X160180560Y-57580860D01*
X160518956Y-57242464D01*
X162062000Y-57242464D01*
X162203190Y-57215897D01*
X162332865Y-57132454D01*
X162419859Y-57005134D01*
X162450464Y-56854000D01*
X162450464Y-56388000D01*
X167400883Y-56388000D01*
X167494587Y-56859083D01*
X167761435Y-57258448D01*
X168160800Y-57525296D01*
X168631883Y-57619000D01*
X168680117Y-57619000D01*
X169151200Y-57525296D01*
X169550565Y-57258448D01*
X169817413Y-56859083D01*
X169911117Y-56388000D01*
X169817413Y-55916917D01*
X169550565Y-55517552D01*
X169151200Y-55250704D01*
X168680117Y-55157000D01*
X168631883Y-55157000D01*
X168160800Y-55250704D01*
X167761435Y-55517552D01*
X167494587Y-55916917D01*
X167400883Y-56388000D01*
X162450464Y-56388000D01*
X162450464Y-56054000D01*
X162423897Y-55912810D01*
X162340454Y-55783135D01*
X162213134Y-55696141D01*
X162062000Y-55665536D01*
X160262000Y-55665536D01*
X160120810Y-55692103D01*
X159991135Y-55775546D01*
X159904141Y-55902866D01*
X159873536Y-56054000D01*
X159873536Y-56451044D01*
X159152790Y-57171790D01*
X159150464Y-57175271D01*
X159150464Y-57004000D01*
X159123897Y-56862810D01*
X159040454Y-56733135D01*
X158913134Y-56646141D01*
X158762000Y-56615536D01*
X156962000Y-56615536D01*
X156820810Y-56642103D01*
X156691135Y-56725546D01*
X156604141Y-56852866D01*
X156573536Y-57004000D01*
X156573536Y-57804000D01*
X156600103Y-57945190D01*
X156683546Y-58074865D01*
X156810866Y-58161859D01*
X156962000Y-58192464D01*
X157354000Y-58192464D01*
X157354000Y-58420000D01*
X152407757Y-58420000D01*
X152505335Y-58322592D01*
X152611350Y-58067279D01*
X152611450Y-58067521D01*
X152814908Y-58271335D01*
X153080876Y-58381774D01*
X153368861Y-58382025D01*
X153635021Y-58272050D01*
X153838835Y-58068592D01*
X153949274Y-57802624D01*
X153949525Y-57514639D01*
X153839550Y-57248479D01*
X153636092Y-57044665D01*
X153370124Y-56934226D01*
X153184063Y-56934064D01*
X151257361Y-55007361D01*
X156755975Y-55007361D01*
X156865950Y-55273521D01*
X157069408Y-55477335D01*
X157335376Y-55587774D01*
X157623361Y-55588025D01*
X157889521Y-55478050D01*
X158093335Y-55274592D01*
X158203774Y-55008624D01*
X158203936Y-54822564D01*
X159178499Y-53848000D01*
X167400883Y-53848000D01*
X167494587Y-54319083D01*
X167761435Y-54718448D01*
X168160800Y-54985296D01*
X168631883Y-55079000D01*
X168680117Y-55079000D01*
X169151200Y-54985296D01*
X169550565Y-54718448D01*
X169817413Y-54319083D01*
X169911117Y-53848000D01*
X169817413Y-53376917D01*
X169550565Y-52977552D01*
X169151200Y-52710704D01*
X168680117Y-52617000D01*
X168631883Y-52617000D01*
X168160800Y-52710704D01*
X167761435Y-52977552D01*
X167494587Y-53376917D01*
X167400883Y-53848000D01*
X159178499Y-53848000D01*
X161235899Y-51790600D01*
X167502282Y-51790600D01*
X167761435Y-52178448D01*
X168160800Y-52445296D01*
X168631883Y-52539000D01*
X168680117Y-52539000D01*
X169151200Y-52445296D01*
X169550565Y-52178448D01*
X169817413Y-51779083D01*
X169911117Y-51308000D01*
X169817413Y-50836917D01*
X169550565Y-50437552D01*
X169151200Y-50170704D01*
X168680117Y-50077000D01*
X168631883Y-50077000D01*
X168160800Y-50170704D01*
X167761435Y-50437552D01*
X167502282Y-50825400D01*
X161036000Y-50825400D01*
X160851317Y-50862136D01*
X160694750Y-50966750D01*
X160694748Y-50966753D01*
X157521364Y-54140136D01*
X157336639Y-54139975D01*
X157070479Y-54249950D01*
X156866665Y-54453408D01*
X156756226Y-54719376D01*
X156755975Y-55007361D01*
X151257361Y-55007361D01*
X151043963Y-54793963D01*
X150887396Y-54689349D01*
X150702713Y-54652613D01*
X149181362Y-54652613D01*
X149188264Y-54642283D01*
X149225000Y-54457600D01*
X149225000Y-53609187D01*
X151067187Y-53609187D01*
X151254200Y-54061795D01*
X151600184Y-54408383D01*
X152052465Y-54596186D01*
X152542187Y-54596613D01*
X152994795Y-54409600D01*
X153341383Y-54063616D01*
X153529186Y-53611335D01*
X153529613Y-53121613D01*
X153454647Y-52940179D01*
X156362000Y-52940179D01*
X156362000Y-53164686D01*
X156592205Y-53394891D01*
X156825594Y-53491563D01*
X157078213Y-53491564D01*
X157311602Y-53394891D01*
X157729191Y-52977302D01*
X157729191Y-52752796D01*
X157139287Y-52162892D01*
X156362000Y-52940179D01*
X153454647Y-52940179D01*
X153342600Y-52669005D01*
X152996616Y-52322417D01*
X152544335Y-52134614D01*
X152054613Y-52134187D01*
X151602005Y-52321200D01*
X151255417Y-52667184D01*
X151067614Y-53119465D01*
X151067187Y-53609187D01*
X149225000Y-53609187D01*
X149225000Y-52879500D01*
X152244300Y-49860200D01*
X154333700Y-49860200D01*
X154829830Y-50356330D01*
X154640750Y-50545410D01*
X154559700Y-50664032D01*
X154527009Y-50814729D01*
X154555524Y-50966272D01*
X154640750Y-51094782D01*
X155326644Y-51780676D01*
X155445266Y-51861726D01*
X155595963Y-51894417D01*
X155701331Y-51874590D01*
X155631010Y-52044361D01*
X155631011Y-52296980D01*
X155727683Y-52530369D01*
X155957888Y-52760574D01*
X156182395Y-52760574D01*
X156959682Y-51983287D01*
X157318892Y-51983287D01*
X157908796Y-52573191D01*
X158133302Y-52573191D01*
X158550891Y-52155602D01*
X158647564Y-51922213D01*
X158647563Y-51669594D01*
X158550891Y-51436205D01*
X158320686Y-51206000D01*
X158096179Y-51206000D01*
X157318892Y-51983287D01*
X156959682Y-51983287D01*
X156945540Y-51969145D01*
X157125145Y-51789540D01*
X157139287Y-51803682D01*
X157916574Y-51026395D01*
X157916574Y-50801888D01*
X157686369Y-50571683D01*
X157452980Y-50475011D01*
X157200361Y-50475010D01*
X157029818Y-50545651D01*
X157050417Y-50450697D01*
X157021902Y-50299154D01*
X156949646Y-50190201D01*
X157514544Y-49625303D01*
X158417583Y-49625303D01*
X158446098Y-49776846D01*
X158531324Y-49905356D01*
X159217218Y-50591250D01*
X159335840Y-50672300D01*
X159486537Y-50704991D01*
X159638080Y-50676476D01*
X159766590Y-50591250D01*
X160406553Y-49951287D01*
X161845861Y-49951287D01*
X161945950Y-50193521D01*
X162149408Y-50397335D01*
X162415376Y-50507774D01*
X162703361Y-50508025D01*
X162969521Y-50398050D01*
X163162308Y-50205600D01*
X163453536Y-50205600D01*
X163453536Y-50208000D01*
X163480103Y-50349190D01*
X163563546Y-50478865D01*
X163690866Y-50565859D01*
X163842000Y-50596464D01*
X165342000Y-50596464D01*
X165483190Y-50569897D01*
X165612865Y-50486454D01*
X165699859Y-50359134D01*
X165730464Y-50208000D01*
X165730464Y-49238000D01*
X165703897Y-49096810D01*
X165620454Y-48967135D01*
X165493134Y-48880141D01*
X165342000Y-48849536D01*
X163842000Y-48849536D01*
X163700810Y-48876103D01*
X163571135Y-48959546D01*
X163484141Y-49086866D01*
X163453536Y-49238000D01*
X163453536Y-49240400D01*
X163040205Y-49240400D01*
X162970592Y-49170665D01*
X162704624Y-49060226D01*
X162542590Y-49060085D01*
X162413690Y-48973956D01*
X162219287Y-48935287D01*
X160781319Y-48935287D01*
X160141356Y-48295324D01*
X160022734Y-48214274D01*
X159872037Y-48181583D01*
X159720494Y-48210098D01*
X159591984Y-48295324D01*
X158531324Y-49355984D01*
X158450274Y-49474606D01*
X158417583Y-49625303D01*
X157514544Y-49625303D01*
X157885968Y-49253879D01*
X157985266Y-49321726D01*
X158135963Y-49354417D01*
X158287506Y-49325902D01*
X158416016Y-49240676D01*
X159476676Y-48180016D01*
X159557726Y-48061394D01*
X159590417Y-47910697D01*
X159561902Y-47759154D01*
X159476676Y-47630644D01*
X159174032Y-47328000D01*
X163453536Y-47328000D01*
X163453536Y-48298000D01*
X163480103Y-48439190D01*
X163563546Y-48568865D01*
X163690866Y-48655859D01*
X163842000Y-48686464D01*
X165342000Y-48686464D01*
X165483190Y-48659897D01*
X165612865Y-48576454D01*
X165699859Y-48449134D01*
X165730464Y-48298000D01*
X165730464Y-48295600D01*
X167495467Y-48295600D01*
X167494587Y-48296917D01*
X167400883Y-48768000D01*
X167494587Y-49239083D01*
X167761435Y-49638448D01*
X168160800Y-49905296D01*
X168631883Y-49999000D01*
X168680117Y-49999000D01*
X169151200Y-49905296D01*
X169550565Y-49638448D01*
X169817413Y-49239083D01*
X169911117Y-48768000D01*
X169817413Y-48296917D01*
X169550565Y-47897552D01*
X169151200Y-47630704D01*
X168680117Y-47537000D01*
X168631883Y-47537000D01*
X168194501Y-47624001D01*
X168042250Y-47471750D01*
X167885683Y-47367136D01*
X167701000Y-47330400D01*
X165730464Y-47330400D01*
X165730464Y-47328000D01*
X165703897Y-47186810D01*
X165620454Y-47057135D01*
X165493134Y-46970141D01*
X165342000Y-46939536D01*
X163842000Y-46939536D01*
X163700810Y-46966103D01*
X163571135Y-47049546D01*
X163484141Y-47176866D01*
X163453536Y-47328000D01*
X159174032Y-47328000D01*
X158790782Y-46944750D01*
X158672160Y-46863700D01*
X158521463Y-46831009D01*
X158369920Y-46859524D01*
X158241410Y-46944750D01*
X157180750Y-48005410D01*
X157099700Y-48124032D01*
X157067009Y-48274729D01*
X157095524Y-48426272D01*
X157167780Y-48535225D01*
X156231459Y-49471547D01*
X156132160Y-49403700D01*
X155981463Y-49371009D01*
X155829920Y-49399524D01*
X155701410Y-49484750D01*
X155512330Y-49673830D01*
X154874850Y-49036350D01*
X154718283Y-48931736D01*
X154533600Y-48895000D01*
X152159493Y-48895000D01*
X152395191Y-48659302D01*
X152395191Y-48434796D01*
X151805287Y-47844892D01*
X151028000Y-48622179D01*
X151028000Y-48846686D01*
X151258205Y-49076891D01*
X151491594Y-49173563D01*
X151565937Y-49173563D01*
X150773563Y-49965937D01*
X150773563Y-49891594D01*
X150676891Y-49658205D01*
X150446686Y-49428000D01*
X150222179Y-49428000D01*
X149444892Y-50205287D01*
X149459035Y-50219430D01*
X149279430Y-50399035D01*
X149265287Y-50384892D01*
X148488000Y-51162179D01*
X148488000Y-51386686D01*
X148718205Y-51616891D01*
X148951594Y-51713563D01*
X149025937Y-51713563D01*
X148401150Y-52338350D01*
X148296536Y-52494917D01*
X148259800Y-52679600D01*
X148259800Y-54257701D01*
X147890287Y-54627213D01*
X145074473Y-54627213D01*
X144880070Y-54665882D01*
X144715263Y-54776003D01*
X144659535Y-54831731D01*
X144655115Y-54827311D01*
X144430609Y-54827311D01*
X143617966Y-55639953D01*
X143624709Y-55646696D01*
X143445104Y-55826301D01*
X143438361Y-55819558D01*
X142625719Y-56632201D01*
X142625719Y-56856707D01*
X142707432Y-56938420D01*
X142940821Y-57035093D01*
X143152757Y-57035092D01*
X143358130Y-57240465D01*
X143467005Y-57314856D01*
X143534906Y-57417241D01*
X143923815Y-57806150D01*
X144032689Y-57880540D01*
X144100591Y-57982927D01*
X144489500Y-58371836D01*
X144598377Y-58446228D01*
X144666277Y-58548612D01*
X145045665Y-58928000D01*
X144666277Y-59307388D01*
X144591887Y-59416262D01*
X144489500Y-59484164D01*
X144100591Y-59873073D01*
X144064187Y-59926352D01*
X143958403Y-59855669D01*
X143764000Y-59817000D01*
X142875000Y-59817000D01*
X142680597Y-59855669D01*
X142515790Y-59965790D01*
X141991475Y-60490105D01*
X141842639Y-60489975D01*
X141576479Y-60599950D01*
X141372665Y-60803408D01*
X141287500Y-61008509D01*
X141287500Y-60388500D01*
X141287061Y-60386294D01*
X141287481Y-60384083D01*
X141274781Y-58923583D01*
X141268497Y-58893369D01*
X141270570Y-58862581D01*
X141248486Y-58797145D01*
X141234423Y-58729523D01*
X141217055Y-58704014D01*
X141207188Y-58674776D01*
X140628241Y-57667913D01*
X140677774Y-57548624D01*
X140678025Y-57260639D01*
X140568050Y-56994479D01*
X140434669Y-56860865D01*
X140554021Y-56811550D01*
X140757835Y-56608092D01*
X140868274Y-56342124D01*
X140868525Y-56054139D01*
X140758550Y-55787979D01*
X140652500Y-55681743D01*
X140652500Y-55562500D01*
X140613831Y-55368097D01*
X140603432Y-55352534D01*
X140503711Y-55203290D01*
X140301458Y-55001037D01*
X140336612Y-54977723D01*
X140716000Y-54598335D01*
X141095388Y-54977723D01*
X141204262Y-55052113D01*
X141272164Y-55154500D01*
X141661073Y-55543409D01*
X141769950Y-55617801D01*
X141837850Y-55720185D01*
X142043222Y-55925557D01*
X142043221Y-56137493D01*
X142139894Y-56370882D01*
X142221607Y-56452595D01*
X142446113Y-56452595D01*
X143258756Y-55639953D01*
X143252014Y-55633211D01*
X143431619Y-55453606D01*
X143438361Y-55460348D01*
X144251003Y-54647705D01*
X144251003Y-54475297D01*
X144662436Y-54063864D01*
X144847161Y-54064025D01*
X145113321Y-53954050D01*
X145317135Y-53750592D01*
X145427574Y-53484624D01*
X145427825Y-53196639D01*
X145317850Y-52930479D01*
X145114392Y-52726665D01*
X144864814Y-52623032D01*
X147471967Y-50015879D01*
X147571266Y-50083726D01*
X147721963Y-50116417D01*
X147827331Y-50096590D01*
X147757010Y-50266361D01*
X147757011Y-50518980D01*
X147853683Y-50752369D01*
X148083888Y-50982574D01*
X148308395Y-50982574D01*
X149085682Y-50205287D01*
X149071540Y-50191145D01*
X149251145Y-50011540D01*
X149265287Y-50025682D01*
X150042574Y-49248395D01*
X150042574Y-49023888D01*
X149812369Y-48793683D01*
X149578980Y-48697011D01*
X149326361Y-48697010D01*
X149155818Y-48767651D01*
X149176417Y-48672697D01*
X149147902Y-48521154D01*
X149062676Y-48392644D01*
X149060979Y-48390947D01*
X149990947Y-47460979D01*
X149992644Y-47462676D01*
X150111266Y-47543726D01*
X150261963Y-47576417D01*
X150367331Y-47556590D01*
X150297010Y-47726361D01*
X150297011Y-47978980D01*
X150393683Y-48212369D01*
X150623888Y-48442574D01*
X150848395Y-48442574D01*
X151625682Y-47665287D01*
X151984892Y-47665287D01*
X152574796Y-48255191D01*
X152799302Y-48255191D01*
X153216891Y-47837602D01*
X153313564Y-47604213D01*
X153313563Y-47351594D01*
X153216891Y-47118205D01*
X152986686Y-46888000D01*
X152762179Y-46888000D01*
X151984892Y-47665287D01*
X151625682Y-47665287D01*
X151611540Y-47651145D01*
X151791145Y-47471540D01*
X151805287Y-47485682D01*
X152582574Y-46708395D01*
X152582574Y-46483888D01*
X152352369Y-46253683D01*
X152290364Y-46228000D01*
X153670000Y-46228000D01*
X153810100Y-46200132D01*
X153883218Y-46273250D01*
X154001840Y-46354300D01*
X154152537Y-46386991D01*
X154304080Y-46358476D01*
X154432590Y-46273250D01*
X155493250Y-45212590D01*
X155574300Y-45093968D01*
X155606991Y-44943271D01*
X155578476Y-44791728D01*
X155493250Y-44663218D01*
X154807356Y-43977324D01*
X154688734Y-43896274D01*
X154538037Y-43863583D01*
X154386494Y-43892098D01*
X154257984Y-43977324D01*
X153197324Y-45037984D01*
X153116274Y-45156606D01*
X153104257Y-45212000D01*
X151049426Y-45212000D01*
X150976531Y-45226499D01*
X150916782Y-45166750D01*
X150798160Y-45085700D01*
X150647463Y-45053009D01*
X150495920Y-45081524D01*
X150367410Y-45166750D01*
X149306750Y-46227410D01*
X149225700Y-46346032D01*
X149193009Y-46496729D01*
X149221524Y-46648272D01*
X149306750Y-46776782D01*
X149308447Y-46778479D01*
X148378479Y-47708447D01*
X148376782Y-47706750D01*
X148258160Y-47625700D01*
X148107463Y-47593009D01*
X147955920Y-47621524D01*
X147827410Y-47706750D01*
X146766750Y-48767410D01*
X146685700Y-48886032D01*
X146653009Y-49036729D01*
X146681524Y-49188272D01*
X146753780Y-49297226D01*
X146558000Y-49493006D01*
X146558000Y-47015400D01*
X146521264Y-46830717D01*
X146416650Y-46674150D01*
X146414170Y-46671670D01*
X146603250Y-46482590D01*
X146684300Y-46363968D01*
X146716991Y-46213271D01*
X146688476Y-46061728D01*
X146616220Y-45952775D01*
X147552542Y-45016453D01*
X147651840Y-45084300D01*
X147802537Y-45116991D01*
X147954080Y-45088476D01*
X148082590Y-45003250D01*
X149143250Y-43942590D01*
X149205500Y-43851482D01*
X150050357Y-43851482D01*
X150175767Y-44154998D01*
X150407781Y-44387417D01*
X150711077Y-44513357D01*
X151039482Y-44513643D01*
X151291012Y-44409713D01*
X152019681Y-44409713D01*
X152532644Y-44922676D01*
X152651266Y-45003726D01*
X152801963Y-45036417D01*
X152953506Y-45007902D01*
X153082016Y-44922676D01*
X154142676Y-43862016D01*
X154223726Y-43743394D01*
X154256417Y-43592697D01*
X154227902Y-43441154D01*
X154142676Y-43312644D01*
X153456782Y-42626750D01*
X153338160Y-42545700D01*
X153187463Y-42513009D01*
X153035920Y-42541524D01*
X152907410Y-42626750D01*
X152394447Y-43139713D01*
X151495086Y-43139713D01*
X151344219Y-42988583D01*
X151040923Y-42862643D01*
X150712518Y-42862357D01*
X150409002Y-42987767D01*
X150176583Y-43219781D01*
X150050643Y-43523077D01*
X150050357Y-43851482D01*
X149205500Y-43851482D01*
X149224300Y-43823968D01*
X149256991Y-43673271D01*
X149228476Y-43521728D01*
X149156220Y-43412775D01*
X150092542Y-42476453D01*
X150191840Y-42544300D01*
X150342537Y-42576991D01*
X150494080Y-42548476D01*
X150622590Y-42463250D01*
X151683250Y-41402590D01*
X151764300Y-41283968D01*
X151796991Y-41133271D01*
X151768476Y-40981728D01*
X151683250Y-40853218D01*
X150997356Y-40167324D01*
X150878734Y-40086274D01*
X150728037Y-40053583D01*
X150576494Y-40082098D01*
X150447984Y-40167324D01*
X149387324Y-41227984D01*
X149306274Y-41346606D01*
X149273583Y-41497303D01*
X149302098Y-41648846D01*
X149374354Y-41757799D01*
X148438033Y-42694121D01*
X148338734Y-42626274D01*
X148188037Y-42593583D01*
X148082669Y-42613410D01*
X148152990Y-42443639D01*
X148152989Y-42191020D01*
X148056317Y-41957631D01*
X147826112Y-41727426D01*
X147601605Y-41727426D01*
X146824318Y-42504713D01*
X146838461Y-42518856D01*
X146658856Y-42698461D01*
X146644713Y-42684318D01*
X145867426Y-43461605D01*
X145867426Y-43686112D01*
X146097631Y-43916317D01*
X146331020Y-44012989D01*
X146583639Y-44012990D01*
X146754182Y-43942349D01*
X146733583Y-44037303D01*
X146762098Y-44188846D01*
X146834354Y-44297799D01*
X145898033Y-45234121D01*
X145798734Y-45166274D01*
X145648037Y-45133583D01*
X145542669Y-45153410D01*
X145612990Y-44983639D01*
X145612989Y-44731020D01*
X145516317Y-44497631D01*
X145286112Y-44267426D01*
X145061605Y-44267426D01*
X144284318Y-45044713D01*
X144298461Y-45058856D01*
X144118856Y-45238461D01*
X144104713Y-45224318D01*
X143327426Y-46001605D01*
X143327426Y-46226112D01*
X143557631Y-46456317D01*
X143791020Y-46552989D01*
X144043639Y-46552990D01*
X144214182Y-46482349D01*
X144193583Y-46577303D01*
X144222098Y-46728846D01*
X144307324Y-46857356D01*
X144993218Y-47543250D01*
X145111840Y-47624300D01*
X145262537Y-47656991D01*
X145414080Y-47628476D01*
X145542590Y-47543250D01*
X145592800Y-47493040D01*
X145592800Y-49380900D01*
X142168413Y-52805287D01*
X142117903Y-52794330D01*
X141966360Y-52822845D01*
X141837850Y-52908071D01*
X140716000Y-54029921D01*
X139594150Y-52908071D01*
X139475528Y-52827021D01*
X139324831Y-52794330D01*
X139293600Y-52800207D01*
X139293600Y-49653700D01*
X139528336Y-49418964D01*
X139528336Y-50888000D01*
X139554903Y-51029190D01*
X139638346Y-51158865D01*
X139765666Y-51245859D01*
X139916800Y-51276464D01*
X141616800Y-51276464D01*
X141757990Y-51249897D01*
X141887665Y-51166454D01*
X141974659Y-51039134D01*
X142005264Y-50888000D01*
X142005264Y-49188000D01*
X141978697Y-49046810D01*
X141895254Y-48917135D01*
X141767934Y-48830141D01*
X141616800Y-48799536D01*
X140147764Y-48799536D01*
X140305301Y-48641999D01*
X140742683Y-48729000D01*
X140790917Y-48729000D01*
X141262000Y-48635296D01*
X141661365Y-48368448D01*
X141928213Y-47969083D01*
X142021917Y-47498000D01*
X141928213Y-47026917D01*
X141661365Y-46627552D01*
X141262000Y-46360704D01*
X140790917Y-46267000D01*
X140742683Y-46267000D01*
X140271600Y-46360704D01*
X139872235Y-46627552D01*
X139605387Y-47026917D01*
X139511683Y-47498000D01*
X139605387Y-47969083D01*
X139608523Y-47973777D01*
X138469750Y-49112550D01*
X138365136Y-49269117D01*
X138328400Y-49453800D01*
X138328400Y-53009800D01*
X138365136Y-53194483D01*
X138469750Y-53351050D01*
X138547254Y-53428554D01*
X138479093Y-53473757D01*
X138118635Y-53834215D01*
X137835287Y-53550867D01*
X137835287Y-47630553D01*
X138475250Y-46990590D01*
X138556300Y-46871968D01*
X138588991Y-46721271D01*
X138560476Y-46569728D01*
X138475250Y-46441218D01*
X138191966Y-46157934D01*
X139244113Y-45105787D01*
X142596436Y-45105787D01*
X142596437Y-45358406D01*
X142693109Y-45591795D01*
X142923314Y-45822000D01*
X143147821Y-45822000D01*
X143925108Y-45044713D01*
X143335204Y-44454809D01*
X143110698Y-44454809D01*
X142693109Y-44872398D01*
X142596436Y-45105787D01*
X139244113Y-45105787D01*
X140299202Y-44050698D01*
X143514809Y-44050698D01*
X143514809Y-44275204D01*
X144104713Y-44865108D01*
X144882000Y-44087821D01*
X144882000Y-43863314D01*
X144651795Y-43633109D01*
X144418406Y-43536437D01*
X144165787Y-43536436D01*
X143932398Y-43633109D01*
X143514809Y-44050698D01*
X140299202Y-44050698D01*
X141784113Y-42565787D01*
X145136436Y-42565787D01*
X145136437Y-42818406D01*
X145233109Y-43051795D01*
X145463314Y-43282000D01*
X145687821Y-43282000D01*
X146465108Y-42504713D01*
X145875204Y-41914809D01*
X145650698Y-41914809D01*
X145233109Y-42332398D01*
X145136436Y-42565787D01*
X141784113Y-42565787D01*
X142378050Y-41971850D01*
X142482664Y-41815283D01*
X142519400Y-41630600D01*
X142519400Y-41510698D01*
X146054809Y-41510698D01*
X146054809Y-41735204D01*
X146644713Y-42325108D01*
X147422000Y-41547821D01*
X147422000Y-41323314D01*
X147191795Y-41093109D01*
X146958406Y-40996437D01*
X146705787Y-40996436D01*
X146472398Y-41093109D01*
X146054809Y-41510698D01*
X142519400Y-41510698D01*
X142519400Y-40146729D01*
X147923009Y-40146729D01*
X147951524Y-40298272D01*
X148036750Y-40426782D01*
X148722644Y-41112676D01*
X148841266Y-41193726D01*
X148991963Y-41226417D01*
X149143506Y-41197902D01*
X149272016Y-41112676D01*
X150332676Y-40052016D01*
X150413726Y-39933394D01*
X150446417Y-39782697D01*
X150429633Y-39693497D01*
X150465408Y-39729335D01*
X150731376Y-39839774D01*
X151019361Y-39840025D01*
X151285521Y-39730050D01*
X151489335Y-39526592D01*
X151599774Y-39260624D01*
X151600025Y-38972639D01*
X151490050Y-38706479D01*
X151286592Y-38502665D01*
X151020624Y-38392226D01*
X150732639Y-38391975D01*
X150466479Y-38501950D01*
X150334799Y-38633400D01*
X149860000Y-38633400D01*
X149675317Y-38670136D01*
X149552403Y-38752264D01*
X149528160Y-38735700D01*
X149377463Y-38703009D01*
X149225920Y-38731524D01*
X149097410Y-38816750D01*
X148036750Y-39877410D01*
X147955700Y-39996032D01*
X147923009Y-40146729D01*
X142519400Y-40146729D01*
X142519400Y-39980906D01*
X142519401Y-39980901D01*
X142482664Y-39796218D01*
X142438452Y-39730050D01*
X142378050Y-39639651D01*
X142378047Y-39639649D01*
X141573430Y-38835031D01*
X141595681Y-38732458D01*
X141567166Y-38580915D01*
X141481940Y-38452405D01*
X141199098Y-38169563D01*
X141170502Y-38150025D01*
X141170503Y-37929031D01*
X141073830Y-37695642D01*
X141026058Y-37647870D01*
X140801551Y-37647870D01*
X140342462Y-38106959D01*
X140375697Y-38140194D01*
X140196092Y-38319799D01*
X140162857Y-38286564D01*
X139703768Y-38745653D01*
X139703768Y-38783837D01*
X139371605Y-39116000D01*
X140467090Y-40211485D01*
X140691597Y-40211485D01*
X141109185Y-39793897D01*
X141126205Y-39752806D01*
X141554200Y-40180800D01*
X141554200Y-41430700D01*
X136986037Y-45998863D01*
X136965079Y-46030229D01*
X136179324Y-46815984D01*
X136098274Y-46934606D01*
X136065583Y-47085303D01*
X136094098Y-47236846D01*
X136179324Y-47365356D01*
X136819287Y-48005319D01*
X136819287Y-49232867D01*
X130032025Y-42445605D01*
X131135426Y-42445605D01*
X131135426Y-42670112D01*
X131365631Y-42900317D01*
X131599020Y-42996989D01*
X131851639Y-42996990D01*
X132022182Y-42926349D01*
X132001583Y-43021303D01*
X132030098Y-43172846D01*
X132115324Y-43301356D01*
X132801218Y-43987250D01*
X132919840Y-44068300D01*
X133070537Y-44100991D01*
X133222080Y-44072476D01*
X133350590Y-43987250D01*
X133431907Y-43905933D01*
X133473050Y-43947076D01*
X133561450Y-44161021D01*
X133764908Y-44364835D01*
X133980210Y-44454236D01*
X134910067Y-45384093D01*
X134828750Y-45465410D01*
X134747700Y-45584032D01*
X134715009Y-45734729D01*
X134743524Y-45886272D01*
X134828750Y-46014782D01*
X135514644Y-46700676D01*
X135633266Y-46781726D01*
X135783963Y-46814417D01*
X135935506Y-46785902D01*
X136064016Y-46700676D01*
X137124676Y-45640016D01*
X137205726Y-45521394D01*
X137238417Y-45370697D01*
X137209902Y-45219154D01*
X137124676Y-45090644D01*
X136438782Y-44404750D01*
X136320160Y-44323700D01*
X136169463Y-44291009D01*
X136017920Y-44319524D01*
X135889410Y-44404750D01*
X135808093Y-44486067D01*
X135444899Y-44122873D01*
X135681876Y-44221274D01*
X135969861Y-44221525D01*
X136236021Y-44111550D01*
X136439835Y-43908092D01*
X136453296Y-43875675D01*
X136576713Y-43793210D01*
X138862414Y-41507509D01*
X138949267Y-41491166D01*
X139077777Y-41405940D01*
X139362655Y-41121062D01*
X139383889Y-41129858D01*
X139636508Y-41129858D01*
X139869897Y-41033185D01*
X140287485Y-40615597D01*
X140287485Y-40391090D01*
X139192000Y-39295605D01*
X139177858Y-39309748D01*
X138998253Y-39130143D01*
X139012395Y-39116000D01*
X137916910Y-38020515D01*
X137692403Y-38020515D01*
X137274815Y-38438103D01*
X137178142Y-38671492D01*
X137178142Y-38924111D01*
X137186938Y-38945345D01*
X136902060Y-39230223D01*
X136821010Y-39348845D01*
X136788319Y-39499542D01*
X136816834Y-39651085D01*
X136902060Y-39779595D01*
X137184902Y-40062437D01*
X137281521Y-40128453D01*
X136642974Y-40767000D01*
X134620000Y-40767000D01*
X134376996Y-40815336D01*
X134170987Y-40952987D01*
X133530284Y-41593690D01*
X133456037Y-41577583D01*
X133350669Y-41597410D01*
X133420990Y-41427639D01*
X133420989Y-41175020D01*
X133324317Y-40941631D01*
X133094112Y-40711426D01*
X132869605Y-40711426D01*
X132092318Y-41488713D01*
X132106461Y-41502856D01*
X131926856Y-41682461D01*
X131912713Y-41668318D01*
X131135426Y-42445605D01*
X130032025Y-42445605D01*
X129136207Y-41549787D01*
X130404436Y-41549787D01*
X130404437Y-41802406D01*
X130501109Y-42035795D01*
X130731314Y-42266000D01*
X130955821Y-42266000D01*
X131733108Y-41488713D01*
X131143204Y-40898809D01*
X130918698Y-40898809D01*
X130501109Y-41316398D01*
X130404436Y-41549787D01*
X129136207Y-41549787D01*
X128081118Y-40494698D01*
X131322809Y-40494698D01*
X131322809Y-40719204D01*
X131912713Y-41309108D01*
X132690000Y-40531821D01*
X132690000Y-40307314D01*
X132459795Y-40077109D01*
X132226406Y-39980437D01*
X131973787Y-39980436D01*
X131740398Y-40077109D01*
X131322809Y-40494698D01*
X128081118Y-40494698D01*
X126597210Y-39010790D01*
X126432403Y-38900669D01*
X126238000Y-38862000D01*
X125419025Y-38862000D01*
X125597296Y-38595200D01*
X125691000Y-38124117D01*
X125691000Y-38075883D01*
X125599604Y-37616403D01*
X138096515Y-37616403D01*
X138096515Y-37840910D01*
X139192000Y-38936395D01*
X139524163Y-38604232D01*
X139562347Y-38604232D01*
X140021436Y-38145143D01*
X139988202Y-38111909D01*
X140167807Y-37932304D01*
X140201041Y-37965538D01*
X140660130Y-37506449D01*
X140660130Y-37281942D01*
X140612358Y-37234170D01*
X140378969Y-37137497D01*
X140157401Y-37137498D01*
X140138437Y-37108902D01*
X139855595Y-36826060D01*
X139736973Y-36745010D01*
X139586276Y-36712319D01*
X139434733Y-36740834D01*
X139306223Y-36826060D01*
X139021345Y-37110938D01*
X139000111Y-37102142D01*
X138747492Y-37102142D01*
X138514103Y-37198815D01*
X138096515Y-37616403D01*
X125599604Y-37616403D01*
X125597296Y-37604800D01*
X125330448Y-37205435D01*
X124931083Y-36938587D01*
X124460000Y-36844883D01*
X123988917Y-36938587D01*
X123589552Y-37205435D01*
X123322704Y-37604800D01*
X123229000Y-38075883D01*
X123229000Y-38124117D01*
X123322704Y-38595200D01*
X123500975Y-38862000D01*
X123400420Y-38862000D01*
X123069959Y-38531539D01*
X123151000Y-38124117D01*
X123151000Y-38075883D01*
X123057296Y-37604800D01*
X122790448Y-37205435D01*
X122391083Y-36938587D01*
X121920000Y-36844883D01*
X121448917Y-36938587D01*
X121049552Y-37205435D01*
X120782704Y-37604800D01*
X120689000Y-38075883D01*
X120689000Y-38124117D01*
X120782704Y-38595200D01*
X121049552Y-38994565D01*
X121448917Y-39261413D01*
X121920000Y-39355117D01*
X122367653Y-39266073D01*
X122489540Y-39387960D01*
X122395777Y-39481723D01*
X122391083Y-39478587D01*
X121920000Y-39384883D01*
X121448917Y-39478587D01*
X121049552Y-39745435D01*
X120782704Y-40144800D01*
X120689000Y-40615883D01*
X120689000Y-40664117D01*
X120782704Y-41135200D01*
X121049552Y-41534565D01*
X121448917Y-41801413D01*
X121920000Y-41895117D01*
X122391083Y-41801413D01*
X122790448Y-41534565D01*
X123057296Y-41135200D01*
X123151000Y-40664117D01*
X123151000Y-40615883D01*
X123063999Y-40178501D01*
X123364500Y-39878000D01*
X123500975Y-39878000D01*
X123322704Y-40144800D01*
X123229000Y-40615883D01*
X123229000Y-40664117D01*
X123322704Y-41135200D01*
X123589552Y-41534565D01*
X123952000Y-41776746D01*
X123952000Y-43243500D01*
X123990669Y-43437903D01*
X124100790Y-43602710D01*
X125704605Y-45206526D01*
X125704475Y-45355361D01*
X125814450Y-45621521D01*
X126017908Y-45825335D01*
X126283876Y-45935774D01*
X126571861Y-45936025D01*
X126838021Y-45826050D01*
X127041835Y-45622592D01*
X127152274Y-45356624D01*
X127152525Y-45068639D01*
X127042550Y-44802479D01*
X126839092Y-44598665D01*
X126573124Y-44488226D01*
X126423016Y-44488095D01*
X124968000Y-43033080D01*
X124968000Y-41776746D01*
X125330448Y-41534565D01*
X125597296Y-41135200D01*
X125691000Y-40664117D01*
X125691000Y-40615883D01*
X125597296Y-40144800D01*
X125419025Y-39878000D01*
X126027580Y-39878000D01*
X136546790Y-50397210D01*
X136711596Y-50507331D01*
X136743850Y-50513746D01*
X136819287Y-50528752D01*
X136819287Y-53761287D01*
X136830108Y-53815688D01*
X134787287Y-51772867D01*
X134787287Y-50678553D01*
X135427250Y-50038590D01*
X135508300Y-49919968D01*
X135540991Y-49769271D01*
X135512476Y-49617728D01*
X135427250Y-49489218D01*
X134741356Y-48803324D01*
X134622734Y-48722274D01*
X134472037Y-48689583D01*
X134320494Y-48718098D01*
X134191984Y-48803324D01*
X133131324Y-49863984D01*
X133050274Y-49982606D01*
X133017583Y-50133303D01*
X133046098Y-50284846D01*
X133131324Y-50413356D01*
X133771287Y-51053319D01*
X133771287Y-51475287D01*
X133346707Y-51475287D01*
X130962395Y-49090975D01*
X130962525Y-48942139D01*
X130852550Y-48675979D01*
X130649092Y-48472165D01*
X130383124Y-48361726D01*
X130095139Y-48361475D01*
X129828979Y-48471450D01*
X129625165Y-48674908D01*
X129514726Y-48940876D01*
X129514475Y-49228861D01*
X129624450Y-49495021D01*
X129827908Y-49698835D01*
X130093876Y-49809274D01*
X130243985Y-49809405D01*
X132777077Y-52342497D01*
X132941884Y-52452618D01*
X133136287Y-52491287D01*
X134068867Y-52491287D01*
X136765215Y-55187635D01*
X136393127Y-55559722D01*
X136318736Y-55668597D01*
X136216351Y-55736498D01*
X135827442Y-56125407D01*
X135753050Y-56234284D01*
X135650666Y-56302184D01*
X135261757Y-56691093D01*
X135187367Y-56799967D01*
X135084980Y-56867869D01*
X134696071Y-57256778D01*
X134615021Y-57375400D01*
X134582330Y-57526097D01*
X134610845Y-57677640D01*
X134696071Y-57806150D01*
X135817921Y-58928000D01*
X134696071Y-60049850D01*
X134615021Y-60168472D01*
X134582330Y-60319169D01*
X134610845Y-60470712D01*
X134696071Y-60599222D01*
X135082465Y-60985616D01*
X134959290Y-61108790D01*
X134849169Y-61273597D01*
X134812422Y-61458339D01*
X134705165Y-61565408D01*
X134607758Y-61799991D01*
X129721600Y-55998420D01*
X129721600Y-51007000D01*
X129684864Y-50822317D01*
X129580250Y-50665750D01*
X127482600Y-48568100D01*
X127482600Y-47813000D01*
X130749000Y-47813000D01*
X130943403Y-47774331D01*
X131108210Y-47664210D01*
X131312525Y-47459895D01*
X131323485Y-47459905D01*
X132078870Y-48215290D01*
X131780750Y-48513410D01*
X131699700Y-48632032D01*
X131667009Y-48782729D01*
X131695524Y-48934272D01*
X131780750Y-49062782D01*
X132466644Y-49748676D01*
X132585266Y-49829726D01*
X132735963Y-49862417D01*
X132887506Y-49833902D01*
X133016016Y-49748676D01*
X134076676Y-48688016D01*
X134157726Y-48569394D01*
X134190417Y-48418697D01*
X134161902Y-48267154D01*
X134076676Y-48138644D01*
X133390782Y-47452750D01*
X133272160Y-47371700D01*
X133121463Y-47339009D01*
X132969920Y-47367524D01*
X132841410Y-47452750D01*
X132797290Y-47496870D01*
X132041895Y-46741475D01*
X132042025Y-46592639D01*
X131932050Y-46326479D01*
X131728592Y-46122665D01*
X131462624Y-46012226D01*
X131174639Y-46011975D01*
X130908479Y-46121950D01*
X130704665Y-46325408D01*
X130594226Y-46591376D01*
X130594095Y-46741484D01*
X130538580Y-46797000D01*
X125594136Y-46797000D01*
X125571897Y-46678810D01*
X125488454Y-46549135D01*
X125361134Y-46462141D01*
X125210000Y-46431536D01*
X123710000Y-46431536D01*
X123568810Y-46458103D01*
X123439135Y-46541546D01*
X123352141Y-46668866D01*
X123321536Y-46820000D01*
X123321536Y-46916560D01*
X123277790Y-46945790D01*
X122276080Y-47947500D01*
X122289000Y-47916309D01*
X122289000Y-47590750D01*
X122130250Y-47432000D01*
X121031000Y-47432000D01*
X121031000Y-47452000D01*
X120777000Y-47452000D01*
X120777000Y-47432000D01*
X119677750Y-47432000D01*
X119519000Y-47590750D01*
X119519000Y-47716500D01*
X119354600Y-47552100D01*
X119354600Y-46693691D01*
X119519000Y-46693691D01*
X119519000Y-47019250D01*
X119677750Y-47178000D01*
X120777000Y-47178000D01*
X120777000Y-46343750D01*
X121031000Y-46343750D01*
X121031000Y-47178000D01*
X122130250Y-47178000D01*
X122289000Y-47019250D01*
X122289000Y-46693691D01*
X122192327Y-46460302D01*
X122013699Y-46281673D01*
X121780310Y-46185000D01*
X121189750Y-46185000D01*
X121031000Y-46343750D01*
X120777000Y-46343750D01*
X120618250Y-46185000D01*
X120027690Y-46185000D01*
X119794301Y-46281673D01*
X119615673Y-46460302D01*
X119519000Y-46693691D01*
X119354600Y-46693691D01*
X119354600Y-41890065D01*
X119380000Y-41895117D01*
X119851083Y-41801413D01*
X120250448Y-41534565D01*
X120517296Y-41135200D01*
X120611000Y-40664117D01*
X120611000Y-40615883D01*
X120517296Y-40144800D01*
X120250448Y-39745435D01*
X119862600Y-39486282D01*
X119862600Y-39253718D01*
X120250448Y-38994565D01*
X120517296Y-38595200D01*
X120611000Y-38124117D01*
X120611000Y-38075883D01*
X120517296Y-37604800D01*
X120250448Y-37205435D01*
X119851083Y-36938587D01*
X119380000Y-36844883D01*
X118908917Y-36938587D01*
X118509552Y-37205435D01*
X118325000Y-37481636D01*
X118325000Y-37123691D01*
X118228327Y-36890302D01*
X118049699Y-36711673D01*
X117816310Y-36615000D01*
X117125750Y-36615000D01*
X116967000Y-36773750D01*
X116967000Y-37973000D01*
X116987000Y-37973000D01*
X116987000Y-38227000D01*
X116967000Y-38227000D01*
X116967000Y-40513000D01*
X116987000Y-40513000D01*
X116987000Y-40767000D01*
X116967000Y-40767000D01*
X116967000Y-41966250D01*
X117125750Y-42125000D01*
X117816310Y-42125000D01*
X118049699Y-42028327D01*
X118228327Y-41849698D01*
X118325000Y-41616309D01*
X118325000Y-41258364D01*
X118389400Y-41354745D01*
X118389400Y-46253383D01*
X118224310Y-46185000D01*
X117633750Y-46185000D01*
X117475000Y-46343750D01*
X117475000Y-47178000D01*
X117495000Y-47178000D01*
X117495000Y-47432000D01*
X117475000Y-47432000D01*
X117475000Y-47452000D01*
X117221000Y-47452000D01*
X117221000Y-47432000D01*
X116121750Y-47432000D01*
X115963000Y-47590750D01*
X115963000Y-47916309D01*
X116059673Y-48149698D01*
X116238301Y-48328327D01*
X116408844Y-48398968D01*
X116327135Y-48451546D01*
X116240141Y-48578866D01*
X116209536Y-48730000D01*
X116209536Y-49700000D01*
X116236103Y-49841190D01*
X116319546Y-49970865D01*
X116446866Y-50057859D01*
X116598000Y-50088464D01*
X116865400Y-50088464D01*
X116865400Y-52541000D01*
X116902136Y-52725683D01*
X117006750Y-52882250D01*
X117599536Y-53475035D01*
X117599536Y-53746000D01*
X117620994Y-53860037D01*
X117599536Y-53966000D01*
X117599536Y-53971000D01*
X114930464Y-53971000D01*
X114930464Y-53932000D01*
X114903897Y-53790810D01*
X114820454Y-53661135D01*
X114693134Y-53574141D01*
X114542000Y-53543536D01*
X114427000Y-53543536D01*
X114427000Y-50088464D01*
X114542000Y-50088464D01*
X114683190Y-50061897D01*
X114812865Y-49978454D01*
X114899859Y-49851134D01*
X114930464Y-49700000D01*
X114930464Y-48730000D01*
X114903897Y-48588810D01*
X114820454Y-48459135D01*
X114731929Y-48398648D01*
X114901699Y-48328327D01*
X115080327Y-48149698D01*
X115177000Y-47916309D01*
X115177000Y-47590750D01*
X115018250Y-47432000D01*
X113919000Y-47432000D01*
X113919000Y-47452000D01*
X113665000Y-47452000D01*
X113665000Y-47432000D01*
X112565750Y-47432000D01*
X112407000Y-47590750D01*
X112407000Y-47916309D01*
X112503673Y-48149698D01*
X112682301Y-48328327D01*
X112852844Y-48398968D01*
X112771135Y-48451546D01*
X112684141Y-48578866D01*
X112653536Y-48730000D01*
X112653536Y-49700000D01*
X112680103Y-49841190D01*
X112763546Y-49970865D01*
X112890866Y-50057859D01*
X113042000Y-50088464D01*
X113157000Y-50088464D01*
X113157000Y-52883975D01*
X109528013Y-49254987D01*
X109322004Y-49117336D01*
X109079000Y-49069000D01*
X105950468Y-49069000D01*
X105819914Y-48753034D01*
X105347453Y-48279748D01*
X104729839Y-48023292D01*
X104061095Y-48022709D01*
X103443034Y-48278086D01*
X102969748Y-48750547D01*
X102713292Y-49368161D01*
X102712709Y-50036905D01*
X102968086Y-50654966D01*
X103440547Y-51128252D01*
X103759000Y-51260485D01*
X103759000Y-54445536D01*
X103094000Y-54445536D01*
X102952810Y-54472103D01*
X102823135Y-54555546D01*
X102736141Y-54682866D01*
X102705536Y-54834000D01*
X102705536Y-57434000D01*
X102732103Y-57575190D01*
X102815546Y-57704865D01*
X102942866Y-57791859D01*
X103094000Y-57822464D01*
X105694000Y-57822464D01*
X105835190Y-57795897D01*
X105964865Y-57712454D01*
X106051859Y-57585134D01*
X106082464Y-57434000D01*
X106082464Y-56769000D01*
X108010574Y-56769000D01*
X112097136Y-60855562D01*
X112097136Y-62496000D01*
X112123703Y-62637190D01*
X112207146Y-62766865D01*
X112334466Y-62853859D01*
X112485600Y-62884464D01*
X114285600Y-62884464D01*
X114426790Y-62857897D01*
X114556465Y-62774454D01*
X114643459Y-62647134D01*
X114674064Y-62496000D01*
X114674064Y-59996000D01*
X114647497Y-59854810D01*
X114564054Y-59725135D01*
X114436734Y-59638141D01*
X114285600Y-59607536D01*
X112645162Y-59607536D01*
X111597316Y-58559690D01*
X115781000Y-58559690D01*
X115781000Y-59150250D01*
X115939750Y-59309000D01*
X116774000Y-59309000D01*
X116774000Y-58209750D01*
X116615250Y-58051000D01*
X116289691Y-58051000D01*
X116056302Y-58147673D01*
X115877673Y-58326301D01*
X115781000Y-58559690D01*
X111597316Y-58559690D01*
X109650376Y-56612750D01*
X112407000Y-56612750D01*
X112407000Y-56938309D01*
X112503673Y-57171698D01*
X112682301Y-57350327D01*
X112915690Y-57447000D01*
X113506250Y-57447000D01*
X113665000Y-57288250D01*
X113665000Y-56454000D01*
X113919000Y-56454000D01*
X113919000Y-57288250D01*
X114077750Y-57447000D01*
X114668310Y-57447000D01*
X114901699Y-57350327D01*
X115080327Y-57171698D01*
X115177000Y-56938309D01*
X115177000Y-56612750D01*
X115018250Y-56454000D01*
X113919000Y-56454000D01*
X113665000Y-56454000D01*
X112565750Y-56454000D01*
X112407000Y-56612750D01*
X109650376Y-56612750D01*
X108722613Y-55684987D01*
X108516604Y-55547336D01*
X108273600Y-55499000D01*
X106082464Y-55499000D01*
X106082464Y-54834000D01*
X106055897Y-54692810D01*
X105972454Y-54563135D01*
X105845134Y-54476141D01*
X105694000Y-54445536D01*
X105029000Y-54445536D01*
X105029000Y-51260468D01*
X105344966Y-51129914D01*
X105818252Y-50657453D01*
X105950485Y-50339000D01*
X108815974Y-50339000D01*
X112653536Y-54176561D01*
X112653536Y-54902000D01*
X112680103Y-55043190D01*
X112763546Y-55172865D01*
X112852071Y-55233352D01*
X112682301Y-55303673D01*
X112503673Y-55482302D01*
X112407000Y-55715691D01*
X112407000Y-56041250D01*
X112565750Y-56200000D01*
X113665000Y-56200000D01*
X113665000Y-56180000D01*
X113919000Y-56180000D01*
X113919000Y-56200000D01*
X115018250Y-56200000D01*
X115177000Y-56041250D01*
X115177000Y-55715691D01*
X115080327Y-55482302D01*
X114901699Y-55303673D01*
X114750393Y-55241000D01*
X117599536Y-55241000D01*
X117599536Y-55246000D01*
X117626103Y-55387190D01*
X117709546Y-55516865D01*
X117836866Y-55603859D01*
X117959064Y-55628604D01*
X117967136Y-55669183D01*
X118071750Y-55825750D01*
X118418250Y-56172250D01*
X118574817Y-56276864D01*
X118614965Y-56284850D01*
X118636103Y-56397190D01*
X118719546Y-56526865D01*
X118846866Y-56613859D01*
X118998000Y-56644464D01*
X119155400Y-56644464D01*
X119155400Y-57169180D01*
X118451790Y-57872790D01*
X118341669Y-58037597D01*
X118303000Y-58232000D01*
X118303000Y-58301864D01*
X118184810Y-58324103D01*
X118055135Y-58407546D01*
X117994648Y-58496071D01*
X117924327Y-58326301D01*
X117745698Y-58147673D01*
X117512309Y-58051000D01*
X117186750Y-58051000D01*
X117028000Y-58209750D01*
X117028000Y-59309000D01*
X117048000Y-59309000D01*
X117048000Y-59563000D01*
X117028000Y-59563000D01*
X117028000Y-59583000D01*
X116774000Y-59583000D01*
X116774000Y-59563000D01*
X115939750Y-59563000D01*
X115781000Y-59721750D01*
X115781000Y-60312310D01*
X115877673Y-60545699D01*
X115960804Y-60628829D01*
X115846279Y-60676150D01*
X115642465Y-60879608D01*
X115532026Y-61145576D01*
X115531775Y-61433561D01*
X115641750Y-61699721D01*
X115845208Y-61903535D01*
X116111176Y-62013974D01*
X116399161Y-62014225D01*
X116665321Y-61904250D01*
X116797001Y-61772800D01*
X118033800Y-61772800D01*
X118218483Y-61736064D01*
X118375050Y-61631450D01*
X119152250Y-60854250D01*
X119256864Y-60697683D01*
X119281375Y-60574464D01*
X119296000Y-60574464D01*
X119437190Y-60547897D01*
X119566865Y-60464454D01*
X119653859Y-60337134D01*
X119684464Y-60186000D01*
X119684464Y-58686000D01*
X119657897Y-58544810D01*
X119574454Y-58415135D01*
X119447134Y-58328141D01*
X119435612Y-58325808D01*
X119785920Y-57975500D01*
X123253500Y-57975500D01*
X123447903Y-57936831D01*
X123612710Y-57826710D01*
X124717420Y-56722000D01*
X126011536Y-56722000D01*
X126011536Y-56964000D01*
X126038103Y-57105190D01*
X126121546Y-57234865D01*
X126248866Y-57321859D01*
X126400000Y-57352464D01*
X127600000Y-57352464D01*
X127741190Y-57325897D01*
X127870865Y-57242454D01*
X127957859Y-57115134D01*
X127988464Y-56964000D01*
X127988464Y-56722000D01*
X129002680Y-56722000D01*
X129876621Y-57759672D01*
X129650639Y-57759475D01*
X129384479Y-57869450D01*
X129180665Y-58072908D01*
X129070226Y-58338876D01*
X129070045Y-58546233D01*
X129032000Y-58737500D01*
X129032000Y-66624536D01*
X128790000Y-66624536D01*
X128648810Y-66651103D01*
X128519135Y-66734546D01*
X128432141Y-66861866D01*
X128401536Y-67013000D01*
X128401536Y-67983000D01*
X128428103Y-68124190D01*
X128511546Y-68253865D01*
X128638866Y-68340859D01*
X128790000Y-68371464D01*
X130290000Y-68371464D01*
X130431190Y-68344897D01*
X130560865Y-68261454D01*
X130647859Y-68134134D01*
X130678464Y-67983000D01*
X130678464Y-67013000D01*
X130651897Y-66871810D01*
X130568454Y-66742135D01*
X130441134Y-66655141D01*
X130290000Y-66624536D01*
X130048000Y-66624536D01*
X130048000Y-59161810D01*
X130203521Y-59097550D01*
X130407335Y-58894092D01*
X130517774Y-58628124D01*
X130517867Y-58521055D01*
X134299423Y-63011078D01*
X132373750Y-64936750D01*
X132269136Y-65093317D01*
X132232400Y-65278000D01*
X132232400Y-74295000D01*
X132269136Y-74479683D01*
X132373750Y-74636250D01*
X133381536Y-75644036D01*
X133381536Y-77050000D01*
X133408103Y-77191190D01*
X133491546Y-77320865D01*
X133618866Y-77407859D01*
X133770000Y-77438464D01*
X135470000Y-77438464D01*
X135611190Y-77411897D01*
X135740865Y-77328454D01*
X135827859Y-77201134D01*
X135858464Y-77050000D01*
X135858464Y-76854895D01*
X135964817Y-77081358D01*
X136393076Y-77471645D01*
X136803110Y-77641476D01*
X137033000Y-77520155D01*
X137033000Y-76327000D01*
X137013000Y-76327000D01*
X137013000Y-76073000D01*
X137033000Y-76073000D01*
X137033000Y-76053000D01*
X137287000Y-76053000D01*
X137287000Y-76073000D01*
X137307000Y-76073000D01*
X137307000Y-76327000D01*
X137287000Y-76327000D01*
X137287000Y-77520155D01*
X137516890Y-77641476D01*
X137926924Y-77471645D01*
X138355183Y-77081358D01*
X138554917Y-76656053D01*
X138562704Y-76695200D01*
X138829552Y-77094565D01*
X139228917Y-77361413D01*
X139700000Y-77455117D01*
X140171083Y-77361413D01*
X140570448Y-77094565D01*
X140837296Y-76695200D01*
X140931000Y-76224117D01*
X140931000Y-76175883D01*
X140886141Y-75950359D01*
X141095504Y-75740996D01*
X141009000Y-76175883D01*
X141009000Y-76224117D01*
X141102704Y-76695200D01*
X141369552Y-77094565D01*
X141768917Y-77361413D01*
X142240000Y-77455117D01*
X142711083Y-77361413D01*
X143110448Y-77094565D01*
X143377296Y-76695200D01*
X143379802Y-76682600D01*
X144834100Y-76682600D01*
X145927500Y-77776000D01*
X117808757Y-77776000D01*
X118271835Y-77584660D01*
X119237270Y-76620908D01*
X119760403Y-75361063D01*
X119761594Y-73996922D01*
X119240660Y-72736165D01*
X118276908Y-71770730D01*
X117017063Y-71247597D01*
X115652922Y-71246406D01*
X114392165Y-71767340D01*
X113426730Y-72731092D01*
X112903597Y-73990937D01*
X112902406Y-75355078D01*
X113423340Y-76615835D01*
X114387092Y-77581270D01*
X114856054Y-77776000D01*
X103169720Y-77776000D01*
X103146860Y-77780547D01*
X103124000Y-77776000D01*
X102914911Y-77776000D01*
X101589898Y-77512438D01*
X100504681Y-76787319D01*
X99779562Y-75702102D01*
X99516000Y-74377089D01*
X99516000Y-73831787D01*
X100368787Y-73831787D01*
X100555800Y-74284395D01*
X100901784Y-74630983D01*
X101354065Y-74818786D01*
X101843787Y-74819213D01*
X102296395Y-74632200D01*
X102642983Y-74286216D01*
X102830786Y-73833935D01*
X102830787Y-73831787D01*
X106868787Y-73831787D01*
X107055800Y-74284395D01*
X107401784Y-74630983D01*
X107854065Y-74818786D01*
X108343787Y-74819213D01*
X108796395Y-74632200D01*
X109142983Y-74286216D01*
X109330786Y-73833935D01*
X109331213Y-73344213D01*
X109144200Y-72891605D01*
X108798216Y-72545017D01*
X108345935Y-72357214D01*
X107856213Y-72356787D01*
X107403605Y-72543800D01*
X107057017Y-72889784D01*
X106869214Y-73342065D01*
X106868787Y-73831787D01*
X102830787Y-73831787D01*
X102831213Y-73344213D01*
X102644200Y-72891605D01*
X102298216Y-72545017D01*
X101845935Y-72357214D01*
X101356213Y-72356787D01*
X100903605Y-72543800D01*
X100557017Y-72889784D01*
X100369214Y-73342065D01*
X100368787Y-73831787D01*
X99516000Y-73831787D01*
X99516000Y-69331787D01*
X100368787Y-69331787D01*
X100555800Y-69784395D01*
X100901784Y-70130983D01*
X101354065Y-70318786D01*
X101843787Y-70319213D01*
X102296395Y-70132200D01*
X102642983Y-69786216D01*
X102830786Y-69333935D01*
X102830787Y-69331787D01*
X106868787Y-69331787D01*
X107055800Y-69784395D01*
X107401784Y-70130983D01*
X107854065Y-70318786D01*
X108343787Y-70319213D01*
X108796395Y-70132200D01*
X109142983Y-69786216D01*
X109330786Y-69333935D01*
X109331213Y-68844213D01*
X109144200Y-68391605D01*
X108798216Y-68045017D01*
X108345935Y-67857214D01*
X107856213Y-67856787D01*
X107403605Y-68043800D01*
X107057017Y-68389784D01*
X106869214Y-68842065D01*
X106868787Y-69331787D01*
X102830787Y-69331787D01*
X102831213Y-68844213D01*
X102644200Y-68391605D01*
X102298216Y-68045017D01*
X101845935Y-67857214D01*
X101356213Y-67856787D01*
X100903605Y-68043800D01*
X100557017Y-68389784D01*
X100369214Y-68842065D01*
X100368787Y-69331787D01*
X99516000Y-69331787D01*
X99516000Y-61466905D01*
X102712709Y-61466905D01*
X102968086Y-62084966D01*
X103440547Y-62558252D01*
X104058161Y-62814708D01*
X104726905Y-62815291D01*
X104799410Y-62785332D01*
X107883039Y-65868961D01*
X108168856Y-66059938D01*
X108506000Y-66127000D01*
X112097136Y-66127000D01*
X112097136Y-66496000D01*
X112123703Y-66637190D01*
X112207146Y-66766865D01*
X112334466Y-66853859D01*
X112485600Y-66884464D01*
X113778142Y-66884464D01*
X114344039Y-67450361D01*
X114629855Y-67641338D01*
X114967000Y-67708400D01*
X116347536Y-67708400D01*
X116347536Y-69727400D01*
X116374103Y-69868590D01*
X116457546Y-69998265D01*
X116584866Y-70085259D01*
X116736000Y-70115864D01*
X122936000Y-70115864D01*
X123077190Y-70089297D01*
X123206865Y-70005854D01*
X123293859Y-69878534D01*
X123324464Y-69727400D01*
X123324464Y-68312400D01*
X123627536Y-68312400D01*
X123627536Y-69912400D01*
X123654103Y-70053590D01*
X123737546Y-70183265D01*
X123864866Y-70270259D01*
X124016000Y-70300864D01*
X127016000Y-70300864D01*
X127157190Y-70274297D01*
X127286865Y-70190854D01*
X127373859Y-70063534D01*
X127404464Y-69912400D01*
X127404464Y-69890600D01*
X128401536Y-69890600D01*
X128401536Y-69893000D01*
X128428103Y-70034190D01*
X128511546Y-70163865D01*
X128638866Y-70250859D01*
X128790000Y-70281464D01*
X130290000Y-70281464D01*
X130431190Y-70254897D01*
X130560865Y-70171454D01*
X130647859Y-70044134D01*
X130678464Y-69893000D01*
X130678464Y-68923000D01*
X130651897Y-68781810D01*
X130568454Y-68652135D01*
X130441134Y-68565141D01*
X130290000Y-68534536D01*
X128790000Y-68534536D01*
X128648810Y-68561103D01*
X128519135Y-68644546D01*
X128432141Y-68771866D01*
X128401536Y-68923000D01*
X128401536Y-68925400D01*
X127404464Y-68925400D01*
X127404464Y-68312400D01*
X127377897Y-68171210D01*
X127294454Y-68041535D01*
X127167134Y-67954541D01*
X127016000Y-67923936D01*
X124016000Y-67923936D01*
X123874810Y-67950503D01*
X123745135Y-68033946D01*
X123658141Y-68161266D01*
X123627536Y-68312400D01*
X123324464Y-68312400D01*
X123324464Y-64828150D01*
X123381000Y-64828150D01*
X123381000Y-65468710D01*
X123477673Y-65702099D01*
X123656302Y-65880727D01*
X123889691Y-65977400D01*
X125230250Y-65977400D01*
X125389000Y-65818650D01*
X125389000Y-64669400D01*
X125643000Y-64669400D01*
X125643000Y-65818650D01*
X125801750Y-65977400D01*
X127142309Y-65977400D01*
X127375698Y-65880727D01*
X127554327Y-65702099D01*
X127651000Y-65468710D01*
X127651000Y-64828150D01*
X127492250Y-64669400D01*
X125643000Y-64669400D01*
X125389000Y-64669400D01*
X123539750Y-64669400D01*
X123381000Y-64828150D01*
X123324464Y-64828150D01*
X123324464Y-63927400D01*
X123297897Y-63786210D01*
X123214454Y-63656535D01*
X123155261Y-63616090D01*
X123381000Y-63616090D01*
X123381000Y-64256650D01*
X123539750Y-64415400D01*
X125389000Y-64415400D01*
X125389000Y-63266150D01*
X125643000Y-63266150D01*
X125643000Y-64415400D01*
X127492250Y-64415400D01*
X127651000Y-64256650D01*
X127651000Y-63616090D01*
X127554327Y-63382701D01*
X127375698Y-63204073D01*
X127142309Y-63107400D01*
X125801750Y-63107400D01*
X125643000Y-63266150D01*
X125389000Y-63266150D01*
X125230250Y-63107400D01*
X123889691Y-63107400D01*
X123656302Y-63204073D01*
X123477673Y-63382701D01*
X123381000Y-63616090D01*
X123155261Y-63616090D01*
X123087134Y-63569541D01*
X122936000Y-63538936D01*
X116736000Y-63538936D01*
X116594810Y-63565503D01*
X116465135Y-63648946D01*
X116378141Y-63776266D01*
X116347536Y-63927400D01*
X116347536Y-65946400D01*
X115331922Y-65946400D01*
X114674064Y-65288542D01*
X114674064Y-63996000D01*
X114647497Y-63854810D01*
X114564054Y-63725135D01*
X114436734Y-63638141D01*
X114285600Y-63607536D01*
X112485600Y-63607536D01*
X112344410Y-63634103D01*
X112214735Y-63717546D01*
X112127741Y-63844866D01*
X112097136Y-63996000D01*
X112097136Y-64365000D01*
X108870922Y-64365000D01*
X106045677Y-61539755D01*
X106074708Y-61469839D01*
X106075291Y-60801095D01*
X105819914Y-60183034D01*
X105347453Y-59709748D01*
X104729839Y-59453292D01*
X104061095Y-59452709D01*
X103443034Y-59708086D01*
X102969748Y-60180547D01*
X102713292Y-60798161D01*
X102712709Y-61466905D01*
X99516000Y-61466905D01*
X99516000Y-46693691D01*
X112407000Y-46693691D01*
X112407000Y-47019250D01*
X112565750Y-47178000D01*
X113665000Y-47178000D01*
X113665000Y-46343750D01*
X113919000Y-46343750D01*
X113919000Y-47178000D01*
X115018250Y-47178000D01*
X115177000Y-47019250D01*
X115177000Y-46693691D01*
X115963000Y-46693691D01*
X115963000Y-47019250D01*
X116121750Y-47178000D01*
X117221000Y-47178000D01*
X117221000Y-46343750D01*
X117062250Y-46185000D01*
X116471690Y-46185000D01*
X116238301Y-46281673D01*
X116059673Y-46460302D01*
X115963000Y-46693691D01*
X115177000Y-46693691D01*
X115080327Y-46460302D01*
X114901699Y-46281673D01*
X114668310Y-46185000D01*
X114077750Y-46185000D01*
X113919000Y-46343750D01*
X113665000Y-46343750D01*
X113506250Y-46185000D01*
X112915690Y-46185000D01*
X112682301Y-46281673D01*
X112503673Y-46460302D01*
X112407000Y-46693691D01*
X99516000Y-46693691D01*
X99516000Y-44989750D01*
X102459000Y-44989750D01*
X102459000Y-46130309D01*
X102555673Y-46363698D01*
X102734301Y-46542327D01*
X102967690Y-46639000D01*
X104108250Y-46639000D01*
X104267000Y-46480250D01*
X104267000Y-44831000D01*
X104521000Y-44831000D01*
X104521000Y-46480250D01*
X104679750Y-46639000D01*
X105820310Y-46639000D01*
X106053699Y-46542327D01*
X106232327Y-46363698D01*
X106329000Y-46130309D01*
X106329000Y-44989750D01*
X106170250Y-44831000D01*
X104521000Y-44831000D01*
X104267000Y-44831000D01*
X102617750Y-44831000D01*
X102459000Y-44989750D01*
X99516000Y-44989750D01*
X99516000Y-43277691D01*
X102459000Y-43277691D01*
X102459000Y-44418250D01*
X102617750Y-44577000D01*
X104267000Y-44577000D01*
X104267000Y-42927750D01*
X104521000Y-42927750D01*
X104521000Y-44577000D01*
X106170250Y-44577000D01*
X106329000Y-44418250D01*
X106329000Y-43277691D01*
X106232327Y-43044302D01*
X106053699Y-42865673D01*
X105820310Y-42769000D01*
X104679750Y-42769000D01*
X104521000Y-42927750D01*
X104267000Y-42927750D01*
X104108250Y-42769000D01*
X102967690Y-42769000D01*
X102734301Y-42865673D01*
X102555673Y-43044302D01*
X102459000Y-43277691D01*
X99516000Y-43277691D01*
X99516000Y-39414911D01*
X99771750Y-38129170D01*
X99770606Y-39439478D01*
X100291540Y-40700235D01*
X101255292Y-41665670D01*
X102515137Y-42188803D01*
X103879278Y-42189994D01*
X105140035Y-41669060D01*
X105884643Y-40925750D01*
X115355000Y-40925750D01*
X115355000Y-41616309D01*
X115451673Y-41849698D01*
X115630301Y-42028327D01*
X115863690Y-42125000D01*
X116554250Y-42125000D01*
X116713000Y-41966250D01*
X116713000Y-40767000D01*
X115513750Y-40767000D01*
X115355000Y-40925750D01*
X105884643Y-40925750D01*
X106105470Y-40705308D01*
X106628603Y-39445463D01*
X106629528Y-38385750D01*
X115355000Y-38385750D01*
X115355000Y-39076309D01*
X115451673Y-39309698D01*
X115511975Y-39370000D01*
X115451673Y-39430302D01*
X115355000Y-39663691D01*
X115355000Y-40354250D01*
X115513750Y-40513000D01*
X116713000Y-40513000D01*
X116713000Y-38227000D01*
X115513750Y-38227000D01*
X115355000Y-38385750D01*
X106629528Y-38385750D01*
X106629794Y-38081322D01*
X106234110Y-37123691D01*
X115355000Y-37123691D01*
X115355000Y-37814250D01*
X115513750Y-37973000D01*
X116713000Y-37973000D01*
X116713000Y-36773750D01*
X116554250Y-36615000D01*
X115863690Y-36615000D01*
X115630301Y-36711673D01*
X115451673Y-36890302D01*
X115355000Y-37123691D01*
X106234110Y-37123691D01*
X106108860Y-36820565D01*
X105305698Y-36016000D01*
X154479243Y-36016000D01*
X154016165Y-36207340D01*
X154016165Y-36207340D01*
G37*
X154016165Y-36207340D02*
X153050730Y-37171092D01*
X152527597Y-38430937D01*
X152526406Y-39795078D01*
X153047340Y-41055835D01*
X154011092Y-42021270D01*
X155270937Y-42544403D01*
X156635078Y-42545594D01*
X157895835Y-42024660D01*
X158040747Y-41880000D01*
X163411536Y-41880000D01*
X163411536Y-44480000D01*
X163438103Y-44621190D01*
X163521546Y-44750865D01*
X163648866Y-44837859D01*
X163800000Y-44868464D01*
X166400000Y-44868464D01*
X166541190Y-44841897D01*
X166670865Y-44758454D01*
X166757859Y-44631134D01*
X166788464Y-44480000D01*
X166788464Y-41880000D01*
X166761897Y-41738810D01*
X166678454Y-41609135D01*
X166551134Y-41522141D01*
X166400000Y-41491536D01*
X163800000Y-41491536D01*
X163658810Y-41518103D01*
X163529135Y-41601546D01*
X163442141Y-41728866D01*
X163411536Y-41880000D01*
X158040747Y-41880000D01*
X158630414Y-41291361D01*
X161327975Y-41291361D01*
X161437950Y-41557521D01*
X161641408Y-41761335D01*
X161907376Y-41871774D01*
X162195361Y-41872025D01*
X162461521Y-41762050D01*
X162665335Y-41558592D01*
X162775774Y-41292624D01*
X162775936Y-41106564D01*
X164239606Y-39642894D01*
X164764161Y-39860708D01*
X165432905Y-39861291D01*
X166050966Y-39605914D01*
X166524252Y-39133453D01*
X166780708Y-38515839D01*
X166781291Y-37847095D01*
X166525914Y-37229034D01*
X166053453Y-36755748D01*
X165435839Y-36499292D01*
X164767095Y-36498709D01*
X164149034Y-36754086D01*
X163675748Y-37226547D01*
X163419292Y-37844161D01*
X163418709Y-38512905D01*
X163590011Y-38927489D01*
X162093364Y-40424136D01*
X161908639Y-40423975D01*
X161642479Y-40533950D01*
X161438665Y-40737408D01*
X161328226Y-41003376D01*
X161327975Y-41291361D01*
X158630414Y-41291361D01*
X158861270Y-41060908D01*
X159384403Y-39801063D01*
X159385594Y-38436922D01*
X158864660Y-37176165D01*
X157900908Y-36210730D01*
X157431946Y-36016000D01*
X168103089Y-36016000D01*
X169428102Y-36279562D01*
X170513319Y-37004681D01*
X171238438Y-38089898D01*
X171502000Y-39414911D01*
X171502000Y-66701970D01*
X171056660Y-65624165D01*
X170092908Y-64658730D01*
X168833063Y-64135597D01*
X167468922Y-64134406D01*
X166208165Y-64655340D01*
X165242730Y-65619092D01*
X164719597Y-66878937D01*
X164718406Y-68243078D01*
X165239340Y-69503835D01*
X166203092Y-70469270D01*
X167462937Y-70992403D01*
X168827078Y-70993594D01*
X170087835Y-70472660D01*
X171053270Y-69508908D01*
X171502000Y-68428245D01*
X171502000Y-74377089D01*
X171238438Y-75702102D01*
X170513319Y-76787319D01*
X169428102Y-77512438D01*
X168103089Y-77776000D01*
X166655420Y-77776000D01*
X167109625Y-77321795D01*
X167168917Y-77361413D01*
X167640000Y-77455117D01*
X168111083Y-77361413D01*
X168510448Y-77094565D01*
X168777296Y-76695200D01*
X168871000Y-76224117D01*
X168871000Y-76175883D01*
X168777296Y-75704800D01*
X168510448Y-75305435D01*
X168111083Y-75038587D01*
X167640000Y-74944883D01*
X167168917Y-75038587D01*
X166769552Y-75305435D01*
X166502704Y-75704800D01*
X166409000Y-76175883D01*
X166409000Y-76224117D01*
X166468970Y-76525610D01*
X166112278Y-76882302D01*
X166237296Y-76695200D01*
X166331000Y-76224117D01*
X166331000Y-76175883D01*
X166237296Y-75704800D01*
X165970448Y-75305435D01*
X165571083Y-75038587D01*
X165100000Y-74944883D01*
X164628917Y-75038587D01*
X164624223Y-75041723D01*
X164376100Y-74793600D01*
X164376100Y-74652486D01*
X164628917Y-74821413D01*
X165100000Y-74915117D01*
X165571083Y-74821413D01*
X165970448Y-74554565D01*
X166237296Y-74155200D01*
X166331000Y-73684117D01*
X166331000Y-73635883D01*
X166237296Y-73164800D01*
X165970448Y-72765435D01*
X165571083Y-72498587D01*
X165336407Y-72451907D01*
X163726750Y-70842250D01*
X163570183Y-70737636D01*
X163385500Y-70700900D01*
X163050423Y-70700900D01*
X163109835Y-70641592D01*
X163220274Y-70375624D01*
X163220525Y-70087639D01*
X163110550Y-69821479D01*
X162907092Y-69617665D01*
X162641124Y-69507226D01*
X162353139Y-69506975D01*
X162086979Y-69616950D01*
X161955299Y-69748400D01*
X153197600Y-69748400D01*
X153197600Y-67707361D01*
X156247975Y-67707361D01*
X156357950Y-67973521D01*
X156561408Y-68177335D01*
X156827376Y-68287774D01*
X157115361Y-68288025D01*
X157381521Y-68178050D01*
X157585335Y-67974592D01*
X157695774Y-67708624D01*
X157695905Y-67558515D01*
X158690059Y-66564361D01*
X160184975Y-66564361D01*
X160294950Y-66830521D01*
X160498408Y-67034335D01*
X160764376Y-67144774D01*
X160914485Y-67144905D01*
X166675609Y-72906030D01*
X166502704Y-73164800D01*
X166409000Y-73635883D01*
X166409000Y-73684117D01*
X166502704Y-74155200D01*
X166769552Y-74554565D01*
X167168917Y-74821413D01*
X167640000Y-74915117D01*
X168111083Y-74821413D01*
X168510448Y-74554565D01*
X168777296Y-74155200D01*
X168871000Y-73684117D01*
X168871000Y-73635883D01*
X168777296Y-73164800D01*
X168510448Y-72765435D01*
X168111083Y-72498587D01*
X167640000Y-72404883D01*
X167616065Y-72409644D01*
X161632895Y-66426475D01*
X161633025Y-66277639D01*
X161523050Y-66011479D01*
X161319592Y-65807665D01*
X161053624Y-65697226D01*
X160765639Y-65696975D01*
X160499479Y-65806950D01*
X160295665Y-66010408D01*
X160185226Y-66276376D01*
X160184975Y-66564361D01*
X158690059Y-66564361D01*
X160523957Y-64730464D01*
X162062000Y-64730464D01*
X162203190Y-64703897D01*
X162332865Y-64620454D01*
X162419859Y-64493134D01*
X162450464Y-64342000D01*
X162450464Y-63542000D01*
X162423897Y-63400810D01*
X162340454Y-63271135D01*
X162213134Y-63184141D01*
X162062000Y-63153536D01*
X160262000Y-63153536D01*
X160120810Y-63180103D01*
X159991135Y-63263546D01*
X159904141Y-63390866D01*
X159873536Y-63542000D01*
X159873536Y-63944043D01*
X156977475Y-66840105D01*
X156828639Y-66839975D01*
X156562479Y-66949950D01*
X156358665Y-67153408D01*
X156248226Y-67419376D01*
X156247975Y-67707361D01*
X153197600Y-67707361D01*
X153197600Y-65400464D01*
X153200000Y-65400464D01*
X153341190Y-65373897D01*
X153470865Y-65290454D01*
X153557859Y-65163134D01*
X153588464Y-65012000D01*
X153588464Y-63512000D01*
X153561897Y-63370810D01*
X153478454Y-63241135D01*
X153351134Y-63154141D01*
X153200000Y-63123536D01*
X153197600Y-63123536D01*
X153197600Y-61175931D01*
X153305361Y-61176025D01*
X153571521Y-61066050D01*
X153775335Y-60862592D01*
X153885774Y-60596624D01*
X153886025Y-60308639D01*
X153776050Y-60042479D01*
X153572592Y-59838665D01*
X153306624Y-59728226D01*
X153018639Y-59727975D01*
X152752479Y-59837950D01*
X152620799Y-59969400D01*
X151544210Y-59969400D01*
X151477092Y-59902165D01*
X151211124Y-59791726D01*
X150923139Y-59791475D01*
X150656979Y-59901450D01*
X150453165Y-60104908D01*
X150342726Y-60370876D01*
X150342475Y-60658861D01*
X150452450Y-60925021D01*
X150655908Y-61128835D01*
X150921876Y-61239274D01*
X151209861Y-61239525D01*
X151476021Y-61129550D01*
X151671312Y-60934600D01*
X152232400Y-60934600D01*
X152232400Y-61927572D01*
X152175592Y-61870665D01*
X151909624Y-61760226D01*
X151621639Y-61759975D01*
X151355479Y-61869950D01*
X151151665Y-62073408D01*
X151041226Y-62339376D01*
X151040975Y-62627361D01*
X151120915Y-62820831D01*
X150876000Y-68760021D01*
X150876000Y-64516000D01*
X150837331Y-64321597D01*
X150727210Y-64156790D01*
X148695210Y-62124790D01*
X148690875Y-62121894D01*
X148687892Y-62117618D01*
X146845687Y-60348265D01*
X146849670Y-60329903D01*
X146821155Y-60178360D01*
X146735929Y-60049850D01*
X145614079Y-58928000D01*
X146131384Y-58410695D01*
X146305565Y-58410695D01*
X146198665Y-58517408D01*
X146088226Y-58783376D01*
X146087975Y-59071361D01*
X146197950Y-59337521D01*
X146401408Y-59541335D01*
X146667376Y-59651774D01*
X146955361Y-59652025D01*
X147221521Y-59542050D01*
X147327757Y-59436000D01*
X157354000Y-59436000D01*
X157354000Y-62203536D01*
X156962000Y-62203536D01*
X156820810Y-62230103D01*
X156691135Y-62313546D01*
X156604141Y-62440866D01*
X156573536Y-62592000D01*
X156573536Y-63392000D01*
X156600103Y-63533190D01*
X156600998Y-63534582D01*
X156381580Y-63754000D01*
X155498464Y-63754000D01*
X155498464Y-63512000D01*
X155471897Y-63370810D01*
X155388454Y-63241135D01*
X155261134Y-63154141D01*
X155110000Y-63123536D01*
X154140000Y-63123536D01*
X153998810Y-63150103D01*
X153869135Y-63233546D01*
X153782141Y-63360866D01*
X153751536Y-63512000D01*
X153751536Y-65012000D01*
X153778103Y-65153190D01*
X153861546Y-65282865D01*
X153988866Y-65369859D01*
X154140000Y-65400464D01*
X155110000Y-65400464D01*
X155251190Y-65373897D01*
X155380865Y-65290454D01*
X155467859Y-65163134D01*
X155498464Y-65012000D01*
X155498464Y-64770000D01*
X156592000Y-64770000D01*
X156786403Y-64731331D01*
X156951210Y-64621210D01*
X157791956Y-63780464D01*
X158762000Y-63780464D01*
X158903190Y-63753897D01*
X159032865Y-63670454D01*
X159119859Y-63543134D01*
X159150464Y-63392000D01*
X159150464Y-62592000D01*
X159123897Y-62450810D01*
X159040454Y-62321135D01*
X158913134Y-62234141D01*
X158762000Y-62203536D01*
X158370000Y-62203536D01*
X158370000Y-61642000D01*
X159873536Y-61642000D01*
X159873536Y-62442000D01*
X159900103Y-62583190D01*
X159983546Y-62712865D01*
X160110866Y-62799859D01*
X160262000Y-62830464D01*
X162062000Y-62830464D01*
X162203190Y-62803897D01*
X162332865Y-62720454D01*
X162419859Y-62593134D01*
X162450464Y-62442000D01*
X162450464Y-61753750D01*
X167171000Y-61753750D01*
X167171000Y-62444310D01*
X167267673Y-62677699D01*
X167446302Y-62856327D01*
X167679691Y-62953000D01*
X168370250Y-62953000D01*
X168529000Y-62794250D01*
X168529000Y-61595000D01*
X168783000Y-61595000D01*
X168783000Y-62794250D01*
X168941750Y-62953000D01*
X169632309Y-62953000D01*
X169865698Y-62856327D01*
X170044327Y-62677699D01*
X170141000Y-62444310D01*
X170141000Y-61753750D01*
X169982250Y-61595000D01*
X168783000Y-61595000D01*
X168529000Y-61595000D01*
X167329750Y-61595000D01*
X167171000Y-61753750D01*
X162450464Y-61753750D01*
X162450464Y-61642000D01*
X162423897Y-61500810D01*
X162340454Y-61371135D01*
X162213134Y-61284141D01*
X162062000Y-61253536D01*
X160262000Y-61253536D01*
X160120810Y-61280103D01*
X159991135Y-61363546D01*
X159904141Y-61490866D01*
X159873536Y-61642000D01*
X158370000Y-61642000D01*
X158370000Y-59416238D01*
X158389950Y-59464521D01*
X158593408Y-59668335D01*
X158859376Y-59778774D01*
X159147361Y-59779025D01*
X159170739Y-59769365D01*
X159152665Y-59787408D01*
X159042226Y-60053376D01*
X159041975Y-60341361D01*
X159151950Y-60607521D01*
X159355408Y-60811335D01*
X159621376Y-60921774D01*
X159909361Y-60922025D01*
X160175521Y-60812050D01*
X160379335Y-60608592D01*
X160427876Y-60491690D01*
X167171000Y-60491690D01*
X167171000Y-61182250D01*
X167329750Y-61341000D01*
X168529000Y-61341000D01*
X168529000Y-61321000D01*
X168783000Y-61321000D01*
X168783000Y-61341000D01*
X169982250Y-61341000D01*
X170141000Y-61182250D01*
X170141000Y-60491690D01*
X170044327Y-60258301D01*
X169865698Y-60079673D01*
X169632309Y-59983000D01*
X169274364Y-59983000D01*
X169550565Y-59798448D01*
X169817413Y-59399083D01*
X169911117Y-58928000D01*
X169817413Y-58456917D01*
X169550565Y-58057552D01*
X169151200Y-57790704D01*
X168680117Y-57697000D01*
X168631883Y-57697000D01*
X168160800Y-57790704D01*
X167761435Y-58057552D01*
X167494587Y-58456917D01*
X167400883Y-58928000D01*
X167494587Y-59399083D01*
X167761435Y-59798448D01*
X168037636Y-59983000D01*
X167679691Y-59983000D01*
X167446302Y-60079673D01*
X167267673Y-60258301D01*
X167171000Y-60491690D01*
X160427876Y-60491690D01*
X160489774Y-60342624D01*
X160489905Y-60192515D01*
X161521210Y-59161210D01*
X161533736Y-59142464D01*
X162062000Y-59142464D01*
X162203190Y-59115897D01*
X162332865Y-59032454D01*
X162419859Y-58905134D01*
X162450464Y-58754000D01*
X162450464Y-57954000D01*
X162423897Y-57812810D01*
X162340454Y-57683135D01*
X162213134Y-57596141D01*
X162062000Y-57565536D01*
X160262000Y-57565536D01*
X160180560Y-57580860D01*
X160518956Y-57242464D01*
X162062000Y-57242464D01*
X162203190Y-57215897D01*
X162332865Y-57132454D01*
X162419859Y-57005134D01*
X162450464Y-56854000D01*
X162450464Y-56388000D01*
X167400883Y-56388000D01*
X167494587Y-56859083D01*
X167761435Y-57258448D01*
X168160800Y-57525296D01*
X168631883Y-57619000D01*
X168680117Y-57619000D01*
X169151200Y-57525296D01*
X169550565Y-57258448D01*
X169817413Y-56859083D01*
X169911117Y-56388000D01*
X169817413Y-55916917D01*
X169550565Y-55517552D01*
X169151200Y-55250704D01*
X168680117Y-55157000D01*
X168631883Y-55157000D01*
X168160800Y-55250704D01*
X167761435Y-55517552D01*
X167494587Y-55916917D01*
X167400883Y-56388000D01*
X162450464Y-56388000D01*
X162450464Y-56054000D01*
X162423897Y-55912810D01*
X162340454Y-55783135D01*
X162213134Y-55696141D01*
X162062000Y-55665536D01*
X160262000Y-55665536D01*
X160120810Y-55692103D01*
X159991135Y-55775546D01*
X159904141Y-55902866D01*
X159873536Y-56054000D01*
X159873536Y-56451044D01*
X159152790Y-57171790D01*
X159150464Y-57175271D01*
X159150464Y-57004000D01*
X159123897Y-56862810D01*
X159040454Y-56733135D01*
X158913134Y-56646141D01*
X158762000Y-56615536D01*
X156962000Y-56615536D01*
X156820810Y-56642103D01*
X156691135Y-56725546D01*
X156604141Y-56852866D01*
X156573536Y-57004000D01*
X156573536Y-57804000D01*
X156600103Y-57945190D01*
X156683546Y-58074865D01*
X156810866Y-58161859D01*
X156962000Y-58192464D01*
X157354000Y-58192464D01*
X157354000Y-58420000D01*
X152407757Y-58420000D01*
X152505335Y-58322592D01*
X152611350Y-58067279D01*
X152611450Y-58067521D01*
X152814908Y-58271335D01*
X153080876Y-58381774D01*
X153368861Y-58382025D01*
X153635021Y-58272050D01*
X153838835Y-58068592D01*
X153949274Y-57802624D01*
X153949525Y-57514639D01*
X153839550Y-57248479D01*
X153636092Y-57044665D01*
X153370124Y-56934226D01*
X153184063Y-56934064D01*
X151257361Y-55007361D01*
X156755975Y-55007361D01*
X156865950Y-55273521D01*
X157069408Y-55477335D01*
X157335376Y-55587774D01*
X157623361Y-55588025D01*
X157889521Y-55478050D01*
X158093335Y-55274592D01*
X158203774Y-55008624D01*
X158203936Y-54822564D01*
X159178499Y-53848000D01*
X167400883Y-53848000D01*
X167494587Y-54319083D01*
X167761435Y-54718448D01*
X168160800Y-54985296D01*
X168631883Y-55079000D01*
X168680117Y-55079000D01*
X169151200Y-54985296D01*
X169550565Y-54718448D01*
X169817413Y-54319083D01*
X169911117Y-53848000D01*
X169817413Y-53376917D01*
X169550565Y-52977552D01*
X169151200Y-52710704D01*
X168680117Y-52617000D01*
X168631883Y-52617000D01*
X168160800Y-52710704D01*
X167761435Y-52977552D01*
X167494587Y-53376917D01*
X167400883Y-53848000D01*
X159178499Y-53848000D01*
X161235899Y-51790600D01*
X167502282Y-51790600D01*
X167761435Y-52178448D01*
X168160800Y-52445296D01*
X168631883Y-52539000D01*
X168680117Y-52539000D01*
X169151200Y-52445296D01*
X169550565Y-52178448D01*
X169817413Y-51779083D01*
X169911117Y-51308000D01*
X169817413Y-50836917D01*
X169550565Y-50437552D01*
X169151200Y-50170704D01*
X168680117Y-50077000D01*
X168631883Y-50077000D01*
X168160800Y-50170704D01*
X167761435Y-50437552D01*
X167502282Y-50825400D01*
X161036000Y-50825400D01*
X160851317Y-50862136D01*
X160694750Y-50966750D01*
X160694748Y-50966753D01*
X157521364Y-54140136D01*
X157336639Y-54139975D01*
X157070479Y-54249950D01*
X156866665Y-54453408D01*
X156756226Y-54719376D01*
X156755975Y-55007361D01*
X151257361Y-55007361D01*
X151043963Y-54793963D01*
X150887396Y-54689349D01*
X150702713Y-54652613D01*
X149181362Y-54652613D01*
X149188264Y-54642283D01*
X149225000Y-54457600D01*
X149225000Y-53609187D01*
X151067187Y-53609187D01*
X151254200Y-54061795D01*
X151600184Y-54408383D01*
X152052465Y-54596186D01*
X152542187Y-54596613D01*
X152994795Y-54409600D01*
X153341383Y-54063616D01*
X153529186Y-53611335D01*
X153529613Y-53121613D01*
X153454647Y-52940179D01*
X156362000Y-52940179D01*
X156362000Y-53164686D01*
X156592205Y-53394891D01*
X156825594Y-53491563D01*
X157078213Y-53491564D01*
X157311602Y-53394891D01*
X157729191Y-52977302D01*
X157729191Y-52752796D01*
X157139287Y-52162892D01*
X156362000Y-52940179D01*
X153454647Y-52940179D01*
X153342600Y-52669005D01*
X152996616Y-52322417D01*
X152544335Y-52134614D01*
X152054613Y-52134187D01*
X151602005Y-52321200D01*
X151255417Y-52667184D01*
X151067614Y-53119465D01*
X151067187Y-53609187D01*
X149225000Y-53609187D01*
X149225000Y-52879500D01*
X152244300Y-49860200D01*
X154333700Y-49860200D01*
X154829830Y-50356330D01*
X154640750Y-50545410D01*
X154559700Y-50664032D01*
X154527009Y-50814729D01*
X154555524Y-50966272D01*
X154640750Y-51094782D01*
X155326644Y-51780676D01*
X155445266Y-51861726D01*
X155595963Y-51894417D01*
X155701331Y-51874590D01*
X155631010Y-52044361D01*
X155631011Y-52296980D01*
X155727683Y-52530369D01*
X155957888Y-52760574D01*
X156182395Y-52760574D01*
X156959682Y-51983287D01*
X157318892Y-51983287D01*
X157908796Y-52573191D01*
X158133302Y-52573191D01*
X158550891Y-52155602D01*
X158647564Y-51922213D01*
X158647563Y-51669594D01*
X158550891Y-51436205D01*
X158320686Y-51206000D01*
X158096179Y-51206000D01*
X157318892Y-51983287D01*
X156959682Y-51983287D01*
X156945540Y-51969145D01*
X157125145Y-51789540D01*
X157139287Y-51803682D01*
X157916574Y-51026395D01*
X157916574Y-50801888D01*
X157686369Y-50571683D01*
X157452980Y-50475011D01*
X157200361Y-50475010D01*
X157029818Y-50545651D01*
X157050417Y-50450697D01*
X157021902Y-50299154D01*
X156949646Y-50190201D01*
X157514544Y-49625303D01*
X158417583Y-49625303D01*
X158446098Y-49776846D01*
X158531324Y-49905356D01*
X159217218Y-50591250D01*
X159335840Y-50672300D01*
X159486537Y-50704991D01*
X159638080Y-50676476D01*
X159766590Y-50591250D01*
X160406553Y-49951287D01*
X161845861Y-49951287D01*
X161945950Y-50193521D01*
X162149408Y-50397335D01*
X162415376Y-50507774D01*
X162703361Y-50508025D01*
X162969521Y-50398050D01*
X163162308Y-50205600D01*
X163453536Y-50205600D01*
X163453536Y-50208000D01*
X163480103Y-50349190D01*
X163563546Y-50478865D01*
X163690866Y-50565859D01*
X163842000Y-50596464D01*
X165342000Y-50596464D01*
X165483190Y-50569897D01*
X165612865Y-50486454D01*
X165699859Y-50359134D01*
X165730464Y-50208000D01*
X165730464Y-49238000D01*
X165703897Y-49096810D01*
X165620454Y-48967135D01*
X165493134Y-48880141D01*
X165342000Y-48849536D01*
X163842000Y-48849536D01*
X163700810Y-48876103D01*
X163571135Y-48959546D01*
X163484141Y-49086866D01*
X163453536Y-49238000D01*
X163453536Y-49240400D01*
X163040205Y-49240400D01*
X162970592Y-49170665D01*
X162704624Y-49060226D01*
X162542590Y-49060085D01*
X162413690Y-48973956D01*
X162219287Y-48935287D01*
X160781319Y-48935287D01*
X160141356Y-48295324D01*
X160022734Y-48214274D01*
X159872037Y-48181583D01*
X159720494Y-48210098D01*
X159591984Y-48295324D01*
X158531324Y-49355984D01*
X158450274Y-49474606D01*
X158417583Y-49625303D01*
X157514544Y-49625303D01*
X157885968Y-49253879D01*
X157985266Y-49321726D01*
X158135963Y-49354417D01*
X158287506Y-49325902D01*
X158416016Y-49240676D01*
X159476676Y-48180016D01*
X159557726Y-48061394D01*
X159590417Y-47910697D01*
X159561902Y-47759154D01*
X159476676Y-47630644D01*
X159174032Y-47328000D01*
X163453536Y-47328000D01*
X163453536Y-48298000D01*
X163480103Y-48439190D01*
X163563546Y-48568865D01*
X163690866Y-48655859D01*
X163842000Y-48686464D01*
X165342000Y-48686464D01*
X165483190Y-48659897D01*
X165612865Y-48576454D01*
X165699859Y-48449134D01*
X165730464Y-48298000D01*
X165730464Y-48295600D01*
X167495467Y-48295600D01*
X167494587Y-48296917D01*
X167400883Y-48768000D01*
X167494587Y-49239083D01*
X167761435Y-49638448D01*
X168160800Y-49905296D01*
X168631883Y-49999000D01*
X168680117Y-49999000D01*
X169151200Y-49905296D01*
X169550565Y-49638448D01*
X169817413Y-49239083D01*
X169911117Y-48768000D01*
X169817413Y-48296917D01*
X169550565Y-47897552D01*
X169151200Y-47630704D01*
X168680117Y-47537000D01*
X168631883Y-47537000D01*
X168194501Y-47624001D01*
X168042250Y-47471750D01*
X167885683Y-47367136D01*
X167701000Y-47330400D01*
X165730464Y-47330400D01*
X165730464Y-47328000D01*
X165703897Y-47186810D01*
X165620454Y-47057135D01*
X165493134Y-46970141D01*
X165342000Y-46939536D01*
X163842000Y-46939536D01*
X163700810Y-46966103D01*
X163571135Y-47049546D01*
X163484141Y-47176866D01*
X163453536Y-47328000D01*
X159174032Y-47328000D01*
X158790782Y-46944750D01*
X158672160Y-46863700D01*
X158521463Y-46831009D01*
X158369920Y-46859524D01*
X158241410Y-46944750D01*
X157180750Y-48005410D01*
X157099700Y-48124032D01*
X157067009Y-48274729D01*
X157095524Y-48426272D01*
X157167780Y-48535225D01*
X156231459Y-49471547D01*
X156132160Y-49403700D01*
X155981463Y-49371009D01*
X155829920Y-49399524D01*
X155701410Y-49484750D01*
X155512330Y-49673830D01*
X154874850Y-49036350D01*
X154718283Y-48931736D01*
X154533600Y-48895000D01*
X152159493Y-48895000D01*
X152395191Y-48659302D01*
X152395191Y-48434796D01*
X151805287Y-47844892D01*
X151028000Y-48622179D01*
X151028000Y-48846686D01*
X151258205Y-49076891D01*
X151491594Y-49173563D01*
X151565937Y-49173563D01*
X150773563Y-49965937D01*
X150773563Y-49891594D01*
X150676891Y-49658205D01*
X150446686Y-49428000D01*
X150222179Y-49428000D01*
X149444892Y-50205287D01*
X149459035Y-50219430D01*
X149279430Y-50399035D01*
X149265287Y-50384892D01*
X148488000Y-51162179D01*
X148488000Y-51386686D01*
X148718205Y-51616891D01*
X148951594Y-51713563D01*
X149025937Y-51713563D01*
X148401150Y-52338350D01*
X148296536Y-52494917D01*
X148259800Y-52679600D01*
X148259800Y-54257701D01*
X147890287Y-54627213D01*
X145074473Y-54627213D01*
X144880070Y-54665882D01*
X144715263Y-54776003D01*
X144659535Y-54831731D01*
X144655115Y-54827311D01*
X144430609Y-54827311D01*
X143617966Y-55639953D01*
X143624709Y-55646696D01*
X143445104Y-55826301D01*
X143438361Y-55819558D01*
X142625719Y-56632201D01*
X142625719Y-56856707D01*
X142707432Y-56938420D01*
X142940821Y-57035093D01*
X143152757Y-57035092D01*
X143358130Y-57240465D01*
X143467005Y-57314856D01*
X143534906Y-57417241D01*
X143923815Y-57806150D01*
X144032689Y-57880540D01*
X144100591Y-57982927D01*
X144489500Y-58371836D01*
X144598377Y-58446228D01*
X144666277Y-58548612D01*
X145045665Y-58928000D01*
X144666277Y-59307388D01*
X144591887Y-59416262D01*
X144489500Y-59484164D01*
X144100591Y-59873073D01*
X144064187Y-59926352D01*
X143958403Y-59855669D01*
X143764000Y-59817000D01*
X142875000Y-59817000D01*
X142680597Y-59855669D01*
X142515790Y-59965790D01*
X141991475Y-60490105D01*
X141842639Y-60489975D01*
X141576479Y-60599950D01*
X141372665Y-60803408D01*
X141287500Y-61008509D01*
X141287500Y-60388500D01*
X141287061Y-60386294D01*
X141287481Y-60384083D01*
X141274781Y-58923583D01*
X141268497Y-58893369D01*
X141270570Y-58862581D01*
X141248486Y-58797145D01*
X141234423Y-58729523D01*
X141217055Y-58704014D01*
X141207188Y-58674776D01*
X140628241Y-57667913D01*
X140677774Y-57548624D01*
X140678025Y-57260639D01*
X140568050Y-56994479D01*
X140434669Y-56860865D01*
X140554021Y-56811550D01*
X140757835Y-56608092D01*
X140868274Y-56342124D01*
X140868525Y-56054139D01*
X140758550Y-55787979D01*
X140652500Y-55681743D01*
X140652500Y-55562500D01*
X140613831Y-55368097D01*
X140603432Y-55352534D01*
X140503711Y-55203290D01*
X140301458Y-55001037D01*
X140336612Y-54977723D01*
X140716000Y-54598335D01*
X141095388Y-54977723D01*
X141204262Y-55052113D01*
X141272164Y-55154500D01*
X141661073Y-55543409D01*
X141769950Y-55617801D01*
X141837850Y-55720185D01*
X142043222Y-55925557D01*
X142043221Y-56137493D01*
X142139894Y-56370882D01*
X142221607Y-56452595D01*
X142446113Y-56452595D01*
X143258756Y-55639953D01*
X143252014Y-55633211D01*
X143431619Y-55453606D01*
X143438361Y-55460348D01*
X144251003Y-54647705D01*
X144251003Y-54475297D01*
X144662436Y-54063864D01*
X144847161Y-54064025D01*
X145113321Y-53954050D01*
X145317135Y-53750592D01*
X145427574Y-53484624D01*
X145427825Y-53196639D01*
X145317850Y-52930479D01*
X145114392Y-52726665D01*
X144864814Y-52623032D01*
X147471967Y-50015879D01*
X147571266Y-50083726D01*
X147721963Y-50116417D01*
X147827331Y-50096590D01*
X147757010Y-50266361D01*
X147757011Y-50518980D01*
X147853683Y-50752369D01*
X148083888Y-50982574D01*
X148308395Y-50982574D01*
X149085682Y-50205287D01*
X149071540Y-50191145D01*
X149251145Y-50011540D01*
X149265287Y-50025682D01*
X150042574Y-49248395D01*
X150042574Y-49023888D01*
X149812369Y-48793683D01*
X149578980Y-48697011D01*
X149326361Y-48697010D01*
X149155818Y-48767651D01*
X149176417Y-48672697D01*
X149147902Y-48521154D01*
X149062676Y-48392644D01*
X149060979Y-48390947D01*
X149990947Y-47460979D01*
X149992644Y-47462676D01*
X150111266Y-47543726D01*
X150261963Y-47576417D01*
X150367331Y-47556590D01*
X150297010Y-47726361D01*
X150297011Y-47978980D01*
X150393683Y-48212369D01*
X150623888Y-48442574D01*
X150848395Y-48442574D01*
X151625682Y-47665287D01*
X151984892Y-47665287D01*
X152574796Y-48255191D01*
X152799302Y-48255191D01*
X153216891Y-47837602D01*
X153313564Y-47604213D01*
X153313563Y-47351594D01*
X153216891Y-47118205D01*
X152986686Y-46888000D01*
X152762179Y-46888000D01*
X151984892Y-47665287D01*
X151625682Y-47665287D01*
X151611540Y-47651145D01*
X151791145Y-47471540D01*
X151805287Y-47485682D01*
X152582574Y-46708395D01*
X152582574Y-46483888D01*
X152352369Y-46253683D01*
X152290364Y-46228000D01*
X153670000Y-46228000D01*
X153810100Y-46200132D01*
X153883218Y-46273250D01*
X154001840Y-46354300D01*
X154152537Y-46386991D01*
X154304080Y-46358476D01*
X154432590Y-46273250D01*
X155493250Y-45212590D01*
X155574300Y-45093968D01*
X155606991Y-44943271D01*
X155578476Y-44791728D01*
X155493250Y-44663218D01*
X154807356Y-43977324D01*
X154688734Y-43896274D01*
X154538037Y-43863583D01*
X154386494Y-43892098D01*
X154257984Y-43977324D01*
X153197324Y-45037984D01*
X153116274Y-45156606D01*
X153104257Y-45212000D01*
X151049426Y-45212000D01*
X150976531Y-45226499D01*
X150916782Y-45166750D01*
X150798160Y-45085700D01*
X150647463Y-45053009D01*
X150495920Y-45081524D01*
X150367410Y-45166750D01*
X149306750Y-46227410D01*
X149225700Y-46346032D01*
X149193009Y-46496729D01*
X149221524Y-46648272D01*
X149306750Y-46776782D01*
X149308447Y-46778479D01*
X148378479Y-47708447D01*
X148376782Y-47706750D01*
X148258160Y-47625700D01*
X148107463Y-47593009D01*
X147955920Y-47621524D01*
X147827410Y-47706750D01*
X146766750Y-48767410D01*
X146685700Y-48886032D01*
X146653009Y-49036729D01*
X146681524Y-49188272D01*
X146753780Y-49297226D01*
X146558000Y-49493006D01*
X146558000Y-47015400D01*
X146521264Y-46830717D01*
X146416650Y-46674150D01*
X146414170Y-46671670D01*
X146603250Y-46482590D01*
X146684300Y-46363968D01*
X146716991Y-46213271D01*
X146688476Y-46061728D01*
X146616220Y-45952775D01*
X147552542Y-45016453D01*
X147651840Y-45084300D01*
X147802537Y-45116991D01*
X147954080Y-45088476D01*
X148082590Y-45003250D01*
X149143250Y-43942590D01*
X149205500Y-43851482D01*
X150050357Y-43851482D01*
X150175767Y-44154998D01*
X150407781Y-44387417D01*
X150711077Y-44513357D01*
X151039482Y-44513643D01*
X151291012Y-44409713D01*
X152019681Y-44409713D01*
X152532644Y-44922676D01*
X152651266Y-45003726D01*
X152801963Y-45036417D01*
X152953506Y-45007902D01*
X153082016Y-44922676D01*
X154142676Y-43862016D01*
X154223726Y-43743394D01*
X154256417Y-43592697D01*
X154227902Y-43441154D01*
X154142676Y-43312644D01*
X153456782Y-42626750D01*
X153338160Y-42545700D01*
X153187463Y-42513009D01*
X153035920Y-42541524D01*
X152907410Y-42626750D01*
X152394447Y-43139713D01*
X151495086Y-43139713D01*
X151344219Y-42988583D01*
X151040923Y-42862643D01*
X150712518Y-42862357D01*
X150409002Y-42987767D01*
X150176583Y-43219781D01*
X150050643Y-43523077D01*
X150050357Y-43851482D01*
X149205500Y-43851482D01*
X149224300Y-43823968D01*
X149256991Y-43673271D01*
X149228476Y-43521728D01*
X149156220Y-43412775D01*
X150092542Y-42476453D01*
X150191840Y-42544300D01*
X150342537Y-42576991D01*
X150494080Y-42548476D01*
X150622590Y-42463250D01*
X151683250Y-41402590D01*
X151764300Y-41283968D01*
X151796991Y-41133271D01*
X151768476Y-40981728D01*
X151683250Y-40853218D01*
X150997356Y-40167324D01*
X150878734Y-40086274D01*
X150728037Y-40053583D01*
X150576494Y-40082098D01*
X150447984Y-40167324D01*
X149387324Y-41227984D01*
X149306274Y-41346606D01*
X149273583Y-41497303D01*
X149302098Y-41648846D01*
X149374354Y-41757799D01*
X148438033Y-42694121D01*
X148338734Y-42626274D01*
X148188037Y-42593583D01*
X148082669Y-42613410D01*
X148152990Y-42443639D01*
X148152989Y-42191020D01*
X148056317Y-41957631D01*
X147826112Y-41727426D01*
X147601605Y-41727426D01*
X146824318Y-42504713D01*
X146838461Y-42518856D01*
X146658856Y-42698461D01*
X146644713Y-42684318D01*
X145867426Y-43461605D01*
X145867426Y-43686112D01*
X146097631Y-43916317D01*
X146331020Y-44012989D01*
X146583639Y-44012990D01*
X146754182Y-43942349D01*
X146733583Y-44037303D01*
X146762098Y-44188846D01*
X146834354Y-44297799D01*
X145898033Y-45234121D01*
X145798734Y-45166274D01*
X145648037Y-45133583D01*
X145542669Y-45153410D01*
X145612990Y-44983639D01*
X145612989Y-44731020D01*
X145516317Y-44497631D01*
X145286112Y-44267426D01*
X145061605Y-44267426D01*
X144284318Y-45044713D01*
X144298461Y-45058856D01*
X144118856Y-45238461D01*
X144104713Y-45224318D01*
X143327426Y-46001605D01*
X143327426Y-46226112D01*
X143557631Y-46456317D01*
X143791020Y-46552989D01*
X144043639Y-46552990D01*
X144214182Y-46482349D01*
X144193583Y-46577303D01*
X144222098Y-46728846D01*
X144307324Y-46857356D01*
X144993218Y-47543250D01*
X145111840Y-47624300D01*
X145262537Y-47656991D01*
X145414080Y-47628476D01*
X145542590Y-47543250D01*
X145592800Y-47493040D01*
X145592800Y-49380900D01*
X142168413Y-52805287D01*
X142117903Y-52794330D01*
X141966360Y-52822845D01*
X141837850Y-52908071D01*
X140716000Y-54029921D01*
X139594150Y-52908071D01*
X139475528Y-52827021D01*
X139324831Y-52794330D01*
X139293600Y-52800207D01*
X139293600Y-49653700D01*
X139528336Y-49418964D01*
X139528336Y-50888000D01*
X139554903Y-51029190D01*
X139638346Y-51158865D01*
X139765666Y-51245859D01*
X139916800Y-51276464D01*
X141616800Y-51276464D01*
X141757990Y-51249897D01*
X141887665Y-51166454D01*
X141974659Y-51039134D01*
X142005264Y-50888000D01*
X142005264Y-49188000D01*
X141978697Y-49046810D01*
X141895254Y-48917135D01*
X141767934Y-48830141D01*
X141616800Y-48799536D01*
X140147764Y-48799536D01*
X140305301Y-48641999D01*
X140742683Y-48729000D01*
X140790917Y-48729000D01*
X141262000Y-48635296D01*
X141661365Y-48368448D01*
X141928213Y-47969083D01*
X142021917Y-47498000D01*
X141928213Y-47026917D01*
X141661365Y-46627552D01*
X141262000Y-46360704D01*
X140790917Y-46267000D01*
X140742683Y-46267000D01*
X140271600Y-46360704D01*
X139872235Y-46627552D01*
X139605387Y-47026917D01*
X139511683Y-47498000D01*
X139605387Y-47969083D01*
X139608523Y-47973777D01*
X138469750Y-49112550D01*
X138365136Y-49269117D01*
X138328400Y-49453800D01*
X138328400Y-53009800D01*
X138365136Y-53194483D01*
X138469750Y-53351050D01*
X138547254Y-53428554D01*
X138479093Y-53473757D01*
X138118635Y-53834215D01*
X137835287Y-53550867D01*
X137835287Y-47630553D01*
X138475250Y-46990590D01*
X138556300Y-46871968D01*
X138588991Y-46721271D01*
X138560476Y-46569728D01*
X138475250Y-46441218D01*
X138191966Y-46157934D01*
X139244113Y-45105787D01*
X142596436Y-45105787D01*
X142596437Y-45358406D01*
X142693109Y-45591795D01*
X142923314Y-45822000D01*
X143147821Y-45822000D01*
X143925108Y-45044713D01*
X143335204Y-44454809D01*
X143110698Y-44454809D01*
X142693109Y-44872398D01*
X142596436Y-45105787D01*
X139244113Y-45105787D01*
X140299202Y-44050698D01*
X143514809Y-44050698D01*
X143514809Y-44275204D01*
X144104713Y-44865108D01*
X144882000Y-44087821D01*
X144882000Y-43863314D01*
X144651795Y-43633109D01*
X144418406Y-43536437D01*
X144165787Y-43536436D01*
X143932398Y-43633109D01*
X143514809Y-44050698D01*
X140299202Y-44050698D01*
X141784113Y-42565787D01*
X145136436Y-42565787D01*
X145136437Y-42818406D01*
X145233109Y-43051795D01*
X145463314Y-43282000D01*
X145687821Y-43282000D01*
X146465108Y-42504713D01*
X145875204Y-41914809D01*
X145650698Y-41914809D01*
X145233109Y-42332398D01*
X145136436Y-42565787D01*
X141784113Y-42565787D01*
X142378050Y-41971850D01*
X142482664Y-41815283D01*
X142519400Y-41630600D01*
X142519400Y-41510698D01*
X146054809Y-41510698D01*
X146054809Y-41735204D01*
X146644713Y-42325108D01*
X147422000Y-41547821D01*
X147422000Y-41323314D01*
X147191795Y-41093109D01*
X146958406Y-40996437D01*
X146705787Y-40996436D01*
X146472398Y-41093109D01*
X146054809Y-41510698D01*
X142519400Y-41510698D01*
X142519400Y-40146729D01*
X147923009Y-40146729D01*
X147951524Y-40298272D01*
X148036750Y-40426782D01*
X148722644Y-41112676D01*
X148841266Y-41193726D01*
X148991963Y-41226417D01*
X149143506Y-41197902D01*
X149272016Y-41112676D01*
X150332676Y-40052016D01*
X150413726Y-39933394D01*
X150446417Y-39782697D01*
X150429633Y-39693497D01*
X150465408Y-39729335D01*
X150731376Y-39839774D01*
X151019361Y-39840025D01*
X151285521Y-39730050D01*
X151489335Y-39526592D01*
X151599774Y-39260624D01*
X151600025Y-38972639D01*
X151490050Y-38706479D01*
X151286592Y-38502665D01*
X151020624Y-38392226D01*
X150732639Y-38391975D01*
X150466479Y-38501950D01*
X150334799Y-38633400D01*
X149860000Y-38633400D01*
X149675317Y-38670136D01*
X149552403Y-38752264D01*
X149528160Y-38735700D01*
X149377463Y-38703009D01*
X149225920Y-38731524D01*
X149097410Y-38816750D01*
X148036750Y-39877410D01*
X147955700Y-39996032D01*
X147923009Y-40146729D01*
X142519400Y-40146729D01*
X142519400Y-39980906D01*
X142519401Y-39980901D01*
X142482664Y-39796218D01*
X142438452Y-39730050D01*
X142378050Y-39639651D01*
X142378047Y-39639649D01*
X141573430Y-38835031D01*
X141595681Y-38732458D01*
X141567166Y-38580915D01*
X141481940Y-38452405D01*
X141199098Y-38169563D01*
X141170502Y-38150025D01*
X141170503Y-37929031D01*
X141073830Y-37695642D01*
X141026058Y-37647870D01*
X140801551Y-37647870D01*
X140342462Y-38106959D01*
X140375697Y-38140194D01*
X140196092Y-38319799D01*
X140162857Y-38286564D01*
X139703768Y-38745653D01*
X139703768Y-38783837D01*
X139371605Y-39116000D01*
X140467090Y-40211485D01*
X140691597Y-40211485D01*
X141109185Y-39793897D01*
X141126205Y-39752806D01*
X141554200Y-40180800D01*
X141554200Y-41430700D01*
X136986037Y-45998863D01*
X136965079Y-46030229D01*
X136179324Y-46815984D01*
X136098274Y-46934606D01*
X136065583Y-47085303D01*
X136094098Y-47236846D01*
X136179324Y-47365356D01*
X136819287Y-48005319D01*
X136819287Y-49232867D01*
X130032025Y-42445605D01*
X131135426Y-42445605D01*
X131135426Y-42670112D01*
X131365631Y-42900317D01*
X131599020Y-42996989D01*
X131851639Y-42996990D01*
X132022182Y-42926349D01*
X132001583Y-43021303D01*
X132030098Y-43172846D01*
X132115324Y-43301356D01*
X132801218Y-43987250D01*
X132919840Y-44068300D01*
X133070537Y-44100991D01*
X133222080Y-44072476D01*
X133350590Y-43987250D01*
X133431907Y-43905933D01*
X133473050Y-43947076D01*
X133561450Y-44161021D01*
X133764908Y-44364835D01*
X133980210Y-44454236D01*
X134910067Y-45384093D01*
X134828750Y-45465410D01*
X134747700Y-45584032D01*
X134715009Y-45734729D01*
X134743524Y-45886272D01*
X134828750Y-46014782D01*
X135514644Y-46700676D01*
X135633266Y-46781726D01*
X135783963Y-46814417D01*
X135935506Y-46785902D01*
X136064016Y-46700676D01*
X137124676Y-45640016D01*
X137205726Y-45521394D01*
X137238417Y-45370697D01*
X137209902Y-45219154D01*
X137124676Y-45090644D01*
X136438782Y-44404750D01*
X136320160Y-44323700D01*
X136169463Y-44291009D01*
X136017920Y-44319524D01*
X135889410Y-44404750D01*
X135808093Y-44486067D01*
X135444899Y-44122873D01*
X135681876Y-44221274D01*
X135969861Y-44221525D01*
X136236021Y-44111550D01*
X136439835Y-43908092D01*
X136453296Y-43875675D01*
X136576713Y-43793210D01*
X138862414Y-41507509D01*
X138949267Y-41491166D01*
X139077777Y-41405940D01*
X139362655Y-41121062D01*
X139383889Y-41129858D01*
X139636508Y-41129858D01*
X139869897Y-41033185D01*
X140287485Y-40615597D01*
X140287485Y-40391090D01*
X139192000Y-39295605D01*
X139177858Y-39309748D01*
X138998253Y-39130143D01*
X139012395Y-39116000D01*
X137916910Y-38020515D01*
X137692403Y-38020515D01*
X137274815Y-38438103D01*
X137178142Y-38671492D01*
X137178142Y-38924111D01*
X137186938Y-38945345D01*
X136902060Y-39230223D01*
X136821010Y-39348845D01*
X136788319Y-39499542D01*
X136816834Y-39651085D01*
X136902060Y-39779595D01*
X137184902Y-40062437D01*
X137281521Y-40128453D01*
X136642974Y-40767000D01*
X134620000Y-40767000D01*
X134376996Y-40815336D01*
X134170987Y-40952987D01*
X133530284Y-41593690D01*
X133456037Y-41577583D01*
X133350669Y-41597410D01*
X133420990Y-41427639D01*
X133420989Y-41175020D01*
X133324317Y-40941631D01*
X133094112Y-40711426D01*
X132869605Y-40711426D01*
X132092318Y-41488713D01*
X132106461Y-41502856D01*
X131926856Y-41682461D01*
X131912713Y-41668318D01*
X131135426Y-42445605D01*
X130032025Y-42445605D01*
X129136207Y-41549787D01*
X130404436Y-41549787D01*
X130404437Y-41802406D01*
X130501109Y-42035795D01*
X130731314Y-42266000D01*
X130955821Y-42266000D01*
X131733108Y-41488713D01*
X131143204Y-40898809D01*
X130918698Y-40898809D01*
X130501109Y-41316398D01*
X130404436Y-41549787D01*
X129136207Y-41549787D01*
X128081118Y-40494698D01*
X131322809Y-40494698D01*
X131322809Y-40719204D01*
X131912713Y-41309108D01*
X132690000Y-40531821D01*
X132690000Y-40307314D01*
X132459795Y-40077109D01*
X132226406Y-39980437D01*
X131973787Y-39980436D01*
X131740398Y-40077109D01*
X131322809Y-40494698D01*
X128081118Y-40494698D01*
X126597210Y-39010790D01*
X126432403Y-38900669D01*
X126238000Y-38862000D01*
X125419025Y-38862000D01*
X125597296Y-38595200D01*
X125691000Y-38124117D01*
X125691000Y-38075883D01*
X125599604Y-37616403D01*
X138096515Y-37616403D01*
X138096515Y-37840910D01*
X139192000Y-38936395D01*
X139524163Y-38604232D01*
X139562347Y-38604232D01*
X140021436Y-38145143D01*
X139988202Y-38111909D01*
X140167807Y-37932304D01*
X140201041Y-37965538D01*
X140660130Y-37506449D01*
X140660130Y-37281942D01*
X140612358Y-37234170D01*
X140378969Y-37137497D01*
X140157401Y-37137498D01*
X140138437Y-37108902D01*
X139855595Y-36826060D01*
X139736973Y-36745010D01*
X139586276Y-36712319D01*
X139434733Y-36740834D01*
X139306223Y-36826060D01*
X139021345Y-37110938D01*
X139000111Y-37102142D01*
X138747492Y-37102142D01*
X138514103Y-37198815D01*
X138096515Y-37616403D01*
X125599604Y-37616403D01*
X125597296Y-37604800D01*
X125330448Y-37205435D01*
X124931083Y-36938587D01*
X124460000Y-36844883D01*
X123988917Y-36938587D01*
X123589552Y-37205435D01*
X123322704Y-37604800D01*
X123229000Y-38075883D01*
X123229000Y-38124117D01*
X123322704Y-38595200D01*
X123500975Y-38862000D01*
X123400420Y-38862000D01*
X123069959Y-38531539D01*
X123151000Y-38124117D01*
X123151000Y-38075883D01*
X123057296Y-37604800D01*
X122790448Y-37205435D01*
X122391083Y-36938587D01*
X121920000Y-36844883D01*
X121448917Y-36938587D01*
X121049552Y-37205435D01*
X120782704Y-37604800D01*
X120689000Y-38075883D01*
X120689000Y-38124117D01*
X120782704Y-38595200D01*
X121049552Y-38994565D01*
X121448917Y-39261413D01*
X121920000Y-39355117D01*
X122367653Y-39266073D01*
X122489540Y-39387960D01*
X122395777Y-39481723D01*
X122391083Y-39478587D01*
X121920000Y-39384883D01*
X121448917Y-39478587D01*
X121049552Y-39745435D01*
X120782704Y-40144800D01*
X120689000Y-40615883D01*
X120689000Y-40664117D01*
X120782704Y-41135200D01*
X121049552Y-41534565D01*
X121448917Y-41801413D01*
X121920000Y-41895117D01*
X122391083Y-41801413D01*
X122790448Y-41534565D01*
X123057296Y-41135200D01*
X123151000Y-40664117D01*
X123151000Y-40615883D01*
X123063999Y-40178501D01*
X123364500Y-39878000D01*
X123500975Y-39878000D01*
X123322704Y-40144800D01*
X123229000Y-40615883D01*
X123229000Y-40664117D01*
X123322704Y-41135200D01*
X123589552Y-41534565D01*
X123952000Y-41776746D01*
X123952000Y-43243500D01*
X123990669Y-43437903D01*
X124100790Y-43602710D01*
X125704605Y-45206526D01*
X125704475Y-45355361D01*
X125814450Y-45621521D01*
X126017908Y-45825335D01*
X126283876Y-45935774D01*
X126571861Y-45936025D01*
X126838021Y-45826050D01*
X127041835Y-45622592D01*
X127152274Y-45356624D01*
X127152525Y-45068639D01*
X127042550Y-44802479D01*
X126839092Y-44598665D01*
X126573124Y-44488226D01*
X126423016Y-44488095D01*
X124968000Y-43033080D01*
X124968000Y-41776746D01*
X125330448Y-41534565D01*
X125597296Y-41135200D01*
X125691000Y-40664117D01*
X125691000Y-40615883D01*
X125597296Y-40144800D01*
X125419025Y-39878000D01*
X126027580Y-39878000D01*
X136546790Y-50397210D01*
X136711596Y-50507331D01*
X136743850Y-50513746D01*
X136819287Y-50528752D01*
X136819287Y-53761287D01*
X136830108Y-53815688D01*
X134787287Y-51772867D01*
X134787287Y-50678553D01*
X135427250Y-50038590D01*
X135508300Y-49919968D01*
X135540991Y-49769271D01*
X135512476Y-49617728D01*
X135427250Y-49489218D01*
X134741356Y-48803324D01*
X134622734Y-48722274D01*
X134472037Y-48689583D01*
X134320494Y-48718098D01*
X134191984Y-48803324D01*
X133131324Y-49863984D01*
X133050274Y-49982606D01*
X133017583Y-50133303D01*
X133046098Y-50284846D01*
X133131324Y-50413356D01*
X133771287Y-51053319D01*
X133771287Y-51475287D01*
X133346707Y-51475287D01*
X130962395Y-49090975D01*
X130962525Y-48942139D01*
X130852550Y-48675979D01*
X130649092Y-48472165D01*
X130383124Y-48361726D01*
X130095139Y-48361475D01*
X129828979Y-48471450D01*
X129625165Y-48674908D01*
X129514726Y-48940876D01*
X129514475Y-49228861D01*
X129624450Y-49495021D01*
X129827908Y-49698835D01*
X130093876Y-49809274D01*
X130243985Y-49809405D01*
X132777077Y-52342497D01*
X132941884Y-52452618D01*
X133136287Y-52491287D01*
X134068867Y-52491287D01*
X136765215Y-55187635D01*
X136393127Y-55559722D01*
X136318736Y-55668597D01*
X136216351Y-55736498D01*
X135827442Y-56125407D01*
X135753050Y-56234284D01*
X135650666Y-56302184D01*
X135261757Y-56691093D01*
X135187367Y-56799967D01*
X135084980Y-56867869D01*
X134696071Y-57256778D01*
X134615021Y-57375400D01*
X134582330Y-57526097D01*
X134610845Y-57677640D01*
X134696071Y-57806150D01*
X135817921Y-58928000D01*
X134696071Y-60049850D01*
X134615021Y-60168472D01*
X134582330Y-60319169D01*
X134610845Y-60470712D01*
X134696071Y-60599222D01*
X135082465Y-60985616D01*
X134959290Y-61108790D01*
X134849169Y-61273597D01*
X134812422Y-61458339D01*
X134705165Y-61565408D01*
X134607758Y-61799991D01*
X129721600Y-55998420D01*
X129721600Y-51007000D01*
X129684864Y-50822317D01*
X129580250Y-50665750D01*
X127482600Y-48568100D01*
X127482600Y-47813000D01*
X130749000Y-47813000D01*
X130943403Y-47774331D01*
X131108210Y-47664210D01*
X131312525Y-47459895D01*
X131323485Y-47459905D01*
X132078870Y-48215290D01*
X131780750Y-48513410D01*
X131699700Y-48632032D01*
X131667009Y-48782729D01*
X131695524Y-48934272D01*
X131780750Y-49062782D01*
X132466644Y-49748676D01*
X132585266Y-49829726D01*
X132735963Y-49862417D01*
X132887506Y-49833902D01*
X133016016Y-49748676D01*
X134076676Y-48688016D01*
X134157726Y-48569394D01*
X134190417Y-48418697D01*
X134161902Y-48267154D01*
X134076676Y-48138644D01*
X133390782Y-47452750D01*
X133272160Y-47371700D01*
X133121463Y-47339009D01*
X132969920Y-47367524D01*
X132841410Y-47452750D01*
X132797290Y-47496870D01*
X132041895Y-46741475D01*
X132042025Y-46592639D01*
X131932050Y-46326479D01*
X131728592Y-46122665D01*
X131462624Y-46012226D01*
X131174639Y-46011975D01*
X130908479Y-46121950D01*
X130704665Y-46325408D01*
X130594226Y-46591376D01*
X130594095Y-46741484D01*
X130538580Y-46797000D01*
X125594136Y-46797000D01*
X125571897Y-46678810D01*
X125488454Y-46549135D01*
X125361134Y-46462141D01*
X125210000Y-46431536D01*
X123710000Y-46431536D01*
X123568810Y-46458103D01*
X123439135Y-46541546D01*
X123352141Y-46668866D01*
X123321536Y-46820000D01*
X123321536Y-46916560D01*
X123277790Y-46945790D01*
X122276080Y-47947500D01*
X122289000Y-47916309D01*
X122289000Y-47590750D01*
X122130250Y-47432000D01*
X121031000Y-47432000D01*
X121031000Y-47452000D01*
X120777000Y-47452000D01*
X120777000Y-47432000D01*
X119677750Y-47432000D01*
X119519000Y-47590750D01*
X119519000Y-47716500D01*
X119354600Y-47552100D01*
X119354600Y-46693691D01*
X119519000Y-46693691D01*
X119519000Y-47019250D01*
X119677750Y-47178000D01*
X120777000Y-47178000D01*
X120777000Y-46343750D01*
X121031000Y-46343750D01*
X121031000Y-47178000D01*
X122130250Y-47178000D01*
X122289000Y-47019250D01*
X122289000Y-46693691D01*
X122192327Y-46460302D01*
X122013699Y-46281673D01*
X121780310Y-46185000D01*
X121189750Y-46185000D01*
X121031000Y-46343750D01*
X120777000Y-46343750D01*
X120618250Y-46185000D01*
X120027690Y-46185000D01*
X119794301Y-46281673D01*
X119615673Y-46460302D01*
X119519000Y-46693691D01*
X119354600Y-46693691D01*
X119354600Y-41890065D01*
X119380000Y-41895117D01*
X119851083Y-41801413D01*
X120250448Y-41534565D01*
X120517296Y-41135200D01*
X120611000Y-40664117D01*
X120611000Y-40615883D01*
X120517296Y-40144800D01*
X120250448Y-39745435D01*
X119862600Y-39486282D01*
X119862600Y-39253718D01*
X120250448Y-38994565D01*
X120517296Y-38595200D01*
X120611000Y-38124117D01*
X120611000Y-38075883D01*
X120517296Y-37604800D01*
X120250448Y-37205435D01*
X119851083Y-36938587D01*
X119380000Y-36844883D01*
X118908917Y-36938587D01*
X118509552Y-37205435D01*
X118325000Y-37481636D01*
X118325000Y-37123691D01*
X118228327Y-36890302D01*
X118049699Y-36711673D01*
X117816310Y-36615000D01*
X117125750Y-36615000D01*
X116967000Y-36773750D01*
X116967000Y-37973000D01*
X116987000Y-37973000D01*
X116987000Y-38227000D01*
X116967000Y-38227000D01*
X116967000Y-40513000D01*
X116987000Y-40513000D01*
X116987000Y-40767000D01*
X116967000Y-40767000D01*
X116967000Y-41966250D01*
X117125750Y-42125000D01*
X117816310Y-42125000D01*
X118049699Y-42028327D01*
X118228327Y-41849698D01*
X118325000Y-41616309D01*
X118325000Y-41258364D01*
X118389400Y-41354745D01*
X118389400Y-46253383D01*
X118224310Y-46185000D01*
X117633750Y-46185000D01*
X117475000Y-46343750D01*
X117475000Y-47178000D01*
X117495000Y-47178000D01*
X117495000Y-47432000D01*
X117475000Y-47432000D01*
X117475000Y-47452000D01*
X117221000Y-47452000D01*
X117221000Y-47432000D01*
X116121750Y-47432000D01*
X115963000Y-47590750D01*
X115963000Y-47916309D01*
X116059673Y-48149698D01*
X116238301Y-48328327D01*
X116408844Y-48398968D01*
X116327135Y-48451546D01*
X116240141Y-48578866D01*
X116209536Y-48730000D01*
X116209536Y-49700000D01*
X116236103Y-49841190D01*
X116319546Y-49970865D01*
X116446866Y-50057859D01*
X116598000Y-50088464D01*
X116865400Y-50088464D01*
X116865400Y-52541000D01*
X116902136Y-52725683D01*
X117006750Y-52882250D01*
X117599536Y-53475035D01*
X117599536Y-53746000D01*
X117620994Y-53860037D01*
X117599536Y-53966000D01*
X117599536Y-53971000D01*
X114930464Y-53971000D01*
X114930464Y-53932000D01*
X114903897Y-53790810D01*
X114820454Y-53661135D01*
X114693134Y-53574141D01*
X114542000Y-53543536D01*
X114427000Y-53543536D01*
X114427000Y-50088464D01*
X114542000Y-50088464D01*
X114683190Y-50061897D01*
X114812865Y-49978454D01*
X114899859Y-49851134D01*
X114930464Y-49700000D01*
X114930464Y-48730000D01*
X114903897Y-48588810D01*
X114820454Y-48459135D01*
X114731929Y-48398648D01*
X114901699Y-48328327D01*
X115080327Y-48149698D01*
X115177000Y-47916309D01*
X115177000Y-47590750D01*
X115018250Y-47432000D01*
X113919000Y-47432000D01*
X113919000Y-47452000D01*
X113665000Y-47452000D01*
X113665000Y-47432000D01*
X112565750Y-47432000D01*
X112407000Y-47590750D01*
X112407000Y-47916309D01*
X112503673Y-48149698D01*
X112682301Y-48328327D01*
X112852844Y-48398968D01*
X112771135Y-48451546D01*
X112684141Y-48578866D01*
X112653536Y-48730000D01*
X112653536Y-49700000D01*
X112680103Y-49841190D01*
X112763546Y-49970865D01*
X112890866Y-50057859D01*
X113042000Y-50088464D01*
X113157000Y-50088464D01*
X113157000Y-52883975D01*
X109528013Y-49254987D01*
X109322004Y-49117336D01*
X109079000Y-49069000D01*
X105950468Y-49069000D01*
X105819914Y-48753034D01*
X105347453Y-48279748D01*
X104729839Y-48023292D01*
X104061095Y-48022709D01*
X103443034Y-48278086D01*
X102969748Y-48750547D01*
X102713292Y-49368161D01*
X102712709Y-50036905D01*
X102968086Y-50654966D01*
X103440547Y-51128252D01*
X103759000Y-51260485D01*
X103759000Y-54445536D01*
X103094000Y-54445536D01*
X102952810Y-54472103D01*
X102823135Y-54555546D01*
X102736141Y-54682866D01*
X102705536Y-54834000D01*
X102705536Y-57434000D01*
X102732103Y-57575190D01*
X102815546Y-57704865D01*
X102942866Y-57791859D01*
X103094000Y-57822464D01*
X105694000Y-57822464D01*
X105835190Y-57795897D01*
X105964865Y-57712454D01*
X106051859Y-57585134D01*
X106082464Y-57434000D01*
X106082464Y-56769000D01*
X108010574Y-56769000D01*
X112097136Y-60855562D01*
X112097136Y-62496000D01*
X112123703Y-62637190D01*
X112207146Y-62766865D01*
X112334466Y-62853859D01*
X112485600Y-62884464D01*
X114285600Y-62884464D01*
X114426790Y-62857897D01*
X114556465Y-62774454D01*
X114643459Y-62647134D01*
X114674064Y-62496000D01*
X114674064Y-59996000D01*
X114647497Y-59854810D01*
X114564054Y-59725135D01*
X114436734Y-59638141D01*
X114285600Y-59607536D01*
X112645162Y-59607536D01*
X111597316Y-58559690D01*
X115781000Y-58559690D01*
X115781000Y-59150250D01*
X115939750Y-59309000D01*
X116774000Y-59309000D01*
X116774000Y-58209750D01*
X116615250Y-58051000D01*
X116289691Y-58051000D01*
X116056302Y-58147673D01*
X115877673Y-58326301D01*
X115781000Y-58559690D01*
X111597316Y-58559690D01*
X109650376Y-56612750D01*
X112407000Y-56612750D01*
X112407000Y-56938309D01*
X112503673Y-57171698D01*
X112682301Y-57350327D01*
X112915690Y-57447000D01*
X113506250Y-57447000D01*
X113665000Y-57288250D01*
X113665000Y-56454000D01*
X113919000Y-56454000D01*
X113919000Y-57288250D01*
X114077750Y-57447000D01*
X114668310Y-57447000D01*
X114901699Y-57350327D01*
X115080327Y-57171698D01*
X115177000Y-56938309D01*
X115177000Y-56612750D01*
X115018250Y-56454000D01*
X113919000Y-56454000D01*
X113665000Y-56454000D01*
X112565750Y-56454000D01*
X112407000Y-56612750D01*
X109650376Y-56612750D01*
X108722613Y-55684987D01*
X108516604Y-55547336D01*
X108273600Y-55499000D01*
X106082464Y-55499000D01*
X106082464Y-54834000D01*
X106055897Y-54692810D01*
X105972454Y-54563135D01*
X105845134Y-54476141D01*
X105694000Y-54445536D01*
X105029000Y-54445536D01*
X105029000Y-51260468D01*
X105344966Y-51129914D01*
X105818252Y-50657453D01*
X105950485Y-50339000D01*
X108815974Y-50339000D01*
X112653536Y-54176561D01*
X112653536Y-54902000D01*
X112680103Y-55043190D01*
X112763546Y-55172865D01*
X112852071Y-55233352D01*
X112682301Y-55303673D01*
X112503673Y-55482302D01*
X112407000Y-55715691D01*
X112407000Y-56041250D01*
X112565750Y-56200000D01*
X113665000Y-56200000D01*
X113665000Y-56180000D01*
X113919000Y-56180000D01*
X113919000Y-56200000D01*
X115018250Y-56200000D01*
X115177000Y-56041250D01*
X115177000Y-55715691D01*
X115080327Y-55482302D01*
X114901699Y-55303673D01*
X114750393Y-55241000D01*
X117599536Y-55241000D01*
X117599536Y-55246000D01*
X117626103Y-55387190D01*
X117709546Y-55516865D01*
X117836866Y-55603859D01*
X117959064Y-55628604D01*
X117967136Y-55669183D01*
X118071750Y-55825750D01*
X118418250Y-56172250D01*
X118574817Y-56276864D01*
X118614965Y-56284850D01*
X118636103Y-56397190D01*
X118719546Y-56526865D01*
X118846866Y-56613859D01*
X118998000Y-56644464D01*
X119155400Y-56644464D01*
X119155400Y-57169180D01*
X118451790Y-57872790D01*
X118341669Y-58037597D01*
X118303000Y-58232000D01*
X118303000Y-58301864D01*
X118184810Y-58324103D01*
X118055135Y-58407546D01*
X117994648Y-58496071D01*
X117924327Y-58326301D01*
X117745698Y-58147673D01*
X117512309Y-58051000D01*
X117186750Y-58051000D01*
X117028000Y-58209750D01*
X117028000Y-59309000D01*
X117048000Y-59309000D01*
X117048000Y-59563000D01*
X117028000Y-59563000D01*
X117028000Y-59583000D01*
X116774000Y-59583000D01*
X116774000Y-59563000D01*
X115939750Y-59563000D01*
X115781000Y-59721750D01*
X115781000Y-60312310D01*
X115877673Y-60545699D01*
X115960804Y-60628829D01*
X115846279Y-60676150D01*
X115642465Y-60879608D01*
X115532026Y-61145576D01*
X115531775Y-61433561D01*
X115641750Y-61699721D01*
X115845208Y-61903535D01*
X116111176Y-62013974D01*
X116399161Y-62014225D01*
X116665321Y-61904250D01*
X116797001Y-61772800D01*
X118033800Y-61772800D01*
X118218483Y-61736064D01*
X118375050Y-61631450D01*
X119152250Y-60854250D01*
X119256864Y-60697683D01*
X119281375Y-60574464D01*
X119296000Y-60574464D01*
X119437190Y-60547897D01*
X119566865Y-60464454D01*
X119653859Y-60337134D01*
X119684464Y-60186000D01*
X119684464Y-58686000D01*
X119657897Y-58544810D01*
X119574454Y-58415135D01*
X119447134Y-58328141D01*
X119435612Y-58325808D01*
X119785920Y-57975500D01*
X123253500Y-57975500D01*
X123447903Y-57936831D01*
X123612710Y-57826710D01*
X124717420Y-56722000D01*
X126011536Y-56722000D01*
X126011536Y-56964000D01*
X126038103Y-57105190D01*
X126121546Y-57234865D01*
X126248866Y-57321859D01*
X126400000Y-57352464D01*
X127600000Y-57352464D01*
X127741190Y-57325897D01*
X127870865Y-57242454D01*
X127957859Y-57115134D01*
X127988464Y-56964000D01*
X127988464Y-56722000D01*
X129002680Y-56722000D01*
X129876621Y-57759672D01*
X129650639Y-57759475D01*
X129384479Y-57869450D01*
X129180665Y-58072908D01*
X129070226Y-58338876D01*
X129070045Y-58546233D01*
X129032000Y-58737500D01*
X129032000Y-66624536D01*
X128790000Y-66624536D01*
X128648810Y-66651103D01*
X128519135Y-66734546D01*
X128432141Y-66861866D01*
X128401536Y-67013000D01*
X128401536Y-67983000D01*
X128428103Y-68124190D01*
X128511546Y-68253865D01*
X128638866Y-68340859D01*
X128790000Y-68371464D01*
X130290000Y-68371464D01*
X130431190Y-68344897D01*
X130560865Y-68261454D01*
X130647859Y-68134134D01*
X130678464Y-67983000D01*
X130678464Y-67013000D01*
X130651897Y-66871810D01*
X130568454Y-66742135D01*
X130441134Y-66655141D01*
X130290000Y-66624536D01*
X130048000Y-66624536D01*
X130048000Y-59161810D01*
X130203521Y-59097550D01*
X130407335Y-58894092D01*
X130517774Y-58628124D01*
X130517867Y-58521055D01*
X134299423Y-63011078D01*
X132373750Y-64936750D01*
X132269136Y-65093317D01*
X132232400Y-65278000D01*
X132232400Y-74295000D01*
X132269136Y-74479683D01*
X132373750Y-74636250D01*
X133381536Y-75644036D01*
X133381536Y-77050000D01*
X133408103Y-77191190D01*
X133491546Y-77320865D01*
X133618866Y-77407859D01*
X133770000Y-77438464D01*
X135470000Y-77438464D01*
X135611190Y-77411897D01*
X135740865Y-77328454D01*
X135827859Y-77201134D01*
X135858464Y-77050000D01*
X135858464Y-76854895D01*
X135964817Y-77081358D01*
X136393076Y-77471645D01*
X136803110Y-77641476D01*
X137033000Y-77520155D01*
X137033000Y-76327000D01*
X137013000Y-76327000D01*
X137013000Y-76073000D01*
X137033000Y-76073000D01*
X137033000Y-76053000D01*
X137287000Y-76053000D01*
X137287000Y-76073000D01*
X137307000Y-76073000D01*
X137307000Y-76327000D01*
X137287000Y-76327000D01*
X137287000Y-77520155D01*
X137516890Y-77641476D01*
X137926924Y-77471645D01*
X138355183Y-77081358D01*
X138554917Y-76656053D01*
X138562704Y-76695200D01*
X138829552Y-77094565D01*
X139228917Y-77361413D01*
X139700000Y-77455117D01*
X140171083Y-77361413D01*
X140570448Y-77094565D01*
X140837296Y-76695200D01*
X140931000Y-76224117D01*
X140931000Y-76175883D01*
X140886141Y-75950359D01*
X141095504Y-75740996D01*
X141009000Y-76175883D01*
X141009000Y-76224117D01*
X141102704Y-76695200D01*
X141369552Y-77094565D01*
X141768917Y-77361413D01*
X142240000Y-77455117D01*
X142711083Y-77361413D01*
X143110448Y-77094565D01*
X143377296Y-76695200D01*
X143379802Y-76682600D01*
X144834100Y-76682600D01*
X145927500Y-77776000D01*
X117808757Y-77776000D01*
X118271835Y-77584660D01*
X119237270Y-76620908D01*
X119760403Y-75361063D01*
X119761594Y-73996922D01*
X119240660Y-72736165D01*
X118276908Y-71770730D01*
X117017063Y-71247597D01*
X115652922Y-71246406D01*
X114392165Y-71767340D01*
X113426730Y-72731092D01*
X112903597Y-73990937D01*
X112902406Y-75355078D01*
X113423340Y-76615835D01*
X114387092Y-77581270D01*
X114856054Y-77776000D01*
X103169720Y-77776000D01*
X103146860Y-77780547D01*
X103124000Y-77776000D01*
X102914911Y-77776000D01*
X101589898Y-77512438D01*
X100504681Y-76787319D01*
X99779562Y-75702102D01*
X99516000Y-74377089D01*
X99516000Y-73831787D01*
X100368787Y-73831787D01*
X100555800Y-74284395D01*
X100901784Y-74630983D01*
X101354065Y-74818786D01*
X101843787Y-74819213D01*
X102296395Y-74632200D01*
X102642983Y-74286216D01*
X102830786Y-73833935D01*
X102830787Y-73831787D01*
X106868787Y-73831787D01*
X107055800Y-74284395D01*
X107401784Y-74630983D01*
X107854065Y-74818786D01*
X108343787Y-74819213D01*
X108796395Y-74632200D01*
X109142983Y-74286216D01*
X109330786Y-73833935D01*
X109331213Y-73344213D01*
X109144200Y-72891605D01*
X108798216Y-72545017D01*
X108345935Y-72357214D01*
X107856213Y-72356787D01*
X107403605Y-72543800D01*
X107057017Y-72889784D01*
X106869214Y-73342065D01*
X106868787Y-73831787D01*
X102830787Y-73831787D01*
X102831213Y-73344213D01*
X102644200Y-72891605D01*
X102298216Y-72545017D01*
X101845935Y-72357214D01*
X101356213Y-72356787D01*
X100903605Y-72543800D01*
X100557017Y-72889784D01*
X100369214Y-73342065D01*
X100368787Y-73831787D01*
X99516000Y-73831787D01*
X99516000Y-69331787D01*
X100368787Y-69331787D01*
X100555800Y-69784395D01*
X100901784Y-70130983D01*
X101354065Y-70318786D01*
X101843787Y-70319213D01*
X102296395Y-70132200D01*
X102642983Y-69786216D01*
X102830786Y-69333935D01*
X102830787Y-69331787D01*
X106868787Y-69331787D01*
X107055800Y-69784395D01*
X107401784Y-70130983D01*
X107854065Y-70318786D01*
X108343787Y-70319213D01*
X108796395Y-70132200D01*
X109142983Y-69786216D01*
X109330786Y-69333935D01*
X109331213Y-68844213D01*
X109144200Y-68391605D01*
X108798216Y-68045017D01*
X108345935Y-67857214D01*
X107856213Y-67856787D01*
X107403605Y-68043800D01*
X107057017Y-68389784D01*
X106869214Y-68842065D01*
X106868787Y-69331787D01*
X102830787Y-69331787D01*
X102831213Y-68844213D01*
X102644200Y-68391605D01*
X102298216Y-68045017D01*
X101845935Y-67857214D01*
X101356213Y-67856787D01*
X100903605Y-68043800D01*
X100557017Y-68389784D01*
X100369214Y-68842065D01*
X100368787Y-69331787D01*
X99516000Y-69331787D01*
X99516000Y-61466905D01*
X102712709Y-61466905D01*
X102968086Y-62084966D01*
X103440547Y-62558252D01*
X104058161Y-62814708D01*
X104726905Y-62815291D01*
X104799410Y-62785332D01*
X107883039Y-65868961D01*
X108168856Y-66059938D01*
X108506000Y-66127000D01*
X112097136Y-66127000D01*
X112097136Y-66496000D01*
X112123703Y-66637190D01*
X112207146Y-66766865D01*
X112334466Y-66853859D01*
X112485600Y-66884464D01*
X113778142Y-66884464D01*
X114344039Y-67450361D01*
X114629855Y-67641338D01*
X114967000Y-67708400D01*
X116347536Y-67708400D01*
X116347536Y-69727400D01*
X116374103Y-69868590D01*
X116457546Y-69998265D01*
X116584866Y-70085259D01*
X116736000Y-70115864D01*
X122936000Y-70115864D01*
X123077190Y-70089297D01*
X123206865Y-70005854D01*
X123293859Y-69878534D01*
X123324464Y-69727400D01*
X123324464Y-68312400D01*
X123627536Y-68312400D01*
X123627536Y-69912400D01*
X123654103Y-70053590D01*
X123737546Y-70183265D01*
X123864866Y-70270259D01*
X124016000Y-70300864D01*
X127016000Y-70300864D01*
X127157190Y-70274297D01*
X127286865Y-70190854D01*
X127373859Y-70063534D01*
X127404464Y-69912400D01*
X127404464Y-69890600D01*
X128401536Y-69890600D01*
X128401536Y-69893000D01*
X128428103Y-70034190D01*
X128511546Y-70163865D01*
X128638866Y-70250859D01*
X128790000Y-70281464D01*
X130290000Y-70281464D01*
X130431190Y-70254897D01*
X130560865Y-70171454D01*
X130647859Y-70044134D01*
X130678464Y-69893000D01*
X130678464Y-68923000D01*
X130651897Y-68781810D01*
X130568454Y-68652135D01*
X130441134Y-68565141D01*
X130290000Y-68534536D01*
X128790000Y-68534536D01*
X128648810Y-68561103D01*
X128519135Y-68644546D01*
X128432141Y-68771866D01*
X128401536Y-68923000D01*
X128401536Y-68925400D01*
X127404464Y-68925400D01*
X127404464Y-68312400D01*
X127377897Y-68171210D01*
X127294454Y-68041535D01*
X127167134Y-67954541D01*
X127016000Y-67923936D01*
X124016000Y-67923936D01*
X123874810Y-67950503D01*
X123745135Y-68033946D01*
X123658141Y-68161266D01*
X123627536Y-68312400D01*
X123324464Y-68312400D01*
X123324464Y-64828150D01*
X123381000Y-64828150D01*
X123381000Y-65468710D01*
X123477673Y-65702099D01*
X123656302Y-65880727D01*
X123889691Y-65977400D01*
X125230250Y-65977400D01*
X125389000Y-65818650D01*
X125389000Y-64669400D01*
X125643000Y-64669400D01*
X125643000Y-65818650D01*
X125801750Y-65977400D01*
X127142309Y-65977400D01*
X127375698Y-65880727D01*
X127554327Y-65702099D01*
X127651000Y-65468710D01*
X127651000Y-64828150D01*
X127492250Y-64669400D01*
X125643000Y-64669400D01*
X125389000Y-64669400D01*
X123539750Y-64669400D01*
X123381000Y-64828150D01*
X123324464Y-64828150D01*
X123324464Y-63927400D01*
X123297897Y-63786210D01*
X123214454Y-63656535D01*
X123155261Y-63616090D01*
X123381000Y-63616090D01*
X123381000Y-64256650D01*
X123539750Y-64415400D01*
X125389000Y-64415400D01*
X125389000Y-63266150D01*
X125643000Y-63266150D01*
X125643000Y-64415400D01*
X127492250Y-64415400D01*
X127651000Y-64256650D01*
X127651000Y-63616090D01*
X127554327Y-63382701D01*
X127375698Y-63204073D01*
X127142309Y-63107400D01*
X125801750Y-63107400D01*
X125643000Y-63266150D01*
X125389000Y-63266150D01*
X125230250Y-63107400D01*
X123889691Y-63107400D01*
X123656302Y-63204073D01*
X123477673Y-63382701D01*
X123381000Y-63616090D01*
X123155261Y-63616090D01*
X123087134Y-63569541D01*
X122936000Y-63538936D01*
X116736000Y-63538936D01*
X116594810Y-63565503D01*
X116465135Y-63648946D01*
X116378141Y-63776266D01*
X116347536Y-63927400D01*
X116347536Y-65946400D01*
X115331922Y-65946400D01*
X114674064Y-65288542D01*
X114674064Y-63996000D01*
X114647497Y-63854810D01*
X114564054Y-63725135D01*
X114436734Y-63638141D01*
X114285600Y-63607536D01*
X112485600Y-63607536D01*
X112344410Y-63634103D01*
X112214735Y-63717546D01*
X112127741Y-63844866D01*
X112097136Y-63996000D01*
X112097136Y-64365000D01*
X108870922Y-64365000D01*
X106045677Y-61539755D01*
X106074708Y-61469839D01*
X106075291Y-60801095D01*
X105819914Y-60183034D01*
X105347453Y-59709748D01*
X104729839Y-59453292D01*
X104061095Y-59452709D01*
X103443034Y-59708086D01*
X102969748Y-60180547D01*
X102713292Y-60798161D01*
X102712709Y-61466905D01*
X99516000Y-61466905D01*
X99516000Y-46693691D01*
X112407000Y-46693691D01*
X112407000Y-47019250D01*
X112565750Y-47178000D01*
X113665000Y-47178000D01*
X113665000Y-46343750D01*
X113919000Y-46343750D01*
X113919000Y-47178000D01*
X115018250Y-47178000D01*
X115177000Y-47019250D01*
X115177000Y-46693691D01*
X115963000Y-46693691D01*
X115963000Y-47019250D01*
X116121750Y-47178000D01*
X117221000Y-47178000D01*
X117221000Y-46343750D01*
X117062250Y-46185000D01*
X116471690Y-46185000D01*
X116238301Y-46281673D01*
X116059673Y-46460302D01*
X115963000Y-46693691D01*
X115177000Y-46693691D01*
X115080327Y-46460302D01*
X114901699Y-46281673D01*
X114668310Y-46185000D01*
X114077750Y-46185000D01*
X113919000Y-46343750D01*
X113665000Y-46343750D01*
X113506250Y-46185000D01*
X112915690Y-46185000D01*
X112682301Y-46281673D01*
X112503673Y-46460302D01*
X112407000Y-46693691D01*
X99516000Y-46693691D01*
X99516000Y-44989750D01*
X102459000Y-44989750D01*
X102459000Y-46130309D01*
X102555673Y-46363698D01*
X102734301Y-46542327D01*
X102967690Y-46639000D01*
X104108250Y-46639000D01*
X104267000Y-46480250D01*
X104267000Y-44831000D01*
X104521000Y-44831000D01*
X104521000Y-46480250D01*
X104679750Y-46639000D01*
X105820310Y-46639000D01*
X106053699Y-46542327D01*
X106232327Y-46363698D01*
X106329000Y-46130309D01*
X106329000Y-44989750D01*
X106170250Y-44831000D01*
X104521000Y-44831000D01*
X104267000Y-44831000D01*
X102617750Y-44831000D01*
X102459000Y-44989750D01*
X99516000Y-44989750D01*
X99516000Y-43277691D01*
X102459000Y-43277691D01*
X102459000Y-44418250D01*
X102617750Y-44577000D01*
X104267000Y-44577000D01*
X104267000Y-42927750D01*
X104521000Y-42927750D01*
X104521000Y-44577000D01*
X106170250Y-44577000D01*
X106329000Y-44418250D01*
X106329000Y-43277691D01*
X106232327Y-43044302D01*
X106053699Y-42865673D01*
X105820310Y-42769000D01*
X104679750Y-42769000D01*
X104521000Y-42927750D01*
X104267000Y-42927750D01*
X104108250Y-42769000D01*
X102967690Y-42769000D01*
X102734301Y-42865673D01*
X102555673Y-43044302D01*
X102459000Y-43277691D01*
X99516000Y-43277691D01*
X99516000Y-39414911D01*
X99771750Y-38129170D01*
X99770606Y-39439478D01*
X100291540Y-40700235D01*
X101255292Y-41665670D01*
X102515137Y-42188803D01*
X103879278Y-42189994D01*
X105140035Y-41669060D01*
X105884643Y-40925750D01*
X115355000Y-40925750D01*
X115355000Y-41616309D01*
X115451673Y-41849698D01*
X115630301Y-42028327D01*
X115863690Y-42125000D01*
X116554250Y-42125000D01*
X116713000Y-41966250D01*
X116713000Y-40767000D01*
X115513750Y-40767000D01*
X115355000Y-40925750D01*
X105884643Y-40925750D01*
X106105470Y-40705308D01*
X106628603Y-39445463D01*
X106629528Y-38385750D01*
X115355000Y-38385750D01*
X115355000Y-39076309D01*
X115451673Y-39309698D01*
X115511975Y-39370000D01*
X115451673Y-39430302D01*
X115355000Y-39663691D01*
X115355000Y-40354250D01*
X115513750Y-40513000D01*
X116713000Y-40513000D01*
X116713000Y-38227000D01*
X115513750Y-38227000D01*
X115355000Y-38385750D01*
X106629528Y-38385750D01*
X106629794Y-38081322D01*
X106234110Y-37123691D01*
X115355000Y-37123691D01*
X115355000Y-37814250D01*
X115513750Y-37973000D01*
X116713000Y-37973000D01*
X116713000Y-36773750D01*
X116554250Y-36615000D01*
X115863690Y-36615000D01*
X115630301Y-36711673D01*
X115451673Y-36890302D01*
X115355000Y-37123691D01*
X106234110Y-37123691D01*
X106108860Y-36820565D01*
X105305698Y-36016000D01*
X154479243Y-36016000D01*
X154016165Y-36207340D01*
G36*
X147828000Y-74676000D02*
X147866669Y-74870403D01*
X147976790Y-75035210D01*
X148621536Y-75679956D01*
X148621536Y-77050000D01*
X148645602Y-77177900D01*
X146694400Y-77177900D01*
X145375250Y-75858750D01*
X145218683Y-75754136D01*
X145034000Y-75717400D01*
X143379802Y-75717400D01*
X143377296Y-75704800D01*
X143182054Y-75412600D01*
X144780000Y-75412600D01*
X144964683Y-75375864D01*
X145121250Y-75271250D01*
X147828000Y-72564500D01*
X147828000Y-74676000D01*
X147828000Y-74676000D01*
G37*
X147828000Y-74676000D02*
X147866669Y-74870403D01*
X147976790Y-75035210D01*
X148621536Y-75679956D01*
X148621536Y-77050000D01*
X148645602Y-77177900D01*
X146694400Y-77177900D01*
X145375250Y-75858750D01*
X145218683Y-75754136D01*
X145034000Y-75717400D01*
X143379802Y-75717400D01*
X143377296Y-75704800D01*
X143182054Y-75412600D01*
X144780000Y-75412600D01*
X144964683Y-75375864D01*
X145121250Y-75271250D01*
X147828000Y-72564500D01*
X147828000Y-74676000D01*
G36*
X162836353Y-72459853D02*
X162560000Y-72404883D01*
X162088917Y-72498587D01*
X161689552Y-72765435D01*
X161422704Y-73164800D01*
X161329000Y-73635883D01*
X161329000Y-73684117D01*
X161422704Y-74155200D01*
X161689552Y-74554565D01*
X161929659Y-74715000D01*
X161583690Y-74715000D01*
X161350301Y-74811673D01*
X161171673Y-74990302D01*
X161075000Y-75223691D01*
X161075000Y-75914250D01*
X161233750Y-76073000D01*
X162433000Y-76073000D01*
X162433000Y-76053000D01*
X162687000Y-76053000D01*
X162687000Y-76073000D01*
X162707000Y-76073000D01*
X162707000Y-76327000D01*
X162687000Y-76327000D01*
X162687000Y-76347000D01*
X162433000Y-76347000D01*
X162433000Y-76327000D01*
X161233750Y-76327000D01*
X161075000Y-76485750D01*
X161075000Y-77152500D01*
X155723742Y-77152500D01*
X155810448Y-77094565D01*
X156077296Y-76695200D01*
X156171000Y-76224117D01*
X156171000Y-76175883D01*
X156077296Y-75704800D01*
X155810448Y-75305435D01*
X155425488Y-75048212D01*
X155706924Y-74931645D01*
X156135183Y-74541358D01*
X156381486Y-74016892D01*
X156260819Y-73787000D01*
X155067000Y-73787000D01*
X155067000Y-73807000D01*
X154813000Y-73807000D01*
X154813000Y-73787000D01*
X154793000Y-73787000D01*
X154793000Y-73533000D01*
X154813000Y-73533000D01*
X154813000Y-73513000D01*
X155067000Y-73513000D01*
X155067000Y-73533000D01*
X156260819Y-73533000D01*
X156381486Y-73303108D01*
X156135183Y-72778642D01*
X155706924Y-72388355D01*
X155649571Y-72364600D01*
X162741100Y-72364600D01*
X162836353Y-72459853D01*
X162836353Y-72459853D01*
G37*
X162836353Y-72459853D02*
X162560000Y-72404883D01*
X162088917Y-72498587D01*
X161689552Y-72765435D01*
X161422704Y-73164800D01*
X161329000Y-73635883D01*
X161329000Y-73684117D01*
X161422704Y-74155200D01*
X161689552Y-74554565D01*
X161929659Y-74715000D01*
X161583690Y-74715000D01*
X161350301Y-74811673D01*
X161171673Y-74990302D01*
X161075000Y-75223691D01*
X161075000Y-75914250D01*
X161233750Y-76073000D01*
X162433000Y-76073000D01*
X162433000Y-76053000D01*
X162687000Y-76053000D01*
X162687000Y-76073000D01*
X162707000Y-76073000D01*
X162707000Y-76327000D01*
X162687000Y-76327000D01*
X162687000Y-76347000D01*
X162433000Y-76347000D01*
X162433000Y-76327000D01*
X161233750Y-76327000D01*
X161075000Y-76485750D01*
X161075000Y-77152500D01*
X155723742Y-77152500D01*
X155810448Y-77094565D01*
X156077296Y-76695200D01*
X156171000Y-76224117D01*
X156171000Y-76175883D01*
X156077296Y-75704800D01*
X155810448Y-75305435D01*
X155425488Y-75048212D01*
X155706924Y-74931645D01*
X156135183Y-74541358D01*
X156381486Y-74016892D01*
X156260819Y-73787000D01*
X155067000Y-73787000D01*
X155067000Y-73807000D01*
X154813000Y-73807000D01*
X154813000Y-73787000D01*
X154793000Y-73787000D01*
X154793000Y-73533000D01*
X154813000Y-73533000D01*
X154813000Y-73513000D01*
X155067000Y-73513000D01*
X155067000Y-73533000D01*
X156260819Y-73533000D01*
X156381486Y-73303108D01*
X156135183Y-72778642D01*
X155706924Y-72388355D01*
X155649571Y-72364600D01*
X162741100Y-72364600D01*
X162836353Y-72459853D01*
G36*
X140546450Y-68418021D02*
X140741400Y-68613312D01*
X140741400Y-69245180D01*
X140737665Y-69248908D01*
X140627226Y-69514876D01*
X140626975Y-69802861D01*
X140736950Y-70069021D01*
X140940408Y-70272835D01*
X141206376Y-70383274D01*
X141494361Y-70383525D01*
X141757400Y-70274840D01*
X141757400Y-72506282D01*
X141369552Y-72765435D01*
X141102704Y-73164800D01*
X141009000Y-73635883D01*
X141009000Y-73684117D01*
X141102704Y-74155200D01*
X141297946Y-74447400D01*
X141224000Y-74447400D01*
X141039317Y-74484136D01*
X140882750Y-74588750D01*
X140328038Y-75143462D01*
X140171083Y-75038587D01*
X139700000Y-74944883D01*
X139228917Y-75038587D01*
X138829552Y-75305435D01*
X138562704Y-75704800D01*
X138554917Y-75743947D01*
X138355183Y-75318642D01*
X137926924Y-74928355D01*
X137645488Y-74811788D01*
X138030448Y-74554565D01*
X138297296Y-74155200D01*
X138391000Y-73684117D01*
X138391000Y-73635883D01*
X138297296Y-73164800D01*
X138030448Y-72765435D01*
X137642600Y-72506282D01*
X137642600Y-70621400D01*
X138071135Y-70192864D01*
X138255861Y-70193025D01*
X138522021Y-70083050D01*
X138725835Y-69879592D01*
X138836274Y-69613624D01*
X138836525Y-69325639D01*
X138726550Y-69059479D01*
X138523092Y-68855665D01*
X138409746Y-68808600D01*
X138938000Y-68808600D01*
X139122683Y-68771864D01*
X139217400Y-68708577D01*
X139217400Y-72506282D01*
X138829552Y-72765435D01*
X138562704Y-73164800D01*
X138469000Y-73635883D01*
X138469000Y-73684117D01*
X138562704Y-74155200D01*
X138829552Y-74554565D01*
X139228917Y-74821413D01*
X139700000Y-74915117D01*
X140171083Y-74821413D01*
X140570448Y-74554565D01*
X140837296Y-74155200D01*
X140931000Y-73684117D01*
X140931000Y-73635883D01*
X140837296Y-73164800D01*
X140570448Y-72765435D01*
X140182600Y-72506282D01*
X140182600Y-68716400D01*
X140527307Y-68371693D01*
X140546450Y-68418021D01*
X140546450Y-68418021D01*
G37*
X140546450Y-68418021D02*
X140741400Y-68613312D01*
X140741400Y-69245180D01*
X140737665Y-69248908D01*
X140627226Y-69514876D01*
X140626975Y-69802861D01*
X140736950Y-70069021D01*
X140940408Y-70272835D01*
X141206376Y-70383274D01*
X141494361Y-70383525D01*
X141757400Y-70274840D01*
X141757400Y-72506282D01*
X141369552Y-72765435D01*
X141102704Y-73164800D01*
X141009000Y-73635883D01*
X141009000Y-73684117D01*
X141102704Y-74155200D01*
X141297946Y-74447400D01*
X141224000Y-74447400D01*
X141039317Y-74484136D01*
X140882750Y-74588750D01*
X140328038Y-75143462D01*
X140171083Y-75038587D01*
X139700000Y-74944883D01*
X139228917Y-75038587D01*
X138829552Y-75305435D01*
X138562704Y-75704800D01*
X138554917Y-75743947D01*
X138355183Y-75318642D01*
X137926924Y-74928355D01*
X137645488Y-74811788D01*
X138030448Y-74554565D01*
X138297296Y-74155200D01*
X138391000Y-73684117D01*
X138391000Y-73635883D01*
X138297296Y-73164800D01*
X138030448Y-72765435D01*
X137642600Y-72506282D01*
X137642600Y-70621400D01*
X138071135Y-70192864D01*
X138255861Y-70193025D01*
X138522021Y-70083050D01*
X138725835Y-69879592D01*
X138836274Y-69613624D01*
X138836525Y-69325639D01*
X138726550Y-69059479D01*
X138523092Y-68855665D01*
X138409746Y-68808600D01*
X138938000Y-68808600D01*
X139122683Y-68771864D01*
X139217400Y-68708577D01*
X139217400Y-72506282D01*
X138829552Y-72765435D01*
X138562704Y-73164800D01*
X138469000Y-73635883D01*
X138469000Y-73684117D01*
X138562704Y-74155200D01*
X138829552Y-74554565D01*
X139228917Y-74821413D01*
X139700000Y-74915117D01*
X140171083Y-74821413D01*
X140570448Y-74554565D01*
X140837296Y-74155200D01*
X140931000Y-73684117D01*
X140931000Y-73635883D01*
X140837296Y-73164800D01*
X140570448Y-72765435D01*
X140182600Y-72506282D01*
X140182600Y-68716400D01*
X140527307Y-68371693D01*
X140546450Y-68418021D01*
G36*
X135952743Y-64021567D02*
X135882339Y-64068258D01*
X134680258Y-65270339D01*
X134599208Y-65388961D01*
X134566517Y-65539658D01*
X134595032Y-65691201D01*
X134680258Y-65819711D01*
X135168472Y-66307925D01*
X135168472Y-66519863D01*
X135265145Y-66753252D01*
X135399891Y-66887998D01*
X135624397Y-66887998D01*
X136472395Y-66040000D01*
X136458253Y-66025858D01*
X136637858Y-65846253D01*
X136652000Y-65860395D01*
X136666143Y-65846253D01*
X136845748Y-66025858D01*
X136831605Y-66040000D01*
X136845748Y-66054143D01*
X136666143Y-66233748D01*
X136652000Y-66219605D01*
X135804002Y-67067603D01*
X135804002Y-67292109D01*
X135938748Y-67426855D01*
X136172137Y-67523528D01*
X136384075Y-67523528D01*
X136872289Y-68011742D01*
X136990911Y-68092792D01*
X137141608Y-68125483D01*
X137293151Y-68096968D01*
X137421661Y-68011742D01*
X138623742Y-66809661D01*
X138704792Y-66691039D01*
X138737483Y-66540342D01*
X138723324Y-66465096D01*
X138916210Y-66272210D01*
X139026331Y-66107403D01*
X139065000Y-65913000D01*
X139065000Y-65257218D01*
X139270094Y-65052124D01*
X139314097Y-65061670D01*
X139465640Y-65033155D01*
X139594150Y-64947929D01*
X140716000Y-63826079D01*
X141503400Y-64613479D01*
X141503400Y-65078100D01*
X138738100Y-67843400D01*
X138176000Y-67843400D01*
X137991317Y-67880136D01*
X137834750Y-67984750D01*
X137834748Y-67984753D01*
X134278750Y-71540750D01*
X134174136Y-71697317D01*
X134137400Y-71882000D01*
X134137400Y-72506282D01*
X133749552Y-72765435D01*
X133482704Y-73164800D01*
X133389000Y-73635883D01*
X133389000Y-73684117D01*
X133482704Y-74155200D01*
X133749552Y-74554565D01*
X134148917Y-74821413D01*
X134620000Y-74915117D01*
X135091083Y-74821413D01*
X135490448Y-74554565D01*
X135757296Y-74155200D01*
X135851000Y-73684117D01*
X135851000Y-73635883D01*
X135757296Y-73164800D01*
X135490448Y-72765435D01*
X135102600Y-72506282D01*
X135102600Y-72081900D01*
X136677400Y-70507100D01*
X136677400Y-72506282D01*
X136289552Y-72765435D01*
X136022704Y-73164800D01*
X135929000Y-73635883D01*
X135929000Y-73684117D01*
X136022704Y-74155200D01*
X136289552Y-74554565D01*
X136674512Y-74811788D01*
X136393076Y-74928355D01*
X135964817Y-75318642D01*
X135858464Y-75545105D01*
X135858464Y-75350000D01*
X135831897Y-75208810D01*
X135748454Y-75079135D01*
X135621134Y-74992141D01*
X135470000Y-74961536D01*
X134064036Y-74961536D01*
X133197600Y-74095100D01*
X133197600Y-65477900D01*
X135046596Y-63628903D01*
X135952743Y-64021567D01*
X135952743Y-64021567D01*
G37*
X135952743Y-64021567D02*
X135882339Y-64068258D01*
X134680258Y-65270339D01*
X134599208Y-65388961D01*
X134566517Y-65539658D01*
X134595032Y-65691201D01*
X134680258Y-65819711D01*
X135168472Y-66307925D01*
X135168472Y-66519863D01*
X135265145Y-66753252D01*
X135399891Y-66887998D01*
X135624397Y-66887998D01*
X136472395Y-66040000D01*
X136458253Y-66025858D01*
X136637858Y-65846253D01*
X136652000Y-65860395D01*
X136666143Y-65846253D01*
X136845748Y-66025858D01*
X136831605Y-66040000D01*
X136845748Y-66054143D01*
X136666143Y-66233748D01*
X136652000Y-66219605D01*
X135804002Y-67067603D01*
X135804002Y-67292109D01*
X135938748Y-67426855D01*
X136172137Y-67523528D01*
X136384075Y-67523528D01*
X136872289Y-68011742D01*
X136990911Y-68092792D01*
X137141608Y-68125483D01*
X137293151Y-68096968D01*
X137421661Y-68011742D01*
X138623742Y-66809661D01*
X138704792Y-66691039D01*
X138737483Y-66540342D01*
X138723324Y-66465096D01*
X138916210Y-66272210D01*
X139026331Y-66107403D01*
X139065000Y-65913000D01*
X139065000Y-65257218D01*
X139270094Y-65052124D01*
X139314097Y-65061670D01*
X139465640Y-65033155D01*
X139594150Y-64947929D01*
X140716000Y-63826079D01*
X141503400Y-64613479D01*
X141503400Y-65078100D01*
X138738100Y-67843400D01*
X138176000Y-67843400D01*
X137991317Y-67880136D01*
X137834750Y-67984750D01*
X137834748Y-67984753D01*
X134278750Y-71540750D01*
X134174136Y-71697317D01*
X134137400Y-71882000D01*
X134137400Y-72506282D01*
X133749552Y-72765435D01*
X133482704Y-73164800D01*
X133389000Y-73635883D01*
X133389000Y-73684117D01*
X133482704Y-74155200D01*
X133749552Y-74554565D01*
X134148917Y-74821413D01*
X134620000Y-74915117D01*
X135091083Y-74821413D01*
X135490448Y-74554565D01*
X135757296Y-74155200D01*
X135851000Y-73684117D01*
X135851000Y-73635883D01*
X135757296Y-73164800D01*
X135490448Y-72765435D01*
X135102600Y-72506282D01*
X135102600Y-72081900D01*
X136677400Y-70507100D01*
X136677400Y-72506282D01*
X136289552Y-72765435D01*
X136022704Y-73164800D01*
X135929000Y-73635883D01*
X135929000Y-73684117D01*
X136022704Y-74155200D01*
X136289552Y-74554565D01*
X136674512Y-74811788D01*
X136393076Y-74928355D01*
X135964817Y-75318642D01*
X135858464Y-75545105D01*
X135858464Y-75350000D01*
X135831897Y-75208810D01*
X135748454Y-75079135D01*
X135621134Y-74992141D01*
X135470000Y-74961536D01*
X134064036Y-74961536D01*
X133197600Y-74095100D01*
X133197600Y-65477900D01*
X135046596Y-63628903D01*
X135952743Y-64021567D01*
G36*
X146195790Y-64491210D02*
X146194624Y-64490726D01*
X145906639Y-64490475D01*
X145640479Y-64600450D01*
X145436665Y-64803908D01*
X145326226Y-65069876D01*
X145325975Y-65357861D01*
X145407597Y-65555403D01*
X144757864Y-66205136D01*
X144573139Y-66204975D01*
X144306979Y-66314950D01*
X144103165Y-66518408D01*
X143992726Y-66784376D01*
X143992475Y-67072361D01*
X144102450Y-67338521D01*
X144305908Y-67542335D01*
X144571876Y-67652774D01*
X144859861Y-67653025D01*
X145094580Y-67556041D01*
X145072226Y-67609876D01*
X145071975Y-67897861D01*
X145181950Y-68164021D01*
X145385408Y-68367835D01*
X145651376Y-68478274D01*
X145837436Y-68478436D01*
X147994748Y-70635747D01*
X147994750Y-70635750D01*
X148151317Y-70740364D01*
X148264602Y-70762898D01*
X144580100Y-74447400D01*
X143182054Y-74447400D01*
X143377296Y-74155200D01*
X143471000Y-73684117D01*
X143471000Y-73635883D01*
X143377296Y-73164800D01*
X143110448Y-72765435D01*
X142722600Y-72506282D01*
X142722600Y-67763900D01*
X144295750Y-66190750D01*
X144400364Y-66034183D01*
X144437100Y-65849500D01*
X144437100Y-63944500D01*
X144400364Y-63759817D01*
X144295750Y-63603250D01*
X143999558Y-63307058D01*
X144084278Y-63250873D01*
X144473187Y-62861964D01*
X144511082Y-62806502D01*
X146195790Y-64491210D01*
X146195790Y-64491210D01*
G37*
X146195790Y-64491210D02*
X146194624Y-64490726D01*
X145906639Y-64490475D01*
X145640479Y-64600450D01*
X145436665Y-64803908D01*
X145326226Y-65069876D01*
X145325975Y-65357861D01*
X145407597Y-65555403D01*
X144757864Y-66205136D01*
X144573139Y-66204975D01*
X144306979Y-66314950D01*
X144103165Y-66518408D01*
X143992726Y-66784376D01*
X143992475Y-67072361D01*
X144102450Y-67338521D01*
X144305908Y-67542335D01*
X144571876Y-67652774D01*
X144859861Y-67653025D01*
X145094580Y-67556041D01*
X145072226Y-67609876D01*
X145071975Y-67897861D01*
X145181950Y-68164021D01*
X145385408Y-68367835D01*
X145651376Y-68478274D01*
X145837436Y-68478436D01*
X147994748Y-70635747D01*
X147994750Y-70635750D01*
X148151317Y-70740364D01*
X148264602Y-70762898D01*
X144580100Y-74447400D01*
X143182054Y-74447400D01*
X143377296Y-74155200D01*
X143471000Y-73684117D01*
X143471000Y-73635883D01*
X143377296Y-73164800D01*
X143110448Y-72765435D01*
X142722600Y-72506282D01*
X142722600Y-67763900D01*
X144295750Y-66190750D01*
X144400364Y-66034183D01*
X144437100Y-65849500D01*
X144437100Y-63944500D01*
X144400364Y-63759817D01*
X144295750Y-63603250D01*
X143999558Y-63307058D01*
X144084278Y-63250873D01*
X144473187Y-62861964D01*
X144511082Y-62806502D01*
X146195790Y-64491210D01*
G36*
X152078866Y-65369859D02*
X152230000Y-65400464D01*
X152232400Y-65400464D01*
X152232400Y-69659203D01*
X152180979Y-69680450D01*
X151977165Y-69883908D01*
X151866726Y-70149876D01*
X151866475Y-70437861D01*
X151976450Y-70704021D01*
X152179908Y-70907835D01*
X152445876Y-71018274D01*
X152733861Y-71018525D01*
X153000021Y-70908550D01*
X153195312Y-70713600D01*
X153473057Y-70713600D01*
X153390726Y-70911876D01*
X153390475Y-71199861D01*
X153487890Y-71435624D01*
X153485317Y-71436136D01*
X153328750Y-71540750D01*
X152453896Y-72415604D01*
X152400000Y-72404883D01*
X151928917Y-72498587D01*
X151733307Y-72629290D01*
X152033931Y-65339156D01*
X152078866Y-65369859D01*
X152078866Y-65369859D01*
G37*
X152078866Y-65369859D02*
X152230000Y-65400464D01*
X152232400Y-65400464D01*
X152232400Y-69659203D01*
X152180979Y-69680450D01*
X151977165Y-69883908D01*
X151866726Y-70149876D01*
X151866475Y-70437861D01*
X151976450Y-70704021D01*
X152179908Y-70907835D01*
X152445876Y-71018274D01*
X152733861Y-71018525D01*
X153000021Y-70908550D01*
X153195312Y-70713600D01*
X153473057Y-70713600D01*
X153390726Y-70911876D01*
X153390475Y-71199861D01*
X153487890Y-71435624D01*
X153485317Y-71436136D01*
X153328750Y-71540750D01*
X152453896Y-72415604D01*
X152400000Y-72404883D01*
X151928917Y-72498587D01*
X151733307Y-72629290D01*
X152033931Y-65339156D01*
X152078866Y-65369859D01*
G36*
X137713953Y-59958632D02*
X137750824Y-59974112D01*
X137783047Y-59997788D01*
X139270388Y-60693168D01*
X139339950Y-60861521D01*
X139543408Y-61065335D01*
X139809376Y-61175774D01*
X140097361Y-61176025D01*
X140271500Y-61104072D01*
X140271500Y-61387510D01*
X140098624Y-61315726D01*
X139810639Y-61315475D01*
X139544479Y-61425450D01*
X139390642Y-61579018D01*
X139343247Y-61586441D01*
X139335926Y-61590910D01*
X139292106Y-61485118D01*
X139210393Y-61403405D01*
X138985887Y-61403405D01*
X138173244Y-62216047D01*
X138179986Y-62222789D01*
X138000381Y-62402394D01*
X137993639Y-62395652D01*
X137180997Y-63208295D01*
X137180997Y-63373000D01*
X137011334Y-63373000D01*
X136571816Y-63182542D01*
X136583921Y-63174454D01*
X136637734Y-63149832D01*
X136665554Y-63119908D01*
X136699524Y-63097210D01*
X136772465Y-63024269D01*
X136776885Y-63028689D01*
X137001391Y-63028689D01*
X137814034Y-62216047D01*
X137807291Y-62209304D01*
X137986896Y-62029699D01*
X137993639Y-62036442D01*
X138806281Y-61223799D01*
X138806281Y-60999293D01*
X138724568Y-60917580D01*
X138491179Y-60820907D01*
X138279243Y-60820908D01*
X138257407Y-60799072D01*
X138257408Y-60587136D01*
X138160735Y-60353747D01*
X138079022Y-60272034D01*
X137854516Y-60272034D01*
X137041873Y-61084676D01*
X137048615Y-61091418D01*
X136869010Y-61271023D01*
X136862268Y-61264281D01*
X136848126Y-61278424D01*
X136668520Y-61098818D01*
X136682663Y-61084676D01*
X136675920Y-61077934D01*
X136855526Y-60898328D01*
X136862268Y-60905071D01*
X137674910Y-60092428D01*
X137674910Y-59932273D01*
X137713953Y-59958632D01*
X137713953Y-59958632D01*
G37*
X137713953Y-59958632D02*
X137750824Y-59974112D01*
X137783047Y-59997788D01*
X139270388Y-60693168D01*
X139339950Y-60861521D01*
X139543408Y-61065335D01*
X139809376Y-61175774D01*
X140097361Y-61176025D01*
X140271500Y-61104072D01*
X140271500Y-61387510D01*
X140098624Y-61315726D01*
X139810639Y-61315475D01*
X139544479Y-61425450D01*
X139390642Y-61579018D01*
X139343247Y-61586441D01*
X139335926Y-61590910D01*
X139292106Y-61485118D01*
X139210393Y-61403405D01*
X138985887Y-61403405D01*
X138173244Y-62216047D01*
X138179986Y-62222789D01*
X138000381Y-62402394D01*
X137993639Y-62395652D01*
X137180997Y-63208295D01*
X137180997Y-63373000D01*
X137011334Y-63373000D01*
X136571816Y-63182542D01*
X136583921Y-63174454D01*
X136637734Y-63149832D01*
X136665554Y-63119908D01*
X136699524Y-63097210D01*
X136772465Y-63024269D01*
X136776885Y-63028689D01*
X137001391Y-63028689D01*
X137814034Y-62216047D01*
X137807291Y-62209304D01*
X137986896Y-62029699D01*
X137993639Y-62036442D01*
X138806281Y-61223799D01*
X138806281Y-60999293D01*
X138724568Y-60917580D01*
X138491179Y-60820907D01*
X138279243Y-60820908D01*
X138257407Y-60799072D01*
X138257408Y-60587136D01*
X138160735Y-60353747D01*
X138079022Y-60272034D01*
X137854516Y-60272034D01*
X137041873Y-61084676D01*
X137048615Y-61091418D01*
X136869010Y-61271023D01*
X136862268Y-61264281D01*
X136848126Y-61278424D01*
X136668520Y-61098818D01*
X136682663Y-61084676D01*
X136675920Y-61077934D01*
X136855526Y-60898328D01*
X136862268Y-60905071D01*
X137674910Y-60092428D01*
X137674910Y-59932273D01*
X137713953Y-59958632D01*
G36*
X126517400Y-48768000D02*
X126554136Y-48952683D01*
X126658750Y-49109250D01*
X128756400Y-51206900D01*
X128756400Y-55706000D01*
X127988464Y-55706000D01*
X127988464Y-55464000D01*
X127961897Y-55322810D01*
X127878454Y-55193135D01*
X127751134Y-55106141D01*
X127600000Y-55075536D01*
X126400000Y-55075536D01*
X126258810Y-55102103D01*
X126129135Y-55185546D01*
X126042141Y-55312866D01*
X126011536Y-55464000D01*
X126011536Y-55706000D01*
X124507000Y-55706000D01*
X124312597Y-55744669D01*
X124147790Y-55854790D01*
X123043080Y-56959500D01*
X120120600Y-56959500D01*
X120120600Y-56776626D01*
X120138301Y-56794327D01*
X120363257Y-56887507D01*
X120366750Y-56891000D01*
X120409250Y-56891000D01*
X120412743Y-56887507D01*
X120637699Y-56794327D01*
X120708000Y-56724026D01*
X120708000Y-56732250D01*
X120866750Y-56891000D01*
X120904310Y-56891000D01*
X121137699Y-56794327D01*
X121316327Y-56615698D01*
X121413000Y-56382309D01*
X121413000Y-56116750D01*
X121254250Y-55958000D01*
X120498000Y-55958000D01*
X120498000Y-55704000D01*
X121254250Y-55704000D01*
X121323786Y-55634464D01*
X121788000Y-55634464D01*
X121929190Y-55607897D01*
X122058865Y-55524454D01*
X122145859Y-55397134D01*
X122176464Y-55246000D01*
X122176464Y-55114000D01*
X122368500Y-55114000D01*
X122562903Y-55075331D01*
X122727710Y-54965210D01*
X123670920Y-54022000D01*
X126011536Y-54022000D01*
X126011536Y-54264000D01*
X126038103Y-54405190D01*
X126121546Y-54534865D01*
X126248866Y-54621859D01*
X126400000Y-54652464D01*
X127600000Y-54652464D01*
X127741190Y-54625897D01*
X127870865Y-54542454D01*
X127957859Y-54415134D01*
X127988464Y-54264000D01*
X127988464Y-52764000D01*
X127961897Y-52622810D01*
X127878454Y-52493135D01*
X127751134Y-52406141D01*
X127600000Y-52375536D01*
X126400000Y-52375536D01*
X126258810Y-52402103D01*
X126129135Y-52485546D01*
X126042141Y-52612866D01*
X126011536Y-52764000D01*
X126011536Y-53006000D01*
X123460500Y-53006000D01*
X123266096Y-53044669D01*
X123101290Y-53154790D01*
X122176464Y-54079616D01*
X122176464Y-53966000D01*
X122155006Y-53851963D01*
X122176464Y-53746000D01*
X122176464Y-53475036D01*
X124801250Y-50850250D01*
X124905864Y-50693683D01*
X124942600Y-50509000D01*
X124942600Y-50088464D01*
X125210000Y-50088464D01*
X125351190Y-50061897D01*
X125480865Y-49978454D01*
X125567859Y-49851134D01*
X125598464Y-49700000D01*
X125598464Y-48730000D01*
X125571897Y-48588810D01*
X125488454Y-48459135D01*
X125361134Y-48372141D01*
X125210000Y-48341536D01*
X123710000Y-48341536D01*
X123568810Y-48368103D01*
X123439135Y-48451546D01*
X123352141Y-48578866D01*
X123321536Y-48730000D01*
X123321536Y-49700000D01*
X123348103Y-49841190D01*
X123431546Y-49970865D01*
X123558866Y-50057859D01*
X123710000Y-50088464D01*
X123977400Y-50088464D01*
X123977400Y-50309100D01*
X123196900Y-51089600D01*
X122997850Y-50890550D01*
X122841283Y-50785936D01*
X122656600Y-50749200D01*
X119989600Y-50749200D01*
X119804917Y-50785936D01*
X119648350Y-50890550D01*
X119648348Y-50890553D01*
X119296750Y-51242150D01*
X119192136Y-51398717D01*
X119155400Y-51583400D01*
X119155400Y-52282534D01*
X119140141Y-52304866D01*
X119109536Y-52456000D01*
X119109536Y-53028000D01*
X119068000Y-53028000D01*
X119068000Y-53008000D01*
X118998000Y-53008000D01*
X118998000Y-52754000D01*
X119068000Y-52754000D01*
X119068000Y-51979750D01*
X118909250Y-51821000D01*
X118871690Y-51821000D01*
X118638301Y-51917673D01*
X118459673Y-52096302D01*
X118363000Y-52329691D01*
X118363000Y-52595250D01*
X118521748Y-52753998D01*
X118363000Y-52753998D01*
X118363000Y-52873500D01*
X117830600Y-52341100D01*
X117830600Y-50088464D01*
X118098000Y-50088464D01*
X118239190Y-50061897D01*
X118368865Y-49978454D01*
X118455859Y-49851134D01*
X118486464Y-49700000D01*
X118486464Y-48730000D01*
X118459897Y-48588810D01*
X118376454Y-48459135D01*
X118287929Y-48398648D01*
X118457699Y-48328327D01*
X118611763Y-48174263D01*
X119765536Y-49328035D01*
X119765536Y-49700000D01*
X119792103Y-49841190D01*
X119875546Y-49970865D01*
X120002866Y-50057859D01*
X120154000Y-50088464D01*
X121654000Y-50088464D01*
X121795190Y-50061897D01*
X121924865Y-49978454D01*
X122011859Y-49851134D01*
X122042464Y-49700000D01*
X122042464Y-49603440D01*
X122086210Y-49574210D01*
X123531357Y-48129063D01*
X123558866Y-48147859D01*
X123710000Y-48178464D01*
X125210000Y-48178464D01*
X125351190Y-48151897D01*
X125480865Y-48068454D01*
X125567859Y-47941134D01*
X125593806Y-47813000D01*
X126517400Y-47813000D01*
X126517400Y-48768000D01*
X126517400Y-48768000D01*
G37*
X126517400Y-48768000D02*
X126554136Y-48952683D01*
X126658750Y-49109250D01*
X128756400Y-51206900D01*
X128756400Y-55706000D01*
X127988464Y-55706000D01*
X127988464Y-55464000D01*
X127961897Y-55322810D01*
X127878454Y-55193135D01*
X127751134Y-55106141D01*
X127600000Y-55075536D01*
X126400000Y-55075536D01*
X126258810Y-55102103D01*
X126129135Y-55185546D01*
X126042141Y-55312866D01*
X126011536Y-55464000D01*
X126011536Y-55706000D01*
X124507000Y-55706000D01*
X124312597Y-55744669D01*
X124147790Y-55854790D01*
X123043080Y-56959500D01*
X120120600Y-56959500D01*
X120120600Y-56776626D01*
X120138301Y-56794327D01*
X120363257Y-56887507D01*
X120366750Y-56891000D01*
X120409250Y-56891000D01*
X120412743Y-56887507D01*
X120637699Y-56794327D01*
X120708000Y-56724026D01*
X120708000Y-56732250D01*
X120866750Y-56891000D01*
X120904310Y-56891000D01*
X121137699Y-56794327D01*
X121316327Y-56615698D01*
X121413000Y-56382309D01*
X121413000Y-56116750D01*
X121254250Y-55958000D01*
X120498000Y-55958000D01*
X120498000Y-55704000D01*
X121254250Y-55704000D01*
X121323786Y-55634464D01*
X121788000Y-55634464D01*
X121929190Y-55607897D01*
X122058865Y-55524454D01*
X122145859Y-55397134D01*
X122176464Y-55246000D01*
X122176464Y-55114000D01*
X122368500Y-55114000D01*
X122562903Y-55075331D01*
X122727710Y-54965210D01*
X123670920Y-54022000D01*
X126011536Y-54022000D01*
X126011536Y-54264000D01*
X126038103Y-54405190D01*
X126121546Y-54534865D01*
X126248866Y-54621859D01*
X126400000Y-54652464D01*
X127600000Y-54652464D01*
X127741190Y-54625897D01*
X127870865Y-54542454D01*
X127957859Y-54415134D01*
X127988464Y-54264000D01*
X127988464Y-52764000D01*
X127961897Y-52622810D01*
X127878454Y-52493135D01*
X127751134Y-52406141D01*
X127600000Y-52375536D01*
X126400000Y-52375536D01*
X126258810Y-52402103D01*
X126129135Y-52485546D01*
X126042141Y-52612866D01*
X126011536Y-52764000D01*
X126011536Y-53006000D01*
X123460500Y-53006000D01*
X123266096Y-53044669D01*
X123101290Y-53154790D01*
X122176464Y-54079616D01*
X122176464Y-53966000D01*
X122155006Y-53851963D01*
X122176464Y-53746000D01*
X122176464Y-53475036D01*
X124801250Y-50850250D01*
X124905864Y-50693683D01*
X124942600Y-50509000D01*
X124942600Y-50088464D01*
X125210000Y-50088464D01*
X125351190Y-50061897D01*
X125480865Y-49978454D01*
X125567859Y-49851134D01*
X125598464Y-49700000D01*
X125598464Y-48730000D01*
X125571897Y-48588810D01*
X125488454Y-48459135D01*
X125361134Y-48372141D01*
X125210000Y-48341536D01*
X123710000Y-48341536D01*
X123568810Y-48368103D01*
X123439135Y-48451546D01*
X123352141Y-48578866D01*
X123321536Y-48730000D01*
X123321536Y-49700000D01*
X123348103Y-49841190D01*
X123431546Y-49970865D01*
X123558866Y-50057859D01*
X123710000Y-50088464D01*
X123977400Y-50088464D01*
X123977400Y-50309100D01*
X123196900Y-51089600D01*
X122997850Y-50890550D01*
X122841283Y-50785936D01*
X122656600Y-50749200D01*
X119989600Y-50749200D01*
X119804917Y-50785936D01*
X119648350Y-50890550D01*
X119648348Y-50890553D01*
X119296750Y-51242150D01*
X119192136Y-51398717D01*
X119155400Y-51583400D01*
X119155400Y-52282534D01*
X119140141Y-52304866D01*
X119109536Y-52456000D01*
X119109536Y-53028000D01*
X119068000Y-53028000D01*
X119068000Y-53008000D01*
X118998000Y-53008000D01*
X118998000Y-52754000D01*
X119068000Y-52754000D01*
X119068000Y-51979750D01*
X118909250Y-51821000D01*
X118871690Y-51821000D01*
X118638301Y-51917673D01*
X118459673Y-52096302D01*
X118363000Y-52329691D01*
X118363000Y-52595250D01*
X118521748Y-52753998D01*
X118363000Y-52753998D01*
X118363000Y-52873500D01*
X117830600Y-52341100D01*
X117830600Y-50088464D01*
X118098000Y-50088464D01*
X118239190Y-50061897D01*
X118368865Y-49978454D01*
X118455859Y-49851134D01*
X118486464Y-49700000D01*
X118486464Y-48730000D01*
X118459897Y-48588810D01*
X118376454Y-48459135D01*
X118287929Y-48398648D01*
X118457699Y-48328327D01*
X118611763Y-48174263D01*
X119765536Y-49328035D01*
X119765536Y-49700000D01*
X119792103Y-49841190D01*
X119875546Y-49970865D01*
X120002866Y-50057859D01*
X120154000Y-50088464D01*
X121654000Y-50088464D01*
X121795190Y-50061897D01*
X121924865Y-49978454D01*
X122011859Y-49851134D01*
X122042464Y-49700000D01*
X122042464Y-49603440D01*
X122086210Y-49574210D01*
X123531357Y-48129063D01*
X123558866Y-48147859D01*
X123710000Y-48178464D01*
X125210000Y-48178464D01*
X125351190Y-48151897D01*
X125480865Y-48068454D01*
X125567859Y-47941134D01*
X125593806Y-47813000D01*
X126517400Y-47813000D01*
X126517400Y-48768000D01*
G36*
X120778000Y-53008000D02*
X120498000Y-53008000D01*
X120498000Y-52754000D01*
X120778000Y-52754000D01*
X120778000Y-53008000D01*
X120778000Y-53008000D01*
G37*
X120778000Y-53008000D02*
X120498000Y-53008000D01*
X120498000Y-52754000D01*
X120778000Y-52754000D01*
X120778000Y-53008000D01*
G36*
X122514400Y-51772100D02*
X121413000Y-52873500D01*
X121413000Y-52753998D01*
X121254252Y-52753998D01*
X121413000Y-52595250D01*
X121413000Y-52329691D01*
X121316327Y-52096302D01*
X121137699Y-51917673D01*
X120904310Y-51821000D01*
X120866750Y-51821000D01*
X120708000Y-51979750D01*
X120708000Y-51987974D01*
X120637699Y-51917673D01*
X120412743Y-51824493D01*
X120409250Y-51821000D01*
X120366750Y-51821000D01*
X120363257Y-51824493D01*
X120138301Y-51917673D01*
X120120600Y-51935374D01*
X120120600Y-51783300D01*
X120189499Y-51714400D01*
X122456700Y-51714400D01*
X122514400Y-51772100D01*
X122514400Y-51772100D01*
G37*
X122514400Y-51772100D02*
X121413000Y-52873500D01*
X121413000Y-52753998D01*
X121254252Y-52753998D01*
X121413000Y-52595250D01*
X121413000Y-52329691D01*
X121316327Y-52096302D01*
X121137699Y-51917673D01*
X120904310Y-51821000D01*
X120866750Y-51821000D01*
X120708000Y-51979750D01*
X120708000Y-51987974D01*
X120637699Y-51917673D01*
X120412743Y-51824493D01*
X120409250Y-51821000D01*
X120366750Y-51821000D01*
X120363257Y-51824493D01*
X120138301Y-51917673D01*
X120120600Y-51935374D01*
X120120600Y-51783300D01*
X120189499Y-51714400D01*
X122456700Y-51714400D01*
X122514400Y-51772100D01*
M02*
