G04 #@! TF.FileFunction,Copper,L2,Bot,Signal*
%FSLAX46Y46*%
G04 Gerber Fmt 4.6, Leading zero omitted, Abs format (unit mm)*
G04 Created by KiCad (PCBNEW 4.0.7+dfsg1-1~bpo9+1) date Thu Mar 15 23:06:16 2018*
%MOMM*%
%LPD*%
G01*
G04 APERTURE LIST*
%ADD10C,0.100000*%
%ADD11C,0.600000*%
%ADD12C,6.096000*%
%ADD13R,1.700000X1.700000*%
%ADD14O,1.700000X1.700000*%
%ADD15C,1.700000*%
%ADD16R,2.600000X2.600000*%
%ADD17C,2.600000*%
%ADD18R,2.000000X1.000000*%
%ADD19C,0.685800*%
%ADD20C,0.889000*%
%ADD21C,0.203200*%
%ADD22C,0.254000*%
%ADD23C,0.508000*%
%ADD24C,1.524000*%
G04 APERTURE END LIST*
D10*
D11*
X112776000Y-42494200D03*
X120954800Y-60477400D03*
X117144800Y-56159400D03*
X128524000Y-58674000D03*
X130810000Y-52324000D03*
X130302000Y-50546000D03*
X127762000Y-51054000D03*
X124714000Y-45466000D03*
X117602000Y-45466000D03*
X119888000Y-45466000D03*
X115570000Y-45720000D03*
X112395000Y-45720000D03*
X111125000Y-46355000D03*
X108381800Y-48234600D03*
X111125000Y-50165000D03*
X115722400Y-53162200D03*
D12*
X103200200Y-38760400D03*
D11*
X147243800Y-60147200D03*
X146942000Y-51152000D03*
X151790400Y-51663600D03*
X153568400Y-51663600D03*
X154838400Y-52425600D03*
X154838400Y-53949600D03*
X138353800Y-48260000D03*
X140665200Y-52730400D03*
X143687800Y-49225200D03*
X152349200Y-71526400D03*
X152044400Y-68199000D03*
X138480800Y-43484800D03*
X130810000Y-60604400D03*
X130911600Y-54457600D03*
X141430200Y-56130400D03*
X143563800Y-58340200D03*
X154990800Y-60731400D03*
X155346400Y-57785000D03*
X149072600Y-45186600D03*
X141960600Y-43840400D03*
X122682000Y-45466000D03*
X100863400Y-58420000D03*
X101092000Y-46761400D03*
X108458000Y-38354000D03*
X115646200Y-51435000D03*
X111125000Y-48260000D03*
X108407200Y-53060600D03*
X108407200Y-58928000D03*
X114604800Y-58445400D03*
X128397000Y-64211200D03*
X122682000Y-58674000D03*
X125730000Y-58674000D03*
X125476000Y-51054000D03*
X122936000Y-55880000D03*
X128524000Y-45466000D03*
X128524000Y-48768000D03*
X135636000Y-51308000D03*
X130048000Y-38608000D03*
X134620000Y-37592000D03*
X144780000Y-39116000D03*
X148844000Y-37592000D03*
X161544000Y-38100000D03*
X156188000Y-46730000D03*
X161544000Y-44196000D03*
X168638000Y-40980000D03*
X147450000Y-54200000D03*
X154711400Y-48285400D03*
X152044400Y-55473600D03*
X153492200Y-55473600D03*
X154838400Y-55473600D03*
X164338000Y-55880000D03*
X162814000Y-65532000D03*
X170434000Y-72390000D03*
X158750000Y-74676000D03*
X160274000Y-68834000D03*
X155956000Y-68834000D03*
X145034000Y-64262000D03*
X130175000Y-72390000D03*
X123190000Y-72390000D03*
X134112000Y-70612000D03*
X135890000Y-68580000D03*
X140970000Y-64770000D03*
X138430000Y-60452000D03*
X146304000Y-70612000D03*
X143764000Y-70104000D03*
X147320000Y-76835000D03*
X146685000Y-74930000D03*
X144780000Y-73025000D03*
X140970000Y-71120000D03*
X138430000Y-71120000D03*
X102870000Y-65405000D03*
X111252000Y-71628000D03*
X114604800Y-69621400D03*
X101600000Y-76200000D03*
X109855000Y-76200000D03*
X123190000Y-76200000D03*
D13*
X168656000Y-61468000D03*
D14*
X168656000Y-58928000D03*
X168656000Y-56388000D03*
X168656000Y-53848000D03*
X168656000Y-51308000D03*
X168656000Y-48768000D03*
D15*
X152298400Y-53365400D03*
D13*
X116840000Y-38100000D03*
D14*
X119380000Y-38100000D03*
X121920000Y-38100000D03*
X124460000Y-38100000D03*
D13*
X149860000Y-76200000D03*
D14*
X149860000Y-73660000D03*
X152400000Y-76200000D03*
X152400000Y-73660000D03*
X154940000Y-76200000D03*
X154940000Y-73660000D03*
D16*
X165100000Y-43180000D03*
D17*
X165100000Y-38180000D03*
D16*
X104394000Y-56134000D03*
D17*
X104394000Y-61134000D03*
D13*
X162560000Y-76200000D03*
D14*
X162560000Y-73660000D03*
X165100000Y-76200000D03*
X165100000Y-73660000D03*
X167640000Y-76200000D03*
X167640000Y-73660000D03*
D13*
X116840000Y-40640000D03*
D14*
X119380000Y-40640000D03*
X121920000Y-40640000D03*
X124460000Y-40640000D03*
D16*
X104394000Y-44704000D03*
D17*
X104394000Y-49704000D03*
D13*
X134620000Y-76200000D03*
D14*
X134620000Y-73660000D03*
X137160000Y-76200000D03*
X137160000Y-73660000D03*
X139700000Y-76200000D03*
X139700000Y-73660000D03*
X142240000Y-76200000D03*
X142240000Y-73660000D03*
D18*
X133224000Y-67452000D03*
X133224000Y-65452000D03*
X133224000Y-63452000D03*
X133224000Y-61452000D03*
X133224000Y-59452000D03*
X133224000Y-57452000D03*
X133224000Y-55452000D03*
X133224000Y-53452000D03*
X149224000Y-53452000D03*
X149224000Y-55452000D03*
X149224000Y-57452000D03*
X149224000Y-59452000D03*
X149224000Y-61452000D03*
X149224000Y-63452000D03*
X149224000Y-65452000D03*
X149224000Y-67452000D03*
D12*
X116332000Y-74676000D03*
X168148000Y-67564000D03*
X155956000Y-39116000D03*
D11*
X130175000Y-76200000D03*
D13*
X140766800Y-50038000D03*
D14*
X140766800Y-47498000D03*
D15*
X108100000Y-73588000D03*
X101600000Y-73588000D03*
X108100000Y-69088000D03*
X101600000Y-69088000D03*
D19*
X120548400Y-51892200D03*
X118618000Y-51689000D03*
X121437400Y-52146200D03*
X138112500Y-69469000D03*
X140779500Y-62674500D03*
X162560000Y-49784000D03*
X139954000Y-57404000D03*
X116255800Y-61290200D03*
X139954000Y-62039500D03*
X151066500Y-60515500D03*
X153162000Y-60452000D03*
X153225500Y-57658000D03*
X152590500Y-70294500D03*
X162496500Y-70231000D03*
X131318000Y-46736000D03*
X134175500Y-43751500D03*
D20*
X150876000Y-43688000D03*
D19*
X159766000Y-60198000D03*
X156972000Y-67564000D03*
X139954000Y-60452000D03*
X146812000Y-58928000D03*
X159004000Y-59055000D03*
X139344400Y-58267600D03*
X157480000Y-54864000D03*
X139293600Y-59385200D03*
X135826500Y-43497500D03*
X126428500Y-45212000D03*
X130238500Y-49085500D03*
X141160500Y-68008500D03*
X141351000Y-69659500D03*
X154114500Y-71056500D03*
X146050000Y-65214500D03*
X144716500Y-66929000D03*
X151765000Y-62484000D03*
X151892000Y-57912000D03*
X145796000Y-67754500D03*
X149415500Y-70294500D03*
X162052000Y-41148000D03*
X150876000Y-39116000D03*
X147447000Y-66548000D03*
X160909000Y-66421000D03*
X141986000Y-61214000D03*
X140144500Y-56197500D03*
X129794000Y-58483500D03*
X135318500Y-61976000D03*
X144703800Y-53340000D03*
D21*
X120548400Y-52882800D02*
X120548400Y-51892200D01*
X118618000Y-51689000D02*
X119075200Y-52146200D01*
X119075200Y-52146200D02*
X121437400Y-52146200D01*
X138620500Y-68961000D02*
X148399500Y-68961000D01*
X138112500Y-69469000D02*
X138620500Y-68961000D01*
D22*
X156972000Y-74168000D02*
X154940000Y-76200000D01*
X156972000Y-72453500D02*
X156972000Y-74168000D01*
X153479500Y-68961000D02*
X156972000Y-72453500D01*
X148399500Y-68961000D02*
X153479500Y-68961000D01*
X140779500Y-62674500D02*
X148399500Y-68961000D01*
X139954000Y-57404000D02*
X141732000Y-57404000D01*
X149352000Y-49784000D02*
X162560000Y-49784000D01*
X141732000Y-57404000D02*
X149352000Y-49784000D01*
X133224000Y-57452000D02*
X139906000Y-57452000D01*
X139906000Y-57452000D02*
X139954000Y-57404000D01*
D21*
X103682800Y-67005200D02*
X101600000Y-69088000D01*
X107772200Y-67005200D02*
X103682800Y-67005200D01*
X109118400Y-65659000D02*
X107772200Y-67005200D01*
X109118400Y-62966600D02*
X109118400Y-65659000D01*
X110845600Y-61239400D02*
X109118400Y-62966600D01*
X116205000Y-61239400D02*
X110845600Y-61239400D01*
X116255800Y-61290200D02*
X116205000Y-61239400D01*
X164084000Y-68580000D02*
X164084000Y-68643500D01*
X166624000Y-56388000D02*
X164084000Y-58928000D01*
X164084000Y-58928000D02*
X164084000Y-68580000D01*
X168656000Y-56388000D02*
X166624000Y-56388000D01*
X164084000Y-68643500D02*
X162496500Y-70231000D01*
X148700000Y-61976000D02*
X149224000Y-61452000D01*
X140081000Y-61912500D02*
X148700000Y-61976000D01*
X139954000Y-62039500D02*
X140081000Y-61912500D01*
X151066500Y-60515500D02*
X150130000Y-61452000D01*
X150130000Y-61452000D02*
X149224000Y-61452000D01*
X153162000Y-60452000D02*
X153225500Y-60388500D01*
X153225500Y-60388500D02*
X153225500Y-57658000D01*
X149860000Y-73660000D02*
X149860000Y-72898000D01*
X149860000Y-72898000D02*
X147955000Y-70993000D01*
X147955000Y-70993000D02*
X147955000Y-70167500D01*
X147955000Y-70167500D02*
X148590000Y-69532500D01*
X148590000Y-69532500D02*
X151828500Y-69532500D01*
X151828500Y-69532500D02*
X152590500Y-70294500D01*
X162496500Y-70231000D02*
X162560000Y-70231000D01*
X162560000Y-70231000D02*
X162496500Y-70231000D01*
X162496500Y-70231000D02*
X162560000Y-70231000D01*
X162560000Y-73660000D02*
X162560000Y-70231000D01*
X162560000Y-72961500D02*
X162560000Y-73660000D01*
D22*
X131318000Y-46736000D02*
X134175500Y-43878500D01*
X134175500Y-43878500D02*
X134175500Y-43751500D01*
D23*
X104394000Y-49704000D02*
X104394000Y-49530000D01*
X104394000Y-49530000D02*
X109728000Y-44196000D01*
X149352000Y-42164000D02*
X150876000Y-43688000D01*
X133096000Y-42164000D02*
X149352000Y-42164000D01*
X131064000Y-44196000D02*
X133096000Y-42164000D01*
X109728000Y-44196000D02*
X131064000Y-44196000D01*
D22*
X154512000Y-65452000D02*
X149224000Y-65452000D01*
X159766000Y-60198000D02*
X154512000Y-65452000D01*
X149224000Y-67452000D02*
X156860000Y-67452000D01*
X156860000Y-67452000D02*
X156972000Y-67564000D01*
X145288000Y-60452000D02*
X139954000Y-60452000D01*
X146812000Y-58928000D02*
X145288000Y-60452000D01*
X149224000Y-63452000D02*
X154607000Y-63452000D01*
X154607000Y-63452000D02*
X159004000Y-59055000D01*
D21*
X141630400Y-58267600D02*
X139344400Y-58267600D01*
X148996400Y-50901600D02*
X141630400Y-58267600D01*
X154330400Y-50901600D02*
X148996400Y-50901600D01*
X165709600Y-50901600D02*
X154330400Y-50901600D01*
X168656000Y-53848000D02*
X165709600Y-50901600D01*
X157480000Y-54864000D02*
X157480000Y-54991000D01*
X157480000Y-54991000D02*
X157480000Y-54864000D01*
X157480000Y-54864000D02*
X157480000Y-54991000D01*
D22*
X139293600Y-59385200D02*
X144653000Y-59436000D01*
X144653000Y-59436000D02*
X147574000Y-56515000D01*
X147574000Y-56515000D02*
X155956000Y-56515000D01*
X155956000Y-56515000D02*
X157480000Y-54991000D01*
X157480000Y-54991000D02*
X157480000Y-54991000D01*
D24*
X149224000Y-53452000D02*
X152211800Y-53452000D01*
X152211800Y-53452000D02*
X152298400Y-53365400D01*
D21*
X124460000Y-38100000D02*
X124460000Y-40640000D01*
D22*
X130238500Y-49085500D02*
X130683000Y-48641000D01*
X130683000Y-48641000D02*
X135826500Y-43497500D01*
X126428500Y-45275500D02*
X126428500Y-45212000D01*
X130238500Y-49085500D02*
X126428500Y-45275500D01*
D21*
X133224000Y-65452000D02*
X138604000Y-65452000D01*
X138604000Y-65452000D02*
X141224000Y-68072000D01*
X141224000Y-68072000D02*
X141160500Y-68008500D01*
X141351000Y-69659500D02*
X143065500Y-71374000D01*
X143065500Y-71374000D02*
X145034000Y-71374000D01*
X145034000Y-71374000D02*
X149860000Y-76200000D01*
X149860000Y-76200000D02*
X149923500Y-76200000D01*
X149923500Y-76200000D02*
X151193500Y-74930000D01*
X153606500Y-71564500D02*
X154114500Y-71056500D01*
X153606500Y-74485500D02*
X153606500Y-71564500D01*
X153162000Y-74930000D02*
X153606500Y-74485500D01*
X151193500Y-74930000D02*
X153162000Y-74930000D01*
X133224000Y-61452000D02*
X134636000Y-61452000D01*
X150622000Y-62484000D02*
X151765000Y-62484000D01*
X147764500Y-62484000D02*
X150622000Y-62484000D01*
X147129500Y-63119000D02*
X147764500Y-62484000D01*
X147129500Y-64135000D02*
X147129500Y-63119000D01*
X146050000Y-65214500D02*
X147129500Y-64135000D01*
X144716500Y-66865500D02*
X144716500Y-66929000D01*
X141732000Y-66802000D02*
X144716500Y-66865500D01*
X135890000Y-60960000D02*
X141732000Y-66802000D01*
X135128000Y-60960000D02*
X135890000Y-60960000D01*
X134636000Y-61452000D02*
X135128000Y-60960000D01*
D22*
X151765000Y-58864500D02*
X151765000Y-62484000D01*
X151892000Y-57912000D02*
X151765000Y-58864500D01*
D21*
X133224000Y-63452000D02*
X137620000Y-63452000D01*
X145732500Y-67691000D02*
X145796000Y-67754500D01*
X141859000Y-67691000D02*
X145732500Y-67691000D01*
X137620000Y-63452000D02*
X141859000Y-67691000D01*
D22*
X149415500Y-70294500D02*
X152400000Y-73660000D01*
X152400000Y-73660000D02*
X152400000Y-73660000D01*
D21*
X162052000Y-41148000D02*
X159512000Y-43688000D01*
X159512000Y-43688000D02*
X155448000Y-43688000D01*
X155448000Y-43688000D02*
X150876000Y-39116000D01*
D22*
X147447000Y-66548000D02*
X147574000Y-66421000D01*
X147574000Y-66421000D02*
X159639000Y-66421000D01*
X159639000Y-66421000D02*
X160909000Y-66421000D01*
X141986000Y-61214000D02*
X137795000Y-61214000D01*
X137795000Y-61214000D02*
X136033000Y-59452000D01*
X136033000Y-59452000D02*
X133224000Y-59452000D01*
X140144500Y-56197500D02*
X139827000Y-56515000D01*
X139827000Y-56515000D02*
X131064000Y-56515000D01*
X131064000Y-56515000D02*
X129794000Y-57785000D01*
X129794000Y-57785000D02*
X129794000Y-58483500D01*
D21*
X108100000Y-69088000D02*
X109220000Y-69088000D01*
X109220000Y-69088000D02*
X110134400Y-68173600D01*
X110134400Y-68173600D02*
X110134400Y-63411100D01*
D22*
X135318500Y-61976000D02*
X134810500Y-62484000D01*
X134810500Y-62484000D02*
X111061500Y-62484000D01*
X111061500Y-62484000D02*
X110134400Y-63411100D01*
D21*
X144703800Y-53340000D02*
X144729200Y-53314600D01*
X144729200Y-53314600D02*
X144678400Y-53314600D01*
X144678400Y-53314600D02*
X141401800Y-50038000D01*
X141401800Y-50038000D02*
X140766800Y-50038000D01*
D22*
G36*
X154016165Y-36207340D02*
X153050730Y-37171092D01*
X152527597Y-38430937D01*
X152526406Y-39795078D01*
X152729780Y-40287280D01*
X151599864Y-39157364D01*
X151600025Y-38972639D01*
X151490050Y-38706479D01*
X151286592Y-38502665D01*
X151020624Y-38392226D01*
X150732639Y-38391975D01*
X150466479Y-38501950D01*
X150262665Y-38705408D01*
X150152226Y-38971376D01*
X150151975Y-39259361D01*
X150261950Y-39525521D01*
X150465408Y-39729335D01*
X150731376Y-39839774D01*
X150917436Y-39839936D01*
X155106748Y-44029247D01*
X155106750Y-44029250D01*
X155263317Y-44133864D01*
X155448000Y-44170600D01*
X159512000Y-44170600D01*
X159696683Y-44133864D01*
X159853250Y-44029250D01*
X159853251Y-44029249D01*
X162002499Y-41880000D01*
X163411536Y-41880000D01*
X163411536Y-44480000D01*
X163438103Y-44621190D01*
X163521546Y-44750865D01*
X163648866Y-44837859D01*
X163800000Y-44868464D01*
X166400000Y-44868464D01*
X166541190Y-44841897D01*
X166670865Y-44758454D01*
X166757859Y-44631134D01*
X166788464Y-44480000D01*
X166788464Y-41880000D01*
X166761897Y-41738810D01*
X166678454Y-41609135D01*
X166551134Y-41522141D01*
X166400000Y-41491536D01*
X163800000Y-41491536D01*
X163658810Y-41518103D01*
X163529135Y-41601546D01*
X163442141Y-41728866D01*
X163411536Y-41880000D01*
X162002499Y-41880000D01*
X162010635Y-41871864D01*
X162195361Y-41872025D01*
X162461521Y-41762050D01*
X162665335Y-41558592D01*
X162775774Y-41292624D01*
X162776025Y-41004639D01*
X162666050Y-40738479D01*
X162462592Y-40534665D01*
X162196624Y-40424226D01*
X161908639Y-40423975D01*
X161642479Y-40533950D01*
X161438665Y-40737408D01*
X161328226Y-41003376D01*
X161328064Y-41189437D01*
X159312100Y-43205400D01*
X155647899Y-43205400D01*
X154785212Y-42342712D01*
X155270937Y-42544403D01*
X156635078Y-42545594D01*
X157895835Y-42024660D01*
X158861270Y-41060908D01*
X159384403Y-39801063D01*
X159385527Y-38512905D01*
X163418709Y-38512905D01*
X163674086Y-39130966D01*
X164146547Y-39604252D01*
X164764161Y-39860708D01*
X165432905Y-39861291D01*
X166050966Y-39605914D01*
X166524252Y-39133453D01*
X166780708Y-38515839D01*
X166781291Y-37847095D01*
X166525914Y-37229034D01*
X166053453Y-36755748D01*
X165435839Y-36499292D01*
X164767095Y-36498709D01*
X164149034Y-36754086D01*
X163675748Y-37226547D01*
X163419292Y-37844161D01*
X163418709Y-38512905D01*
X159385527Y-38512905D01*
X159385594Y-38436922D01*
X158864660Y-37176165D01*
X157900908Y-36210730D01*
X157431946Y-36016000D01*
X168103089Y-36016000D01*
X169428102Y-36279562D01*
X170513319Y-37004681D01*
X171238438Y-38089898D01*
X171502000Y-39414911D01*
X171502000Y-66701970D01*
X171056660Y-65624165D01*
X170092908Y-64658730D01*
X168833063Y-64135597D01*
X167468922Y-64134406D01*
X166208165Y-64655340D01*
X165242730Y-65619092D01*
X164719597Y-66878937D01*
X164718406Y-68243078D01*
X165239340Y-69503835D01*
X166203092Y-70469270D01*
X167462937Y-70992403D01*
X168827078Y-70993594D01*
X170087835Y-70472660D01*
X171053270Y-69508908D01*
X171502000Y-68428245D01*
X171502000Y-74377089D01*
X171238438Y-75702102D01*
X170513319Y-76787319D01*
X169428102Y-77512438D01*
X168103089Y-77776000D01*
X117808757Y-77776000D01*
X118271835Y-77584660D01*
X119237270Y-76620908D01*
X119760403Y-75361063D01*
X119760412Y-75350000D01*
X133381536Y-75350000D01*
X133381536Y-77050000D01*
X133408103Y-77191190D01*
X133491546Y-77320865D01*
X133618866Y-77407859D01*
X133770000Y-77438464D01*
X135470000Y-77438464D01*
X135611190Y-77411897D01*
X135740865Y-77328454D01*
X135827859Y-77201134D01*
X135858464Y-77050000D01*
X135858464Y-76854895D01*
X135964817Y-77081358D01*
X136393076Y-77471645D01*
X136803110Y-77641476D01*
X137033000Y-77520155D01*
X137033000Y-76327000D01*
X137013000Y-76327000D01*
X137013000Y-76073000D01*
X137033000Y-76073000D01*
X137033000Y-76053000D01*
X137287000Y-76053000D01*
X137287000Y-76073000D01*
X137307000Y-76073000D01*
X137307000Y-76327000D01*
X137287000Y-76327000D01*
X137287000Y-77520155D01*
X137516890Y-77641476D01*
X137926924Y-77471645D01*
X138355183Y-77081358D01*
X138554917Y-76656053D01*
X138562704Y-76695200D01*
X138829552Y-77094565D01*
X139228917Y-77361413D01*
X139700000Y-77455117D01*
X140171083Y-77361413D01*
X140570448Y-77094565D01*
X140837296Y-76695200D01*
X140931000Y-76224117D01*
X140931000Y-76175883D01*
X141009000Y-76175883D01*
X141009000Y-76224117D01*
X141102704Y-76695200D01*
X141369552Y-77094565D01*
X141768917Y-77361413D01*
X142240000Y-77455117D01*
X142711083Y-77361413D01*
X143110448Y-77094565D01*
X143377296Y-76695200D01*
X143471000Y-76224117D01*
X143471000Y-76175883D01*
X143377296Y-75704800D01*
X143110448Y-75305435D01*
X142711083Y-75038587D01*
X142240000Y-74944883D01*
X141768917Y-75038587D01*
X141369552Y-75305435D01*
X141102704Y-75704800D01*
X141009000Y-76175883D01*
X140931000Y-76175883D01*
X140837296Y-75704800D01*
X140570448Y-75305435D01*
X140171083Y-75038587D01*
X139700000Y-74944883D01*
X139228917Y-75038587D01*
X138829552Y-75305435D01*
X138562704Y-75704800D01*
X138554917Y-75743947D01*
X138355183Y-75318642D01*
X137926924Y-74928355D01*
X137645488Y-74811788D01*
X138030448Y-74554565D01*
X138297296Y-74155200D01*
X138391000Y-73684117D01*
X138391000Y-73635883D01*
X138469000Y-73635883D01*
X138469000Y-73684117D01*
X138562704Y-74155200D01*
X138829552Y-74554565D01*
X139228917Y-74821413D01*
X139700000Y-74915117D01*
X140171083Y-74821413D01*
X140570448Y-74554565D01*
X140837296Y-74155200D01*
X140931000Y-73684117D01*
X140931000Y-73635883D01*
X141009000Y-73635883D01*
X141009000Y-73684117D01*
X141102704Y-74155200D01*
X141369552Y-74554565D01*
X141768917Y-74821413D01*
X142240000Y-74915117D01*
X142711083Y-74821413D01*
X143110448Y-74554565D01*
X143377296Y-74155200D01*
X143471000Y-73684117D01*
X143471000Y-73635883D01*
X143377296Y-73164800D01*
X143110448Y-72765435D01*
X142711083Y-72498587D01*
X142240000Y-72404883D01*
X141768917Y-72498587D01*
X141369552Y-72765435D01*
X141102704Y-73164800D01*
X141009000Y-73635883D01*
X140931000Y-73635883D01*
X140837296Y-73164800D01*
X140570448Y-72765435D01*
X140171083Y-72498587D01*
X139700000Y-72404883D01*
X139228917Y-72498587D01*
X138829552Y-72765435D01*
X138562704Y-73164800D01*
X138469000Y-73635883D01*
X138391000Y-73635883D01*
X138297296Y-73164800D01*
X138030448Y-72765435D01*
X137631083Y-72498587D01*
X137160000Y-72404883D01*
X136688917Y-72498587D01*
X136289552Y-72765435D01*
X136022704Y-73164800D01*
X135929000Y-73635883D01*
X135929000Y-73684117D01*
X136022704Y-74155200D01*
X136289552Y-74554565D01*
X136674512Y-74811788D01*
X136393076Y-74928355D01*
X135964817Y-75318642D01*
X135858464Y-75545105D01*
X135858464Y-75350000D01*
X135831897Y-75208810D01*
X135748454Y-75079135D01*
X135621134Y-74992141D01*
X135470000Y-74961536D01*
X133770000Y-74961536D01*
X133628810Y-74988103D01*
X133499135Y-75071546D01*
X133412141Y-75198866D01*
X133381536Y-75350000D01*
X119760412Y-75350000D01*
X119761594Y-73996922D01*
X119612416Y-73635883D01*
X133389000Y-73635883D01*
X133389000Y-73684117D01*
X133482704Y-74155200D01*
X133749552Y-74554565D01*
X134148917Y-74821413D01*
X134620000Y-74915117D01*
X135091083Y-74821413D01*
X135490448Y-74554565D01*
X135757296Y-74155200D01*
X135851000Y-73684117D01*
X135851000Y-73635883D01*
X135757296Y-73164800D01*
X135490448Y-72765435D01*
X135091083Y-72498587D01*
X134620000Y-72404883D01*
X134148917Y-72498587D01*
X133749552Y-72765435D01*
X133482704Y-73164800D01*
X133389000Y-73635883D01*
X119612416Y-73635883D01*
X119240660Y-72736165D01*
X118276908Y-71770730D01*
X117017063Y-71247597D01*
X115652922Y-71246406D01*
X114392165Y-71767340D01*
X113426730Y-72731092D01*
X112903597Y-73990937D01*
X112902406Y-75355078D01*
X113423340Y-76615835D01*
X114387092Y-77581270D01*
X114856054Y-77776000D01*
X103169720Y-77776000D01*
X103146860Y-77780547D01*
X103124000Y-77776000D01*
X102914911Y-77776000D01*
X101589898Y-77512438D01*
X100504681Y-76787319D01*
X99779562Y-75702102D01*
X99516000Y-74377089D01*
X99516000Y-73831787D01*
X100368787Y-73831787D01*
X100555800Y-74284395D01*
X100901784Y-74630983D01*
X101354065Y-74818786D01*
X101843787Y-74819213D01*
X102296395Y-74632200D01*
X102642983Y-74286216D01*
X102830786Y-73833935D01*
X102830787Y-73831787D01*
X106868787Y-73831787D01*
X107055800Y-74284395D01*
X107401784Y-74630983D01*
X107854065Y-74818786D01*
X108343787Y-74819213D01*
X108796395Y-74632200D01*
X109142983Y-74286216D01*
X109330786Y-73833935D01*
X109331213Y-73344213D01*
X109144200Y-72891605D01*
X108798216Y-72545017D01*
X108345935Y-72357214D01*
X107856213Y-72356787D01*
X107403605Y-72543800D01*
X107057017Y-72889784D01*
X106869214Y-73342065D01*
X106868787Y-73831787D01*
X102830787Y-73831787D01*
X102831213Y-73344213D01*
X102644200Y-72891605D01*
X102298216Y-72545017D01*
X101845935Y-72357214D01*
X101356213Y-72356787D01*
X100903605Y-72543800D01*
X100557017Y-72889784D01*
X100369214Y-73342065D01*
X100368787Y-73831787D01*
X99516000Y-73831787D01*
X99516000Y-69331787D01*
X100368787Y-69331787D01*
X100555800Y-69784395D01*
X100901784Y-70130983D01*
X101354065Y-70318786D01*
X101843787Y-70319213D01*
X102296395Y-70132200D01*
X102642983Y-69786216D01*
X102830786Y-69333935D01*
X102831213Y-68844213D01*
X102742058Y-68628442D01*
X103882700Y-67487800D01*
X107772200Y-67487800D01*
X107956883Y-67451064D01*
X108113450Y-67346450D01*
X109459650Y-66000250D01*
X109564264Y-65843683D01*
X109601000Y-65659000D01*
X109601000Y-63166500D01*
X111045499Y-61722000D01*
X115663990Y-61722000D01*
X115845208Y-61903535D01*
X116019724Y-61976000D01*
X111061500Y-61976000D01*
X110899350Y-62008254D01*
X110867096Y-62014669D01*
X110702289Y-62124790D01*
X109775190Y-63051890D01*
X109665069Y-63216697D01*
X109626400Y-63411100D01*
X109651800Y-63538795D01*
X109651800Y-67973700D01*
X109170425Y-68455075D01*
X109144200Y-68391605D01*
X108798216Y-68045017D01*
X108345935Y-67857214D01*
X107856213Y-67856787D01*
X107403605Y-68043800D01*
X107057017Y-68389784D01*
X106869214Y-68842065D01*
X106868787Y-69331787D01*
X107055800Y-69784395D01*
X107401784Y-70130983D01*
X107854065Y-70318786D01*
X108343787Y-70319213D01*
X108796395Y-70132200D01*
X109142983Y-69786216D01*
X109233641Y-69567887D01*
X109404683Y-69533864D01*
X109561250Y-69429250D01*
X110475650Y-68514850D01*
X110580264Y-68358283D01*
X110617000Y-68173600D01*
X110617000Y-67737750D01*
X131589000Y-67737750D01*
X131589000Y-68078310D01*
X131685673Y-68311699D01*
X131864302Y-68490327D01*
X132097691Y-68587000D01*
X132938250Y-68587000D01*
X133097000Y-68428250D01*
X133097000Y-67579000D01*
X133351000Y-67579000D01*
X133351000Y-68428250D01*
X133509750Y-68587000D01*
X134350309Y-68587000D01*
X134583698Y-68490327D01*
X134762327Y-68311699D01*
X134859000Y-68078310D01*
X134859000Y-67737750D01*
X134700250Y-67579000D01*
X133351000Y-67579000D01*
X133097000Y-67579000D01*
X131747750Y-67579000D01*
X131589000Y-67737750D01*
X110617000Y-67737750D01*
X110617000Y-63646920D01*
X111271921Y-62992000D01*
X131835536Y-62992000D01*
X131835536Y-63952000D01*
X131862103Y-64093190D01*
X131945546Y-64222865D01*
X132072866Y-64309859D01*
X132224000Y-64340464D01*
X134224000Y-64340464D01*
X134365190Y-64313897D01*
X134494865Y-64230454D01*
X134581859Y-64103134D01*
X134612464Y-63952000D01*
X134612464Y-63934600D01*
X137420100Y-63934600D01*
X138454900Y-64969400D01*
X134612464Y-64969400D01*
X134612464Y-64952000D01*
X134585897Y-64810810D01*
X134502454Y-64681135D01*
X134375134Y-64594141D01*
X134224000Y-64563536D01*
X132224000Y-64563536D01*
X132082810Y-64590103D01*
X131953135Y-64673546D01*
X131866141Y-64800866D01*
X131835536Y-64952000D01*
X131835536Y-65952000D01*
X131862103Y-66093190D01*
X131945546Y-66222865D01*
X132072866Y-66309859D01*
X132108130Y-66317000D01*
X132097691Y-66317000D01*
X131864302Y-66413673D01*
X131685673Y-66592301D01*
X131589000Y-66825690D01*
X131589000Y-67166250D01*
X131747750Y-67325000D01*
X133097000Y-67325000D01*
X133097000Y-67305000D01*
X133351000Y-67305000D01*
X133351000Y-67325000D01*
X134700250Y-67325000D01*
X134859000Y-67166250D01*
X134859000Y-66825690D01*
X134762327Y-66592301D01*
X134583698Y-66413673D01*
X134350309Y-66317000D01*
X134348699Y-66317000D01*
X134365190Y-66313897D01*
X134494865Y-66230454D01*
X134581859Y-66103134D01*
X134612464Y-65952000D01*
X134612464Y-65934600D01*
X138404100Y-65934600D01*
X140436636Y-67967135D01*
X140436475Y-68151861D01*
X140546450Y-68418021D01*
X140606724Y-68478400D01*
X138620500Y-68478400D01*
X138435817Y-68515136D01*
X138279250Y-68619750D01*
X138279248Y-68619753D01*
X138153865Y-68745136D01*
X137969139Y-68744975D01*
X137702979Y-68854950D01*
X137499165Y-69058408D01*
X137388726Y-69324376D01*
X137388475Y-69612361D01*
X137498450Y-69878521D01*
X137701908Y-70082335D01*
X137967876Y-70192774D01*
X138255861Y-70193025D01*
X138522021Y-70083050D01*
X138725835Y-69879592D01*
X138836274Y-69613624D01*
X138836422Y-69443600D01*
X140656822Y-69443600D01*
X140627226Y-69514876D01*
X140626975Y-69802861D01*
X140736950Y-70069021D01*
X140940408Y-70272835D01*
X141206376Y-70383274D01*
X141392436Y-70383436D01*
X142724250Y-71715250D01*
X142880817Y-71819864D01*
X143065500Y-71856600D01*
X144834100Y-71856600D01*
X148621536Y-75644035D01*
X148621536Y-77050000D01*
X148648103Y-77191190D01*
X148731546Y-77320865D01*
X148858866Y-77407859D01*
X149010000Y-77438464D01*
X150710000Y-77438464D01*
X150851190Y-77411897D01*
X150980865Y-77328454D01*
X151067859Y-77201134D01*
X151098464Y-77050000D01*
X151098464Y-75707536D01*
X151393400Y-75412600D01*
X151457946Y-75412600D01*
X151262704Y-75704800D01*
X151169000Y-76175883D01*
X151169000Y-76224117D01*
X151262704Y-76695200D01*
X151529552Y-77094565D01*
X151928917Y-77361413D01*
X152400000Y-77455117D01*
X152871083Y-77361413D01*
X153270448Y-77094565D01*
X153537296Y-76695200D01*
X153631000Y-76224117D01*
X153631000Y-76175883D01*
X153537296Y-75704800D01*
X153320930Y-75380987D01*
X153346683Y-75375864D01*
X153503250Y-75271250D01*
X153947750Y-74826750D01*
X153989467Y-74764316D01*
X154173076Y-74931645D01*
X154454512Y-75048212D01*
X154069552Y-75305435D01*
X153802704Y-75704800D01*
X153709000Y-76175883D01*
X153709000Y-76224117D01*
X153802704Y-76695200D01*
X154069552Y-77094565D01*
X154468917Y-77361413D01*
X154940000Y-77455117D01*
X155411083Y-77361413D01*
X155810448Y-77094565D01*
X156077296Y-76695200D01*
X156118958Y-76485750D01*
X161075000Y-76485750D01*
X161075000Y-77176309D01*
X161171673Y-77409698D01*
X161350301Y-77588327D01*
X161583690Y-77685000D01*
X162274250Y-77685000D01*
X162433000Y-77526250D01*
X162433000Y-76327000D01*
X161233750Y-76327000D01*
X161075000Y-76485750D01*
X156118958Y-76485750D01*
X156171000Y-76224117D01*
X156171000Y-76175883D01*
X156089959Y-75768461D01*
X156634729Y-75223691D01*
X161075000Y-75223691D01*
X161075000Y-75914250D01*
X161233750Y-76073000D01*
X162433000Y-76073000D01*
X162433000Y-76053000D01*
X162687000Y-76053000D01*
X162687000Y-76073000D01*
X162707000Y-76073000D01*
X162707000Y-76327000D01*
X162687000Y-76327000D01*
X162687000Y-77526250D01*
X162845750Y-77685000D01*
X163536310Y-77685000D01*
X163769699Y-77588327D01*
X163948327Y-77409698D01*
X164045000Y-77176309D01*
X164045000Y-76818364D01*
X164229552Y-77094565D01*
X164628917Y-77361413D01*
X165100000Y-77455117D01*
X165571083Y-77361413D01*
X165970448Y-77094565D01*
X166237296Y-76695200D01*
X166331000Y-76224117D01*
X166331000Y-76175883D01*
X166409000Y-76175883D01*
X166409000Y-76224117D01*
X166502704Y-76695200D01*
X166769552Y-77094565D01*
X167168917Y-77361413D01*
X167640000Y-77455117D01*
X168111083Y-77361413D01*
X168510448Y-77094565D01*
X168777296Y-76695200D01*
X168871000Y-76224117D01*
X168871000Y-76175883D01*
X168777296Y-75704800D01*
X168510448Y-75305435D01*
X168111083Y-75038587D01*
X167640000Y-74944883D01*
X167168917Y-75038587D01*
X166769552Y-75305435D01*
X166502704Y-75704800D01*
X166409000Y-76175883D01*
X166331000Y-76175883D01*
X166237296Y-75704800D01*
X165970448Y-75305435D01*
X165571083Y-75038587D01*
X165100000Y-74944883D01*
X164628917Y-75038587D01*
X164229552Y-75305435D01*
X164045000Y-75581636D01*
X164045000Y-75223691D01*
X163948327Y-74990302D01*
X163769699Y-74811673D01*
X163536310Y-74715000D01*
X163190341Y-74715000D01*
X163430448Y-74554565D01*
X163697296Y-74155200D01*
X163791000Y-73684117D01*
X163791000Y-73635883D01*
X163869000Y-73635883D01*
X163869000Y-73684117D01*
X163962704Y-74155200D01*
X164229552Y-74554565D01*
X164628917Y-74821413D01*
X165100000Y-74915117D01*
X165571083Y-74821413D01*
X165970448Y-74554565D01*
X166237296Y-74155200D01*
X166331000Y-73684117D01*
X166331000Y-73635883D01*
X166409000Y-73635883D01*
X166409000Y-73684117D01*
X166502704Y-74155200D01*
X166769552Y-74554565D01*
X167168917Y-74821413D01*
X167640000Y-74915117D01*
X168111083Y-74821413D01*
X168510448Y-74554565D01*
X168777296Y-74155200D01*
X168871000Y-73684117D01*
X168871000Y-73635883D01*
X168777296Y-73164800D01*
X168510448Y-72765435D01*
X168111083Y-72498587D01*
X167640000Y-72404883D01*
X167168917Y-72498587D01*
X166769552Y-72765435D01*
X166502704Y-73164800D01*
X166409000Y-73635883D01*
X166331000Y-73635883D01*
X166237296Y-73164800D01*
X165970448Y-72765435D01*
X165571083Y-72498587D01*
X165100000Y-72404883D01*
X164628917Y-72498587D01*
X164229552Y-72765435D01*
X163962704Y-73164800D01*
X163869000Y-73635883D01*
X163791000Y-73635883D01*
X163697296Y-73164800D01*
X163430448Y-72765435D01*
X163042600Y-72506282D01*
X163042600Y-70708710D01*
X163109835Y-70641592D01*
X163220274Y-70375624D01*
X163220436Y-70189564D01*
X164425250Y-68984750D01*
X164529864Y-68828183D01*
X164566600Y-68643500D01*
X164566600Y-61753750D01*
X167171000Y-61753750D01*
X167171000Y-62444310D01*
X167267673Y-62677699D01*
X167446302Y-62856327D01*
X167679691Y-62953000D01*
X168370250Y-62953000D01*
X168529000Y-62794250D01*
X168529000Y-61595000D01*
X168783000Y-61595000D01*
X168783000Y-62794250D01*
X168941750Y-62953000D01*
X169632309Y-62953000D01*
X169865698Y-62856327D01*
X170044327Y-62677699D01*
X170141000Y-62444310D01*
X170141000Y-61753750D01*
X169982250Y-61595000D01*
X168783000Y-61595000D01*
X168529000Y-61595000D01*
X167329750Y-61595000D01*
X167171000Y-61753750D01*
X164566600Y-61753750D01*
X164566600Y-60491690D01*
X167171000Y-60491690D01*
X167171000Y-61182250D01*
X167329750Y-61341000D01*
X168529000Y-61341000D01*
X168529000Y-61321000D01*
X168783000Y-61321000D01*
X168783000Y-61341000D01*
X169982250Y-61341000D01*
X170141000Y-61182250D01*
X170141000Y-60491690D01*
X170044327Y-60258301D01*
X169865698Y-60079673D01*
X169632309Y-59983000D01*
X169274364Y-59983000D01*
X169550565Y-59798448D01*
X169817413Y-59399083D01*
X169911117Y-58928000D01*
X169817413Y-58456917D01*
X169550565Y-58057552D01*
X169151200Y-57790704D01*
X168680117Y-57697000D01*
X168631883Y-57697000D01*
X168160800Y-57790704D01*
X167761435Y-58057552D01*
X167494587Y-58456917D01*
X167400883Y-58928000D01*
X167494587Y-59399083D01*
X167761435Y-59798448D01*
X168037636Y-59983000D01*
X167679691Y-59983000D01*
X167446302Y-60079673D01*
X167267673Y-60258301D01*
X167171000Y-60491690D01*
X164566600Y-60491690D01*
X164566600Y-59127900D01*
X166823899Y-56870600D01*
X167502282Y-56870600D01*
X167761435Y-57258448D01*
X168160800Y-57525296D01*
X168631883Y-57619000D01*
X168680117Y-57619000D01*
X169151200Y-57525296D01*
X169550565Y-57258448D01*
X169817413Y-56859083D01*
X169911117Y-56388000D01*
X169817413Y-55916917D01*
X169550565Y-55517552D01*
X169151200Y-55250704D01*
X168680117Y-55157000D01*
X168631883Y-55157000D01*
X168160800Y-55250704D01*
X167761435Y-55517552D01*
X167502282Y-55905400D01*
X166624000Y-55905400D01*
X166439317Y-55942136D01*
X166282750Y-56046750D01*
X166282748Y-56046753D01*
X163742750Y-58586750D01*
X163638136Y-58743317D01*
X163601400Y-58928000D01*
X163601400Y-68443600D01*
X162537864Y-69507136D01*
X162353139Y-69506975D01*
X162086979Y-69616950D01*
X161883165Y-69820408D01*
X161772726Y-70086376D01*
X161772475Y-70374361D01*
X161882450Y-70640521D01*
X162077400Y-70835812D01*
X162077400Y-72506282D01*
X161689552Y-72765435D01*
X161422704Y-73164800D01*
X161329000Y-73635883D01*
X161329000Y-73684117D01*
X161422704Y-74155200D01*
X161689552Y-74554565D01*
X161929659Y-74715000D01*
X161583690Y-74715000D01*
X161350301Y-74811673D01*
X161171673Y-74990302D01*
X161075000Y-75223691D01*
X156634729Y-75223691D01*
X157331210Y-74527210D01*
X157441331Y-74362403D01*
X157480000Y-74168000D01*
X157480000Y-72453500D01*
X157441331Y-72259097D01*
X157331210Y-72094290D01*
X153838710Y-68601790D01*
X153673903Y-68491669D01*
X153479500Y-68453000D01*
X148582005Y-68453000D01*
X148445598Y-68340464D01*
X150224000Y-68340464D01*
X150365190Y-68313897D01*
X150494865Y-68230454D01*
X150581859Y-68103134D01*
X150610844Y-67960000D01*
X156352363Y-67960000D01*
X156357950Y-67973521D01*
X156561408Y-68177335D01*
X156827376Y-68287774D01*
X157115361Y-68288025D01*
X157381521Y-68178050D01*
X157585335Y-67974592D01*
X157695774Y-67708624D01*
X157696025Y-67420639D01*
X157586050Y-67154479D01*
X157382592Y-66950665D01*
X157330417Y-66929000D01*
X160393257Y-66929000D01*
X160498408Y-67034335D01*
X160764376Y-67144774D01*
X161052361Y-67145025D01*
X161318521Y-67035050D01*
X161522335Y-66831592D01*
X161632774Y-66565624D01*
X161633025Y-66277639D01*
X161523050Y-66011479D01*
X161319592Y-65807665D01*
X161053624Y-65697226D01*
X160765639Y-65696975D01*
X160499479Y-65806950D01*
X160393243Y-65913000D01*
X154718871Y-65913000D01*
X154871210Y-65811210D01*
X159760525Y-60921895D01*
X159909361Y-60922025D01*
X160175521Y-60812050D01*
X160379335Y-60608592D01*
X160489774Y-60342624D01*
X160490025Y-60054639D01*
X160380050Y-59788479D01*
X160176592Y-59584665D01*
X159910624Y-59474226D01*
X159622639Y-59473975D01*
X159599261Y-59483635D01*
X159617335Y-59465592D01*
X159727774Y-59199624D01*
X159728025Y-58911639D01*
X159618050Y-58645479D01*
X159414592Y-58441665D01*
X159148624Y-58331226D01*
X158860639Y-58330975D01*
X158594479Y-58440950D01*
X158390665Y-58644408D01*
X158280226Y-58910376D01*
X158280095Y-59060485D01*
X154396580Y-62944000D01*
X152328841Y-62944000D01*
X152378335Y-62894592D01*
X152488774Y-62628624D01*
X152489025Y-62340639D01*
X152379050Y-62074479D01*
X152273000Y-61968243D01*
X152273000Y-58898219D01*
X152325862Y-58501751D01*
X152505335Y-58322592D01*
X152611350Y-58067279D01*
X152611450Y-58067521D01*
X152742900Y-58199201D01*
X152742900Y-59847512D01*
X152548665Y-60041408D01*
X152438226Y-60307376D01*
X152437975Y-60595361D01*
X152547950Y-60861521D01*
X152751408Y-61065335D01*
X153017376Y-61175774D01*
X153305361Y-61176025D01*
X153571521Y-61066050D01*
X153775335Y-60862592D01*
X153885774Y-60596624D01*
X153886025Y-60308639D01*
X153776050Y-60042479D01*
X153708100Y-59974410D01*
X153708100Y-58199099D01*
X153838835Y-58068592D01*
X153949274Y-57802624D01*
X153949525Y-57514639D01*
X153839550Y-57248479D01*
X153636092Y-57044665D01*
X153583917Y-57023000D01*
X155956000Y-57023000D01*
X156150403Y-56984331D01*
X156315210Y-56874210D01*
X157601415Y-55588006D01*
X157623361Y-55588025D01*
X157889521Y-55478050D01*
X158093335Y-55274592D01*
X158203774Y-55008624D01*
X158204025Y-54720639D01*
X158094050Y-54454479D01*
X157890592Y-54250665D01*
X157624624Y-54140226D01*
X157336639Y-54139975D01*
X157070479Y-54249950D01*
X156866665Y-54453408D01*
X156756226Y-54719376D01*
X156755984Y-54996595D01*
X155745580Y-56007000D01*
X150859000Y-56007000D01*
X150859000Y-55737750D01*
X150700250Y-55579000D01*
X149351000Y-55579000D01*
X149351000Y-55599000D01*
X149097000Y-55599000D01*
X149097000Y-55579000D01*
X147747750Y-55579000D01*
X147589000Y-55737750D01*
X147589000Y-56007000D01*
X147574000Y-56007000D01*
X147379597Y-56045669D01*
X147214790Y-56155790D01*
X144444578Y-58926002D01*
X139814247Y-58882112D01*
X139783905Y-58851718D01*
X139885601Y-58750200D01*
X141630400Y-58750200D01*
X141815083Y-58713464D01*
X141971650Y-58608850D01*
X145754810Y-54825690D01*
X147589000Y-54825690D01*
X147589000Y-55166250D01*
X147747750Y-55325000D01*
X149097000Y-55325000D01*
X149097000Y-55305000D01*
X149351000Y-55305000D01*
X149351000Y-55325000D01*
X150700250Y-55325000D01*
X150859000Y-55166250D01*
X150859000Y-54825690D01*
X150763445Y-54595000D01*
X152049609Y-54595000D01*
X152052465Y-54596186D01*
X152542187Y-54596613D01*
X152994795Y-54409600D01*
X153341383Y-54063616D01*
X153529186Y-53611335D01*
X153529613Y-53121613D01*
X153342600Y-52669005D01*
X152996616Y-52322417D01*
X152544335Y-52134614D01*
X152054613Y-52134187D01*
X151631531Y-52309000D01*
X149224000Y-52309000D01*
X148786593Y-52396006D01*
X148535866Y-52563536D01*
X148224000Y-52563536D01*
X148082810Y-52590103D01*
X147953135Y-52673546D01*
X147866141Y-52800866D01*
X147835536Y-52952000D01*
X147835536Y-53952000D01*
X147862103Y-54093190D01*
X147945546Y-54222865D01*
X148072866Y-54309859D01*
X148108130Y-54317000D01*
X148097691Y-54317000D01*
X147864302Y-54413673D01*
X147685673Y-54592301D01*
X147589000Y-54825690D01*
X145754810Y-54825690D01*
X149196300Y-51384200D01*
X165509700Y-51384200D01*
X167497723Y-53372223D01*
X167494587Y-53376917D01*
X167400883Y-53848000D01*
X167494587Y-54319083D01*
X167761435Y-54718448D01*
X168160800Y-54985296D01*
X168631883Y-55079000D01*
X168680117Y-55079000D01*
X169151200Y-54985296D01*
X169550565Y-54718448D01*
X169817413Y-54319083D01*
X169911117Y-53848000D01*
X169817413Y-53376917D01*
X169550565Y-52977552D01*
X169151200Y-52710704D01*
X168680117Y-52617000D01*
X168631883Y-52617000D01*
X168194501Y-52704001D01*
X166798500Y-51308000D01*
X167400883Y-51308000D01*
X167494587Y-51779083D01*
X167761435Y-52178448D01*
X168160800Y-52445296D01*
X168631883Y-52539000D01*
X168680117Y-52539000D01*
X169151200Y-52445296D01*
X169550565Y-52178448D01*
X169817413Y-51779083D01*
X169911117Y-51308000D01*
X169817413Y-50836917D01*
X169550565Y-50437552D01*
X169151200Y-50170704D01*
X168680117Y-50077000D01*
X168631883Y-50077000D01*
X168160800Y-50170704D01*
X167761435Y-50437552D01*
X167494587Y-50836917D01*
X167400883Y-51308000D01*
X166798500Y-51308000D01*
X166050850Y-50560350D01*
X165894283Y-50455736D01*
X165709600Y-50419000D01*
X162918818Y-50419000D01*
X162969521Y-50398050D01*
X163173335Y-50194592D01*
X163283774Y-49928624D01*
X163284025Y-49640639D01*
X163174050Y-49374479D01*
X162970592Y-49170665D01*
X162704624Y-49060226D01*
X162416639Y-49059975D01*
X162150479Y-49169950D01*
X162044243Y-49276000D01*
X149352000Y-49276000D01*
X149189850Y-49308254D01*
X149157596Y-49314669D01*
X148992790Y-49424790D01*
X145367336Y-53050244D01*
X145317850Y-52930479D01*
X145114392Y-52726665D01*
X144848424Y-52616226D01*
X144662364Y-52616064D01*
X142005264Y-49958964D01*
X142005264Y-49188000D01*
X141978697Y-49046810D01*
X141895254Y-48917135D01*
X141767934Y-48830141D01*
X141616800Y-48799536D01*
X139916800Y-48799536D01*
X139775610Y-48826103D01*
X139645935Y-48909546D01*
X139558941Y-49036866D01*
X139528336Y-49188000D01*
X139528336Y-50888000D01*
X139554903Y-51029190D01*
X139638346Y-51158865D01*
X139765666Y-51245859D01*
X139916800Y-51276464D01*
X141616800Y-51276464D01*
X141757990Y-51249897D01*
X141863381Y-51182081D01*
X143979936Y-53298636D01*
X143979775Y-53483361D01*
X144089750Y-53749521D01*
X144293208Y-53953335D01*
X144414062Y-54003518D01*
X141521580Y-56896000D01*
X140469743Y-56896000D01*
X140434669Y-56860865D01*
X140554021Y-56811550D01*
X140757835Y-56608092D01*
X140868274Y-56342124D01*
X140868525Y-56054139D01*
X140758550Y-55787979D01*
X140555092Y-55584165D01*
X140289124Y-55473726D01*
X140001139Y-55473475D01*
X139734979Y-55583450D01*
X139531165Y-55786908D01*
X139439775Y-56007000D01*
X134601326Y-56007000D01*
X134612464Y-55952000D01*
X134612464Y-54952000D01*
X134585897Y-54810810D01*
X134502454Y-54681135D01*
X134375134Y-54594141D01*
X134339870Y-54587000D01*
X134350309Y-54587000D01*
X134583698Y-54490327D01*
X134762327Y-54311699D01*
X134859000Y-54078310D01*
X134859000Y-53737750D01*
X134700250Y-53579000D01*
X133351000Y-53579000D01*
X133351000Y-53599000D01*
X133097000Y-53599000D01*
X133097000Y-53579000D01*
X131747750Y-53579000D01*
X131589000Y-53737750D01*
X131589000Y-54078310D01*
X131685673Y-54311699D01*
X131864302Y-54490327D01*
X132097691Y-54587000D01*
X132099301Y-54587000D01*
X132082810Y-54590103D01*
X131953135Y-54673546D01*
X131866141Y-54800866D01*
X131835536Y-54952000D01*
X131835536Y-55952000D01*
X131845885Y-56007000D01*
X131064000Y-56007000D01*
X130901850Y-56039254D01*
X130869596Y-56045669D01*
X130704790Y-56155790D01*
X129434790Y-57425790D01*
X129324669Y-57590597D01*
X129286000Y-57785000D01*
X129286000Y-57967757D01*
X129180665Y-58072908D01*
X129070226Y-58338876D01*
X129069975Y-58626861D01*
X129179950Y-58893021D01*
X129383408Y-59096835D01*
X129649376Y-59207274D01*
X129937361Y-59207525D01*
X130203521Y-59097550D01*
X130407335Y-58894092D01*
X130517774Y-58628124D01*
X130518025Y-58340139D01*
X130408050Y-58073979D01*
X130315826Y-57981594D01*
X131274420Y-57023000D01*
X131835536Y-57023000D01*
X131835536Y-57952000D01*
X131862103Y-58093190D01*
X131945546Y-58222865D01*
X132072866Y-58309859D01*
X132224000Y-58340464D01*
X134224000Y-58340464D01*
X134365190Y-58313897D01*
X134494865Y-58230454D01*
X134581859Y-58103134D01*
X134610844Y-57960000D01*
X138688299Y-57960000D01*
X138620626Y-58122976D01*
X138620375Y-58410961D01*
X138730350Y-58677121D01*
X138854095Y-58801082D01*
X138680265Y-58974608D01*
X138569826Y-59240576D01*
X138569575Y-59528561D01*
X138679550Y-59794721D01*
X138883008Y-59998535D01*
X139148976Y-60108974D01*
X139312550Y-60109117D01*
X139230226Y-60307376D01*
X139229975Y-60595361D01*
X139275690Y-60706000D01*
X138005420Y-60706000D01*
X136392210Y-59092790D01*
X136227403Y-58982669D01*
X136033000Y-58944000D01*
X134610959Y-58944000D01*
X134585897Y-58810810D01*
X134502454Y-58681135D01*
X134375134Y-58594141D01*
X134224000Y-58563536D01*
X132224000Y-58563536D01*
X132082810Y-58590103D01*
X131953135Y-58673546D01*
X131866141Y-58800866D01*
X131835536Y-58952000D01*
X131835536Y-59952000D01*
X131862103Y-60093190D01*
X131945546Y-60222865D01*
X132072866Y-60309859D01*
X132224000Y-60340464D01*
X134224000Y-60340464D01*
X134365190Y-60313897D01*
X134494865Y-60230454D01*
X134581859Y-60103134D01*
X134610844Y-59960000D01*
X135822580Y-59960000D01*
X137435790Y-61573210D01*
X137600596Y-61683331D01*
X137632850Y-61689746D01*
X137795000Y-61722000D01*
X139302010Y-61722000D01*
X139230226Y-61894876D01*
X139229975Y-62182861D01*
X139339950Y-62449021D01*
X139543408Y-62652835D01*
X139809376Y-62763274D01*
X140055522Y-62763489D01*
X140055475Y-62817861D01*
X140165450Y-63084021D01*
X140368908Y-63287835D01*
X140634876Y-63398274D01*
X140858776Y-63398469D01*
X144364897Y-66291019D01*
X144306979Y-66314950D01*
X144248984Y-66372843D01*
X141936133Y-66323634D01*
X136231250Y-60618750D01*
X136074683Y-60514136D01*
X135890000Y-60477400D01*
X135128000Y-60477400D01*
X134943317Y-60514136D01*
X134786750Y-60618750D01*
X134587290Y-60818210D01*
X134585897Y-60810810D01*
X134502454Y-60681135D01*
X134375134Y-60594141D01*
X134224000Y-60563536D01*
X132224000Y-60563536D01*
X132082810Y-60590103D01*
X131953135Y-60673546D01*
X131866141Y-60800866D01*
X131835536Y-60952000D01*
X131835536Y-61952000D01*
X131840052Y-61976000D01*
X116491673Y-61976000D01*
X116665321Y-61904250D01*
X116869135Y-61700792D01*
X116979574Y-61434824D01*
X116979825Y-61146839D01*
X116869850Y-60880679D01*
X116666392Y-60676865D01*
X116400424Y-60566426D01*
X116112439Y-60566175D01*
X115846279Y-60676150D01*
X115765488Y-60756800D01*
X110845605Y-60756800D01*
X110845600Y-60756799D01*
X110662355Y-60793250D01*
X110660917Y-60793536D01*
X110504350Y-60898150D01*
X110504348Y-60898153D01*
X108777150Y-62625350D01*
X108672536Y-62781917D01*
X108635800Y-62966600D01*
X108635800Y-65459100D01*
X107572300Y-66522600D01*
X103682800Y-66522600D01*
X103498117Y-66559336D01*
X103341550Y-66663950D01*
X102059575Y-67945925D01*
X101845935Y-67857214D01*
X101356213Y-67856787D01*
X100903605Y-68043800D01*
X100557017Y-68389784D01*
X100369214Y-68842065D01*
X100368787Y-69331787D01*
X99516000Y-69331787D01*
X99516000Y-61466905D01*
X102712709Y-61466905D01*
X102968086Y-62084966D01*
X103440547Y-62558252D01*
X104058161Y-62814708D01*
X104726905Y-62815291D01*
X105344966Y-62559914D01*
X105818252Y-62087453D01*
X106074708Y-61469839D01*
X106075291Y-60801095D01*
X105819914Y-60183034D01*
X105347453Y-59709748D01*
X104729839Y-59453292D01*
X104061095Y-59452709D01*
X103443034Y-59708086D01*
X102969748Y-60180547D01*
X102713292Y-60798161D01*
X102712709Y-61466905D01*
X99516000Y-61466905D01*
X99516000Y-54834000D01*
X102705536Y-54834000D01*
X102705536Y-57434000D01*
X102732103Y-57575190D01*
X102815546Y-57704865D01*
X102942866Y-57791859D01*
X103094000Y-57822464D01*
X105694000Y-57822464D01*
X105835190Y-57795897D01*
X105964865Y-57712454D01*
X106051859Y-57585134D01*
X106082464Y-57434000D01*
X106082464Y-54834000D01*
X106055897Y-54692810D01*
X105972454Y-54563135D01*
X105845134Y-54476141D01*
X105694000Y-54445536D01*
X103094000Y-54445536D01*
X102952810Y-54472103D01*
X102823135Y-54555546D01*
X102736141Y-54682866D01*
X102705536Y-54834000D01*
X99516000Y-54834000D01*
X99516000Y-52825690D01*
X131589000Y-52825690D01*
X131589000Y-53166250D01*
X131747750Y-53325000D01*
X133097000Y-53325000D01*
X133097000Y-52475750D01*
X133351000Y-52475750D01*
X133351000Y-53325000D01*
X134700250Y-53325000D01*
X134859000Y-53166250D01*
X134859000Y-52825690D01*
X134762327Y-52592301D01*
X134583698Y-52413673D01*
X134350309Y-52317000D01*
X133509750Y-52317000D01*
X133351000Y-52475750D01*
X133097000Y-52475750D01*
X132938250Y-52317000D01*
X132097691Y-52317000D01*
X131864302Y-52413673D01*
X131685673Y-52592301D01*
X131589000Y-52825690D01*
X99516000Y-52825690D01*
X99516000Y-50036905D01*
X102712709Y-50036905D01*
X102968086Y-50654966D01*
X103440547Y-51128252D01*
X104058161Y-51384708D01*
X104726905Y-51385291D01*
X105344966Y-51129914D01*
X105818252Y-50657453D01*
X106074708Y-50039839D01*
X106075291Y-49371095D01*
X105892740Y-48929286D01*
X109991026Y-44831000D01*
X125802877Y-44831000D01*
X125704726Y-45067376D01*
X125704475Y-45355361D01*
X125814450Y-45621521D01*
X126017908Y-45825335D01*
X126283876Y-45935774D01*
X126370429Y-45935849D01*
X129514605Y-49080025D01*
X129514475Y-49228861D01*
X129624450Y-49495021D01*
X129827908Y-49698835D01*
X130093876Y-49809274D01*
X130381861Y-49809525D01*
X130648021Y-49699550D01*
X130851835Y-49496092D01*
X130962274Y-49230124D01*
X130962405Y-49080015D01*
X131042210Y-49000210D01*
X131274420Y-48768000D01*
X167400883Y-48768000D01*
X167494587Y-49239083D01*
X167761435Y-49638448D01*
X168160800Y-49905296D01*
X168631883Y-49999000D01*
X168680117Y-49999000D01*
X169151200Y-49905296D01*
X169550565Y-49638448D01*
X169817413Y-49239083D01*
X169911117Y-48768000D01*
X169817413Y-48296917D01*
X169550565Y-47897552D01*
X169151200Y-47630704D01*
X168680117Y-47537000D01*
X168631883Y-47537000D01*
X168160800Y-47630704D01*
X167761435Y-47897552D01*
X167494587Y-48296917D01*
X167400883Y-48768000D01*
X131274420Y-48768000D01*
X132544420Y-47498000D01*
X139511683Y-47498000D01*
X139605387Y-47969083D01*
X139872235Y-48368448D01*
X140271600Y-48635296D01*
X140742683Y-48729000D01*
X140790917Y-48729000D01*
X141262000Y-48635296D01*
X141661365Y-48368448D01*
X141928213Y-47969083D01*
X142021917Y-47498000D01*
X141928213Y-47026917D01*
X141661365Y-46627552D01*
X141262000Y-46360704D01*
X140790917Y-46267000D01*
X140742683Y-46267000D01*
X140271600Y-46360704D01*
X139872235Y-46627552D01*
X139605387Y-47026917D01*
X139511683Y-47498000D01*
X132544420Y-47498000D01*
X135821026Y-44221395D01*
X135969861Y-44221525D01*
X136236021Y-44111550D01*
X136439835Y-43908092D01*
X136550274Y-43642124D01*
X136550525Y-43354139D01*
X136440550Y-43087979D01*
X136237092Y-42884165D01*
X136031991Y-42799000D01*
X149088974Y-42799000D01*
X150050436Y-43760462D01*
X150050357Y-43851482D01*
X150175767Y-44154998D01*
X150407781Y-44387417D01*
X150711077Y-44513357D01*
X151039482Y-44513643D01*
X151342998Y-44388233D01*
X151575417Y-44156219D01*
X151701357Y-43852923D01*
X151701643Y-43524518D01*
X151576233Y-43221002D01*
X151344219Y-42988583D01*
X151040923Y-42862643D01*
X150948588Y-42862563D01*
X149801013Y-41714987D01*
X149595004Y-41577336D01*
X149352000Y-41529000D01*
X133096000Y-41529000D01*
X132852996Y-41577336D01*
X132646987Y-41714987D01*
X130800974Y-43561000D01*
X109728000Y-43561000D01*
X109484996Y-43609336D01*
X109278987Y-43746987D01*
X104922629Y-48103345D01*
X104729839Y-48023292D01*
X104061095Y-48022709D01*
X103443034Y-48278086D01*
X102969748Y-48750547D01*
X102713292Y-49368161D01*
X102712709Y-50036905D01*
X99516000Y-50036905D01*
X99516000Y-44989750D01*
X102459000Y-44989750D01*
X102459000Y-46130309D01*
X102555673Y-46363698D01*
X102734301Y-46542327D01*
X102967690Y-46639000D01*
X104108250Y-46639000D01*
X104267000Y-46480250D01*
X104267000Y-44831000D01*
X104521000Y-44831000D01*
X104521000Y-46480250D01*
X104679750Y-46639000D01*
X105820310Y-46639000D01*
X106053699Y-46542327D01*
X106232327Y-46363698D01*
X106329000Y-46130309D01*
X106329000Y-44989750D01*
X106170250Y-44831000D01*
X104521000Y-44831000D01*
X104267000Y-44831000D01*
X102617750Y-44831000D01*
X102459000Y-44989750D01*
X99516000Y-44989750D01*
X99516000Y-43277691D01*
X102459000Y-43277691D01*
X102459000Y-44418250D01*
X102617750Y-44577000D01*
X104267000Y-44577000D01*
X104267000Y-42927750D01*
X104521000Y-42927750D01*
X104521000Y-44577000D01*
X106170250Y-44577000D01*
X106329000Y-44418250D01*
X106329000Y-43277691D01*
X106232327Y-43044302D01*
X106053699Y-42865673D01*
X105820310Y-42769000D01*
X104679750Y-42769000D01*
X104521000Y-42927750D01*
X104267000Y-42927750D01*
X104108250Y-42769000D01*
X102967690Y-42769000D01*
X102734301Y-42865673D01*
X102555673Y-43044302D01*
X102459000Y-43277691D01*
X99516000Y-43277691D01*
X99516000Y-39414911D01*
X99771750Y-38129170D01*
X99770606Y-39439478D01*
X100291540Y-40700235D01*
X101255292Y-41665670D01*
X102515137Y-42188803D01*
X103879278Y-42189994D01*
X105140035Y-41669060D01*
X105884643Y-40925750D01*
X115355000Y-40925750D01*
X115355000Y-41616309D01*
X115451673Y-41849698D01*
X115630301Y-42028327D01*
X115863690Y-42125000D01*
X116554250Y-42125000D01*
X116713000Y-41966250D01*
X116713000Y-40767000D01*
X115513750Y-40767000D01*
X115355000Y-40925750D01*
X105884643Y-40925750D01*
X106105470Y-40705308D01*
X106628603Y-39445463D01*
X106629528Y-38385750D01*
X115355000Y-38385750D01*
X115355000Y-39076309D01*
X115451673Y-39309698D01*
X115511975Y-39370000D01*
X115451673Y-39430302D01*
X115355000Y-39663691D01*
X115355000Y-40354250D01*
X115513750Y-40513000D01*
X116713000Y-40513000D01*
X116713000Y-38227000D01*
X115513750Y-38227000D01*
X115355000Y-38385750D01*
X106629528Y-38385750D01*
X106629794Y-38081322D01*
X106234110Y-37123691D01*
X115355000Y-37123691D01*
X115355000Y-37814250D01*
X115513750Y-37973000D01*
X116713000Y-37973000D01*
X116713000Y-36773750D01*
X116967000Y-36773750D01*
X116967000Y-37973000D01*
X116987000Y-37973000D01*
X116987000Y-38227000D01*
X116967000Y-38227000D01*
X116967000Y-40513000D01*
X116987000Y-40513000D01*
X116987000Y-40767000D01*
X116967000Y-40767000D01*
X116967000Y-41966250D01*
X117125750Y-42125000D01*
X117816310Y-42125000D01*
X118049699Y-42028327D01*
X118228327Y-41849698D01*
X118325000Y-41616309D01*
X118325000Y-41258364D01*
X118509552Y-41534565D01*
X118908917Y-41801413D01*
X119380000Y-41895117D01*
X119851083Y-41801413D01*
X120250448Y-41534565D01*
X120517296Y-41135200D01*
X120611000Y-40664117D01*
X120611000Y-40615883D01*
X120689000Y-40615883D01*
X120689000Y-40664117D01*
X120782704Y-41135200D01*
X121049552Y-41534565D01*
X121448917Y-41801413D01*
X121920000Y-41895117D01*
X122391083Y-41801413D01*
X122790448Y-41534565D01*
X123057296Y-41135200D01*
X123151000Y-40664117D01*
X123151000Y-40615883D01*
X123057296Y-40144800D01*
X122790448Y-39745435D01*
X122391083Y-39478587D01*
X121920000Y-39384883D01*
X121448917Y-39478587D01*
X121049552Y-39745435D01*
X120782704Y-40144800D01*
X120689000Y-40615883D01*
X120611000Y-40615883D01*
X120517296Y-40144800D01*
X120250448Y-39745435D01*
X119851083Y-39478587D01*
X119380000Y-39384883D01*
X118908917Y-39478587D01*
X118509552Y-39745435D01*
X118325000Y-40021636D01*
X118325000Y-39663691D01*
X118228327Y-39430302D01*
X118168025Y-39370000D01*
X118228327Y-39309698D01*
X118325000Y-39076309D01*
X118325000Y-38718364D01*
X118509552Y-38994565D01*
X118908917Y-39261413D01*
X119380000Y-39355117D01*
X119851083Y-39261413D01*
X120250448Y-38994565D01*
X120517296Y-38595200D01*
X120611000Y-38124117D01*
X120611000Y-38075883D01*
X120689000Y-38075883D01*
X120689000Y-38124117D01*
X120782704Y-38595200D01*
X121049552Y-38994565D01*
X121448917Y-39261413D01*
X121920000Y-39355117D01*
X122391083Y-39261413D01*
X122790448Y-38994565D01*
X123057296Y-38595200D01*
X123151000Y-38124117D01*
X123151000Y-38075883D01*
X123229000Y-38075883D01*
X123229000Y-38124117D01*
X123322704Y-38595200D01*
X123589552Y-38994565D01*
X123977400Y-39253718D01*
X123977400Y-39486282D01*
X123589552Y-39745435D01*
X123322704Y-40144800D01*
X123229000Y-40615883D01*
X123229000Y-40664117D01*
X123322704Y-41135200D01*
X123589552Y-41534565D01*
X123988917Y-41801413D01*
X124460000Y-41895117D01*
X124931083Y-41801413D01*
X125330448Y-41534565D01*
X125597296Y-41135200D01*
X125691000Y-40664117D01*
X125691000Y-40615883D01*
X125597296Y-40144800D01*
X125330448Y-39745435D01*
X124942600Y-39486282D01*
X124942600Y-39253718D01*
X125330448Y-38994565D01*
X125597296Y-38595200D01*
X125691000Y-38124117D01*
X125691000Y-38075883D01*
X125597296Y-37604800D01*
X125330448Y-37205435D01*
X124931083Y-36938587D01*
X124460000Y-36844883D01*
X123988917Y-36938587D01*
X123589552Y-37205435D01*
X123322704Y-37604800D01*
X123229000Y-38075883D01*
X123151000Y-38075883D01*
X123057296Y-37604800D01*
X122790448Y-37205435D01*
X122391083Y-36938587D01*
X121920000Y-36844883D01*
X121448917Y-36938587D01*
X121049552Y-37205435D01*
X120782704Y-37604800D01*
X120689000Y-38075883D01*
X120611000Y-38075883D01*
X120517296Y-37604800D01*
X120250448Y-37205435D01*
X119851083Y-36938587D01*
X119380000Y-36844883D01*
X118908917Y-36938587D01*
X118509552Y-37205435D01*
X118325000Y-37481636D01*
X118325000Y-37123691D01*
X118228327Y-36890302D01*
X118049699Y-36711673D01*
X117816310Y-36615000D01*
X117125750Y-36615000D01*
X116967000Y-36773750D01*
X116713000Y-36773750D01*
X116554250Y-36615000D01*
X115863690Y-36615000D01*
X115630301Y-36711673D01*
X115451673Y-36890302D01*
X115355000Y-37123691D01*
X106234110Y-37123691D01*
X106108860Y-36820565D01*
X105305698Y-36016000D01*
X154479243Y-36016000D01*
X154016165Y-36207340D01*
X154016165Y-36207340D01*
G37*
X154016165Y-36207340D02*
X153050730Y-37171092D01*
X152527597Y-38430937D01*
X152526406Y-39795078D01*
X152729780Y-40287280D01*
X151599864Y-39157364D01*
X151600025Y-38972639D01*
X151490050Y-38706479D01*
X151286592Y-38502665D01*
X151020624Y-38392226D01*
X150732639Y-38391975D01*
X150466479Y-38501950D01*
X150262665Y-38705408D01*
X150152226Y-38971376D01*
X150151975Y-39259361D01*
X150261950Y-39525521D01*
X150465408Y-39729335D01*
X150731376Y-39839774D01*
X150917436Y-39839936D01*
X155106748Y-44029247D01*
X155106750Y-44029250D01*
X155263317Y-44133864D01*
X155448000Y-44170600D01*
X159512000Y-44170600D01*
X159696683Y-44133864D01*
X159853250Y-44029250D01*
X159853251Y-44029249D01*
X162002499Y-41880000D01*
X163411536Y-41880000D01*
X163411536Y-44480000D01*
X163438103Y-44621190D01*
X163521546Y-44750865D01*
X163648866Y-44837859D01*
X163800000Y-44868464D01*
X166400000Y-44868464D01*
X166541190Y-44841897D01*
X166670865Y-44758454D01*
X166757859Y-44631134D01*
X166788464Y-44480000D01*
X166788464Y-41880000D01*
X166761897Y-41738810D01*
X166678454Y-41609135D01*
X166551134Y-41522141D01*
X166400000Y-41491536D01*
X163800000Y-41491536D01*
X163658810Y-41518103D01*
X163529135Y-41601546D01*
X163442141Y-41728866D01*
X163411536Y-41880000D01*
X162002499Y-41880000D01*
X162010635Y-41871864D01*
X162195361Y-41872025D01*
X162461521Y-41762050D01*
X162665335Y-41558592D01*
X162775774Y-41292624D01*
X162776025Y-41004639D01*
X162666050Y-40738479D01*
X162462592Y-40534665D01*
X162196624Y-40424226D01*
X161908639Y-40423975D01*
X161642479Y-40533950D01*
X161438665Y-40737408D01*
X161328226Y-41003376D01*
X161328064Y-41189437D01*
X159312100Y-43205400D01*
X155647899Y-43205400D01*
X154785212Y-42342712D01*
X155270937Y-42544403D01*
X156635078Y-42545594D01*
X157895835Y-42024660D01*
X158861270Y-41060908D01*
X159384403Y-39801063D01*
X159385527Y-38512905D01*
X163418709Y-38512905D01*
X163674086Y-39130966D01*
X164146547Y-39604252D01*
X164764161Y-39860708D01*
X165432905Y-39861291D01*
X166050966Y-39605914D01*
X166524252Y-39133453D01*
X166780708Y-38515839D01*
X166781291Y-37847095D01*
X166525914Y-37229034D01*
X166053453Y-36755748D01*
X165435839Y-36499292D01*
X164767095Y-36498709D01*
X164149034Y-36754086D01*
X163675748Y-37226547D01*
X163419292Y-37844161D01*
X163418709Y-38512905D01*
X159385527Y-38512905D01*
X159385594Y-38436922D01*
X158864660Y-37176165D01*
X157900908Y-36210730D01*
X157431946Y-36016000D01*
X168103089Y-36016000D01*
X169428102Y-36279562D01*
X170513319Y-37004681D01*
X171238438Y-38089898D01*
X171502000Y-39414911D01*
X171502000Y-66701970D01*
X171056660Y-65624165D01*
X170092908Y-64658730D01*
X168833063Y-64135597D01*
X167468922Y-64134406D01*
X166208165Y-64655340D01*
X165242730Y-65619092D01*
X164719597Y-66878937D01*
X164718406Y-68243078D01*
X165239340Y-69503835D01*
X166203092Y-70469270D01*
X167462937Y-70992403D01*
X168827078Y-70993594D01*
X170087835Y-70472660D01*
X171053270Y-69508908D01*
X171502000Y-68428245D01*
X171502000Y-74377089D01*
X171238438Y-75702102D01*
X170513319Y-76787319D01*
X169428102Y-77512438D01*
X168103089Y-77776000D01*
X117808757Y-77776000D01*
X118271835Y-77584660D01*
X119237270Y-76620908D01*
X119760403Y-75361063D01*
X119760412Y-75350000D01*
X133381536Y-75350000D01*
X133381536Y-77050000D01*
X133408103Y-77191190D01*
X133491546Y-77320865D01*
X133618866Y-77407859D01*
X133770000Y-77438464D01*
X135470000Y-77438464D01*
X135611190Y-77411897D01*
X135740865Y-77328454D01*
X135827859Y-77201134D01*
X135858464Y-77050000D01*
X135858464Y-76854895D01*
X135964817Y-77081358D01*
X136393076Y-77471645D01*
X136803110Y-77641476D01*
X137033000Y-77520155D01*
X137033000Y-76327000D01*
X137013000Y-76327000D01*
X137013000Y-76073000D01*
X137033000Y-76073000D01*
X137033000Y-76053000D01*
X137287000Y-76053000D01*
X137287000Y-76073000D01*
X137307000Y-76073000D01*
X137307000Y-76327000D01*
X137287000Y-76327000D01*
X137287000Y-77520155D01*
X137516890Y-77641476D01*
X137926924Y-77471645D01*
X138355183Y-77081358D01*
X138554917Y-76656053D01*
X138562704Y-76695200D01*
X138829552Y-77094565D01*
X139228917Y-77361413D01*
X139700000Y-77455117D01*
X140171083Y-77361413D01*
X140570448Y-77094565D01*
X140837296Y-76695200D01*
X140931000Y-76224117D01*
X140931000Y-76175883D01*
X141009000Y-76175883D01*
X141009000Y-76224117D01*
X141102704Y-76695200D01*
X141369552Y-77094565D01*
X141768917Y-77361413D01*
X142240000Y-77455117D01*
X142711083Y-77361413D01*
X143110448Y-77094565D01*
X143377296Y-76695200D01*
X143471000Y-76224117D01*
X143471000Y-76175883D01*
X143377296Y-75704800D01*
X143110448Y-75305435D01*
X142711083Y-75038587D01*
X142240000Y-74944883D01*
X141768917Y-75038587D01*
X141369552Y-75305435D01*
X141102704Y-75704800D01*
X141009000Y-76175883D01*
X140931000Y-76175883D01*
X140837296Y-75704800D01*
X140570448Y-75305435D01*
X140171083Y-75038587D01*
X139700000Y-74944883D01*
X139228917Y-75038587D01*
X138829552Y-75305435D01*
X138562704Y-75704800D01*
X138554917Y-75743947D01*
X138355183Y-75318642D01*
X137926924Y-74928355D01*
X137645488Y-74811788D01*
X138030448Y-74554565D01*
X138297296Y-74155200D01*
X138391000Y-73684117D01*
X138391000Y-73635883D01*
X138469000Y-73635883D01*
X138469000Y-73684117D01*
X138562704Y-74155200D01*
X138829552Y-74554565D01*
X139228917Y-74821413D01*
X139700000Y-74915117D01*
X140171083Y-74821413D01*
X140570448Y-74554565D01*
X140837296Y-74155200D01*
X140931000Y-73684117D01*
X140931000Y-73635883D01*
X141009000Y-73635883D01*
X141009000Y-73684117D01*
X141102704Y-74155200D01*
X141369552Y-74554565D01*
X141768917Y-74821413D01*
X142240000Y-74915117D01*
X142711083Y-74821413D01*
X143110448Y-74554565D01*
X143377296Y-74155200D01*
X143471000Y-73684117D01*
X143471000Y-73635883D01*
X143377296Y-73164800D01*
X143110448Y-72765435D01*
X142711083Y-72498587D01*
X142240000Y-72404883D01*
X141768917Y-72498587D01*
X141369552Y-72765435D01*
X141102704Y-73164800D01*
X141009000Y-73635883D01*
X140931000Y-73635883D01*
X140837296Y-73164800D01*
X140570448Y-72765435D01*
X140171083Y-72498587D01*
X139700000Y-72404883D01*
X139228917Y-72498587D01*
X138829552Y-72765435D01*
X138562704Y-73164800D01*
X138469000Y-73635883D01*
X138391000Y-73635883D01*
X138297296Y-73164800D01*
X138030448Y-72765435D01*
X137631083Y-72498587D01*
X137160000Y-72404883D01*
X136688917Y-72498587D01*
X136289552Y-72765435D01*
X136022704Y-73164800D01*
X135929000Y-73635883D01*
X135929000Y-73684117D01*
X136022704Y-74155200D01*
X136289552Y-74554565D01*
X136674512Y-74811788D01*
X136393076Y-74928355D01*
X135964817Y-75318642D01*
X135858464Y-75545105D01*
X135858464Y-75350000D01*
X135831897Y-75208810D01*
X135748454Y-75079135D01*
X135621134Y-74992141D01*
X135470000Y-74961536D01*
X133770000Y-74961536D01*
X133628810Y-74988103D01*
X133499135Y-75071546D01*
X133412141Y-75198866D01*
X133381536Y-75350000D01*
X119760412Y-75350000D01*
X119761594Y-73996922D01*
X119612416Y-73635883D01*
X133389000Y-73635883D01*
X133389000Y-73684117D01*
X133482704Y-74155200D01*
X133749552Y-74554565D01*
X134148917Y-74821413D01*
X134620000Y-74915117D01*
X135091083Y-74821413D01*
X135490448Y-74554565D01*
X135757296Y-74155200D01*
X135851000Y-73684117D01*
X135851000Y-73635883D01*
X135757296Y-73164800D01*
X135490448Y-72765435D01*
X135091083Y-72498587D01*
X134620000Y-72404883D01*
X134148917Y-72498587D01*
X133749552Y-72765435D01*
X133482704Y-73164800D01*
X133389000Y-73635883D01*
X119612416Y-73635883D01*
X119240660Y-72736165D01*
X118276908Y-71770730D01*
X117017063Y-71247597D01*
X115652922Y-71246406D01*
X114392165Y-71767340D01*
X113426730Y-72731092D01*
X112903597Y-73990937D01*
X112902406Y-75355078D01*
X113423340Y-76615835D01*
X114387092Y-77581270D01*
X114856054Y-77776000D01*
X103169720Y-77776000D01*
X103146860Y-77780547D01*
X103124000Y-77776000D01*
X102914911Y-77776000D01*
X101589898Y-77512438D01*
X100504681Y-76787319D01*
X99779562Y-75702102D01*
X99516000Y-74377089D01*
X99516000Y-73831787D01*
X100368787Y-73831787D01*
X100555800Y-74284395D01*
X100901784Y-74630983D01*
X101354065Y-74818786D01*
X101843787Y-74819213D01*
X102296395Y-74632200D01*
X102642983Y-74286216D01*
X102830786Y-73833935D01*
X102830787Y-73831787D01*
X106868787Y-73831787D01*
X107055800Y-74284395D01*
X107401784Y-74630983D01*
X107854065Y-74818786D01*
X108343787Y-74819213D01*
X108796395Y-74632200D01*
X109142983Y-74286216D01*
X109330786Y-73833935D01*
X109331213Y-73344213D01*
X109144200Y-72891605D01*
X108798216Y-72545017D01*
X108345935Y-72357214D01*
X107856213Y-72356787D01*
X107403605Y-72543800D01*
X107057017Y-72889784D01*
X106869214Y-73342065D01*
X106868787Y-73831787D01*
X102830787Y-73831787D01*
X102831213Y-73344213D01*
X102644200Y-72891605D01*
X102298216Y-72545017D01*
X101845935Y-72357214D01*
X101356213Y-72356787D01*
X100903605Y-72543800D01*
X100557017Y-72889784D01*
X100369214Y-73342065D01*
X100368787Y-73831787D01*
X99516000Y-73831787D01*
X99516000Y-69331787D01*
X100368787Y-69331787D01*
X100555800Y-69784395D01*
X100901784Y-70130983D01*
X101354065Y-70318786D01*
X101843787Y-70319213D01*
X102296395Y-70132200D01*
X102642983Y-69786216D01*
X102830786Y-69333935D01*
X102831213Y-68844213D01*
X102742058Y-68628442D01*
X103882700Y-67487800D01*
X107772200Y-67487800D01*
X107956883Y-67451064D01*
X108113450Y-67346450D01*
X109459650Y-66000250D01*
X109564264Y-65843683D01*
X109601000Y-65659000D01*
X109601000Y-63166500D01*
X111045499Y-61722000D01*
X115663990Y-61722000D01*
X115845208Y-61903535D01*
X116019724Y-61976000D01*
X111061500Y-61976000D01*
X110899350Y-62008254D01*
X110867096Y-62014669D01*
X110702289Y-62124790D01*
X109775190Y-63051890D01*
X109665069Y-63216697D01*
X109626400Y-63411100D01*
X109651800Y-63538795D01*
X109651800Y-67973700D01*
X109170425Y-68455075D01*
X109144200Y-68391605D01*
X108798216Y-68045017D01*
X108345935Y-67857214D01*
X107856213Y-67856787D01*
X107403605Y-68043800D01*
X107057017Y-68389784D01*
X106869214Y-68842065D01*
X106868787Y-69331787D01*
X107055800Y-69784395D01*
X107401784Y-70130983D01*
X107854065Y-70318786D01*
X108343787Y-70319213D01*
X108796395Y-70132200D01*
X109142983Y-69786216D01*
X109233641Y-69567887D01*
X109404683Y-69533864D01*
X109561250Y-69429250D01*
X110475650Y-68514850D01*
X110580264Y-68358283D01*
X110617000Y-68173600D01*
X110617000Y-67737750D01*
X131589000Y-67737750D01*
X131589000Y-68078310D01*
X131685673Y-68311699D01*
X131864302Y-68490327D01*
X132097691Y-68587000D01*
X132938250Y-68587000D01*
X133097000Y-68428250D01*
X133097000Y-67579000D01*
X133351000Y-67579000D01*
X133351000Y-68428250D01*
X133509750Y-68587000D01*
X134350309Y-68587000D01*
X134583698Y-68490327D01*
X134762327Y-68311699D01*
X134859000Y-68078310D01*
X134859000Y-67737750D01*
X134700250Y-67579000D01*
X133351000Y-67579000D01*
X133097000Y-67579000D01*
X131747750Y-67579000D01*
X131589000Y-67737750D01*
X110617000Y-67737750D01*
X110617000Y-63646920D01*
X111271921Y-62992000D01*
X131835536Y-62992000D01*
X131835536Y-63952000D01*
X131862103Y-64093190D01*
X131945546Y-64222865D01*
X132072866Y-64309859D01*
X132224000Y-64340464D01*
X134224000Y-64340464D01*
X134365190Y-64313897D01*
X134494865Y-64230454D01*
X134581859Y-64103134D01*
X134612464Y-63952000D01*
X134612464Y-63934600D01*
X137420100Y-63934600D01*
X138454900Y-64969400D01*
X134612464Y-64969400D01*
X134612464Y-64952000D01*
X134585897Y-64810810D01*
X134502454Y-64681135D01*
X134375134Y-64594141D01*
X134224000Y-64563536D01*
X132224000Y-64563536D01*
X132082810Y-64590103D01*
X131953135Y-64673546D01*
X131866141Y-64800866D01*
X131835536Y-64952000D01*
X131835536Y-65952000D01*
X131862103Y-66093190D01*
X131945546Y-66222865D01*
X132072866Y-66309859D01*
X132108130Y-66317000D01*
X132097691Y-66317000D01*
X131864302Y-66413673D01*
X131685673Y-66592301D01*
X131589000Y-66825690D01*
X131589000Y-67166250D01*
X131747750Y-67325000D01*
X133097000Y-67325000D01*
X133097000Y-67305000D01*
X133351000Y-67305000D01*
X133351000Y-67325000D01*
X134700250Y-67325000D01*
X134859000Y-67166250D01*
X134859000Y-66825690D01*
X134762327Y-66592301D01*
X134583698Y-66413673D01*
X134350309Y-66317000D01*
X134348699Y-66317000D01*
X134365190Y-66313897D01*
X134494865Y-66230454D01*
X134581859Y-66103134D01*
X134612464Y-65952000D01*
X134612464Y-65934600D01*
X138404100Y-65934600D01*
X140436636Y-67967135D01*
X140436475Y-68151861D01*
X140546450Y-68418021D01*
X140606724Y-68478400D01*
X138620500Y-68478400D01*
X138435817Y-68515136D01*
X138279250Y-68619750D01*
X138279248Y-68619753D01*
X138153865Y-68745136D01*
X137969139Y-68744975D01*
X137702979Y-68854950D01*
X137499165Y-69058408D01*
X137388726Y-69324376D01*
X137388475Y-69612361D01*
X137498450Y-69878521D01*
X137701908Y-70082335D01*
X137967876Y-70192774D01*
X138255861Y-70193025D01*
X138522021Y-70083050D01*
X138725835Y-69879592D01*
X138836274Y-69613624D01*
X138836422Y-69443600D01*
X140656822Y-69443600D01*
X140627226Y-69514876D01*
X140626975Y-69802861D01*
X140736950Y-70069021D01*
X140940408Y-70272835D01*
X141206376Y-70383274D01*
X141392436Y-70383436D01*
X142724250Y-71715250D01*
X142880817Y-71819864D01*
X143065500Y-71856600D01*
X144834100Y-71856600D01*
X148621536Y-75644035D01*
X148621536Y-77050000D01*
X148648103Y-77191190D01*
X148731546Y-77320865D01*
X148858866Y-77407859D01*
X149010000Y-77438464D01*
X150710000Y-77438464D01*
X150851190Y-77411897D01*
X150980865Y-77328454D01*
X151067859Y-77201134D01*
X151098464Y-77050000D01*
X151098464Y-75707536D01*
X151393400Y-75412600D01*
X151457946Y-75412600D01*
X151262704Y-75704800D01*
X151169000Y-76175883D01*
X151169000Y-76224117D01*
X151262704Y-76695200D01*
X151529552Y-77094565D01*
X151928917Y-77361413D01*
X152400000Y-77455117D01*
X152871083Y-77361413D01*
X153270448Y-77094565D01*
X153537296Y-76695200D01*
X153631000Y-76224117D01*
X153631000Y-76175883D01*
X153537296Y-75704800D01*
X153320930Y-75380987D01*
X153346683Y-75375864D01*
X153503250Y-75271250D01*
X153947750Y-74826750D01*
X153989467Y-74764316D01*
X154173076Y-74931645D01*
X154454512Y-75048212D01*
X154069552Y-75305435D01*
X153802704Y-75704800D01*
X153709000Y-76175883D01*
X153709000Y-76224117D01*
X153802704Y-76695200D01*
X154069552Y-77094565D01*
X154468917Y-77361413D01*
X154940000Y-77455117D01*
X155411083Y-77361413D01*
X155810448Y-77094565D01*
X156077296Y-76695200D01*
X156118958Y-76485750D01*
X161075000Y-76485750D01*
X161075000Y-77176309D01*
X161171673Y-77409698D01*
X161350301Y-77588327D01*
X161583690Y-77685000D01*
X162274250Y-77685000D01*
X162433000Y-77526250D01*
X162433000Y-76327000D01*
X161233750Y-76327000D01*
X161075000Y-76485750D01*
X156118958Y-76485750D01*
X156171000Y-76224117D01*
X156171000Y-76175883D01*
X156089959Y-75768461D01*
X156634729Y-75223691D01*
X161075000Y-75223691D01*
X161075000Y-75914250D01*
X161233750Y-76073000D01*
X162433000Y-76073000D01*
X162433000Y-76053000D01*
X162687000Y-76053000D01*
X162687000Y-76073000D01*
X162707000Y-76073000D01*
X162707000Y-76327000D01*
X162687000Y-76327000D01*
X162687000Y-77526250D01*
X162845750Y-77685000D01*
X163536310Y-77685000D01*
X163769699Y-77588327D01*
X163948327Y-77409698D01*
X164045000Y-77176309D01*
X164045000Y-76818364D01*
X164229552Y-77094565D01*
X164628917Y-77361413D01*
X165100000Y-77455117D01*
X165571083Y-77361413D01*
X165970448Y-77094565D01*
X166237296Y-76695200D01*
X166331000Y-76224117D01*
X166331000Y-76175883D01*
X166409000Y-76175883D01*
X166409000Y-76224117D01*
X166502704Y-76695200D01*
X166769552Y-77094565D01*
X167168917Y-77361413D01*
X167640000Y-77455117D01*
X168111083Y-77361413D01*
X168510448Y-77094565D01*
X168777296Y-76695200D01*
X168871000Y-76224117D01*
X168871000Y-76175883D01*
X168777296Y-75704800D01*
X168510448Y-75305435D01*
X168111083Y-75038587D01*
X167640000Y-74944883D01*
X167168917Y-75038587D01*
X166769552Y-75305435D01*
X166502704Y-75704800D01*
X166409000Y-76175883D01*
X166331000Y-76175883D01*
X166237296Y-75704800D01*
X165970448Y-75305435D01*
X165571083Y-75038587D01*
X165100000Y-74944883D01*
X164628917Y-75038587D01*
X164229552Y-75305435D01*
X164045000Y-75581636D01*
X164045000Y-75223691D01*
X163948327Y-74990302D01*
X163769699Y-74811673D01*
X163536310Y-74715000D01*
X163190341Y-74715000D01*
X163430448Y-74554565D01*
X163697296Y-74155200D01*
X163791000Y-73684117D01*
X163791000Y-73635883D01*
X163869000Y-73635883D01*
X163869000Y-73684117D01*
X163962704Y-74155200D01*
X164229552Y-74554565D01*
X164628917Y-74821413D01*
X165100000Y-74915117D01*
X165571083Y-74821413D01*
X165970448Y-74554565D01*
X166237296Y-74155200D01*
X166331000Y-73684117D01*
X166331000Y-73635883D01*
X166409000Y-73635883D01*
X166409000Y-73684117D01*
X166502704Y-74155200D01*
X166769552Y-74554565D01*
X167168917Y-74821413D01*
X167640000Y-74915117D01*
X168111083Y-74821413D01*
X168510448Y-74554565D01*
X168777296Y-74155200D01*
X168871000Y-73684117D01*
X168871000Y-73635883D01*
X168777296Y-73164800D01*
X168510448Y-72765435D01*
X168111083Y-72498587D01*
X167640000Y-72404883D01*
X167168917Y-72498587D01*
X166769552Y-72765435D01*
X166502704Y-73164800D01*
X166409000Y-73635883D01*
X166331000Y-73635883D01*
X166237296Y-73164800D01*
X165970448Y-72765435D01*
X165571083Y-72498587D01*
X165100000Y-72404883D01*
X164628917Y-72498587D01*
X164229552Y-72765435D01*
X163962704Y-73164800D01*
X163869000Y-73635883D01*
X163791000Y-73635883D01*
X163697296Y-73164800D01*
X163430448Y-72765435D01*
X163042600Y-72506282D01*
X163042600Y-70708710D01*
X163109835Y-70641592D01*
X163220274Y-70375624D01*
X163220436Y-70189564D01*
X164425250Y-68984750D01*
X164529864Y-68828183D01*
X164566600Y-68643500D01*
X164566600Y-61753750D01*
X167171000Y-61753750D01*
X167171000Y-62444310D01*
X167267673Y-62677699D01*
X167446302Y-62856327D01*
X167679691Y-62953000D01*
X168370250Y-62953000D01*
X168529000Y-62794250D01*
X168529000Y-61595000D01*
X168783000Y-61595000D01*
X168783000Y-62794250D01*
X168941750Y-62953000D01*
X169632309Y-62953000D01*
X169865698Y-62856327D01*
X170044327Y-62677699D01*
X170141000Y-62444310D01*
X170141000Y-61753750D01*
X169982250Y-61595000D01*
X168783000Y-61595000D01*
X168529000Y-61595000D01*
X167329750Y-61595000D01*
X167171000Y-61753750D01*
X164566600Y-61753750D01*
X164566600Y-60491690D01*
X167171000Y-60491690D01*
X167171000Y-61182250D01*
X167329750Y-61341000D01*
X168529000Y-61341000D01*
X168529000Y-61321000D01*
X168783000Y-61321000D01*
X168783000Y-61341000D01*
X169982250Y-61341000D01*
X170141000Y-61182250D01*
X170141000Y-60491690D01*
X170044327Y-60258301D01*
X169865698Y-60079673D01*
X169632309Y-59983000D01*
X169274364Y-59983000D01*
X169550565Y-59798448D01*
X169817413Y-59399083D01*
X169911117Y-58928000D01*
X169817413Y-58456917D01*
X169550565Y-58057552D01*
X169151200Y-57790704D01*
X168680117Y-57697000D01*
X168631883Y-57697000D01*
X168160800Y-57790704D01*
X167761435Y-58057552D01*
X167494587Y-58456917D01*
X167400883Y-58928000D01*
X167494587Y-59399083D01*
X167761435Y-59798448D01*
X168037636Y-59983000D01*
X167679691Y-59983000D01*
X167446302Y-60079673D01*
X167267673Y-60258301D01*
X167171000Y-60491690D01*
X164566600Y-60491690D01*
X164566600Y-59127900D01*
X166823899Y-56870600D01*
X167502282Y-56870600D01*
X167761435Y-57258448D01*
X168160800Y-57525296D01*
X168631883Y-57619000D01*
X168680117Y-57619000D01*
X169151200Y-57525296D01*
X169550565Y-57258448D01*
X169817413Y-56859083D01*
X169911117Y-56388000D01*
X169817413Y-55916917D01*
X169550565Y-55517552D01*
X169151200Y-55250704D01*
X168680117Y-55157000D01*
X168631883Y-55157000D01*
X168160800Y-55250704D01*
X167761435Y-55517552D01*
X167502282Y-55905400D01*
X166624000Y-55905400D01*
X166439317Y-55942136D01*
X166282750Y-56046750D01*
X166282748Y-56046753D01*
X163742750Y-58586750D01*
X163638136Y-58743317D01*
X163601400Y-58928000D01*
X163601400Y-68443600D01*
X162537864Y-69507136D01*
X162353139Y-69506975D01*
X162086979Y-69616950D01*
X161883165Y-69820408D01*
X161772726Y-70086376D01*
X161772475Y-70374361D01*
X161882450Y-70640521D01*
X162077400Y-70835812D01*
X162077400Y-72506282D01*
X161689552Y-72765435D01*
X161422704Y-73164800D01*
X161329000Y-73635883D01*
X161329000Y-73684117D01*
X161422704Y-74155200D01*
X161689552Y-74554565D01*
X161929659Y-74715000D01*
X161583690Y-74715000D01*
X161350301Y-74811673D01*
X161171673Y-74990302D01*
X161075000Y-75223691D01*
X156634729Y-75223691D01*
X157331210Y-74527210D01*
X157441331Y-74362403D01*
X157480000Y-74168000D01*
X157480000Y-72453500D01*
X157441331Y-72259097D01*
X157331210Y-72094290D01*
X153838710Y-68601790D01*
X153673903Y-68491669D01*
X153479500Y-68453000D01*
X148582005Y-68453000D01*
X148445598Y-68340464D01*
X150224000Y-68340464D01*
X150365190Y-68313897D01*
X150494865Y-68230454D01*
X150581859Y-68103134D01*
X150610844Y-67960000D01*
X156352363Y-67960000D01*
X156357950Y-67973521D01*
X156561408Y-68177335D01*
X156827376Y-68287774D01*
X157115361Y-68288025D01*
X157381521Y-68178050D01*
X157585335Y-67974592D01*
X157695774Y-67708624D01*
X157696025Y-67420639D01*
X157586050Y-67154479D01*
X157382592Y-66950665D01*
X157330417Y-66929000D01*
X160393257Y-66929000D01*
X160498408Y-67034335D01*
X160764376Y-67144774D01*
X161052361Y-67145025D01*
X161318521Y-67035050D01*
X161522335Y-66831592D01*
X161632774Y-66565624D01*
X161633025Y-66277639D01*
X161523050Y-66011479D01*
X161319592Y-65807665D01*
X161053624Y-65697226D01*
X160765639Y-65696975D01*
X160499479Y-65806950D01*
X160393243Y-65913000D01*
X154718871Y-65913000D01*
X154871210Y-65811210D01*
X159760525Y-60921895D01*
X159909361Y-60922025D01*
X160175521Y-60812050D01*
X160379335Y-60608592D01*
X160489774Y-60342624D01*
X160490025Y-60054639D01*
X160380050Y-59788479D01*
X160176592Y-59584665D01*
X159910624Y-59474226D01*
X159622639Y-59473975D01*
X159599261Y-59483635D01*
X159617335Y-59465592D01*
X159727774Y-59199624D01*
X159728025Y-58911639D01*
X159618050Y-58645479D01*
X159414592Y-58441665D01*
X159148624Y-58331226D01*
X158860639Y-58330975D01*
X158594479Y-58440950D01*
X158390665Y-58644408D01*
X158280226Y-58910376D01*
X158280095Y-59060485D01*
X154396580Y-62944000D01*
X152328841Y-62944000D01*
X152378335Y-62894592D01*
X152488774Y-62628624D01*
X152489025Y-62340639D01*
X152379050Y-62074479D01*
X152273000Y-61968243D01*
X152273000Y-58898219D01*
X152325862Y-58501751D01*
X152505335Y-58322592D01*
X152611350Y-58067279D01*
X152611450Y-58067521D01*
X152742900Y-58199201D01*
X152742900Y-59847512D01*
X152548665Y-60041408D01*
X152438226Y-60307376D01*
X152437975Y-60595361D01*
X152547950Y-60861521D01*
X152751408Y-61065335D01*
X153017376Y-61175774D01*
X153305361Y-61176025D01*
X153571521Y-61066050D01*
X153775335Y-60862592D01*
X153885774Y-60596624D01*
X153886025Y-60308639D01*
X153776050Y-60042479D01*
X153708100Y-59974410D01*
X153708100Y-58199099D01*
X153838835Y-58068592D01*
X153949274Y-57802624D01*
X153949525Y-57514639D01*
X153839550Y-57248479D01*
X153636092Y-57044665D01*
X153583917Y-57023000D01*
X155956000Y-57023000D01*
X156150403Y-56984331D01*
X156315210Y-56874210D01*
X157601415Y-55588006D01*
X157623361Y-55588025D01*
X157889521Y-55478050D01*
X158093335Y-55274592D01*
X158203774Y-55008624D01*
X158204025Y-54720639D01*
X158094050Y-54454479D01*
X157890592Y-54250665D01*
X157624624Y-54140226D01*
X157336639Y-54139975D01*
X157070479Y-54249950D01*
X156866665Y-54453408D01*
X156756226Y-54719376D01*
X156755984Y-54996595D01*
X155745580Y-56007000D01*
X150859000Y-56007000D01*
X150859000Y-55737750D01*
X150700250Y-55579000D01*
X149351000Y-55579000D01*
X149351000Y-55599000D01*
X149097000Y-55599000D01*
X149097000Y-55579000D01*
X147747750Y-55579000D01*
X147589000Y-55737750D01*
X147589000Y-56007000D01*
X147574000Y-56007000D01*
X147379597Y-56045669D01*
X147214790Y-56155790D01*
X144444578Y-58926002D01*
X139814247Y-58882112D01*
X139783905Y-58851718D01*
X139885601Y-58750200D01*
X141630400Y-58750200D01*
X141815083Y-58713464D01*
X141971650Y-58608850D01*
X145754810Y-54825690D01*
X147589000Y-54825690D01*
X147589000Y-55166250D01*
X147747750Y-55325000D01*
X149097000Y-55325000D01*
X149097000Y-55305000D01*
X149351000Y-55305000D01*
X149351000Y-55325000D01*
X150700250Y-55325000D01*
X150859000Y-55166250D01*
X150859000Y-54825690D01*
X150763445Y-54595000D01*
X152049609Y-54595000D01*
X152052465Y-54596186D01*
X152542187Y-54596613D01*
X152994795Y-54409600D01*
X153341383Y-54063616D01*
X153529186Y-53611335D01*
X153529613Y-53121613D01*
X153342600Y-52669005D01*
X152996616Y-52322417D01*
X152544335Y-52134614D01*
X152054613Y-52134187D01*
X151631531Y-52309000D01*
X149224000Y-52309000D01*
X148786593Y-52396006D01*
X148535866Y-52563536D01*
X148224000Y-52563536D01*
X148082810Y-52590103D01*
X147953135Y-52673546D01*
X147866141Y-52800866D01*
X147835536Y-52952000D01*
X147835536Y-53952000D01*
X147862103Y-54093190D01*
X147945546Y-54222865D01*
X148072866Y-54309859D01*
X148108130Y-54317000D01*
X148097691Y-54317000D01*
X147864302Y-54413673D01*
X147685673Y-54592301D01*
X147589000Y-54825690D01*
X145754810Y-54825690D01*
X149196300Y-51384200D01*
X165509700Y-51384200D01*
X167497723Y-53372223D01*
X167494587Y-53376917D01*
X167400883Y-53848000D01*
X167494587Y-54319083D01*
X167761435Y-54718448D01*
X168160800Y-54985296D01*
X168631883Y-55079000D01*
X168680117Y-55079000D01*
X169151200Y-54985296D01*
X169550565Y-54718448D01*
X169817413Y-54319083D01*
X169911117Y-53848000D01*
X169817413Y-53376917D01*
X169550565Y-52977552D01*
X169151200Y-52710704D01*
X168680117Y-52617000D01*
X168631883Y-52617000D01*
X168194501Y-52704001D01*
X166798500Y-51308000D01*
X167400883Y-51308000D01*
X167494587Y-51779083D01*
X167761435Y-52178448D01*
X168160800Y-52445296D01*
X168631883Y-52539000D01*
X168680117Y-52539000D01*
X169151200Y-52445296D01*
X169550565Y-52178448D01*
X169817413Y-51779083D01*
X169911117Y-51308000D01*
X169817413Y-50836917D01*
X169550565Y-50437552D01*
X169151200Y-50170704D01*
X168680117Y-50077000D01*
X168631883Y-50077000D01*
X168160800Y-50170704D01*
X167761435Y-50437552D01*
X167494587Y-50836917D01*
X167400883Y-51308000D01*
X166798500Y-51308000D01*
X166050850Y-50560350D01*
X165894283Y-50455736D01*
X165709600Y-50419000D01*
X162918818Y-50419000D01*
X162969521Y-50398050D01*
X163173335Y-50194592D01*
X163283774Y-49928624D01*
X163284025Y-49640639D01*
X163174050Y-49374479D01*
X162970592Y-49170665D01*
X162704624Y-49060226D01*
X162416639Y-49059975D01*
X162150479Y-49169950D01*
X162044243Y-49276000D01*
X149352000Y-49276000D01*
X149189850Y-49308254D01*
X149157596Y-49314669D01*
X148992790Y-49424790D01*
X145367336Y-53050244D01*
X145317850Y-52930479D01*
X145114392Y-52726665D01*
X144848424Y-52616226D01*
X144662364Y-52616064D01*
X142005264Y-49958964D01*
X142005264Y-49188000D01*
X141978697Y-49046810D01*
X141895254Y-48917135D01*
X141767934Y-48830141D01*
X141616800Y-48799536D01*
X139916800Y-48799536D01*
X139775610Y-48826103D01*
X139645935Y-48909546D01*
X139558941Y-49036866D01*
X139528336Y-49188000D01*
X139528336Y-50888000D01*
X139554903Y-51029190D01*
X139638346Y-51158865D01*
X139765666Y-51245859D01*
X139916800Y-51276464D01*
X141616800Y-51276464D01*
X141757990Y-51249897D01*
X141863381Y-51182081D01*
X143979936Y-53298636D01*
X143979775Y-53483361D01*
X144089750Y-53749521D01*
X144293208Y-53953335D01*
X144414062Y-54003518D01*
X141521580Y-56896000D01*
X140469743Y-56896000D01*
X140434669Y-56860865D01*
X140554021Y-56811550D01*
X140757835Y-56608092D01*
X140868274Y-56342124D01*
X140868525Y-56054139D01*
X140758550Y-55787979D01*
X140555092Y-55584165D01*
X140289124Y-55473726D01*
X140001139Y-55473475D01*
X139734979Y-55583450D01*
X139531165Y-55786908D01*
X139439775Y-56007000D01*
X134601326Y-56007000D01*
X134612464Y-55952000D01*
X134612464Y-54952000D01*
X134585897Y-54810810D01*
X134502454Y-54681135D01*
X134375134Y-54594141D01*
X134339870Y-54587000D01*
X134350309Y-54587000D01*
X134583698Y-54490327D01*
X134762327Y-54311699D01*
X134859000Y-54078310D01*
X134859000Y-53737750D01*
X134700250Y-53579000D01*
X133351000Y-53579000D01*
X133351000Y-53599000D01*
X133097000Y-53599000D01*
X133097000Y-53579000D01*
X131747750Y-53579000D01*
X131589000Y-53737750D01*
X131589000Y-54078310D01*
X131685673Y-54311699D01*
X131864302Y-54490327D01*
X132097691Y-54587000D01*
X132099301Y-54587000D01*
X132082810Y-54590103D01*
X131953135Y-54673546D01*
X131866141Y-54800866D01*
X131835536Y-54952000D01*
X131835536Y-55952000D01*
X131845885Y-56007000D01*
X131064000Y-56007000D01*
X130901850Y-56039254D01*
X130869596Y-56045669D01*
X130704790Y-56155790D01*
X129434790Y-57425790D01*
X129324669Y-57590597D01*
X129286000Y-57785000D01*
X129286000Y-57967757D01*
X129180665Y-58072908D01*
X129070226Y-58338876D01*
X129069975Y-58626861D01*
X129179950Y-58893021D01*
X129383408Y-59096835D01*
X129649376Y-59207274D01*
X129937361Y-59207525D01*
X130203521Y-59097550D01*
X130407335Y-58894092D01*
X130517774Y-58628124D01*
X130518025Y-58340139D01*
X130408050Y-58073979D01*
X130315826Y-57981594D01*
X131274420Y-57023000D01*
X131835536Y-57023000D01*
X131835536Y-57952000D01*
X131862103Y-58093190D01*
X131945546Y-58222865D01*
X132072866Y-58309859D01*
X132224000Y-58340464D01*
X134224000Y-58340464D01*
X134365190Y-58313897D01*
X134494865Y-58230454D01*
X134581859Y-58103134D01*
X134610844Y-57960000D01*
X138688299Y-57960000D01*
X138620626Y-58122976D01*
X138620375Y-58410961D01*
X138730350Y-58677121D01*
X138854095Y-58801082D01*
X138680265Y-58974608D01*
X138569826Y-59240576D01*
X138569575Y-59528561D01*
X138679550Y-59794721D01*
X138883008Y-59998535D01*
X139148976Y-60108974D01*
X139312550Y-60109117D01*
X139230226Y-60307376D01*
X139229975Y-60595361D01*
X139275690Y-60706000D01*
X138005420Y-60706000D01*
X136392210Y-59092790D01*
X136227403Y-58982669D01*
X136033000Y-58944000D01*
X134610959Y-58944000D01*
X134585897Y-58810810D01*
X134502454Y-58681135D01*
X134375134Y-58594141D01*
X134224000Y-58563536D01*
X132224000Y-58563536D01*
X132082810Y-58590103D01*
X131953135Y-58673546D01*
X131866141Y-58800866D01*
X131835536Y-58952000D01*
X131835536Y-59952000D01*
X131862103Y-60093190D01*
X131945546Y-60222865D01*
X132072866Y-60309859D01*
X132224000Y-60340464D01*
X134224000Y-60340464D01*
X134365190Y-60313897D01*
X134494865Y-60230454D01*
X134581859Y-60103134D01*
X134610844Y-59960000D01*
X135822580Y-59960000D01*
X137435790Y-61573210D01*
X137600596Y-61683331D01*
X137632850Y-61689746D01*
X137795000Y-61722000D01*
X139302010Y-61722000D01*
X139230226Y-61894876D01*
X139229975Y-62182861D01*
X139339950Y-62449021D01*
X139543408Y-62652835D01*
X139809376Y-62763274D01*
X140055522Y-62763489D01*
X140055475Y-62817861D01*
X140165450Y-63084021D01*
X140368908Y-63287835D01*
X140634876Y-63398274D01*
X140858776Y-63398469D01*
X144364897Y-66291019D01*
X144306979Y-66314950D01*
X144248984Y-66372843D01*
X141936133Y-66323634D01*
X136231250Y-60618750D01*
X136074683Y-60514136D01*
X135890000Y-60477400D01*
X135128000Y-60477400D01*
X134943317Y-60514136D01*
X134786750Y-60618750D01*
X134587290Y-60818210D01*
X134585897Y-60810810D01*
X134502454Y-60681135D01*
X134375134Y-60594141D01*
X134224000Y-60563536D01*
X132224000Y-60563536D01*
X132082810Y-60590103D01*
X131953135Y-60673546D01*
X131866141Y-60800866D01*
X131835536Y-60952000D01*
X131835536Y-61952000D01*
X131840052Y-61976000D01*
X116491673Y-61976000D01*
X116665321Y-61904250D01*
X116869135Y-61700792D01*
X116979574Y-61434824D01*
X116979825Y-61146839D01*
X116869850Y-60880679D01*
X116666392Y-60676865D01*
X116400424Y-60566426D01*
X116112439Y-60566175D01*
X115846279Y-60676150D01*
X115765488Y-60756800D01*
X110845605Y-60756800D01*
X110845600Y-60756799D01*
X110662355Y-60793250D01*
X110660917Y-60793536D01*
X110504350Y-60898150D01*
X110504348Y-60898153D01*
X108777150Y-62625350D01*
X108672536Y-62781917D01*
X108635800Y-62966600D01*
X108635800Y-65459100D01*
X107572300Y-66522600D01*
X103682800Y-66522600D01*
X103498117Y-66559336D01*
X103341550Y-66663950D01*
X102059575Y-67945925D01*
X101845935Y-67857214D01*
X101356213Y-67856787D01*
X100903605Y-68043800D01*
X100557017Y-68389784D01*
X100369214Y-68842065D01*
X100368787Y-69331787D01*
X99516000Y-69331787D01*
X99516000Y-61466905D01*
X102712709Y-61466905D01*
X102968086Y-62084966D01*
X103440547Y-62558252D01*
X104058161Y-62814708D01*
X104726905Y-62815291D01*
X105344966Y-62559914D01*
X105818252Y-62087453D01*
X106074708Y-61469839D01*
X106075291Y-60801095D01*
X105819914Y-60183034D01*
X105347453Y-59709748D01*
X104729839Y-59453292D01*
X104061095Y-59452709D01*
X103443034Y-59708086D01*
X102969748Y-60180547D01*
X102713292Y-60798161D01*
X102712709Y-61466905D01*
X99516000Y-61466905D01*
X99516000Y-54834000D01*
X102705536Y-54834000D01*
X102705536Y-57434000D01*
X102732103Y-57575190D01*
X102815546Y-57704865D01*
X102942866Y-57791859D01*
X103094000Y-57822464D01*
X105694000Y-57822464D01*
X105835190Y-57795897D01*
X105964865Y-57712454D01*
X106051859Y-57585134D01*
X106082464Y-57434000D01*
X106082464Y-54834000D01*
X106055897Y-54692810D01*
X105972454Y-54563135D01*
X105845134Y-54476141D01*
X105694000Y-54445536D01*
X103094000Y-54445536D01*
X102952810Y-54472103D01*
X102823135Y-54555546D01*
X102736141Y-54682866D01*
X102705536Y-54834000D01*
X99516000Y-54834000D01*
X99516000Y-52825690D01*
X131589000Y-52825690D01*
X131589000Y-53166250D01*
X131747750Y-53325000D01*
X133097000Y-53325000D01*
X133097000Y-52475750D01*
X133351000Y-52475750D01*
X133351000Y-53325000D01*
X134700250Y-53325000D01*
X134859000Y-53166250D01*
X134859000Y-52825690D01*
X134762327Y-52592301D01*
X134583698Y-52413673D01*
X134350309Y-52317000D01*
X133509750Y-52317000D01*
X133351000Y-52475750D01*
X133097000Y-52475750D01*
X132938250Y-52317000D01*
X132097691Y-52317000D01*
X131864302Y-52413673D01*
X131685673Y-52592301D01*
X131589000Y-52825690D01*
X99516000Y-52825690D01*
X99516000Y-50036905D01*
X102712709Y-50036905D01*
X102968086Y-50654966D01*
X103440547Y-51128252D01*
X104058161Y-51384708D01*
X104726905Y-51385291D01*
X105344966Y-51129914D01*
X105818252Y-50657453D01*
X106074708Y-50039839D01*
X106075291Y-49371095D01*
X105892740Y-48929286D01*
X109991026Y-44831000D01*
X125802877Y-44831000D01*
X125704726Y-45067376D01*
X125704475Y-45355361D01*
X125814450Y-45621521D01*
X126017908Y-45825335D01*
X126283876Y-45935774D01*
X126370429Y-45935849D01*
X129514605Y-49080025D01*
X129514475Y-49228861D01*
X129624450Y-49495021D01*
X129827908Y-49698835D01*
X130093876Y-49809274D01*
X130381861Y-49809525D01*
X130648021Y-49699550D01*
X130851835Y-49496092D01*
X130962274Y-49230124D01*
X130962405Y-49080015D01*
X131042210Y-49000210D01*
X131274420Y-48768000D01*
X167400883Y-48768000D01*
X167494587Y-49239083D01*
X167761435Y-49638448D01*
X168160800Y-49905296D01*
X168631883Y-49999000D01*
X168680117Y-49999000D01*
X169151200Y-49905296D01*
X169550565Y-49638448D01*
X169817413Y-49239083D01*
X169911117Y-48768000D01*
X169817413Y-48296917D01*
X169550565Y-47897552D01*
X169151200Y-47630704D01*
X168680117Y-47537000D01*
X168631883Y-47537000D01*
X168160800Y-47630704D01*
X167761435Y-47897552D01*
X167494587Y-48296917D01*
X167400883Y-48768000D01*
X131274420Y-48768000D01*
X132544420Y-47498000D01*
X139511683Y-47498000D01*
X139605387Y-47969083D01*
X139872235Y-48368448D01*
X140271600Y-48635296D01*
X140742683Y-48729000D01*
X140790917Y-48729000D01*
X141262000Y-48635296D01*
X141661365Y-48368448D01*
X141928213Y-47969083D01*
X142021917Y-47498000D01*
X141928213Y-47026917D01*
X141661365Y-46627552D01*
X141262000Y-46360704D01*
X140790917Y-46267000D01*
X140742683Y-46267000D01*
X140271600Y-46360704D01*
X139872235Y-46627552D01*
X139605387Y-47026917D01*
X139511683Y-47498000D01*
X132544420Y-47498000D01*
X135821026Y-44221395D01*
X135969861Y-44221525D01*
X136236021Y-44111550D01*
X136439835Y-43908092D01*
X136550274Y-43642124D01*
X136550525Y-43354139D01*
X136440550Y-43087979D01*
X136237092Y-42884165D01*
X136031991Y-42799000D01*
X149088974Y-42799000D01*
X150050436Y-43760462D01*
X150050357Y-43851482D01*
X150175767Y-44154998D01*
X150407781Y-44387417D01*
X150711077Y-44513357D01*
X151039482Y-44513643D01*
X151342998Y-44388233D01*
X151575417Y-44156219D01*
X151701357Y-43852923D01*
X151701643Y-43524518D01*
X151576233Y-43221002D01*
X151344219Y-42988583D01*
X151040923Y-42862643D01*
X150948588Y-42862563D01*
X149801013Y-41714987D01*
X149595004Y-41577336D01*
X149352000Y-41529000D01*
X133096000Y-41529000D01*
X132852996Y-41577336D01*
X132646987Y-41714987D01*
X130800974Y-43561000D01*
X109728000Y-43561000D01*
X109484996Y-43609336D01*
X109278987Y-43746987D01*
X104922629Y-48103345D01*
X104729839Y-48023292D01*
X104061095Y-48022709D01*
X103443034Y-48278086D01*
X102969748Y-48750547D01*
X102713292Y-49368161D01*
X102712709Y-50036905D01*
X99516000Y-50036905D01*
X99516000Y-44989750D01*
X102459000Y-44989750D01*
X102459000Y-46130309D01*
X102555673Y-46363698D01*
X102734301Y-46542327D01*
X102967690Y-46639000D01*
X104108250Y-46639000D01*
X104267000Y-46480250D01*
X104267000Y-44831000D01*
X104521000Y-44831000D01*
X104521000Y-46480250D01*
X104679750Y-46639000D01*
X105820310Y-46639000D01*
X106053699Y-46542327D01*
X106232327Y-46363698D01*
X106329000Y-46130309D01*
X106329000Y-44989750D01*
X106170250Y-44831000D01*
X104521000Y-44831000D01*
X104267000Y-44831000D01*
X102617750Y-44831000D01*
X102459000Y-44989750D01*
X99516000Y-44989750D01*
X99516000Y-43277691D01*
X102459000Y-43277691D01*
X102459000Y-44418250D01*
X102617750Y-44577000D01*
X104267000Y-44577000D01*
X104267000Y-42927750D01*
X104521000Y-42927750D01*
X104521000Y-44577000D01*
X106170250Y-44577000D01*
X106329000Y-44418250D01*
X106329000Y-43277691D01*
X106232327Y-43044302D01*
X106053699Y-42865673D01*
X105820310Y-42769000D01*
X104679750Y-42769000D01*
X104521000Y-42927750D01*
X104267000Y-42927750D01*
X104108250Y-42769000D01*
X102967690Y-42769000D01*
X102734301Y-42865673D01*
X102555673Y-43044302D01*
X102459000Y-43277691D01*
X99516000Y-43277691D01*
X99516000Y-39414911D01*
X99771750Y-38129170D01*
X99770606Y-39439478D01*
X100291540Y-40700235D01*
X101255292Y-41665670D01*
X102515137Y-42188803D01*
X103879278Y-42189994D01*
X105140035Y-41669060D01*
X105884643Y-40925750D01*
X115355000Y-40925750D01*
X115355000Y-41616309D01*
X115451673Y-41849698D01*
X115630301Y-42028327D01*
X115863690Y-42125000D01*
X116554250Y-42125000D01*
X116713000Y-41966250D01*
X116713000Y-40767000D01*
X115513750Y-40767000D01*
X115355000Y-40925750D01*
X105884643Y-40925750D01*
X106105470Y-40705308D01*
X106628603Y-39445463D01*
X106629528Y-38385750D01*
X115355000Y-38385750D01*
X115355000Y-39076309D01*
X115451673Y-39309698D01*
X115511975Y-39370000D01*
X115451673Y-39430302D01*
X115355000Y-39663691D01*
X115355000Y-40354250D01*
X115513750Y-40513000D01*
X116713000Y-40513000D01*
X116713000Y-38227000D01*
X115513750Y-38227000D01*
X115355000Y-38385750D01*
X106629528Y-38385750D01*
X106629794Y-38081322D01*
X106234110Y-37123691D01*
X115355000Y-37123691D01*
X115355000Y-37814250D01*
X115513750Y-37973000D01*
X116713000Y-37973000D01*
X116713000Y-36773750D01*
X116967000Y-36773750D01*
X116967000Y-37973000D01*
X116987000Y-37973000D01*
X116987000Y-38227000D01*
X116967000Y-38227000D01*
X116967000Y-40513000D01*
X116987000Y-40513000D01*
X116987000Y-40767000D01*
X116967000Y-40767000D01*
X116967000Y-41966250D01*
X117125750Y-42125000D01*
X117816310Y-42125000D01*
X118049699Y-42028327D01*
X118228327Y-41849698D01*
X118325000Y-41616309D01*
X118325000Y-41258364D01*
X118509552Y-41534565D01*
X118908917Y-41801413D01*
X119380000Y-41895117D01*
X119851083Y-41801413D01*
X120250448Y-41534565D01*
X120517296Y-41135200D01*
X120611000Y-40664117D01*
X120611000Y-40615883D01*
X120689000Y-40615883D01*
X120689000Y-40664117D01*
X120782704Y-41135200D01*
X121049552Y-41534565D01*
X121448917Y-41801413D01*
X121920000Y-41895117D01*
X122391083Y-41801413D01*
X122790448Y-41534565D01*
X123057296Y-41135200D01*
X123151000Y-40664117D01*
X123151000Y-40615883D01*
X123057296Y-40144800D01*
X122790448Y-39745435D01*
X122391083Y-39478587D01*
X121920000Y-39384883D01*
X121448917Y-39478587D01*
X121049552Y-39745435D01*
X120782704Y-40144800D01*
X120689000Y-40615883D01*
X120611000Y-40615883D01*
X120517296Y-40144800D01*
X120250448Y-39745435D01*
X119851083Y-39478587D01*
X119380000Y-39384883D01*
X118908917Y-39478587D01*
X118509552Y-39745435D01*
X118325000Y-40021636D01*
X118325000Y-39663691D01*
X118228327Y-39430302D01*
X118168025Y-39370000D01*
X118228327Y-39309698D01*
X118325000Y-39076309D01*
X118325000Y-38718364D01*
X118509552Y-38994565D01*
X118908917Y-39261413D01*
X119380000Y-39355117D01*
X119851083Y-39261413D01*
X120250448Y-38994565D01*
X120517296Y-38595200D01*
X120611000Y-38124117D01*
X120611000Y-38075883D01*
X120689000Y-38075883D01*
X120689000Y-38124117D01*
X120782704Y-38595200D01*
X121049552Y-38994565D01*
X121448917Y-39261413D01*
X121920000Y-39355117D01*
X122391083Y-39261413D01*
X122790448Y-38994565D01*
X123057296Y-38595200D01*
X123151000Y-38124117D01*
X123151000Y-38075883D01*
X123229000Y-38075883D01*
X123229000Y-38124117D01*
X123322704Y-38595200D01*
X123589552Y-38994565D01*
X123977400Y-39253718D01*
X123977400Y-39486282D01*
X123589552Y-39745435D01*
X123322704Y-40144800D01*
X123229000Y-40615883D01*
X123229000Y-40664117D01*
X123322704Y-41135200D01*
X123589552Y-41534565D01*
X123988917Y-41801413D01*
X124460000Y-41895117D01*
X124931083Y-41801413D01*
X125330448Y-41534565D01*
X125597296Y-41135200D01*
X125691000Y-40664117D01*
X125691000Y-40615883D01*
X125597296Y-40144800D01*
X125330448Y-39745435D01*
X124942600Y-39486282D01*
X124942600Y-39253718D01*
X125330448Y-38994565D01*
X125597296Y-38595200D01*
X125691000Y-38124117D01*
X125691000Y-38075883D01*
X125597296Y-37604800D01*
X125330448Y-37205435D01*
X124931083Y-36938587D01*
X124460000Y-36844883D01*
X123988917Y-36938587D01*
X123589552Y-37205435D01*
X123322704Y-37604800D01*
X123229000Y-38075883D01*
X123151000Y-38075883D01*
X123057296Y-37604800D01*
X122790448Y-37205435D01*
X122391083Y-36938587D01*
X121920000Y-36844883D01*
X121448917Y-36938587D01*
X121049552Y-37205435D01*
X120782704Y-37604800D01*
X120689000Y-38075883D01*
X120611000Y-38075883D01*
X120517296Y-37604800D01*
X120250448Y-37205435D01*
X119851083Y-36938587D01*
X119380000Y-36844883D01*
X118908917Y-36938587D01*
X118509552Y-37205435D01*
X118325000Y-37481636D01*
X118325000Y-37123691D01*
X118228327Y-36890302D01*
X118049699Y-36711673D01*
X117816310Y-36615000D01*
X117125750Y-36615000D01*
X116967000Y-36773750D01*
X116713000Y-36773750D01*
X116554250Y-36615000D01*
X115863690Y-36615000D01*
X115630301Y-36711673D01*
X115451673Y-36890302D01*
X115355000Y-37123691D01*
X106234110Y-37123691D01*
X106108860Y-36820565D01*
X105305698Y-36016000D01*
X154479243Y-36016000D01*
X154016165Y-36207340D01*
G36*
X147613750Y-69826250D02*
X147509136Y-69982817D01*
X147472400Y-70167500D01*
X147472400Y-70993000D01*
X147509136Y-71177683D01*
X147613750Y-71334250D01*
X149022752Y-72743252D01*
X148989552Y-72765435D01*
X148722704Y-73164800D01*
X148629000Y-73635883D01*
X148629000Y-73684117D01*
X148722704Y-74155200D01*
X148989552Y-74554565D01*
X149388917Y-74821413D01*
X149860000Y-74915117D01*
X150331083Y-74821413D01*
X150730448Y-74554565D01*
X150997296Y-74155200D01*
X151091000Y-73684117D01*
X151091000Y-73635883D01*
X150997296Y-73164800D01*
X150730448Y-72765435D01*
X150331083Y-72498587D01*
X150096407Y-72451907D01*
X148437600Y-70793100D01*
X148437600Y-70367400D01*
X148717717Y-70087282D01*
X148691726Y-70149876D01*
X148691475Y-70437861D01*
X148801450Y-70704021D01*
X149004908Y-70907835D01*
X149270876Y-71018274D01*
X149378447Y-71018368D01*
X151270947Y-73152463D01*
X151262704Y-73164800D01*
X151169000Y-73635883D01*
X151169000Y-73684117D01*
X151262704Y-74155200D01*
X151457946Y-74447400D01*
X151193500Y-74447400D01*
X151008817Y-74484136D01*
X150852250Y-74588750D01*
X150479464Y-74961536D01*
X149304035Y-74961536D01*
X145375250Y-71032750D01*
X145218683Y-70928136D01*
X145034000Y-70891400D01*
X143265400Y-70891400D01*
X142074864Y-69700864D01*
X142075025Y-69516139D01*
X142045053Y-69443600D01*
X147996401Y-69443600D01*
X147613750Y-69826250D01*
X147613750Y-69826250D01*
G37*
X147613750Y-69826250D02*
X147509136Y-69982817D01*
X147472400Y-70167500D01*
X147472400Y-70993000D01*
X147509136Y-71177683D01*
X147613750Y-71334250D01*
X149022752Y-72743252D01*
X148989552Y-72765435D01*
X148722704Y-73164800D01*
X148629000Y-73635883D01*
X148629000Y-73684117D01*
X148722704Y-74155200D01*
X148989552Y-74554565D01*
X149388917Y-74821413D01*
X149860000Y-74915117D01*
X150331083Y-74821413D01*
X150730448Y-74554565D01*
X150997296Y-74155200D01*
X151091000Y-73684117D01*
X151091000Y-73635883D01*
X150997296Y-73164800D01*
X150730448Y-72765435D01*
X150331083Y-72498587D01*
X150096407Y-72451907D01*
X148437600Y-70793100D01*
X148437600Y-70367400D01*
X148717717Y-70087282D01*
X148691726Y-70149876D01*
X148691475Y-70437861D01*
X148801450Y-70704021D01*
X149004908Y-70907835D01*
X149270876Y-71018274D01*
X149378447Y-71018368D01*
X151270947Y-73152463D01*
X151262704Y-73164800D01*
X151169000Y-73635883D01*
X151169000Y-73684117D01*
X151262704Y-74155200D01*
X151457946Y-74447400D01*
X151193500Y-74447400D01*
X151008817Y-74484136D01*
X150852250Y-74588750D01*
X150479464Y-74961536D01*
X149304035Y-74961536D01*
X145375250Y-71032750D01*
X145218683Y-70928136D01*
X145034000Y-70891400D01*
X143265400Y-70891400D01*
X142074864Y-69700864D01*
X142075025Y-69516139D01*
X142045053Y-69443600D01*
X147996401Y-69443600D01*
X147613750Y-69826250D01*
G36*
X156464000Y-72663920D02*
X156464000Y-73957580D01*
X156360941Y-74060639D01*
X156381486Y-74016892D01*
X156260819Y-73787000D01*
X155067000Y-73787000D01*
X155067000Y-73807000D01*
X154813000Y-73807000D01*
X154813000Y-73787000D01*
X154793000Y-73787000D01*
X154793000Y-73533000D01*
X154813000Y-73533000D01*
X154813000Y-72339845D01*
X155067000Y-72339845D01*
X155067000Y-73533000D01*
X156260819Y-73533000D01*
X156381486Y-73303108D01*
X156135183Y-72778642D01*
X155706924Y-72388355D01*
X155296890Y-72218524D01*
X155067000Y-72339845D01*
X154813000Y-72339845D01*
X154583110Y-72218524D01*
X154173076Y-72388355D01*
X154089100Y-72464885D01*
X154089100Y-71780378D01*
X154257861Y-71780525D01*
X154524021Y-71670550D01*
X154727835Y-71467092D01*
X154838274Y-71201124D01*
X154838416Y-71038336D01*
X156464000Y-72663920D01*
X156464000Y-72663920D01*
G37*
X156464000Y-72663920D02*
X156464000Y-73957580D01*
X156360941Y-74060639D01*
X156381486Y-74016892D01*
X156260819Y-73787000D01*
X155067000Y-73787000D01*
X155067000Y-73807000D01*
X154813000Y-73807000D01*
X154813000Y-73787000D01*
X154793000Y-73787000D01*
X154793000Y-73533000D01*
X154813000Y-73533000D01*
X154813000Y-72339845D01*
X155067000Y-72339845D01*
X155067000Y-73533000D01*
X156260819Y-73533000D01*
X156381486Y-73303108D01*
X156135183Y-72778642D01*
X155706924Y-72388355D01*
X155296890Y-72218524D01*
X155067000Y-72339845D01*
X154813000Y-72339845D01*
X154583110Y-72218524D01*
X154173076Y-72388355D01*
X154089100Y-72464885D01*
X154089100Y-71780378D01*
X154257861Y-71780525D01*
X154524021Y-71670550D01*
X154727835Y-71467092D01*
X154838274Y-71201124D01*
X154838416Y-71038336D01*
X156464000Y-72663920D01*
G36*
X154132696Y-70332616D02*
X153971139Y-70332475D01*
X153704979Y-70442450D01*
X153501165Y-70645908D01*
X153390726Y-70911876D01*
X153390564Y-71097936D01*
X153265250Y-71223250D01*
X153160636Y-71379817D01*
X153123900Y-71564500D01*
X153123900Y-72667514D01*
X152871083Y-72498587D01*
X152400000Y-72404883D01*
X152031030Y-72478276D01*
X150139356Y-70345112D01*
X150139525Y-70151139D01*
X150083315Y-70015100D01*
X151628600Y-70015100D01*
X151866636Y-70253136D01*
X151866475Y-70437861D01*
X151976450Y-70704021D01*
X152179908Y-70907835D01*
X152445876Y-71018274D01*
X152733861Y-71018525D01*
X153000021Y-70908550D01*
X153203835Y-70705092D01*
X153314274Y-70439124D01*
X153314525Y-70151139D01*
X153204550Y-69884979D01*
X153001092Y-69681165D01*
X152735124Y-69570726D01*
X152549064Y-69570564D01*
X152447500Y-69469000D01*
X153269080Y-69469000D01*
X154132696Y-70332616D01*
X154132696Y-70332616D01*
G37*
X154132696Y-70332616D02*
X153971139Y-70332475D01*
X153704979Y-70442450D01*
X153501165Y-70645908D01*
X153390726Y-70911876D01*
X153390564Y-71097936D01*
X153265250Y-71223250D01*
X153160636Y-71379817D01*
X153123900Y-71564500D01*
X153123900Y-72667514D01*
X152871083Y-72498587D01*
X152400000Y-72404883D01*
X152031030Y-72478276D01*
X150139356Y-70345112D01*
X150139525Y-70151139D01*
X150083315Y-70015100D01*
X151628600Y-70015100D01*
X151866636Y-70253136D01*
X151866475Y-70437861D01*
X151976450Y-70704021D01*
X152179908Y-70907835D01*
X152445876Y-71018274D01*
X152733861Y-71018525D01*
X153000021Y-70908550D01*
X153203835Y-70705092D01*
X153314274Y-70439124D01*
X153314525Y-70151139D01*
X153204550Y-69884979D01*
X153001092Y-69681165D01*
X152735124Y-69570726D01*
X152549064Y-69570564D01*
X152447500Y-69469000D01*
X153269080Y-69469000D01*
X154132696Y-70332616D01*
G36*
X159152665Y-59787408D02*
X159042226Y-60053376D01*
X159042095Y-60203485D01*
X154301580Y-64944000D01*
X150610959Y-64944000D01*
X150585897Y-64810810D01*
X150502454Y-64681135D01*
X150375134Y-64594141D01*
X150224000Y-64563536D01*
X148224000Y-64563536D01*
X148082810Y-64590103D01*
X147953135Y-64673546D01*
X147866141Y-64800866D01*
X147835536Y-64952000D01*
X147835536Y-65913000D01*
X147805417Y-65913000D01*
X147591624Y-65824226D01*
X147303639Y-65823975D01*
X147037479Y-65933950D01*
X146833665Y-66137408D01*
X146723226Y-66403376D01*
X146722975Y-66691361D01*
X146832950Y-66957521D01*
X147036408Y-67161335D01*
X147302376Y-67271774D01*
X147590361Y-67272025D01*
X147835536Y-67170721D01*
X147835536Y-67837163D01*
X141503453Y-62613195D01*
X141503525Y-62531139D01*
X141451492Y-62405210D01*
X147119035Y-62446966D01*
X146788250Y-62777750D01*
X146683636Y-62934317D01*
X146646900Y-63119000D01*
X146646900Y-63935101D01*
X146091364Y-64490636D01*
X145906639Y-64490475D01*
X145640479Y-64600450D01*
X145436665Y-64803908D01*
X145326226Y-65069876D01*
X145325975Y-65357861D01*
X145435950Y-65624021D01*
X145639408Y-65827835D01*
X145905376Y-65938274D01*
X146193361Y-65938525D01*
X146459521Y-65828550D01*
X146663335Y-65625092D01*
X146773774Y-65359124D01*
X146773936Y-65173063D01*
X147470747Y-64476252D01*
X147470750Y-64476250D01*
X147575364Y-64319683D01*
X147593113Y-64230454D01*
X147612101Y-64135000D01*
X147612100Y-64134995D01*
X147612100Y-63318900D01*
X147835536Y-63095463D01*
X147835536Y-63952000D01*
X147862103Y-64093190D01*
X147945546Y-64222865D01*
X148072866Y-64309859D01*
X148224000Y-64340464D01*
X150224000Y-64340464D01*
X150365190Y-64313897D01*
X150494865Y-64230454D01*
X150581859Y-64103134D01*
X150610844Y-63960000D01*
X154607000Y-63960000D01*
X154801403Y-63921331D01*
X154966210Y-63811210D01*
X158998525Y-59778895D01*
X159147361Y-59779025D01*
X159170739Y-59769365D01*
X159152665Y-59787408D01*
X159152665Y-59787408D01*
G37*
X159152665Y-59787408D02*
X159042226Y-60053376D01*
X159042095Y-60203485D01*
X154301580Y-64944000D01*
X150610959Y-64944000D01*
X150585897Y-64810810D01*
X150502454Y-64681135D01*
X150375134Y-64594141D01*
X150224000Y-64563536D01*
X148224000Y-64563536D01*
X148082810Y-64590103D01*
X147953135Y-64673546D01*
X147866141Y-64800866D01*
X147835536Y-64952000D01*
X147835536Y-65913000D01*
X147805417Y-65913000D01*
X147591624Y-65824226D01*
X147303639Y-65823975D01*
X147037479Y-65933950D01*
X146833665Y-66137408D01*
X146723226Y-66403376D01*
X146722975Y-66691361D01*
X146832950Y-66957521D01*
X147036408Y-67161335D01*
X147302376Y-67271774D01*
X147590361Y-67272025D01*
X147835536Y-67170721D01*
X147835536Y-67837163D01*
X141503453Y-62613195D01*
X141503525Y-62531139D01*
X141451492Y-62405210D01*
X147119035Y-62446966D01*
X146788250Y-62777750D01*
X146683636Y-62934317D01*
X146646900Y-63119000D01*
X146646900Y-63935101D01*
X146091364Y-64490636D01*
X145906639Y-64490475D01*
X145640479Y-64600450D01*
X145436665Y-64803908D01*
X145326226Y-65069876D01*
X145325975Y-65357861D01*
X145435950Y-65624021D01*
X145639408Y-65827835D01*
X145905376Y-65938274D01*
X146193361Y-65938525D01*
X146459521Y-65828550D01*
X146663335Y-65625092D01*
X146773774Y-65359124D01*
X146773936Y-65173063D01*
X147470747Y-64476252D01*
X147470750Y-64476250D01*
X147575364Y-64319683D01*
X147593113Y-64230454D01*
X147612101Y-64135000D01*
X147612100Y-64134995D01*
X147612100Y-63318900D01*
X147835536Y-63095463D01*
X147835536Y-63952000D01*
X147862103Y-64093190D01*
X147945546Y-64222865D01*
X148072866Y-64309859D01*
X148224000Y-64340464D01*
X150224000Y-64340464D01*
X150365190Y-64313897D01*
X150494865Y-64230454D01*
X150581859Y-64103134D01*
X150610844Y-63960000D01*
X154607000Y-63960000D01*
X154801403Y-63921331D01*
X154966210Y-63811210D01*
X158998525Y-59778895D01*
X159147361Y-59779025D01*
X159170739Y-59769365D01*
X159152665Y-59787408D01*
G36*
X147835536Y-57952000D02*
X147862103Y-58093190D01*
X147945546Y-58222865D01*
X148072866Y-58309859D01*
X148224000Y-58340464D01*
X150224000Y-58340464D01*
X150365190Y-58313897D01*
X150494865Y-58230454D01*
X150581859Y-58103134D01*
X150612464Y-57952000D01*
X150612464Y-57023000D01*
X152866682Y-57023000D01*
X152815979Y-57043950D01*
X152612165Y-57247408D01*
X152506150Y-57502721D01*
X152506050Y-57502479D01*
X152302592Y-57298665D01*
X152036624Y-57188226D01*
X151748639Y-57187975D01*
X151482479Y-57297950D01*
X151278665Y-57501408D01*
X151168226Y-57767376D01*
X151167975Y-58055361D01*
X151277950Y-58321521D01*
X151319369Y-58363013D01*
X151261456Y-58797361D01*
X151263619Y-58831223D01*
X151257000Y-58864500D01*
X151257000Y-59810775D01*
X151211124Y-59791726D01*
X150923139Y-59791475D01*
X150656979Y-59901450D01*
X150612464Y-59945887D01*
X150612464Y-58952000D01*
X150585897Y-58810810D01*
X150502454Y-58681135D01*
X150375134Y-58594141D01*
X150224000Y-58563536D01*
X148224000Y-58563536D01*
X148082810Y-58590103D01*
X147953135Y-58673546D01*
X147866141Y-58800866D01*
X147835536Y-58952000D01*
X147835536Y-59952000D01*
X147862103Y-60093190D01*
X147945546Y-60222865D01*
X148072866Y-60309859D01*
X148224000Y-60340464D01*
X150224000Y-60340464D01*
X150365190Y-60313897D01*
X150366822Y-60312847D01*
X150342726Y-60370876D01*
X150342564Y-60556936D01*
X150317109Y-60582391D01*
X150224000Y-60563536D01*
X148224000Y-60563536D01*
X148082810Y-60590103D01*
X147953135Y-60673546D01*
X147866141Y-60800866D01*
X147835536Y-60952000D01*
X147835536Y-61487018D01*
X142672256Y-61448978D01*
X142709774Y-61358624D01*
X142710025Y-61070639D01*
X142664310Y-60960000D01*
X145288000Y-60960000D01*
X145482403Y-60921331D01*
X145647210Y-60811210D01*
X146806525Y-59651895D01*
X146955361Y-59652025D01*
X147221521Y-59542050D01*
X147425335Y-59338592D01*
X147535774Y-59072624D01*
X147536025Y-58784639D01*
X147426050Y-58518479D01*
X147222592Y-58314665D01*
X146956624Y-58204226D01*
X146668639Y-58203975D01*
X146557540Y-58249880D01*
X147784420Y-57023000D01*
X147835536Y-57023000D01*
X147835536Y-57952000D01*
X147835536Y-57952000D01*
G37*
X147835536Y-57952000D02*
X147862103Y-58093190D01*
X147945546Y-58222865D01*
X148072866Y-58309859D01*
X148224000Y-58340464D01*
X150224000Y-58340464D01*
X150365190Y-58313897D01*
X150494865Y-58230454D01*
X150581859Y-58103134D01*
X150612464Y-57952000D01*
X150612464Y-57023000D01*
X152866682Y-57023000D01*
X152815979Y-57043950D01*
X152612165Y-57247408D01*
X152506150Y-57502721D01*
X152506050Y-57502479D01*
X152302592Y-57298665D01*
X152036624Y-57188226D01*
X151748639Y-57187975D01*
X151482479Y-57297950D01*
X151278665Y-57501408D01*
X151168226Y-57767376D01*
X151167975Y-58055361D01*
X151277950Y-58321521D01*
X151319369Y-58363013D01*
X151261456Y-58797361D01*
X151263619Y-58831223D01*
X151257000Y-58864500D01*
X151257000Y-59810775D01*
X151211124Y-59791726D01*
X150923139Y-59791475D01*
X150656979Y-59901450D01*
X150612464Y-59945887D01*
X150612464Y-58952000D01*
X150585897Y-58810810D01*
X150502454Y-58681135D01*
X150375134Y-58594141D01*
X150224000Y-58563536D01*
X148224000Y-58563536D01*
X148082810Y-58590103D01*
X147953135Y-58673546D01*
X147866141Y-58800866D01*
X147835536Y-58952000D01*
X147835536Y-59952000D01*
X147862103Y-60093190D01*
X147945546Y-60222865D01*
X148072866Y-60309859D01*
X148224000Y-60340464D01*
X150224000Y-60340464D01*
X150365190Y-60313897D01*
X150366822Y-60312847D01*
X150342726Y-60370876D01*
X150342564Y-60556936D01*
X150317109Y-60582391D01*
X150224000Y-60563536D01*
X148224000Y-60563536D01*
X148082810Y-60590103D01*
X147953135Y-60673546D01*
X147866141Y-60800866D01*
X147835536Y-60952000D01*
X147835536Y-61487018D01*
X142672256Y-61448978D01*
X142709774Y-61358624D01*
X142710025Y-61070639D01*
X142664310Y-60960000D01*
X145288000Y-60960000D01*
X145482403Y-60921331D01*
X145647210Y-60811210D01*
X146806525Y-59651895D01*
X146955361Y-59652025D01*
X147221521Y-59542050D01*
X147425335Y-59338592D01*
X147535774Y-59072624D01*
X147536025Y-58784639D01*
X147426050Y-58518479D01*
X147222592Y-58314665D01*
X146956624Y-58204226D01*
X146668639Y-58203975D01*
X146557540Y-58249880D01*
X147784420Y-57023000D01*
X147835536Y-57023000D01*
X147835536Y-57952000D01*
G36*
X135416979Y-42883450D02*
X135213165Y-43086908D01*
X135102726Y-43352876D01*
X135102595Y-43502984D01*
X134899440Y-43706140D01*
X134899525Y-43608139D01*
X134789550Y-43341979D01*
X134586092Y-43138165D01*
X134320124Y-43027726D01*
X134032139Y-43027475D01*
X133765979Y-43137450D01*
X133562165Y-43340908D01*
X133451726Y-43606876D01*
X133451484Y-43884096D01*
X131323475Y-46012105D01*
X131174639Y-46011975D01*
X130908479Y-46121950D01*
X130704665Y-46325408D01*
X130594226Y-46591376D01*
X130593975Y-46879361D01*
X130703950Y-47145521D01*
X130907408Y-47349335D01*
X131153895Y-47451685D01*
X130243975Y-48361605D01*
X130233015Y-48361595D01*
X127152340Y-45280920D01*
X127152525Y-45068639D01*
X127054335Y-44831000D01*
X131064000Y-44831000D01*
X131307004Y-44782664D01*
X131513013Y-44645013D01*
X133359026Y-42799000D01*
X135621364Y-42799000D01*
X135416979Y-42883450D01*
X135416979Y-42883450D01*
G37*
X135416979Y-42883450D02*
X135213165Y-43086908D01*
X135102726Y-43352876D01*
X135102595Y-43502984D01*
X134899440Y-43706140D01*
X134899525Y-43608139D01*
X134789550Y-43341979D01*
X134586092Y-43138165D01*
X134320124Y-43027726D01*
X134032139Y-43027475D01*
X133765979Y-43137450D01*
X133562165Y-43340908D01*
X133451726Y-43606876D01*
X133451484Y-43884096D01*
X131323475Y-46012105D01*
X131174639Y-46011975D01*
X130908479Y-46121950D01*
X130704665Y-46325408D01*
X130594226Y-46591376D01*
X130593975Y-46879361D01*
X130703950Y-47145521D01*
X130907408Y-47349335D01*
X131153895Y-47451685D01*
X130243975Y-48361605D01*
X130233015Y-48361595D01*
X127152340Y-45280920D01*
X127152525Y-45068639D01*
X127054335Y-44831000D01*
X131064000Y-44831000D01*
X131307004Y-44782664D01*
X131513013Y-44645013D01*
X133359026Y-42799000D01*
X135621364Y-42799000D01*
X135416979Y-42883450D01*
M02*
