G04 #@! TF.FileFunction,Soldermask,Bot*
%FSLAX46Y46*%
G04 Gerber Fmt 4.6, Leading zero omitted, Abs format (unit mm)*
G04 Created by KiCad (PCBNEW 4.0.7+dfsg1-1~bpo9+1) date Thu Mar 15 23:06:16 2018*
%MOMM*%
%LPD*%
G01*
G04 APERTURE LIST*
%ADD10C,0.100000*%
%ADD11C,6.496000*%
%ADD12R,2.100000X2.100000*%
%ADD13O,2.100000X2.100000*%
%ADD14C,2.100000*%
%ADD15R,3.000000X3.000000*%
%ADD16C,3.000000*%
%ADD17R,2.400000X1.400000*%
G04 APERTURE END LIST*
D10*
D11*
X103200200Y-38760400D03*
D12*
X168656000Y-61468000D03*
D13*
X168656000Y-58928000D03*
X168656000Y-56388000D03*
X168656000Y-53848000D03*
X168656000Y-51308000D03*
X168656000Y-48768000D03*
D14*
X152298400Y-53365400D03*
D12*
X116840000Y-38100000D03*
D13*
X119380000Y-38100000D03*
X121920000Y-38100000D03*
X124460000Y-38100000D03*
D12*
X149860000Y-76200000D03*
D13*
X149860000Y-73660000D03*
X152400000Y-76200000D03*
X152400000Y-73660000D03*
X154940000Y-76200000D03*
X154940000Y-73660000D03*
D15*
X165100000Y-43180000D03*
D16*
X165100000Y-38180000D03*
D15*
X104394000Y-56134000D03*
D16*
X104394000Y-61134000D03*
D12*
X162560000Y-76200000D03*
D13*
X162560000Y-73660000D03*
X165100000Y-76200000D03*
X165100000Y-73660000D03*
X167640000Y-76200000D03*
X167640000Y-73660000D03*
D12*
X116840000Y-40640000D03*
D13*
X119380000Y-40640000D03*
X121920000Y-40640000D03*
X124460000Y-40640000D03*
D15*
X104394000Y-44704000D03*
D16*
X104394000Y-49704000D03*
D12*
X134620000Y-76200000D03*
D13*
X134620000Y-73660000D03*
X137160000Y-76200000D03*
X137160000Y-73660000D03*
X139700000Y-76200000D03*
X139700000Y-73660000D03*
X142240000Y-76200000D03*
X142240000Y-73660000D03*
D17*
X133224000Y-67452000D03*
X133224000Y-65452000D03*
X133224000Y-63452000D03*
X133224000Y-61452000D03*
X133224000Y-59452000D03*
X133224000Y-57452000D03*
X133224000Y-55452000D03*
X133224000Y-53452000D03*
X149224000Y-53452000D03*
X149224000Y-55452000D03*
X149224000Y-57452000D03*
X149224000Y-59452000D03*
X149224000Y-61452000D03*
X149224000Y-63452000D03*
X149224000Y-65452000D03*
X149224000Y-67452000D03*
D11*
X116332000Y-74676000D03*
X168148000Y-67564000D03*
X155956000Y-39116000D03*
D12*
X140766800Y-50038000D03*
D13*
X140766800Y-47498000D03*
D14*
X108100000Y-73588000D03*
X101600000Y-73588000D03*
X108100000Y-69088000D03*
X101600000Y-69088000D03*
M02*
