M48
;DRILL file {KiCad 4.0.7+dfsg1-1~bpo9+1} date Thu Mar 15 23:06:52 2018
;FORMAT={-:-/ absolute / inch / decimal}
FMAT,2
INCH,TZ
T1C0.012
T2C0.016
T3C0.039
T4C0.051
T5C0.126
%
G90
G05
M72
T1
X3.971Y-2.3
X3.98Y-1.841
X4.Y-3.
X4.05Y-2.575
X4.267Y-1.899
X4.268Y-2.089
X4.268Y-2.32
X4.27Y-1.51
X4.325Y-3.
X4.375Y-1.825
X4.375Y-1.9
X4.375Y-1.975
X4.38Y-2.82
X4.425Y-1.8
X4.44Y-1.673
X4.512Y-2.301
X4.512Y-2.741
X4.55Y-1.8
X4.553Y-2.025
X4.556Y-2.093
X4.612Y-2.211
X4.63Y-1.79
X4.72Y-1.79
X4.762Y-2.381
X4.83Y-1.79
X4.83Y-2.31
X4.84Y-2.2
X4.85Y-2.85
X4.85Y-3.
X4.91Y-1.79
X4.94Y-2.01
X4.95Y-2.31
X5.03Y-2.01
X5.055Y-2.528
X5.06Y-1.79
X5.06Y-1.92
X5.06Y-2.31
X5.12Y-1.52
X5.125Y-2.85
X5.125Y-3.
X5.13Y-1.99
X5.15Y-2.06
X5.15Y-2.386
X5.154Y-2.144
X5.28Y-2.78
X5.3Y-1.48
X5.34Y-2.02
X5.35Y-2.7
X5.447Y-1.9
X5.45Y-2.38
X5.45Y-2.8
X5.452Y-1.712
X5.538Y-2.076
X5.55Y-2.55
X5.55Y-2.8
X5.5681Y-2.2099
X5.589Y-1.726
X5.6521Y-2.2969
X5.657Y-1.938
X5.66Y-2.76
X5.7Y-1.54
X5.7Y-2.875
X5.71Y-2.53
X5.76Y-2.78
X5.775Y-2.95
X5.7851Y-2.0139
X5.797Y-2.368
X5.8Y-3.025
X5.8051Y-2.1339
X5.86Y-1.48
X5.869Y-1.779
X5.976Y-2.034
X5.986Y-2.184
X5.986Y-2.685
X5.998Y-2.816
X6.043Y-2.184
X6.046Y-2.034
X6.091Y-1.901
X6.096Y-2.064
X6.096Y-2.124
X6.096Y-2.184
X6.102Y-2.391
X6.116Y-2.275
X6.14Y-2.71
X6.1491Y-1.8398
X6.25Y-2.94
X6.31Y-2.71
X6.36Y-1.5
X6.36Y-1.74
X6.41Y-2.58
X6.47Y-2.2
X6.6393Y-1.6134
X6.71Y-2.85
T2
X4.577Y-2.413
X4.67Y-2.035
X4.746Y-2.043
X4.781Y-2.053
X4.9775Y-1.78
X5.11Y-2.3025
X5.1275Y-1.9325
X5.17Y-1.84
X5.2825Y-1.7225
X5.3275Y-2.44
X5.3475Y-1.7125
X5.4375Y-2.735
X5.484Y-2.338
X5.486Y-2.294
X5.51Y-2.26
X5.51Y-2.38
X5.51Y-2.4425
X5.5175Y-2.2125
X5.5425Y-2.4675
X5.5575Y-2.6775
X5.565Y-2.7425
X5.59Y-2.41
X5.697Y-2.1
X5.6975Y-2.635
X5.74Y-2.6675
X5.75Y-2.5675
X5.78Y-2.32
X5.805Y-2.62
X5.8825Y-2.7675
X5.94Y-1.54
X5.94Y-1.72
X5.9475Y-2.3825
X5.975Y-2.46
X5.98Y-2.28
X6.0075Y-2.7675
X6.03Y-2.38
X6.0325Y-2.27
X6.0675Y-2.7975
X6.18Y-2.66
X6.2Y-2.16
X6.26Y-2.325
X6.29Y-2.37
X6.335Y-2.615
X6.38Y-1.62
X6.3975Y-2.765
X6.4Y-1.96
T3
X4.Y-2.72
X4.Y-2.8972
X4.2559Y-2.72
X4.2559Y-2.8972
X4.6Y-1.5
X4.6Y-1.6
X4.7Y-1.5
X4.7Y-1.6
X4.8Y-1.5
X4.8Y-1.6
X4.9Y-1.5
X4.9Y-1.6
X5.3Y-2.9
X5.3Y-3.
X5.4Y-2.9
X5.4Y-3.
X5.5Y-2.9
X5.5Y-3.
X5.542Y-1.87
X5.542Y-1.97
X5.6Y-2.9
X5.6Y-3.
X5.9Y-2.9
X5.9Y-3.
X5.996Y-2.101
X6.Y-2.9
X6.Y-3.
X6.1Y-2.9
X6.1Y-3.
X6.4Y-2.9
X6.4Y-3.
X6.5Y-2.9
X6.5Y-3.
X6.6Y-2.9
X6.6Y-3.
X6.64Y-1.92
X6.64Y-2.02
X6.64Y-2.12
X6.64Y-2.22
X6.64Y-2.32
X6.64Y-2.42
T4
X4.11Y-1.76
X4.11Y-1.9569
X4.11Y-2.21
X4.11Y-2.4069
X6.5Y-1.5031
X6.5Y-1.7
T5
X4.063Y-1.526
X4.58Y-2.94
X6.14Y-1.54
X6.62Y-2.66
T0
M30
