<svg id="Layer_1" data-name="Layer 1" xmlns="http://www.w3.org/2000/svg" viewBox="0 0 254.56 224.85"><defs><style>.cls-1{fill:#fff;}</style></defs><title>buyNow-Distribution-icon</title><circle class="cls-1" cx="134.7" cy="78.88" r="33.8"/><path class="cls-1" d="M182.31,92.83L213.24,75A21,21,0,1,0,208,67.33L177.21,85.12A36.33,36.33,0,0,1,182.31,92.83Z" transform="translate(-15 -29.91)"/><path class="cls-1" d="M248.56,151.3a20.92,20.92,0,0,0-14.16,5.5L183,123.15a36.26,36.26,0,0,1-4.71,7.94l50.78,33.27A21,21,0,1,0,248.56,151.3Z" transform="translate(-15 -29.91)"/><path class="cls-1" d="M130.75,139.74l-27.95,73.2a21,21,0,1,0,8.65,3.2l27.72-72.62A36.1,36.1,0,0,1,130.75,139.74Z" transform="translate(-15 -29.91)"/><path class="cls-1" d="M113.52,111.47L55,126a21,21,0,1,0,2,9l58.36-14.53A36.12,36.12,0,0,1,113.52,111.47Z" transform="translate(-15 -29.91)"/><path class="cls-1" d="M73.9,71.91A20.9,20.9,0,0,0,86,68.07l32.89,21.55a36.46,36.46,0,0,1,5.87-7.18L92.24,61.14A21,21,0,1,0,73.9,71.91Z" transform="translate(-15 -29.91)"/></svg>